<?xml version="1.0" encoding="utf-8"?>
<!-- Generator: Adobe Illustrator 24.0.0, SVG Export Plug-In . SVG Version: 6.00 Build 0)  -->
<svg version="1.1" id="Layer_1" xmlns="http://www.w3.org/2000/svg" xmlns:xlink="http://www.w3.org/1999/xlink" x="0px" y="0px"
	 viewBox="0 0 661.33 624.11" style="enable-background:new 0 0 661.33 624.11;" xml:space="preserve">
<style type="text/css">
	.st0{clip-path:url(#SVGID_2_);fill:url(#SVGID_3_);}
	.st1{clip-path:url(#SVGID_5_);fill:url(#SVGID_6_);}
	.st2{clip-path:url(#SVGID_8_);fill:url(#SVGID_9_);}
	.st3{clip-path:url(#SVGID_11_);fill:url(#SVGID_12_);}
	.st4{fill:#FFFFFF;}
	.st5{fill:#7DFE7A;}
	.st6{font-family:'Heavitas';}
	.st7{font-size:151.4903px;}
</style>
<g>
	<g>
		<g>
			<g>
				<g>
					<g>
						<g>
							<g>
								<g>
									<g>
										<g>
											<g>
												<defs>
													<path id="SVGID_1_" d="M458.61,48.63h-79.6h-126h-57.4c-12.1,0-22.2,9.8-21.9,22c0.2,11.7,9.8,21.1,21.5,21.1h70.2h4.9
														c12.1,0,22.2,9.8,21.9,22c-0.2,11.7-9.8,21.1-21.5,21.1h-43.1h-6.3c-12.1,0-22.2,9.8-21.9,22
														c0.2,11.7,9.8,21.1,21.5,21.1h6.7h0.8c12.1,0,22.2,9.8,21.9,22c-0.2,11.7-9.8,21.1-21.5,21.1h-24.1h-81.2
														c-12.1,0-22.2,9.8-21.9,22c0.2,11.7,9.8,21.1,21.5,21.1h81.6h94.1c12.1,0,22.2,9.8,21.9,22
														c-0.2,11.7-9.8,21.1-21.5,21.1h-41l0,0c-12.1,0-22.2,9.8-21.9,22c0.2,11.7,9.8,21.1,21.5,21.1l23.9-0.3l0,0h178
														c82.9,0,150.1-66.9,150.6-149.6C610.81,116.83,542.01,48.63,458.61,48.63z"/>
												</defs>
												<clipPath id="SVGID_2_">
													<use xlink:href="#SVGID_1_"  style="overflow:visible;"/>
												</clipPath>
												
													<linearGradient id="SVGID_3_" gradientUnits="userSpaceOnUse" x1="42.5314" y1="-118.2208" x2="625.1313" y2="-118.2208" gradientTransform="matrix(1 0 0 1 0 322)">
													<stop  offset="0" style="stop-color:#10FECC"/>
													<stop  offset="0.2091" style="stop-color:#39FEAD"/>
													<stop  offset="0.6761" style="stop-color:#A0FF61"/>
													<stop  offset="1" style="stop-color:#EBFF29"/>
												</linearGradient>
												<rect x="42.53" y="34.58" class="st0" width="582.6" height="338.4"/>
											</g>
										</g>
									</g>
								</g>
							</g>
						</g>
					</g>
					<g>
						<g>
							<g>
								<g>
									<g>
										<g>
											<g>
												<defs>
													<path id="SVGID_4_" d="M197.81,350.03h-51.8c-10.3,0-18.7-8.4-18.7-18.7v-5.2c0-10.3,8.4-18.7,18.7-18.7h51.8
														c10.3,0,18.7,8.4,18.7,18.7v5.2C216.51,341.63,208.11,350.03,197.81,350.03z"/>
												</defs>
												<clipPath id="SVGID_5_">
													<use xlink:href="#SVGID_4_"  style="overflow:visible;"/>
												</clipPath>
												
													<linearGradient id="SVGID_6_" gradientUnits="userSpaceOnUse" x1="42.6148" y1="-117.9735" x2="625.2148" y2="-117.9735" gradientTransform="matrix(1 0 0 1 0 322)">
													<stop  offset="0" style="stop-color:#10FECC"/>
													<stop  offset="0.2091" style="stop-color:#39FEAD"/>
													<stop  offset="0.6761" style="stop-color:#A0FF61"/>
													<stop  offset="1" style="stop-color:#EBFF29"/>
												</linearGradient>
												<rect x="42.61" y="34.83" class="st1" width="582.6" height="338.4"/>
											</g>
										</g>
									</g>
								</g>
							</g>
						</g>
					</g>
					<g>
						<g>
							<g>
								<g>
									<g>
										<g>
											<g>
												<defs>
													<path id="SVGID_7_" d="M102.61,177.63h-32.9c-10.3,0-18.7-8.4-18.7-18.7v-5.2c0-10.3,8.4-18.7,18.7-18.7h32.9
														c10.3,0,18.7,8.4,18.7,18.7v5.2C121.41,169.33,113.01,177.63,102.61,177.63z"/>
												</defs>
												<clipPath id="SVGID_8_">
													<use xlink:href="#SVGID_7_"  style="overflow:visible;"/>
												</clipPath>
												
													<linearGradient id="SVGID_9_" gradientUnits="userSpaceOnUse" x1="41.0148" y1="-116.1735" x2="623.6149" y2="-116.1735" gradientTransform="matrix(1 0 0 1 0 322)">
													<stop  offset="0" style="stop-color:#10FECC"/>
													<stop  offset="0.2091" style="stop-color:#39FEAD"/>
													<stop  offset="0.6761" style="stop-color:#A0FF61"/>
													<stop  offset="1" style="stop-color:#EBFF29"/>
												</linearGradient>
												<rect x="41.01" y="36.63" class="st2" width="582.6" height="338.4"/>
											</g>
										</g>
									</g>
								</g>
							</g>
						</g>
					</g>
					<g>
						<g>
							<g>
								<g>
									<g>
										<g>
											<g>
												<defs>
													<path id="SVGID_10_" d="M159.41,177.63h0.1c-11.8,0-21.3-9.6-21.3-21.3l0,0c0-11.8,9.6-21.3,21.3-21.3h-0.1
														c11.8,0,21.3,9.6,21.3,21.3l0,0C180.81,168.13,171.21,177.63,159.41,177.63z"/>
												</defs>
												<clipPath id="SVGID_11_">
													<use xlink:href="#SVGID_10_"  style="overflow:visible;"/>
												</clipPath>
												
													<linearGradient id="SVGID_12_" gradientUnits="userSpaceOnUse" x1="42.6148" y1="-117.9735" x2="625.2148" y2="-117.9735" gradientTransform="matrix(1 0 0 1 0 322)">
													<stop  offset="0" style="stop-color:#10FECC"/>
													<stop  offset="0.2091" style="stop-color:#39FEAD"/>
													<stop  offset="0.6761" style="stop-color:#A0FF61"/>
													<stop  offset="1" style="stop-color:#EBFF29"/>
												</linearGradient>
												<rect x="42.61" y="34.83" class="st3" width="582.6" height="338.4"/>
											</g>
										</g>
									</g>
								</g>
							</g>
						</g>
					</g>
				</g>
			</g>
		</g>
		<g>
			<g>
				<path class="st4" d="M388.01,264.03c-11.9,0-21.5,9.7-21.5,21.6s9.7,21.6,21.6,21.6h64.9c2.2,0.1,4.3,0.2,6.5,0.2
					c59.7,0,108-48.4,108-108s-48.4-108-108-108c-1.8,0-3.6,0-5.3,0.1v-0.2h-106.7c-11.9,0-21.6,9.7-21.6,21.6
					c0,11.9,9.7,21.6,21.6,21.6h25.6h8.4c11.9,0,21.6,9.7,21.6,21.6s-9.7,21.6-21.6,21.6h-27.9h-35c-11.9,0-21.6,9.7-21.6,21.6
					s9.7,21.6,21.6,21.6h35.1h61.2c11.9,0,21.6,9.7,21.6,21.6s-9.7,21.6-21.6,21.6L388.01,264.03z"/>
			</g>
		</g>
	</g>
</g>
<g>
	<text transform="matrix(0.8616 0 0 1 51.0173 556.6609)" class="st5 st6 st7">RASTRO</text>
</g>
</svg>
