<svg id="Layer_1" xmlns="http://www.w3.org/2000/svg" xmlns:xlink="http://www.w3.org/1999/xlink" viewBox="0 0 603 355" style="enable-background:new 0 0 603 355"><style>.st0{clip-path:url(#SVGID_34_);fill:#232323}.st1{clip-path:url(#SVGID_36_);fill:#232323}.st2{clip-path:url(#SVGID_38_);fill:#232323}.st3{clip-path:url(#SVGID_40_);fill:#232323}.st4{fill:#fff}</style><g><g><g><g><g><defs><path id="SVGID_1_" d="M430.5 22.5h-79.3H221.6h-58.4c-10.4.0-20.1 6.6-22.6 16.7-3.5 14.6 7.5 27.6 21.5 27.6h72.2 4.4c10.4.0 20.1 6.6 22.6 16.7 3.5 14.6-7.5 27.6-21.5 27.6h-44.3-5.9c-10.4.0-20.1 6.6-22.6 16.7-3.5 14.6 7.5 27.6 21.5 27.6h6.9.9c8.9.0 17.6 5 20.8 13.3 6.2 15.9-5.3 31-20.4 31H172 89.2c-10.4.0-20.1 6.6-22.6 16.7-3.5 14.6 7.5 27.6 21.5 27.6H172h96.1c10.4.0 20.1 6.6 22.6 16.7 3.5 14.6-7.5 27.6-21.5 27.6H227v0c-8.9.0-17.6 5-20.8 13.3-6.2 15.9 5.4 31 20.4 31h24.6v-.3h183c90.1.0 162.3-77 154.3-168.8C581.6 85.7 508.5 22.5 430.5 22.5z"/></defs><clipPath id="SVGID_2_"><use xlink:href="#SVGID_1_" style="overflow:visible"/></clipPath></g><g><defs><path id="SVGID_3_" d="M162.2 332.3h-47.9c-12.1.0-21.9-9.8-21.9-21.9v0c0-12.1 9.8-21.9 21.9-21.9h47.9c12.1.0 21.9 9.8 21.9 21.9v0C184.2 322.5 174.4 332.3 162.2 332.3z"/></defs><clipPath id="SVGID_4_"><use xlink:href="#SVGID_3_" style="overflow:visible"/></clipPath></g><g><defs><path id="SVGID_5_" d="M64.4 155.1H35.9c-12.1.0-21.9-9.8-21.9-21.9v0c0-12.1 9.8-21.9 21.9-21.9h28.4c12.1.0 21.9 9.8 21.9 21.9v0C86.3 145.3 76.5 155.1 64.4 155.1z"/></defs><clipPath id="SVGID_6_"><use xlink:href="#SVGID_5_" style="overflow:visible"/></clipPath></g><g><defs><path id="SVGID_7_" d="M125.5 155.1h.1c-12.1.0-21.9-9.8-21.9-21.9v0c0-12.1 9.8-21.9 21.9-21.9h-.1c12.1.0 21.9 9.8 21.9 21.9v0C147.4 145.3 137.6 155.1 125.5 155.1z"/></defs><clipPath id="SVGID_8_"><use xlink:href="#SVGID_7_" style="overflow:visible"/></clipPath></g></g><g><g><defs><path id="SVGID_9_" d="M430.5 22.5h-79.3H221.6h-58.4c-10.4.0-20.1 6.6-22.6 16.7-3.5 14.6 7.5 27.6 21.5 27.6h72.2 4.4c10.4.0 20.1 6.6 22.6 16.7 3.5 14.6-7.5 27.6-21.5 27.6h-44.3-5.9c-10.4.0-20.1 6.6-22.6 16.7-3.5 14.6 7.5 27.6 21.5 27.6h6.9.9c8.9.0 17.6 5 20.8 13.3 6.2 15.9-5.3 31-20.4 31H172 89.2c-10.4.0-20.1 6.6-22.6 16.7-3.5 14.6 7.5 27.6 21.5 27.6H172h96.1c10.4.0 20.1 6.6 22.6 16.7 3.5 14.6-7.5 27.6-21.5 27.6H227v0c-8.9.0-17.6 5-20.8 13.3-6.2 15.9 5.4 31 20.4 31h24.6v-.3h183c90.1.0 162.3-77 154.3-168.8C581.6 85.7 508.5 22.5 430.5 22.5z"/></defs><clipPath id="SVGID_10_"><use xlink:href="#SVGID_9_" style="overflow:visible"/></clipPath></g><g><defs><path id="SVGID_11_" d="M162.2 332.3h-47.9c-12.1.0-21.9-9.8-21.9-21.9v0c0-12.1 9.8-21.9 21.9-21.9h47.9c12.1.0 21.9 9.8 21.9 21.9v0C184.2 322.5 174.4 332.3 162.2 332.3z"/></defs><clipPath id="SVGID_12_"><use xlink:href="#SVGID_11_" style="overflow:visible"/></clipPath></g><g><defs><path id="SVGID_13_" d="M64.4 155.1H35.9c-12.1.0-21.9-9.8-21.9-21.9v0c0-12.1 9.8-21.9 21.9-21.9h28.4c12.1.0 21.9 9.8 21.9 21.9v0C86.3 145.3 76.5 155.1 64.4 155.1z"/></defs><clipPath id="SVGID_14_"><use xlink:href="#SVGID_13_" style="overflow:visible"/></clipPath></g><g><defs><path id="SVGID_15_" d="M125.5 155.1h.1c-12.1.0-21.9-9.8-21.9-21.9v0c0-12.1 9.8-21.9 21.9-21.9h-.1c12.1.0 21.9 9.8 21.9 21.9v0C147.4 145.3 137.6 155.1 125.5 155.1z"/></defs><clipPath id="SVGID_16_"><use xlink:href="#SVGID_15_" style="overflow:visible"/></clipPath></g></g><g><g><defs><path id="SVGID_17_" d="M430.5 22.5h-79.3H221.6h-58.4c-10.4.0-20.1 6.6-22.6 16.7-3.5 14.6 7.5 27.6 21.5 27.6h72.2 4.4c10.4.0 20.1 6.6 22.6 16.7 3.5 14.6-7.5 27.6-21.5 27.6h-44.3-5.9c-10.4.0-20.1 6.6-22.6 16.7-3.5 14.6 7.5 27.6 21.5 27.6h6.9.9c8.9.0 17.6 5 20.8 13.3 6.2 15.9-5.3 31-20.4 31H172 89.2c-10.4.0-20.1 6.6-22.6 16.7-3.5 14.6 7.5 27.6 21.5 27.6H172h96.1c10.4.0 20.1 6.6 22.6 16.7 3.5 14.6-7.5 27.6-21.5 27.6H227v0c-8.9.0-17.6 5-20.8 13.3-6.2 15.9 5.4 31 20.4 31h24.6v-.3h183c90.1.0 162.3-77 154.3-168.8C581.6 85.7 508.5 22.5 430.5 22.5z"/></defs><clipPath id="SVGID_18_"><use xlink:href="#SVGID_17_" style="overflow:visible"/></clipPath></g><g><defs><path id="SVGID_19_" d="M162.2 332.3h-47.9c-12.1.0-21.9-9.8-21.9-21.9v0c0-12.1 9.8-21.9 21.9-21.9h47.9c12.1.0 21.9 9.8 21.9 21.9v0C184.2 322.5 174.4 332.3 162.2 332.3z"/></defs><clipPath id="SVGID_20_"><use xlink:href="#SVGID_19_" style="overflow:visible"/></clipPath></g><g><defs><path id="SVGID_21_" d="M64.4 155.1H35.9c-12.1.0-21.9-9.8-21.9-21.9v0c0-12.1 9.8-21.9 21.9-21.9h28.4c12.1.0 21.9 9.8 21.9 21.9v0C86.3 145.3 76.5 155.1 64.4 155.1z"/></defs><clipPath id="SVGID_22_"><use xlink:href="#SVGID_21_" style="overflow:visible"/></clipPath></g><g><defs><path id="SVGID_23_" d="M125.5 155.1h.1c-12.1.0-21.9-9.8-21.9-21.9v0c0-12.1 9.8-21.9 21.9-21.9h-.1c12.1.0 21.9 9.8 21.9 21.9v0C147.4 145.3 137.6 155.1 125.5 155.1z"/></defs><clipPath id="SVGID_24_"><use xlink:href="#SVGID_23_" style="overflow:visible"/></clipPath></g></g></g></g><g><g><g><g><defs><path id="SVGID_25_" d="M430.5 22.5h-79.3H221.6h-58.4c-10.4.0-20.1 6.6-22.6 16.7-3.5 14.6 7.5 27.6 21.5 27.6h72.2 4.4c10.4.0 20.1 6.6 22.6 16.7 3.5 14.6-7.5 27.6-21.5 27.6h-44.3-5.9c-10.4.0-20.1 6.6-22.6 16.7-3.5 14.6 7.5 27.6 21.5 27.6h6.9.9c8.9.0 17.6 5 20.8 13.3 6.2 15.9-5.3 31-20.4 31H172 89.2c-10.4.0-20.1 6.6-22.6 16.7-3.5 14.6 7.5 27.6 21.5 27.6H172h96.1c10.4.0 20.1 6.6 22.6 16.7 3.5 14.6-7.5 27.6-21.5 27.6H227v0c-8.9.0-17.6 5-20.8 13.3-6.2 15.9 5.4 31 20.4 31h24.6v-.3h183c90.1.0 162.3-77 154.3-168.8C581.6 85.7 508.5 22.5 430.5 22.5z"/></defs><clipPath id="SVGID_26_"><use xlink:href="#SVGID_25_" style="overflow:visible"/></clipPath></g><g><defs><path id="SVGID_27_" d="M162.2 332.3h-47.9c-12.1.0-21.9-9.8-21.9-21.9v0c0-12.1 9.8-21.9 21.9-21.9h47.9c12.1.0 21.9 9.8 21.9 21.9v0C184.2 322.5 174.4 332.3 162.2 332.3z"/></defs><clipPath id="SVGID_28_"><use xlink:href="#SVGID_27_" style="overflow:visible"/></clipPath></g><g><defs><path id="SVGID_29_" d="M64.4 155.1H35.9c-12.1.0-21.9-9.8-21.9-21.9v0c0-12.1 9.8-21.9 21.9-21.9h28.4c12.1.0 21.9 9.8 21.9 21.9v0C86.3 145.3 76.5 155.1 64.4 155.1z"/></defs><clipPath id="SVGID_30_"><use xlink:href="#SVGID_29_" style="overflow:visible"/></clipPath></g><g><defs><path id="SVGID_31_" d="M125.5 155.1h.1c-12.1.0-21.9-9.8-21.9-21.9v0c0-12.1 9.8-21.9 21.9-21.9h-.1c12.1.0 21.9 9.8 21.9 21.9v0C147.4 145.3 137.6 155.1 125.5 155.1z"/></defs><clipPath id="SVGID_32_"><use xlink:href="#SVGID_31_" style="overflow:visible"/></clipPath></g></g><g><g><defs><path id="SVGID_33_" d="M430.5 22.5h-79.3H221.6h-58.4c-10.4.0-20.1 6.6-22.6 16.7-3.5 14.6 7.5 27.6 21.5 27.6h72.2 4.4c10.4.0 20.1 6.6 22.6 16.7 3.5 14.6-7.5 27.6-21.5 27.6h-44.3-5.9c-10.4.0-20.1 6.6-22.6 16.7-3.5 14.6 7.5 27.6 21.5 27.6h6.9.9c8.9.0 17.6 5 20.8 13.3 6.2 15.9-5.3 31-20.4 31H172 89.2c-10.4.0-20.1 6.6-22.6 16.7-3.5 14.6 7.5 27.6 21.5 27.6H172h96.1c10.4.0 20.1 6.6 22.6 16.7 3.5 14.6-7.5 27.6-21.5 27.6H227v0c-8.9.0-17.6 5-20.8 13.3-6.2 15.9 5.4 31 20.4 31h24.6v-.3h183c90.1.0 162.3-77 154.3-168.8C581.6 85.7 508.5 22.5 430.5 22.5z"/></defs><use xlink:href="#SVGID_33_" style="overflow:visible;fill:#232323"/><clipPath id="SVGID_34_"><use xlink:href="#SVGID_33_" style="overflow:visible"/></clipPath><path class="st0" d="M5.3 8.3h599v347.9H5.3z"/></g><g><defs><path id="SVGID_35_" d="M162.2 332.3h-47.9c-12.1.0-21.9-9.8-21.9-21.9v0c0-12.1 9.8-21.9 21.9-21.9h47.9c12.1.0 21.9 9.8 21.9 21.9v0C184.2 322.5 174.4 332.3 162.2 332.3z"/></defs><use xlink:href="#SVGID_35_" style="overflow:visible;fill:#232323"/><clipPath id="SVGID_36_"><use xlink:href="#SVGID_35_" style="overflow:visible"/></clipPath><path class="st1" d="M5.3 8.3h599v347.9H5.3z"/></g><g><defs><path id="SVGID_37_" d="M64.4 155.1H35.9c-12.1.0-21.9-9.8-21.9-21.9v0c0-12.1 9.8-21.9 21.9-21.9h28.4c12.1.0 21.9 9.8 21.9 21.9v0C86.3 145.3 76.5 155.1 64.4 155.1z"/></defs><use xlink:href="#SVGID_37_" style="overflow:visible;fill:#232323"/><clipPath id="SVGID_38_"><use xlink:href="#SVGID_37_" style="overflow:visible"/></clipPath><path class="st2" d="M3.7 10.1h599V358H3.7z"/></g><g><defs><path id="SVGID_39_" d="M125.5 155.1h.1c-12.1.0-21.9-9.8-21.9-21.9v0c0-12.1 9.8-21.9 21.9-21.9h-.1c12.1.0 21.9 9.8 21.9 21.9v0C147.4 145.3 137.6 155.1 125.5 155.1z"/></defs><use xlink:href="#SVGID_39_" style="overflow:visible;fill:#232323"/><clipPath id="SVGID_40_"><use xlink:href="#SVGID_39_" style="overflow:visible"/></clipPath><path class="st3" d="M5.3 8.3h599v347.9H5.3z"/></g></g><g><g><defs><path id="SVGID_41_" d="M430.5 22.5h-79.3H221.6h-58.4c-10.4.0-20.1 6.6-22.6 16.7-3.5 14.6 7.5 27.6 21.5 27.6h72.2 4.4c10.4.0 20.1 6.6 22.6 16.7 3.5 14.6-7.5 27.6-21.5 27.6h-44.3-5.9c-10.4.0-20.1 6.6-22.6 16.7-3.5 14.6 7.5 27.6 21.5 27.6h6.9.9c8.9.0 17.6 5 20.8 13.3 6.2 15.9-5.3 31-20.4 31H172 89.2c-10.4.0-20.1 6.6-22.6 16.7-3.5 14.6 7.5 27.6 21.5 27.6H172h96.1c10.4.0 20.1 6.6 22.6 16.7 3.5 14.6-7.5 27.6-21.5 27.6H227v0c-8.9.0-17.6 5-20.8 13.3-6.2 15.9 5.4 31 20.4 31h24.6v-.3h183c90.1.0 162.3-77 154.3-168.8C581.6 85.7 508.5 22.5 430.5 22.5z"/></defs><clipPath id="SVGID_42_"><use xlink:href="#SVGID_41_" style="overflow:visible"/></clipPath></g><g><defs><path id="SVGID_43_" d="M162.2 332.3h-47.9c-12.1.0-21.9-9.8-21.9-21.9v0c0-12.1 9.8-21.9 21.9-21.9h47.9c12.1.0 21.9 9.8 21.9 21.9v0C184.2 322.5 174.4 332.3 162.2 332.3z"/></defs><clipPath id="SVGID_44_"><use xlink:href="#SVGID_43_" style="overflow:visible"/></clipPath></g><g><defs><path id="SVGID_45_" d="M64.4 155.1H35.9c-12.1.0-21.9-9.8-21.9-21.9v0c0-12.1 9.8-21.9 21.9-21.9h28.4c12.1.0 21.9 9.8 21.9 21.9v0C86.3 145.3 76.5 155.1 64.4 155.1z"/></defs><clipPath id="SVGID_46_"><use xlink:href="#SVGID_45_" style="overflow:visible"/></clipPath></g><g><defs><path id="SVGID_47_" d="M125.5 155.1h.1c-12.1.0-21.9-9.8-21.9-21.9v0c0-12.1 9.8-21.9 21.9-21.9h-.1c12.1.0 21.9 9.8 21.9 21.9v0C147.4 145.3 137.6 155.1 125.5 155.1z"/></defs><clipPath id="SVGID_48_"><use xlink:href="#SVGID_47_" style="overflow:visible"/></clipPath></g></g></g><g><path class="st4" d="M360.5 243.9c-12.2.0-22.1 10-22.1 22.2.0 12.3 9.9 22.2 22.2 22.2h66.7c2.2.1 4.4.2 6.7.2 61.3.0 111.1-49.7 111.1-111.1S495.3 66.4 434 66.4c-1.8.0-3.7.1-5.5.1v-.1H318.8c-12.3.0-22.2 9.9-22.2 22.2.0 12.3 9.9 22.2 22.2 22.2h26.3 8.7c12.3.0 22.2 9.9 22.2 22.2.0 12.3-9.9 22.2-22.2 22.2h-28.7H289c-12.3.0-22.2 9.9-22.2 22.2.0 12.3 9.9 22.2 22.2 22.2h36.1H388c12.3.0 22.2 9.9 22.2 22.2.0 12.3-9.9 22.2-22.2 22.2L360.5 243.9z"/></g></g><g><g><g><g><defs><path id="SVGID_49_" d="M430.5 22.5h-79.3H221.6h-58.4c-10.4.0-20.1 6.6-22.6 16.7-3.5 14.6 7.5 27.6 21.5 27.6h72.2 4.4c10.4.0 20.1 6.6 22.6 16.7 3.5 14.6-7.5 27.6-21.5 27.6h-44.3-5.9c-10.4.0-20.1 6.6-22.6 16.7-3.5 14.6 7.5 27.6 21.5 27.6h6.9.9c8.9.0 17.6 5 20.8 13.3 6.2 15.9-5.3 31-20.4 31H172 89.2c-10.4.0-20.1 6.6-22.6 16.7-3.5 14.6 7.5 27.6 21.5 27.6H172h96.1c10.4.0 20.1 6.6 22.6 16.7 3.5 14.6-7.5 27.6-21.5 27.6H227v0c-8.9.0-17.6 5-20.8 13.3-6.2 15.9 5.4 31 20.4 31h24.6v-.3h183c90.1.0 162.3-77 154.3-168.8C581.6 85.7 508.5 22.5 430.5 22.5z"/></defs><clipPath id="SVGID_50_"><use xlink:href="#SVGID_49_" style="overflow:visible"/></clipPath></g><g><defs><path id="SVGID_51_" d="M162.2 332.3h-47.9c-12.1.0-21.9-9.8-21.9-21.9v0c0-12.1 9.8-21.9 21.9-21.9h47.9c12.1.0 21.9 9.8 21.9 21.9v0C184.2 322.5 174.4 332.3 162.2 332.3z"/></defs><clipPath id="SVGID_52_"><use xlink:href="#SVGID_51_" style="overflow:visible"/></clipPath></g><g><defs><path id="SVGID_53_" d="M64.4 155.1H35.9c-12.1.0-21.9-9.8-21.9-21.9v0c0-12.1 9.8-21.9 21.9-21.9h28.4c12.1.0 21.9 9.8 21.9 21.9v0C86.3 145.3 76.5 155.1 64.4 155.1z"/></defs><clipPath id="SVGID_54_"><use xlink:href="#SVGID_53_" style="overflow:visible"/></clipPath></g><g><defs><path id="SVGID_55_" d="M125.5 155.1h.1c-12.1.0-21.9-9.8-21.9-21.9v0c0-12.1 9.8-21.9 21.9-21.9h-.1c12.1.0 21.9 9.8 21.9 21.9v0C147.4 145.3 137.6 155.1 125.5 155.1z"/></defs><clipPath id="SVGID_56_"><use xlink:href="#SVGID_55_" style="overflow:visible"/></clipPath></g></g><g><g><defs><path id="SVGID_57_" d="M430.5 22.5h-79.3H221.6h-58.4c-10.4.0-20.1 6.6-22.6 16.7-3.5 14.6 7.5 27.6 21.5 27.6h72.2 4.4c10.4.0 20.1 6.6 22.6 16.7 3.5 14.6-7.5 27.6-21.5 27.6h-44.3-5.9c-10.4.0-20.1 6.6-22.6 16.7-3.5 14.6 7.5 27.6 21.5 27.6h6.9.9c8.9.0 17.6 5 20.8 13.3 6.2 15.9-5.3 31-20.4 31H172 89.2c-10.4.0-20.1 6.6-22.6 16.7-3.5 14.6 7.5 27.6 21.5 27.6H172h96.1c10.4.0 20.1 6.6 22.6 16.7 3.5 14.6-7.5 27.6-21.5 27.6H227v0c-8.9.0-17.6 5-20.8 13.3-6.2 15.9 5.4 31 20.4 31h24.6v-.3h183c90.1.0 162.3-77 154.3-168.8C581.6 85.7 508.5 22.5 430.5 22.5z"/></defs><clipPath id="SVGID_58_"><use xlink:href="#SVGID_57_" style="overflow:visible"/></clipPath></g><g><defs><path id="SVGID_59_" d="M162.2 332.3h-47.9c-12.1.0-21.9-9.8-21.9-21.9v0c0-12.1 9.8-21.9 21.9-21.9h47.9c12.1.0 21.9 9.8 21.9 21.9v0C184.2 322.5 174.4 332.3 162.2 332.3z"/></defs><clipPath id="SVGID_60_"><use xlink:href="#SVGID_59_" style="overflow:visible"/></clipPath></g><g><defs><path id="SVGID_61_" d="M64.4 155.1H35.9c-12.1.0-21.9-9.8-21.9-21.9v0c0-12.1 9.8-21.9 21.9-21.9h28.4c12.1.0 21.9 9.8 21.9 21.9v0C86.3 145.3 76.5 155.1 64.4 155.1z"/></defs><clipPath id="SVGID_62_"><use xlink:href="#SVGID_61_" style="overflow:visible"/></clipPath></g><g><defs><path id="SVGID_63_" d="M125.5 155.1h.1c-12.1.0-21.9-9.8-21.9-21.9v0c0-12.1 9.8-21.9 21.9-21.9h-.1c12.1.0 21.9 9.8 21.9 21.9v0C147.4 145.3 137.6 155.1 125.5 155.1z"/></defs><clipPath id="SVGID_64_"><use xlink:href="#SVGID_63_" style="overflow:visible"/></clipPath></g></g><g><g><defs><path id="SVGID_65_" d="M430.5 22.5h-79.3H221.6h-58.4c-10.4.0-20.1 6.6-22.6 16.7-3.5 14.6 7.5 27.6 21.5 27.6h72.2 4.4c10.4.0 20.1 6.6 22.6 16.7 3.5 14.6-7.5 27.6-21.5 27.6h-44.3-5.9c-10.4.0-20.1 6.6-22.6 16.7-3.5 14.6 7.5 27.6 21.5 27.6h6.9.9c8.9.0 17.6 5 20.8 13.3 6.2 15.9-5.3 31-20.4 31H172 89.2c-10.4.0-20.1 6.6-22.6 16.7-3.5 14.6 7.5 27.6 21.5 27.6H172h96.1c10.4.0 20.1 6.6 22.6 16.7 3.5 14.6-7.5 27.6-21.5 27.6H227v0c-8.9.0-17.6 5-20.8 13.3-6.2 15.9 5.4 31 20.4 31h24.6v-.3h183c90.1.0 162.3-77 154.3-168.8C581.6 85.7 508.5 22.5 430.5 22.5z"/></defs><clipPath id="SVGID_66_"><use xlink:href="#SVGID_65_" style="overflow:visible"/></clipPath></g><g><defs><path id="SVGID_67_" d="M162.2 332.3h-47.9c-12.1.0-21.9-9.8-21.9-21.9v0c0-12.1 9.8-21.9 21.9-21.9h47.9c12.1.0 21.9 9.8 21.9 21.9v0C184.2 322.5 174.4 332.3 162.2 332.3z"/></defs><clipPath id="SVGID_68_"><use xlink:href="#SVGID_67_" style="overflow:visible"/></clipPath></g><g><defs><path id="SVGID_69_" d="M64.4 155.1H35.9c-12.1.0-21.9-9.8-21.9-21.9v0c0-12.1 9.8-21.9 21.9-21.9h28.4c12.1.0 21.9 9.8 21.9 21.9v0C86.3 145.3 76.5 155.1 64.4 155.1z"/></defs><clipPath id="SVGID_70_"><use xlink:href="#SVGID_69_" style="overflow:visible"/></clipPath></g><g><defs><path id="SVGID_71_" d="M125.5 155.1h.1c-12.1.0-21.9-9.8-21.9-21.9v0c0-12.1 9.8-21.9 21.9-21.9h-.1c12.1.0 21.9 9.8 21.9 21.9v0C147.4 145.3 137.6 155.1 125.5 155.1z"/></defs><clipPath id="SVGID_72_"><use xlink:href="#SVGID_71_" style="overflow:visible"/></clipPath></g></g></g></g></g></svg>