<?xml version="1.0" encoding="utf-8"?>
<!-- Generator: Adobe Illustrator 24.0.0, SVG Export Plug-In . SVG Version: 6.00 Build 0)  -->
<svg version="1.1" id="Layer_1" xmlns="http://www.w3.org/2000/svg" xmlns:xlink="http://www.w3.org/1999/xlink" x="0px" y="0px"
	 viewBox="0 0 1920 969" style="enable-background:new 0 0 1920 969;" xml:space="preserve">
<style type="text/css">
	.st0{opacity:0.2;fill:url(#SVGID_1_);enable-background:new    ;}
	.st1{fill:url(#SVGID_2_);}
	.st2{fill:url(#SVGID_3_);}
	.st3{fill:url(#SVGID_4_);}
	.st4{fill:none;}
	.st5{fill:url(#SVGID_5_);}
	.st6{fill:url(#SVGID_6_);}
	.st7{fill:url(#SVGID_7_);}
	.st8{fill:url(#SVGID_8_);}
	.st9{fill:url(#SVGID_9_);}
	.st10{fill:url(#SVGID_10_);}
	.st11{fill:url(#SVGID_11_);}
	.st12{fill:url(#SVGID_12_);}
	.st13{fill:url(#SVGID_13_);}
	.st14{fill:url(#SVGID_14_);}
	.st15{fill:url(#SVGID_15_);}
	.st16{fill:url(#SVGID_16_);}
	.st17{fill:url(#SVGID_17_);}
	.st18{fill:url(#SVGID_18_);}
	.st19{fill:url(#SVGID_19_);}
	.st20{fill:url(#SVGID_20_);}
	.st21{fill:url(#SVGID_21_);}
	.st22{fill:url(#SVGID_22_);}
	.st23{fill:url(#SVGID_23_);}
	.st24{fill:url(#SVGID_24_);}
	.st25{fill:url(#SVGID_25_);}
	.st26{fill:url(#SVGID_26_);}
	.st27{fill:url(#SVGID_27_);}
	.st28{fill:url(#SVGID_28_);}
	.st29{fill:url(#SVGID_29_);}
	.st30{fill:url(#SVGID_30_);}
	.st31{fill:url(#SVGID_31_);}
	.st32{fill:url(#SVGID_32_);}
	.st33{fill:url(#SVGID_33_);}
	.st34{fill:url(#SVGID_34_);}
	.st35{fill:url(#SVGID_35_);}
	.st36{fill:url(#SVGID_36_);}
	.st37{fill:url(#SVGID_37_);}
	.st38{fill:url(#SVGID_38_);}
	.st39{fill:url(#SVGID_39_);}
	.st40{fill:url(#SVGID_40_);}
	.st41{fill:url(#SVGID_41_);}
	.st42{fill:url(#SVGID_42_);}
	.st43{fill:url(#SVGID_43_);}
	.st44{fill:url(#SVGID_44_);}
	.st45{fill:url(#SVGID_45_);}
	.st46{fill:url(#SVGID_46_);}
	.st47{fill:#3B3B3B;}
	.st48{fill:#666666;enable-background:new    ;}
	.st49{opacity:0.2;fill:url(#SVGID_47_);enable-background:new    ;}
	.st50{fill:url(#SVGID_48_);}
	.st51{fill:url(#SVGID_49_);}
</style>
<g>
	
		<linearGradient id="SVGID_1_" gradientUnits="userSpaceOnUse" x1="1442.0089" y1="140.0653" x2="1718.3469" y2="540.6625" gradientTransform="matrix(1 0 0 -1 0 971)">
		<stop  offset="0" style="stop-color:#FFFFFF"/>
		<stop  offset="0.8587" style="stop-color:#FFFFFF"/>
		<stop  offset="1" style="stop-color:#FFFFFF"/>
	</linearGradient>
	<path class="st0" d="M1720.5,429.5l-0.2,383.9L1473.8,399c1.7-0.4,3-0.4,4.7-0.4h37.1c4.7,0,8.6,3.8,8.5,8.8
		c-0.1,4,3.6,8.4,8.5,8.4H1636c4.7,0,8.3-4.2,8.3-8.9c0-4.7,4-8.3,8.8-8.3h37.4C1706.9,398.5,1720.5,412.2,1720.5,429.5z"/>
	
		<linearGradient id="SVGID_2_" gradientUnits="userSpaceOnUse" x1="6339.5391" y1="384.7904" x2="6339.5391" y2="487.2228" gradientTransform="matrix(-1 0 0 -1 7782.4326 971)">
		<stop  offset="0" style="stop-color:#808080"/>
		<stop  offset="1.470000e-02" style="stop-color:#727272"/>
		<stop  offset="5.670000e-02" style="stop-color:#4F4F4F"/>
		<stop  offset="0.1013" style="stop-color:#323232"/>
		<stop  offset="0.1488" style="stop-color:#1C1C1C"/>
		<stop  offset="0.2004" style="stop-color:#0C0C0C"/>
		<stop  offset="0.2592" style="stop-color:#030303"/>
		<stop  offset="0.3406" style="stop-color:#000000"/>
		<stop  offset="0.6981" style="stop-color:#000000"/>
		<stop  offset="0.7455" style="stop-color:#050505"/>
		<stop  offset="0.8005" style="stop-color:#131313"/>
		<stop  offset="0.8595" style="stop-color:#2A2A2A"/>
		<stop  offset="0.9211" style="stop-color:#4B4B4B"/>
		<stop  offset="0.9841" style="stop-color:#747474"/>
		<stop  offset="1" style="stop-color:#808080"/>
	</linearGradient>
	<path class="st1" d="M1440.5,586.2h4.7c1.4,0,2.6-1.2,2.6-2.6v-97.3c0-1.4-1.2-2.6-2.6-2.6h-4.7c-1.4,0-2.6,1.2-2.6,2.6v97.3
		C1437.9,585,1439.1,586.2,1440.5,586.2z"/>
	
		<linearGradient id="SVGID_3_" gradientUnits="userSpaceOnUse" x1="6339.5391" y1="330.9903" x2="6339.5391" y2="373.0091" gradientTransform="matrix(-1 0 0 -1 7782.4326 971)">
		<stop  offset="0" style="stop-color:#808080"/>
		<stop  offset="1.470000e-02" style="stop-color:#727272"/>
		<stop  offset="5.670000e-02" style="stop-color:#4F4F4F"/>
		<stop  offset="0.1013" style="stop-color:#323232"/>
		<stop  offset="0.1488" style="stop-color:#1C1C1C"/>
		<stop  offset="0.2004" style="stop-color:#0C0C0C"/>
		<stop  offset="0.2592" style="stop-color:#030303"/>
		<stop  offset="0.3406" style="stop-color:#000000"/>
		<stop  offset="0.6981" style="stop-color:#000000"/>
		<stop  offset="0.7455" style="stop-color:#050505"/>
		<stop  offset="0.8005" style="stop-color:#131313"/>
		<stop  offset="0.8595" style="stop-color:#2A2A2A"/>
		<stop  offset="0.9211" style="stop-color:#4B4B4B"/>
		<stop  offset="0.9841" style="stop-color:#747474"/>
		<stop  offset="1" style="stop-color:#808080"/>
	</linearGradient>
	<path class="st2" d="M1440.5,640h4.7c1.4,0,2.6-1.2,2.6-2.6v-36.9c0-1.4-1.2-2.6-2.6-2.6h-4.7c-1.4,0-2.6,1.2-2.6,2.6v36.8
		C1437.9,638.8,1439.1,640,1440.5,640z"/>
	
		<linearGradient id="SVGID_4_" gradientUnits="userSpaceOnUse" x1="-1334.391" y1="-5.2353" x2="-1334.391" y2="15.3626" gradientTransform="matrix(1 0 0 1 2918.6292 953.4065)">
		<stop  offset="0" style="stop-color:#000000"/>
		<stop  offset="0.157" style="stop-color:#050505"/>
		<stop  offset="0.3394" style="stop-color:#131313"/>
		<stop  offset="0.5345" style="stop-color:#2A2A2A"/>
		<stop  offset="0.7385" style="stop-color:#4B4B4B"/>
		<stop  offset="0.9475" style="stop-color:#747474"/>
		<stop  offset="1" style="stop-color:#808080"/>
	</linearGradient>
	<path class="st3" d="M1684.3,963.7h-200.1c-22.1,0-40.1-17.9-40.1-40.1v-5.7c0,22.1,17.9,40.1,40.1,40.1h200.1
		c22.1,0,40.1-17.9,40.1-40.1v5.7C1724.4,945.7,1706.5,963.7,1684.3,963.7z"/>
	<path class="st4" d="M1591.6,8.1c1,0.1,2,0.2,2.9,0.4C1593.6,8.4,1592.6,8.2,1591.6,8.1z"/>
	<path class="st4" d="M1587.9,7.9c1,0,1.9,0.1,2.9,0.1C1589.9,8,1588.9,7.9,1587.9,7.9z"/>
	<path class="st4" d="M1595,8.7c0.9,0.2,1.9,0.4,2.8,0.7C1596.9,9.1,1596,8.9,1595,8.7z"/>
	<path class="st4" d="M342.1,8.1c0.7-0.1,1.5-0.1,2.2-0.1C343.6,8,342.9,8,342.1,8.1z"/>
	<path class="st4" d="M1598.1,9.5c1,0.3,2,0.7,3,1.1C1600.1,10.1,1599.1,9.8,1598.1,9.5z"/>
	<path class="st4" d="M311,41.9v0.2c0-1.2,0.1-2.3,0.2-3.4C311.1,39.7,311,40.8,311,41.9z"/>
	<path class="st4" d="M332.9,10.3C332.9,10.3,332.9,10.3,332.9,10.3c-0.5,0.2-1,0.4-1.5,0.6l0,0c-0.8,0.3-1.5,0.7-2.2,1.1
		c-0.7,0.4-1.4,0.8-2.2,1.3c-0.2,0.1-0.4,0.3-0.6,0.4c2.5-1.7,5.3-3,8.2-4C334,9.9,333.4,10,332.9,10.3z"/>
	<path class="st4" d="M1606.3,13.2c-0.7-0.4-1.4-0.9-2.2-1.3c-1-0.5-1.9-1-2.9-1.4c2,0.9,4,1.9,5.8,3.1
		C1606.8,13.6,1606.5,13.4,1606.3,13.2z"/>
	<path class="st4" d="M338.8,8.6c0.6-0.1,1.3-0.2,2-0.3C340.1,8.3,339.4,8.4,338.8,8.6z"/>
	<path class="st4" d="M335.5,9.4c0.7-0.2,1.4-0.4,2.1-0.5C336.9,9,336.2,9.2,335.5,9.4z"/>
	<path class="st4" d="M325.9,14c-1.7,1.2-3.3,2.4-4.8,3.9c-0.2,0.2-0.4,0.4-0.6,0.6c-0.4,0.4-0.8,0.8-1.1,1.2
		c-3.1,3.5-5.4,7.6-6.9,12.1c-0.2,0.5-0.3,1.1-0.5,1.6c-0.1,0.5-0.3,1.1-0.4,1.6c-0.1,0.6-0.2,1.1-0.3,1.7c-0.1,0.6-0.1,1.2-0.2,1.8
		C312.3,28.3,317.9,19.5,325.9,14z"/>
	
		<linearGradient id="SVGID_5_" gradientUnits="userSpaceOnUse" x1="966.6135" y1="923.4221" x2="966.6135" y2="968.8708" gradientTransform="matrix(1 0 0 -1 0 971)">
		<stop  offset="0" style="stop-color:#3E3E3E"/>
		<stop  offset="0.2818" style="stop-color:#414141"/>
		<stop  offset="0.4504" style="stop-color:#494949"/>
		<stop  offset="0.5893" style="stop-color:#575757"/>
		<stop  offset="0.712" style="stop-color:#6B6B6B"/>
		<stop  offset="0.824" style="stop-color:#868686"/>
		<stop  offset="0.9268" style="stop-color:#A5A5A5"/>
		<stop  offset="1" style="stop-color:#C1C1C1"/>
	</linearGradient>
	<path class="st5" d="M1587.7,2.1H345.5c-22.3,0-40.3,17.8-40.3,39.8l0.1,5.7c0-22,18.1-39.8,40.3-39.8h1242.2
		c21.4,0,38.9,16.5,40.2,37.3v-3.2C1628,19.9,1610,2.1,1587.7,2.1z"/>
	<path d="M1601.1,10.6c0,0,0.1,0,0.1,0.1C1601.2,10.6,1601.1,10.6,1601.1,10.6z"/>
	<path d="M334.6,9.7c0.3-0.1,0.6-0.2,0.9-0.3C335.2,9.5,334.9,9.6,334.6,9.7z"/>
	<path d="M325.9,14c0.2-0.1,0.3-0.2,0.4-0.3C326.2,13.8,326,13.9,325.9,14z"/>
	<path d="M311.2,38.6c0-0.1,0-0.1,0-0.2C311.2,38.5,311.2,38.6,311.2,38.6z"/>
	<path d="M340.7,8.3c0.5-0.1,0.9-0.2,1.4-0.2C341.7,8.1,341.2,8.2,340.7,8.3z"/>
	<path d="M1590.8,8.1c0.3,0,0.5,0,0.8,0.1C1591.3,8.1,1591.1,8.1,1590.8,8.1z"/>
	<path d="M1597.8,9.4c0.1,0,0.2,0,0.3,0.1C1598,9.4,1597.9,9.4,1597.8,9.4z"/>
	<path d="M1594.5,8.6c0.2,0,0.3,0.1,0.5,0.1C1594.8,8.6,1594.7,8.6,1594.5,8.6z"/>
	<path d="M337.6,8.9c0.4-0.1,0.8-0.2,1.2-0.3C338.4,8.6,338,8.7,337.6,8.9z"/>
	<path d="M1587.7,7.9c0.1,0,0.1,0,0.2,0C1587.9,7.9,1587.8,7.9,1587.7,7.9H345.5c-0.4,0-0.8,0-1.2,0.1c0.4,0,0.8-0.1,1.2-0.1H1587.7
		z"/>
	<path class="st4" d="M332.9,10.3c-0.5,0.2-1,0.4-1.5,0.6l0,0c-0.8,0.3-1.5,0.7-2.2,1.1c-0.7,0.4-1.4,0.8-2.2,1.3
		c-0.2,0.1-0.4,0.3-0.6,0.4c2.5-1.7,5.3-3,8.2-4C334,9.9,333.4,10,332.9,10.3C332.9,10.3,332.9,10.3,332.9,10.3z"/>
	<path class="st4" d="M345.5,7.9c-0.4,0-0.8,0-1.2,0.1C344.7,7.9,345.1,7.9,345.5,7.9h1242.2c0.1,0,0.1,0,0.2,0c-0.1,0-0.1,0-0.2,0
		L345.5,7.9L345.5,7.9z"/>
	<path class="st4" d="M1604.1,12c-1-0.5-1.9-1-2.9-1.4c2,0.9,4,1.9,5.8,3.1c-0.2-0.2-0.4-0.3-0.7-0.5
		C1605.6,12.8,1604.9,12.4,1604.1,12z"/>
	<path class="st4" d="M320.6,18.4c-0.4,0.4-0.8,0.8-1.1,1.2c-3.1,3.5-5.4,7.6-6.9,12.1c-0.2,0.5-0.3,1.1-0.5,1.6s-0.3,1.1-0.4,1.6
		c-0.1,0.6-0.2,1.1-0.3,1.7c-0.1,0.6-0.1,1.2-0.2,1.8c1.1-10.1,6.6-18.9,14.7-24.5c-1.7,1.2-3.3,2.4-4.8,3.9
		C320.9,18.1,320.8,18.2,320.6,18.4z"/>
	<path class="st4" d="M311,42c0-1.2,0.1-2.3,0.2-3.4c-0.1,1.1-0.2,2.1-0.2,3.2V42z"/>
	<path class="st4" d="M1612.7,18.4c-0.2-0.2-0.4-0.4-0.6-0.6c-0.6-0.6-1.2-1.1-1.8-1.7l0,0c-0.4-0.4-0.8-0.7-1.3-1l0,0
		c-0.6-0.5-1.3-1-2-1.4c6.9,4.6,12,11.6,14.1,19.8c-1.3-5.2-3.8-10-7.3-13.9C1613.4,19.2,1613.1,18.8,1612.7,18.4z"/>
	<path class="st4" d="M1621.9,37.3c-0.2-1.2-0.4-2.3-0.7-3.5C1621.5,34.9,1621.7,36.1,1621.9,37.3z"/>
	<path class="st4" d="M1622.2,41.9c0-0.2,0-0.3,0-0.5c0,0.2,0,0.5,0,0.7v348.7l0,0L1622.2,41.9L1622.2,41.9z"/>
	
		<linearGradient id="SVGID_6_" gradientUnits="userSpaceOnUse" x1="966.652" y1="92.5042" x2="966.652" y2="963.1801" gradientTransform="matrix(1 0 0 -1 0 971)">
		<stop  offset="0" style="stop-color:#969696"/>
		<stop  offset="9.360000e-02" style="stop-color:#9E9E9E"/>
		<stop  offset="0.2383" style="stop-color:#B4B4B4"/>
		<stop  offset="0.415" style="stop-color:#D7D7D7"/>
		<stop  offset="0.447" style="stop-color:#DEDEDE"/>
		<stop  offset="1" style="stop-color:#C1C1C1"/>
	</linearGradient>
	<path class="st6" d="M311,42.1C311,42.1,311,42.1,311,42.1v-0.2c0-1.1,0.1-2.2,0.2-3.2c0-0.1,0-0.1,0-0.2c0.1-0.6,0.1-1.2,0.2-1.8
		c0.1-0.6,0.2-1.1,0.3-1.7c0.1-0.6,0.2-1.1,0.4-1.6c0.1-0.5,0.3-1.1,0.5-1.6c1.4-4.5,3.8-8.6,6.9-12.1c0.4-0.4,0.7-0.8,1.1-1.2
		c0.2-0.2,0.4-0.4,0.6-0.6c1.5-1.4,3.1-2.7,4.8-3.9c0.2-0.1,0.3-0.2,0.4-0.3c0.2-0.1,0.4-0.3,0.6-0.4c0.7-0.4,1.4-0.9,2.2-1.3
		c0.7-0.4,1.5-0.8,2.2-1.1l0,0c0.5-0.2,1-0.4,1.5-0.6l0,0c0.6-0.2,1.1-0.4,1.7-0.6c0.3-0.1,0.6-0.2,0.9-0.3c0.7-0.2,1.4-0.4,2.1-0.5
		c0.4-0.1,0.8-0.2,1.2-0.3c0.6-0.1,1.3-0.2,2-0.3c0.5-0.1,0.9-0.2,1.4-0.2c0.7-0.1,1.5-0.1,2.2-0.1c0.4,0,0.8-0.1,1.2-0.1h1242.2
		c0.1,0,0.1,0,0.2,0c1,0,1.9,0.1,2.9,0.1c0.3,0,0.5,0,0.8,0.1c1,0.1,2,0.3,2.9,0.4c0.2,0,0.3,0.1,0.5,0.1c0.9,0.2,1.9,0.4,2.8,0.7
		c0.1,0,0.2,0,0.3,0.1c1,0.3,2,0.7,3,1.1c0,0,0.1,0,0.1,0.1c1,0.4,2,0.9,2.9,1.4c0.7,0.4,1.4,0.8,2.2,1.3c0.2,0.2,0.5,0.3,0.7,0.5
		c0,0,0,0,0,0c0.7,0.5,1.4,0.9,2,1.4l0,0c0.4,0.3,0.9,0.7,1.3,1l0,0c0.6,0.5,1.2,1.1,1.8,1.7c0.2,0.2,0.4,0.4,0.6,0.6
		c0.4,0.4,0.8,0.8,1.1,1.2c3.5,3.9,6,8.7,7.3,13.9c0,0.1,0,0.2,0.1,0.3c0.3,1.1,0.5,2.3,0.7,3.5c0,0.2,0.1,0.4,0.1,0.7
		c0.1,0.5,0.1,1,0.1,1.5c0,0.6,0.1,1.3,0.1,1.9c0,0.2,0,0.3,0,0.5v348.8h5.8V45.1c-1.3-20.8-18.8-37.3-40.2-37.3H345.6
		c-22.3,0-40.3,17.8-40.3,39.8v830.9h5.8v-23.3l0,0L311,42.1L311,42.1z"/>
	<path d="M338.2,835.1V57.4h1256.9v333.3h27.1V42.1c0-0.2,0-0.5,0-0.7c0-0.6,0-1.3-0.1-1.9c0-0.5-0.1-1-0.1-1.5
		c0-0.2-0.1-0.4-0.1-0.7c-0.2-1.2-0.4-2.3-0.7-3.5c0-0.1,0-0.2-0.1-0.3c-2.1-8.2-7.2-15.2-14.1-19.8c0,0,0,0,0,0
		c-1.8-1.2-3.8-2.3-5.8-3.1c0,0-0.1,0-0.1-0.1c-1-0.4-2-0.8-3-1.1c-0.1,0-0.2,0-0.3-0.1c-0.9-0.3-1.8-0.5-2.8-0.7
		c-0.2,0-0.3-0.1-0.5-0.1c-1-0.2-1.9-0.3-2.9-0.4c-0.3,0-0.5,0-0.8-0.1c-1-0.1-1.9-0.1-2.9-0.1c-0.1,0-0.1,0-0.2,0H345.5
		c-0.4,0-0.8,0-1.2,0.1c-0.8,0-1.5,0-2.2,0.1c-0.5,0-0.9,0.1-1.4,0.2c-0.6,0.1-1.3,0.2-2,0.3c-0.4,0.1-0.8,0.2-1.2,0.3
		c-0.7,0.2-1.4,0.3-2.1,0.5c-0.3,0.1-0.6,0.2-0.9,0.3c-2.9,1-5.7,2.3-8.2,4c-0.2,0.1-0.3,0.2-0.4,0.3c-8,5.5-13.6,14.3-14.7,24.5
		c0,0.1,0,0.1,0,0.2c-0.1,1.1-0.2,2.2-0.2,3.4v813.2h1133v-20.1H338.2z"/>
	<path d="M1621.2,33.8c0-0.1,0-0.2-0.1-0.3C1621.1,33.6,1621.1,33.7,1621.2,33.8z"/>
	
		<linearGradient id="SVGID_7_" gradientUnits="userSpaceOnUse" x1="143.9624" y1="65.1658" x2="960.0077" y2="65.1658" gradientTransform="matrix(1 0 0 -1 0 971)">
		<stop  offset="0" style="stop-color:#8E8E8E"/>
		<stop  offset="1.390000e-02" style="stop-color:#BDBDBD"/>
		<stop  offset="2.710000e-02" style="stop-color:#AEAEAE"/>
		<stop  offset="4.870000e-02" style="stop-color:#989898"/>
		<stop  offset="7.070000e-02" style="stop-color:#A0A0A0"/>
		<stop  offset="9.089999e-02" style="stop-color:#ACACAC"/>
		<stop  offset="1" style="stop-color:#CBCBCB"/>
	</linearGradient>
	<rect x="144" y="905.1" class="st7" width="816" height="1.5"/>
	
		<linearGradient id="SVGID_8_" gradientUnits="userSpaceOnUse" x1="143.9624" y1="89.7511" x2="1776.0436" y2="89.7511" gradientTransform="matrix(1 0 0 -1 0 971)">
		<stop  offset="5.456971e-03" style="stop-color:#F3F3F3"/>
		<stop  offset="6.390000e-02" style="stop-color:#CCCCCC"/>
		<stop  offset="0.5025" style="stop-color:#F3F3F3"/>
		<stop  offset="0.8664" style="stop-color:#CCCCCC"/>
		<stop  offset="0.8728" style="stop-color:#CECECE"/>
		<stop  offset="0.9501" style="stop-color:#E4E4E4"/>
		<stop  offset="1" style="stop-color:#ECECEC"/>
	</linearGradient>
	<path class="st8" d="M842.9,880.6h0.9h0h232.3c0,0.4,0,0.8-0.1,1.2h0c0-0.4,0.1-0.8,0.1-1.2h0.9v1.2h367v-1.2H311h-5.8H144v1.2h699
		V880.6z"/>
	
		<linearGradient id="SVGID_9_" gradientUnits="userSpaceOnUse" x1="143.9622" y1="89.7665" x2="1776.0437" y2="89.7665" gradientTransform="matrix(1 0 0 -1 0 971)">
		<stop  offset="5.456971e-03" style="stop-color:#F3F3F3"/>
		<stop  offset="6.390000e-02" style="stop-color:#CCCCCC"/>
		<stop  offset="0.5025" style="stop-color:#F3F3F3"/>
		<stop  offset="0.8664" style="stop-color:#CCCCCC"/>
		<stop  offset="0.8728" style="stop-color:#CECECE"/>
		<stop  offset="0.9501" style="stop-color:#E4E4E4"/>
		<stop  offset="1" style="stop-color:#ECECEC"/>
	</linearGradient>
	<rect x="1724.4" y="880.6" class="st9" width="51.6" height="1.2"/>
	
		<linearGradient id="SVGID_10_" gradientUnits="userSpaceOnUse" x1="960.0029" y1="65.1658" x2="1776.0436" y2="65.1658" gradientTransform="matrix(1 0 0 -1 0 971)">
		<stop  offset="0" style="stop-color:#CBCBCB"/>
		<stop  offset="0.9091" style="stop-color:#ACACAC"/>
		<stop  offset="0.9293" style="stop-color:#A0A0A0"/>
		<stop  offset="0.9513" style="stop-color:#989898"/>
		<stop  offset="0.9729" style="stop-color:#AEAEAE"/>
		<stop  offset="0.9861" style="stop-color:#BDBDBD"/>
		<stop  offset="1" style="stop-color:#8E8E8E"/>
	</linearGradient>
	<rect x="1724.4" y="905.1" class="st10" width="51.6" height="1.5"/>
	
		<linearGradient id="SVGID_11_" gradientUnits="userSpaceOnUse" x1="960.0077" y1="65.1658" x2="1776.0482" y2="65.1658" gradientTransform="matrix(1 0 0 -1 0 971)">
		<stop  offset="0" style="stop-color:#CBCBCB"/>
		<stop  offset="0.9091" style="stop-color:#ACACAC"/>
		<stop  offset="0.9293" style="stop-color:#A0A0A0"/>
		<stop  offset="0.9513" style="stop-color:#989898"/>
		<stop  offset="0.9729" style="stop-color:#AEAEAE"/>
		<stop  offset="0.9861" style="stop-color:#BDBDBD"/>
		<stop  offset="1" style="stop-color:#8E8E8E"/>
	</linearGradient>
	<rect x="960" y="905.1" class="st11" width="484.1" height="1.5"/>
	
		<linearGradient id="SVGID_12_" gradientUnits="userSpaceOnUse" x1="143.9624" y1="77.5314" x2="960.0077" y2="77.5314" gradientTransform="matrix(1 0 0 -1 0 971)">
		<stop  offset="0" style="stop-color:#8E8E8E"/>
		<stop  offset="1.390000e-02" style="stop-color:#BDBDBD"/>
		<stop  offset="2.710000e-02" style="stop-color:#AEAEAE"/>
		<stop  offset="4.870000e-02" style="stop-color:#989898"/>
		<stop  offset="7.070000e-02" style="stop-color:#A0A0A0"/>
		<stop  offset="9.089999e-02" style="stop-color:#ACACAC"/>
		<stop  offset="1" style="stop-color:#CBCBCB"/>
	</linearGradient>
	<path class="st12" d="M960,900.9h-98.2c-10.4,0-18.9-8.5-18.9-18.9v-0.2H144v23.2h816V900.9z"/>
	
		<linearGradient id="SVGID_13_" gradientUnits="userSpaceOnUse" x1="143.9624" y1="77.5314" x2="960.0077" y2="77.5314" gradientTransform="matrix(1 0 0 -1 0 971)">
		<stop  offset="0" style="stop-color:#666666"/>
		<stop  offset="1.390000e-02" style="stop-color:#D1D1D1"/>
		<stop  offset="2.000000e-02" style="stop-color:#BEBEBE"/>
		<stop  offset="3.930000e-02" style="stop-color:#878787"/>
		<stop  offset="4.870000e-02" style="stop-color:#717171"/>
		<stop  offset="5.760000e-02" style="stop-color:#797979"/>
		<stop  offset="7.150000e-02" style="stop-color:#8F8F8F"/>
		<stop  offset="8.860001e-02" style="stop-color:#B3B3B3"/>
		<stop  offset="9.089999e-02" style="stop-color:#B8B8B8"/>
		<stop  offset="1" style="stop-color:#ECECEC"/>
	</linearGradient>
	<path class="st13" d="M960,900.9h-98.2c-10.4,0-18.9-8.5-18.9-18.9v-0.2H144v23.2h816V900.9z"/>
	
		<linearGradient id="SVGID_14_" gradientUnits="userSpaceOnUse" x1="960.0029" y1="80.2923" x2="1776.0436" y2="80.2923" gradientTransform="matrix(1 0 0 -1 0 971)">
		<stop  offset="0" style="stop-color:#CBCBCB"/>
		<stop  offset="0.9091" style="stop-color:#ACACAC"/>
		<stop  offset="0.9293" style="stop-color:#A0A0A0"/>
		<stop  offset="0.9513" style="stop-color:#989898"/>
		<stop  offset="0.9729" style="stop-color:#AEAEAE"/>
		<stop  offset="0.9861" style="stop-color:#BDBDBD"/>
		<stop  offset="1" style="stop-color:#8E8E8E"/>
	</linearGradient>
	<path class="st14" d="M1057.2,899.6L1057.2,899.6c5.2,0,10-2.1,13.4-5.5c3.2-3.2,5.2-7.4,5.5-12.2h0c-0.3,4.7-2.3,9-5.5,12.2
		C1067.2,897.4,1062.5,899.6,1057.2,899.6z"/>
	
		<linearGradient id="SVGID_15_" gradientUnits="userSpaceOnUse" x1="960.0029" y1="80.2923" x2="1776.0436" y2="80.2923" gradientTransform="matrix(1 0 0 -1 0 971)">
		<stop  offset="0" style="stop-color:#ECECEC"/>
		<stop  offset="0.9091" style="stop-color:#B8B8B8"/>
		<stop  offset="0.9114" style="stop-color:#B3B3B3"/>
		<stop  offset="0.9285" style="stop-color:#8F8F8F"/>
		<stop  offset="0.9424" style="stop-color:#797979"/>
		<stop  offset="0.9513" style="stop-color:#717171"/>
		<stop  offset="0.9607" style="stop-color:#878787"/>
		<stop  offset="0.98" style="stop-color:#BEBEBE"/>
		<stop  offset="0.9861" style="stop-color:#D1D1D1"/>
		<stop  offset="1" style="stop-color:#666666"/>
	</linearGradient>
	<path class="st15" d="M1057.2,899.6L1057.2,899.6c5.2,0,10-2.1,13.4-5.5c3.2-3.2,5.2-7.4,5.5-12.2h0c-0.3,4.7-2.3,9-5.5,12.2
		C1067.2,897.4,1062.5,899.6,1057.2,899.6z"/>
	
		<linearGradient id="SVGID_16_" gradientUnits="userSpaceOnUse" x1="959.9923" y1="77.5315" x2="1776.0328" y2="77.5315" gradientTransform="matrix(1 0 0 -1 0 971)">
		<stop  offset="0" style="stop-color:#CBCBCB"/>
		<stop  offset="0.9091" style="stop-color:#ACACAC"/>
		<stop  offset="0.9293" style="stop-color:#A0A0A0"/>
		<stop  offset="0.9513" style="stop-color:#989898"/>
		<stop  offset="0.9729" style="stop-color:#AEAEAE"/>
		<stop  offset="0.9861" style="stop-color:#BDBDBD"/>
		<stop  offset="1" style="stop-color:#8E8E8E"/>
	</linearGradient>
	<path class="st16" d="M1444.1,881.8h-367v0.2c0,10.4-8.5,18.9-18.9,18.9H960v4.2h484.1L1444.1,881.8L1444.1,881.8z"/>
	
		<linearGradient id="SVGID_17_" gradientUnits="userSpaceOnUse" x1="959.9923" y1="77.5315" x2="1776.0328" y2="77.5315" gradientTransform="matrix(1 0 0 -1 0 971)">
		<stop  offset="0" style="stop-color:#ECECEC"/>
		<stop  offset="0.9091" style="stop-color:#B8B8B8"/>
		<stop  offset="0.9114" style="stop-color:#B3B3B3"/>
		<stop  offset="0.9285" style="stop-color:#8F8F8F"/>
		<stop  offset="0.9424" style="stop-color:#797979"/>
		<stop  offset="0.9513" style="stop-color:#717171"/>
		<stop  offset="0.9607" style="stop-color:#878787"/>
		<stop  offset="0.98" style="stop-color:#BEBEBE"/>
		<stop  offset="0.9861" style="stop-color:#D1D1D1"/>
		<stop  offset="1" style="stop-color:#666666"/>
	</linearGradient>
	<path class="st17" d="M1444.1,881.8h-367v0.2c0,10.4-8.5,18.9-18.9,18.9H960v4.2h484.1L1444.1,881.8L1444.1,881.8z"/>
	
		<linearGradient id="SVGID_18_" gradientUnits="userSpaceOnUse" x1="960.0029" y1="77.5315" x2="1776.0436" y2="77.5315" gradientTransform="matrix(1 0 0 -1 0 971)">
		<stop  offset="0" style="stop-color:#CBCBCB"/>
		<stop  offset="0.9091" style="stop-color:#ACACAC"/>
		<stop  offset="0.9293" style="stop-color:#A0A0A0"/>
		<stop  offset="0.9513" style="stop-color:#989898"/>
		<stop  offset="0.9729" style="stop-color:#AEAEAE"/>
		<stop  offset="0.9861" style="stop-color:#BDBDBD"/>
		<stop  offset="1" style="stop-color:#8E8E8E"/>
	</linearGradient>
	<rect x="1724.4" y="881.8" class="st18" width="51.6" height="23.2"/>
	
		<linearGradient id="SVGID_19_" gradientUnits="userSpaceOnUse" x1="960.0029" y1="77.5315" x2="1776.0436" y2="77.5315" gradientTransform="matrix(1 0 0 -1 0 971)">
		<stop  offset="0" style="stop-color:#ECECEC"/>
		<stop  offset="0.9091" style="stop-color:#B8B8B8"/>
		<stop  offset="0.9114" style="stop-color:#B3B3B3"/>
		<stop  offset="0.9285" style="stop-color:#8F8F8F"/>
		<stop  offset="0.9424" style="stop-color:#797979"/>
		<stop  offset="0.9513" style="stop-color:#717171"/>
		<stop  offset="0.9607" style="stop-color:#878787"/>
		<stop  offset="0.98" style="stop-color:#BEBEBE"/>
		<stop  offset="0.9861" style="stop-color:#D1D1D1"/>
		<stop  offset="1" style="stop-color:#666666"/>
	</linearGradient>
	<rect x="1724.4" y="881.8" class="st19" width="51.6" height="23.2"/>
	
		<linearGradient id="SVGID_20_" gradientUnits="userSpaceOnUse" x1="143.9622" y1="89.7665" x2="1776.0437" y2="89.7665" gradientTransform="matrix(1 0 0 -1 0 971)">
		<stop  offset="5.456971e-03" style="stop-color:#F3F3F3"/>
		<stop  offset="6.390000e-02" style="stop-color:#CCCCCC"/>
		<stop  offset="0.5025" style="stop-color:#F3F3F3"/>
		<stop  offset="0.8664" style="stop-color:#CCCCCC"/>
		<stop  offset="0.8728" style="stop-color:#CECECE"/>
		<stop  offset="0.9501" style="stop-color:#E4E4E4"/>
		<stop  offset="1" style="stop-color:#ECECEC"/>
	</linearGradient>
	<path class="st20" d="M960,881.8h116.1c0-0.4,0.1-0.8,0.1-1.2H843.9c0,0.4,0,0.8,0.1,1.2H960z"/>
	
		<linearGradient id="SVGID_21_" gradientUnits="userSpaceOnUse" x1="843.8561" y1="89.7665" x2="1076.1593" y2="89.7665" gradientTransform="matrix(1 0 0 -1 0 971)">
		<stop  offset="0" style="stop-color:#9B9B9B"/>
		<stop  offset="3.950000e-02" style="stop-color:#A9A9A9"/>
		<stop  offset="0.514" style="stop-color:#E1E1E1"/>
		<stop  offset="0.9628" style="stop-color:#A9A9A9"/>
		<stop  offset="1" style="stop-color:#9B9B9B"/>
	</linearGradient>
	<path class="st21" d="M960,881.8h116.1c0-0.4,0.1-0.8,0.1-1.2H843.9c0,0.4,0,0.8,0.1,1.2H960z"/>
	
		<linearGradient id="SVGID_22_" gradientUnits="userSpaceOnUse" x1="143.9622" y1="80.3076" x2="960.0029" y2="80.3076" gradientTransform="matrix(1 0 0 -1 0 971)">
		<stop  offset="0" style="stop-color:#8E8E8E"/>
		<stop  offset="1.390000e-02" style="stop-color:#BDBDBD"/>
		<stop  offset="2.710000e-02" style="stop-color:#AEAEAE"/>
		<stop  offset="4.870000e-02" style="stop-color:#989898"/>
		<stop  offset="7.070000e-02" style="stop-color:#A0A0A0"/>
		<stop  offset="9.089999e-02" style="stop-color:#ACACAC"/>
		<stop  offset="1" style="stop-color:#CBCBCB"/>
	</linearGradient>
	<path class="st22" d="M843.9,881.8c0.6,9.9,8.8,17.7,18.8,17.7H960v-17.7H843.9z"/>
	
		<linearGradient id="SVGID_23_" gradientUnits="userSpaceOnUse" x1="143.9622" y1="80.3076" x2="960.0029" y2="80.3076" gradientTransform="matrix(1 0 0 -1 0 971)">
		<stop  offset="0" style="stop-color:#666666"/>
		<stop  offset="1.390000e-02" style="stop-color:#D1D1D1"/>
		<stop  offset="2.000000e-02" style="stop-color:#BEBEBE"/>
		<stop  offset="3.930000e-02" style="stop-color:#878787"/>
		<stop  offset="4.870000e-02" style="stop-color:#717171"/>
		<stop  offset="5.760000e-02" style="stop-color:#797979"/>
		<stop  offset="7.150000e-02" style="stop-color:#8F8F8F"/>
		<stop  offset="8.860001e-02" style="stop-color:#B3B3B3"/>
		<stop  offset="9.089999e-02" style="stop-color:#B8B8B8"/>
		<stop  offset="1" style="stop-color:#ECECEC"/>
	</linearGradient>
	<path class="st23" d="M843.9,881.8c0.6,9.9,8.8,17.7,18.8,17.7H960v-17.7H843.9z"/>
	
		<linearGradient id="SVGID_24_" gradientUnits="userSpaceOnUse" x1="843.9175" y1="80.3076" x2="1076.2177" y2="80.3076" gradientTransform="matrix(1 0 0 -1 0 971)">
		<stop  offset="0" style="stop-color:#9B9B9B"/>
		<stop  offset="3.950000e-02" style="stop-color:#A9A9A9"/>
		<stop  offset="0.514" style="stop-color:#E1E1E1"/>
		<stop  offset="0.9628" style="stop-color:#A9A9A9"/>
		<stop  offset="1" style="stop-color:#9B9B9B"/>
	</linearGradient>
	<path class="st24" d="M843.9,881.8c0.6,9.9,8.8,17.7,18.8,17.7H960v-17.7H843.9z"/>
	
		<linearGradient id="SVGID_25_" gradientUnits="userSpaceOnUse" x1="959.9924" y1="80.2923" x2="1776.0328" y2="80.2923" gradientTransform="matrix(1 0 0 -1 0 971)">
		<stop  offset="0" style="stop-color:#CBCBCB"/>
		<stop  offset="0.9091" style="stop-color:#ACACAC"/>
		<stop  offset="0.9293" style="stop-color:#A0A0A0"/>
		<stop  offset="0.9513" style="stop-color:#989898"/>
		<stop  offset="0.9729" style="stop-color:#AEAEAE"/>
		<stop  offset="0.9861" style="stop-color:#BDBDBD"/>
		<stop  offset="1" style="stop-color:#8E8E8E"/>
	</linearGradient>
	<path class="st25" d="M960,899.6h97.2c5.2,0,10-2.1,13.4-5.5c3.2-3.2,5.2-7.4,5.5-12.2H960L960,899.6L960,899.6z"/>
	
		<linearGradient id="SVGID_26_" gradientUnits="userSpaceOnUse" x1="959.9924" y1="80.2923" x2="1776.0328" y2="80.2923" gradientTransform="matrix(1 0 0 -1 0 971)">
		<stop  offset="0" style="stop-color:#ECECEC"/>
		<stop  offset="0.9091" style="stop-color:#B8B8B8"/>
		<stop  offset="0.9114" style="stop-color:#B3B3B3"/>
		<stop  offset="0.9285" style="stop-color:#8F8F8F"/>
		<stop  offset="0.9424" style="stop-color:#797979"/>
		<stop  offset="0.9513" style="stop-color:#717171"/>
		<stop  offset="0.9607" style="stop-color:#878787"/>
		<stop  offset="0.98" style="stop-color:#BEBEBE"/>
		<stop  offset="0.9861" style="stop-color:#D1D1D1"/>
		<stop  offset="1" style="stop-color:#666666"/>
	</linearGradient>
	<path class="st26" d="M960,899.6h97.2c5.2,0,10-2.1,13.4-5.5c3.2-3.2,5.2-7.4,5.5-12.2H960L960,899.6L960,899.6z"/>
	
		<linearGradient id="SVGID_27_" gradientUnits="userSpaceOnUse" x1="843.9023" y1="80.2923" x2="1076.2024" y2="80.2923" gradientTransform="matrix(1 0 0 -1 0 971)">
		<stop  offset="0" style="stop-color:#9B9B9B"/>
		<stop  offset="3.950000e-02" style="stop-color:#A9A9A9"/>
		<stop  offset="0.514" style="stop-color:#E1E1E1"/>
		<stop  offset="0.9628" style="stop-color:#A9A9A9"/>
		<stop  offset="1" style="stop-color:#9B9B9B"/>
	</linearGradient>
	<path class="st27" d="M960,899.6h97.2c5.2,0,10-2.1,13.4-5.5c3.2-3.2,5.2-7.4,5.5-12.2H960L960,899.6L960,899.6z"/>
	
		<linearGradient id="SVGID_28_" gradientUnits="userSpaceOnUse" x1="143.9622" y1="89.7511" x2="1776.0437" y2="89.7511" gradientTransform="matrix(1 0 0 -1 0 971)">
		<stop  offset="5.456971e-03" style="stop-color:#F3F3F3"/>
		<stop  offset="6.390000e-02" style="stop-color:#CCCCCC"/>
		<stop  offset="0.5025" style="stop-color:#F3F3F3"/>
		<stop  offset="0.8664" style="stop-color:#CCCCCC"/>
		<stop  offset="0.8728" style="stop-color:#CECECE"/>
		<stop  offset="0.9501" style="stop-color:#E4E4E4"/>
		<stop  offset="1" style="stop-color:#ECECEC"/>
	</linearGradient>
	<path class="st28" d="M1077.1,880.6h-0.9c0,0.4,0,0.8-0.1,1.2h1V880.6z"/>
	
		<linearGradient id="SVGID_29_" gradientUnits="userSpaceOnUse" x1="842.9372" y1="89.7511" x2="1077.0686" y2="89.7511" gradientTransform="matrix(1 0 0 -1 0 971)">
		<stop  offset="4.122200e-04" style="stop-color:#F2F2F2"/>
		<stop  offset="0.5247" style="stop-color:#F3F3F3"/>
		<stop  offset="1" style="stop-color:#F2F2F2"/>
	</linearGradient>
	<path class="st29" d="M1077.1,880.6h-0.9c0,0.4,0,0.8-0.1,1.2h1V880.6z"/>
	
		<linearGradient id="SVGID_30_" gradientUnits="userSpaceOnUse" x1="143.9622" y1="89.7511" x2="1776.0437" y2="89.7511" gradientTransform="matrix(1 0 0 -1 0 971)">
		<stop  offset="5.456971e-03" style="stop-color:#F3F3F3"/>
		<stop  offset="6.390000e-02" style="stop-color:#CCCCCC"/>
		<stop  offset="0.5025" style="stop-color:#F3F3F3"/>
		<stop  offset="0.8664" style="stop-color:#CCCCCC"/>
		<stop  offset="0.8728" style="stop-color:#CECECE"/>
		<stop  offset="0.9501" style="stop-color:#E4E4E4"/>
		<stop  offset="1" style="stop-color:#ECECEC"/>
	</linearGradient>
	<path class="st30" d="M843.9,880.6h-0.9v1.2h1C843.9,881.4,843.9,881,843.9,880.6z"/>
	
		<linearGradient id="SVGID_31_" gradientUnits="userSpaceOnUse" x1="842.9372" y1="89.7511" x2="1077.0686" y2="89.7511" gradientTransform="matrix(1 0 0 -1 0 971)">
		<stop  offset="4.122200e-04" style="stop-color:#F2F2F2"/>
		<stop  offset="0.5247" style="stop-color:#F3F3F3"/>
		<stop  offset="1" style="stop-color:#F2F2F2"/>
	</linearGradient>
	<path class="st31" d="M843.9,880.6h-0.9v1.2h1C843.9,881.4,843.9,881,843.9,880.6z"/>
	
		<linearGradient id="SVGID_32_" gradientUnits="userSpaceOnUse" x1="143.9622" y1="79.5925" x2="960.0029" y2="79.5925" gradientTransform="matrix(1 0 0 -1 0 971)">
		<stop  offset="0" style="stop-color:#8E8E8E"/>
		<stop  offset="1.390000e-02" style="stop-color:#BDBDBD"/>
		<stop  offset="2.710000e-02" style="stop-color:#AEAEAE"/>
		<stop  offset="4.870000e-02" style="stop-color:#989898"/>
		<stop  offset="7.070000e-02" style="stop-color:#A0A0A0"/>
		<stop  offset="9.089999e-02" style="stop-color:#ACACAC"/>
		<stop  offset="1" style="stop-color:#CBCBCB"/>
	</linearGradient>
	<path class="st32" d="M862.8,899.6L862.8,899.6c-10,0-18.2-7.8-18.8-17.7h-1v0.2c0,10.4,8.5,18.9,18.9,18.9H960v-1.4H862.8z"/>
	
		<linearGradient id="SVGID_33_" gradientUnits="userSpaceOnUse" x1="143.9622" y1="79.5925" x2="960.0029" y2="79.5925" gradientTransform="matrix(1 0 0 -1 0 971)">
		<stop  offset="0" style="stop-color:#666666"/>
		<stop  offset="1.390000e-02" style="stop-color:#D1D1D1"/>
		<stop  offset="2.000000e-02" style="stop-color:#BEBEBE"/>
		<stop  offset="3.930000e-02" style="stop-color:#878787"/>
		<stop  offset="4.870000e-02" style="stop-color:#717171"/>
		<stop  offset="5.760000e-02" style="stop-color:#797979"/>
		<stop  offset="7.150000e-02" style="stop-color:#8F8F8F"/>
		<stop  offset="8.860001e-02" style="stop-color:#B3B3B3"/>
		<stop  offset="9.089999e-02" style="stop-color:#B8B8B8"/>
		<stop  offset="1" style="stop-color:#ECECEC"/>
	</linearGradient>
	<path class="st33" d="M862.8,899.6L862.8,899.6c-10,0-18.2-7.8-18.8-17.7h-1v0.2c0,10.4,8.5,18.9,18.9,18.9H960v-1.4H862.8z"/>
	
		<linearGradient id="SVGID_34_" gradientUnits="userSpaceOnUse" x1="842.9332" y1="79.5925" x2="1077.082" y2="79.5925" gradientTransform="matrix(1 0 0 -1 0 971)">
		<stop  offset="4.122200e-04" style="stop-color:#F2F2F2"/>
		<stop  offset="0.5247" style="stop-color:#F3F3F3"/>
		<stop  offset="1" style="stop-color:#F2F2F2"/>
	</linearGradient>
	<path class="st34" d="M862.8,899.6L862.8,899.6c-10,0-18.2-7.8-18.8-17.7h-1v0.2c0,10.4,8.5,18.9,18.9,18.9H960v-1.4H862.8z"/>
	
		<linearGradient id="SVGID_35_" gradientUnits="userSpaceOnUse" x1="960.0076" y1="79.6079" x2="1776.0481" y2="79.6079" gradientTransform="matrix(1 0 0 -1 0 971)">
		<stop  offset="0" style="stop-color:#CBCBCB"/>
		<stop  offset="0.9091" style="stop-color:#ACACAC"/>
		<stop  offset="0.9293" style="stop-color:#A0A0A0"/>
		<stop  offset="0.9513" style="stop-color:#989898"/>
		<stop  offset="0.9729" style="stop-color:#AEAEAE"/>
		<stop  offset="0.9861" style="stop-color:#BDBDBD"/>
		<stop  offset="1" style="stop-color:#8E8E8E"/>
	</linearGradient>
	<path class="st35" d="M1077.1,882v-0.2h-1c-0.3,4.7-2.3,9-5.5,12.2c-3.4,3.4-8.1,5.5-13.4,5.5h0H960v1.4h98.2
		C1068.6,900.9,1077.1,892.5,1077.1,882z"/>
	
		<linearGradient id="SVGID_36_" gradientUnits="userSpaceOnUse" x1="960.0076" y1="79.6079" x2="1776.0481" y2="79.6079" gradientTransform="matrix(1 0 0 -1 0 971)">
		<stop  offset="0" style="stop-color:#ECECEC"/>
		<stop  offset="0.9091" style="stop-color:#B8B8B8"/>
		<stop  offset="0.9114" style="stop-color:#B3B3B3"/>
		<stop  offset="0.9285" style="stop-color:#8F8F8F"/>
		<stop  offset="0.9424" style="stop-color:#797979"/>
		<stop  offset="0.9513" style="stop-color:#717171"/>
		<stop  offset="0.9607" style="stop-color:#878787"/>
		<stop  offset="0.98" style="stop-color:#BEBEBE"/>
		<stop  offset="0.9861" style="stop-color:#D1D1D1"/>
		<stop  offset="1" style="stop-color:#666666"/>
	</linearGradient>
	<path class="st36" d="M1077.1,882v-0.2h-1c-0.3,4.7-2.3,9-5.5,12.2c-3.4,3.4-8.1,5.5-13.4,5.5h0H960v1.4h98.2
		C1068.6,900.9,1077.1,892.5,1077.1,882z"/>
	
		<linearGradient id="SVGID_37_" gradientUnits="userSpaceOnUse" x1="842.9484" y1="79.6079" x2="1077.0668" y2="79.6079" gradientTransform="matrix(1 0 0 -1 0 971)">
		<stop  offset="4.122200e-04" style="stop-color:#F2F2F2"/>
		<stop  offset="0.5247" style="stop-color:#F3F3F3"/>
		<stop  offset="1" style="stop-color:#F2F2F2"/>
	</linearGradient>
	<path class="st37" d="M1077.1,882v-0.2h-1c-0.3,4.7-2.3,9-5.5,12.2c-3.4,3.4-8.1,5.5-13.4,5.5h0H960v1.4h98.2
		C1068.6,900.9,1077.1,892.5,1077.1,882z"/>
	
		<linearGradient id="SVGID_38_" gradientUnits="userSpaceOnUse" x1="143.9622" y1="89.7665" x2="704.6187" y2="89.7665" gradientTransform="matrix(1 0 0 -1 0 971)">
		<stop  offset="5.456971e-03" style="stop-color:#F3F3F3"/>
		<stop  offset="6.390000e-02" style="stop-color:#CCCCCC"/>
		<stop  offset="0.5025" style="stop-color:#F3F3F3"/>
		<stop  offset="0.8664" style="stop-color:#CCCCCC"/>
		<stop  offset="0.8728" style="stop-color:#CECECE"/>
		<stop  offset="0.9501" style="stop-color:#E4E4E4"/>
		<stop  offset="1" style="stop-color:#ECECEC"/>
	</linearGradient>
	<path class="st38" d="M843.9,881.8c0-0.4-0.1-0.8-0.1-1.2h0C843.9,881,843.9,881.4,843.9,881.8L843.9,881.8z"/>
	
		<linearGradient id="SVGID_39_" gradientUnits="userSpaceOnUse" x1="843.8528" y1="89.7665" x2="1076.1531" y2="89.7665" gradientTransform="matrix(1 0 0 -1 0 971)">
		<stop  offset="0" style="stop-color:#9B9B9B"/>
		<stop  offset="3.950000e-02" style="stop-color:#A9A9A9"/>
		<stop  offset="0.514" style="stop-color:#E1E1E1"/>
		<stop  offset="0.9628" style="stop-color:#A9A9A9"/>
		<stop  offset="1" style="stop-color:#9B9B9B"/>
	</linearGradient>
	<path class="st39" d="M843.9,881.8c0-0.4-0.1-0.8-0.1-1.2h0C843.9,881,843.9,881.4,843.9,881.8L843.9,881.8z"/>
	
		<linearGradient id="SVGID_40_" gradientUnits="userSpaceOnUse" x1="842.9372" y1="89.7665" x2="1077.0686" y2="89.7665" gradientTransform="matrix(1 0 0 -1 0 971)">
		<stop  offset="4.122200e-04" style="stop-color:#F2F2F2"/>
		<stop  offset="0.5247" style="stop-color:#F3F3F3"/>
		<stop  offset="1" style="stop-color:#F2F2F2"/>
	</linearGradient>
	<path class="st40" d="M843.9,881.8c0-0.4-0.1-0.8-0.1-1.2h0C843.9,881,843.9,881.4,843.9,881.8L843.9,881.8z"/>
	
		<linearGradient id="SVGID_41_" gradientUnits="userSpaceOnUse" x1="143.9622" y1="80.3076" x2="960.0029" y2="80.3076" gradientTransform="matrix(1 0 0 -1 0 971)">
		<stop  offset="0" style="stop-color:#8E8E8E"/>
		<stop  offset="1.390000e-02" style="stop-color:#BDBDBD"/>
		<stop  offset="2.710000e-02" style="stop-color:#AEAEAE"/>
		<stop  offset="4.870000e-02" style="stop-color:#989898"/>
		<stop  offset="7.070000e-02" style="stop-color:#A0A0A0"/>
		<stop  offset="9.089999e-02" style="stop-color:#ACACAC"/>
		<stop  offset="1" style="stop-color:#CBCBCB"/>
	</linearGradient>
	<path class="st41" d="M843.9,881.8L843.9,881.8c0.6,9.9,8.8,17.7,18.8,17.7h0C852.7,899.6,844.6,891.7,843.9,881.8z"/>
	
		<linearGradient id="SVGID_42_" gradientUnits="userSpaceOnUse" x1="143.9622" y1="80.3076" x2="960.0029" y2="80.3076" gradientTransform="matrix(1 0 0 -1 0 971)">
		<stop  offset="0" style="stop-color:#666666"/>
		<stop  offset="1.390000e-02" style="stop-color:#D1D1D1"/>
		<stop  offset="2.000000e-02" style="stop-color:#BEBEBE"/>
		<stop  offset="3.930000e-02" style="stop-color:#878787"/>
		<stop  offset="4.870000e-02" style="stop-color:#717171"/>
		<stop  offset="5.760000e-02" style="stop-color:#797979"/>
		<stop  offset="7.150000e-02" style="stop-color:#8F8F8F"/>
		<stop  offset="8.860001e-02" style="stop-color:#B3B3B3"/>
		<stop  offset="9.089999e-02" style="stop-color:#B8B8B8"/>
		<stop  offset="1" style="stop-color:#ECECEC"/>
	</linearGradient>
	<path class="st42" d="M843.9,881.8L843.9,881.8c0.6,9.9,8.8,17.7,18.8,17.7h0C852.7,899.6,844.6,891.7,843.9,881.8z"/>
	
		<linearGradient id="SVGID_43_" gradientUnits="userSpaceOnUse" x1="843.8528" y1="80.3076" x2="1076.1531" y2="80.3076" gradientTransform="matrix(1 0 0 -1 0 971)">
		<stop  offset="0" style="stop-color:#9B9B9B"/>
		<stop  offset="3.950000e-02" style="stop-color:#A9A9A9"/>
		<stop  offset="0.514" style="stop-color:#E1E1E1"/>
		<stop  offset="0.9628" style="stop-color:#A9A9A9"/>
		<stop  offset="1" style="stop-color:#9B9B9B"/>
	</linearGradient>
	<path class="st43" d="M843.9,881.8L843.9,881.8c0.6,9.9,8.8,17.7,18.8,17.7h0C852.7,899.6,844.6,891.7,843.9,881.8z"/>
	
		<linearGradient id="SVGID_44_" gradientUnits="userSpaceOnUse" x1="842.9372" y1="80.3076" x2="1077.0686" y2="80.3076" gradientTransform="matrix(1 0 0 -1 0 971)">
		<stop  offset="4.122200e-04" style="stop-color:#F2F2F2"/>
		<stop  offset="0.5247" style="stop-color:#F3F3F3"/>
		<stop  offset="1" style="stop-color:#F2F2F2"/>
	</linearGradient>
	<path class="st44" d="M843.9,881.8L843.9,881.8c0.6,9.9,8.8,17.7,18.8,17.7h0C852.7,899.6,844.6,891.7,843.9,881.8z"/>
	
		<linearGradient id="SVGID_45_" gradientUnits="userSpaceOnUse" x1="1750.2219" y1="42.6774" x2="1750.2219" y2="64.4439" gradientTransform="matrix(1 0 0 -1 0 971)">
		<stop  offset="0" style="stop-color:#565656"/>
		<stop  offset="0.7389" style="stop-color:#B5B5B5"/>
		<stop  offset="0.8472" style="stop-color:#B2B2B2"/>
		<stop  offset="0.9363" style="stop-color:#A8A8A8"/>
		<stop  offset="1" style="stop-color:#9B9B9B"/>
	</linearGradient>
	<path class="st45" d="M1724.4,917.5c17.4-3,34.6-6.7,51.6-11h-51.6V917.5z"/>
	
		<linearGradient id="SVGID_46_" gradientUnits="userSpaceOnUse" x1="794.0164" y1="42.6875" x2="794.0164" y2="64.4506" gradientTransform="matrix(1 0 0 -1 0 971)">
		<stop  offset="0" style="stop-color:#565656"/>
		<stop  offset="0.7389" style="stop-color:#B5B5B5"/>
		<stop  offset="0.8472" style="stop-color:#B2B2B2"/>
		<stop  offset="0.9363" style="stop-color:#A8A8A8"/>
		<stop  offset="1" style="stop-color:#9B9B9B"/>
	</linearGradient>
	<path class="st46" d="M960,906.5H144c57.4,14.4,117.2,21.8,177.3,21.8H960h484.1v-21.8H960z"/>
	<rect x="311" y="855.2" class="st47" width="1133" height="23.3"/>
	<polygon class="st48" points="311,880.6 1444.1,880.6 1444.1,878.5 311,878.5 305.3,878.5 305.3,880.6 	"/>
	<path class="st4" d="M1608.6,23C1608.6,23,1608.5,22.9,1608.6,23l0.1,0.1C1608.7,23.1,1608.6,23,1608.6,23z"/>
	
		<linearGradient id="SVGID_47_" gradientUnits="userSpaceOnUse" x1="1137.2496" y1="135.8765" x2="1137.2496" y2="963.1036" gradientTransform="matrix(1 0 0 -1 0 971)">
		<stop  offset="0" style="stop-color:#FFFFFF"/>
		<stop  offset="0.8587" style="stop-color:#FFFFFF"/>
		<stop  offset="1" style="stop-color:#FFFFFF"/>
	</linearGradient>
	<path class="st49" d="M1444.1,428.5c3.4-32.8,26.7-37.8,26.7-37.8h151.4l0-347.7c0-19-14.7-35.2-34.3-35.1l-101.1,0L652.3,835.1
		h791.6C1443,720.4,1441.4,454.2,1444.1,428.5z M1608.6,23c0,0,0.1,0.1,0.1,0.1L1608.6,23C1608.5,22.9,1608.6,23,1608.6,23z"/>
	<g>
		
			<linearGradient id="SVGID_48_" gradientUnits="userSpaceOnUse" x1="6198.1943" y1="567.085" x2="6198.1943" y2="587.6827" gradientTransform="matrix(-1 0 0 -1 7782.4326 971)">
			<stop  offset="0" style="stop-color:#000000"/>
			<stop  offset="0.157" style="stop-color:#050505"/>
			<stop  offset="0.3394" style="stop-color:#131313"/>
			<stop  offset="0.5345" style="stop-color:#2A2A2A"/>
			<stop  offset="0.7385" style="stop-color:#4B4B4B"/>
			<stop  offset="0.9475" style="stop-color:#747474"/>
			<stop  offset="1" style="stop-color:#808080"/>
		</linearGradient>
		<path class="st50" d="M1484.2,388.4h200.1c22.1,0,40.1,17.9,40.1,40.1v5.7c0-22.1-17.9-40.1-40.1-40.1h-200.1
			c-22.1,0-40.1,17.9-40.1,40.1v-5.7C1444.1,406.4,1462,388.4,1484.2,388.4z"/>
		
			<linearGradient id="SVGID_49_" gradientUnits="userSpaceOnUse" x1="6047.6929" y1="294.8698" x2="6347.2793" y2="294.8698" gradientTransform="matrix(-1 0 0 -1 7782.4326 971)">
			<stop  offset="0" style="stop-color:#333333"/>
			<stop  offset="1.128088e-03" style="stop-color:#323232"/>
			<stop  offset="3.100000e-02" style="stop-color:#1C1C1C"/>
			<stop  offset="6.350000e-02" style="stop-color:#0C0C0C"/>
			<stop  offset="0.1007" style="stop-color:#030303"/>
			<stop  offset="0.1522" style="stop-color:#000000"/>
			<stop  offset="0.872" style="stop-color:#000000"/>
			<stop  offset="0.9058" style="stop-color:#050505"/>
			<stop  offset="0.945" style="stop-color:#131313"/>
			<stop  offset="0.9868" style="stop-color:#2A2A2A"/>
			<stop  offset="1" style="stop-color:#333333"/>
		</linearGradient>
		<path class="st51" d="M1687.7,385.4h-206.9c-22.1,0-40.1,17.9-40.1,40.1v501.3c0,22.1,17.9,40.1,40.1,40.1h206.9
			c22.1,0,40.1-17.9,40.1-40.1V425.5C1727.8,403.3,1709.8,385.4,1687.7,385.4z M1720.4,923.4c0,16.8-13.6,30.3-30.4,30.3h-211.5
			c-16.8,0-30.4-13.5-30.4-30.3V428.9c0-15.1,11-27.4,25.3-29.8c1.7-0.4,3.4-0.5,5.1-0.5h37.1c4.7,0,8.5,3.8,8.5,8.5
			c0,4.7,3.8,8.7,8.5,8.7h103.1c4.7,0,8.5-3.9,8.5-8.7c0-4.7,3.8-8.5,8.5-8.5h37.1c16.8,0,30.4,13.5,30.4,30.3L1720.4,923.4
			L1720.4,923.4z"/>
	</g>
</g>
</svg>
