<?xml version="1.0" encoding="utf-8"?>
<!-- Generator: Adobe Illustrator 24.0.0, SVG Export Plug-In . SVG Version: 6.00 Build 0)  -->
<svg version="1.1" id="Layer_1" xmlns="http://www.w3.org/2000/svg" xmlns:xlink="http://www.w3.org/1999/xlink" x="0px" y="0px"
	 viewBox="0 0 814 650" style="enable-background:new 0 0 814 650;" xml:space="preserve">
<style type="text/css">
	.st0{fill:#10FECC;}
	.st1{fill:#FFFFFF;}
	.st2{fill:none;stroke:#DADADA;stroke-linecap:round;stroke-miterlimit:10;stroke-dasharray:6;}
	.st3{clip-path:url(#SVGID_2_);fill:url(#SVGID_3_);}
	.st4{clip-path:url(#SVGID_5_);fill:url(#SVGID_6_);}
	.st5{clip-path:url(#SVGID_8_);fill:url(#SVGID_9_);}
	.st6{clip-path:url(#SVGID_11_);fill:url(#SVGID_12_);}
</style>
<g>
	<g>
		<g>
			<g>
				<path class="st0" d="M300.8,524.6l-6.5-12.3c-2,0.4-6.3,0.6-8.4,0.6c-2.3,0-1.5,0.1-4.5-0.1v11.5h-9.8v-46
					c5.6-0.6,11.1-1.5,16.7-1.5c10.4,0,21,5.5,21,18.4c-0.2,5.6-2,10.3-6.6,13.6l8.1,15C307.3,523.9,303.9,524.2,300.8,524.6z
					 M289,503.8c4.7,0,9.9-2.2,9.9-8.6c0-5.1-4.3-8.7-10.8-8.7c-1.9,0-4.2,0.1-6.7,0.3v16.7C284.2,503.7,286.8,503.8,289,503.8z"/>
				<path class="st0" d="M324.7,524.6c-3.5-0.4-7-0.6-10.4-0.7l20.1-46.3h6.6l20,46.3c-3.5,0-6.9,0.3-10.4,0.7l-4-9.9h-17.7
					L324.7,524.6z M332.1,506.3H343l-5.4-13.2L332.1,506.3z"/>
				<path class="st0" d="M382.1,515.7c5.4,0,9.4-1.2,9.4-4.2c0-3.1-3.4-4-11.6-6.1c-6.3-1.6-16.3-4.5-16.3-13.7
					c0-9.7,6.9-14.8,18.6-14.8c6.5,0,15.2,2.1,18.7,4.5l-4.4,9.2c-5.6-3.5-11.1-4.4-14.3-4.4c-4.5,0-8.3,0.9-8.3,4.3
					c0,3.3,3,4,11.9,6.1c9.7,2.4,16,5.3,16,14.8c0,8.6-7.5,13.6-20.6,13.6c-8.3,0-14.5-2-19.3-4.5l4.2-9.2
					C369.6,513.4,377,515.7,382.1,515.7z"/>
				<path class="st0" d="M419.8,524.3v-37h-14.1v-9.7h38.6v9.7H430v37H419.8z"/>
				<path class="st0" d="M478.8,524.6l-6.5-12.3c-2,0.4-6.3,0.6-8.4,0.6c-2.3,0-1.5,0.1-4.5-0.1v11.5h-9.8v-46
					c5.6-0.6,11.1-1.5,16.7-1.5c10.4,0,21,5.5,21,18.4c-0.2,5.6-2,10.3-6.6,13.6l8.1,15C485.3,523.9,482,524.2,478.8,524.6z
					 M467,503.8c4.7,0,9.9-2.2,9.9-8.6c0-5.1-4.3-8.7-10.8-8.7c-1.9,0-4.2,0.1-6.7,0.3v16.7C462.3,503.7,464.9,503.8,467,503.8z"/>
				<path class="st0" d="M517.7,476.8c14.5,0,24.6,9.9,24.6,24.1c0,14.2-10,24.1-24.6,24.1c-14.5,0-24.6-9.9-24.6-24
					C493,486.8,503.1,476.8,517.7,476.8z M517.6,515.4c8.8,0,14.2-5.6,14.2-14.5s-5.5-14.5-14.1-14.5c-8.8,0-14.3,5.6-14.3,14.5
					C503.4,509.8,508.9,515.4,517.6,515.4z"/>
			</g>
		</g>
	</g>
</g>
<g>
	<g>
		<g>
			<g>
				<path class="st1" d="M300.8,574.9l-6.5-12.3c-2,0.4-6.3,0.6-8.4,0.6c-2.3,0-1.5,0.1-4.5-0.1v11.5h-9.8v-46
					c5.6-0.6,11.1-1.5,16.7-1.5c10.4,0,21,5.5,21,18.4c-0.2,5.6-2,10.3-6.6,13.6l8.1,15C307.3,574.2,303.9,574.4,300.8,574.9z
					 M289,554.1c4.7,0,9.9-2.2,9.9-8.6c0-5.1-4.3-8.7-10.8-8.7c-1.9,0-4.2,0.1-6.7,0.3v16.7C284.2,554,286.8,554.1,289,554.1z"/>
				<path class="st1" d="M324.7,574.9c-3.5-0.4-7-0.6-10.4-0.7l20.1-46.3h6.6l20,46.3c-3.5,0-6.9,0.3-10.4,0.7l-4-9.9h-17.7
					L324.7,574.9z M332.1,556.5H343l-5.4-13.2L332.1,556.5z"/>
				<path class="st1" d="M382.1,565.9c5.4,0,9.4-1.2,9.4-4.2c0-3.1-3.4-4-11.6-6.1c-6.3-1.6-16.3-4.5-16.3-13.7
					c0-9.7,6.9-14.8,18.6-14.8c6.5,0,15.2,2.1,18.7,4.5l-4.4,9.2c-5.6-3.5-11.1-4.3-14.3-4.3c-4.5,0-8.3,0.9-8.3,4.3
					c0,3.3,3,4,11.9,6.1c9.7,2.4,16,5.3,16,14.8c0,8.6-7.5,13.6-20.6,13.6c-8.3,0-14.5-2-19.3-4.5l4.2-9.2
					C369.6,563.7,377,565.9,382.1,565.9z"/>
				<path class="st1" d="M419.8,574.6v-37h-14.1v-9.7h38.6v9.7H430v37H419.8L419.8,574.6z"/>
				<path class="st1" d="M478.8,574.9l-6.5-12.3c-2,0.4-6.3,0.6-8.4,0.6c-2.3,0-1.5,0.1-4.5-0.1v11.5h-9.8v-46
					c5.6-0.6,11.1-1.5,16.7-1.5c10.4,0,21,5.5,21,18.4c-0.2,5.6-2,10.3-6.6,13.6l8.1,15C485.3,574.2,482,574.4,478.8,574.9z
					 M467,554.1c4.7,0,9.9-2.2,9.9-8.6c0-5.1-4.3-8.7-10.8-8.7c-1.9,0-4.2,0.1-6.7,0.3v16.7C462.3,554,464.9,554.1,467,554.1z"/>
				<path class="st1" d="M517.7,527.1c14.5,0,24.6,9.9,24.6,24.1s-10,24-24.6,24c-14.5,0-24.6-9.9-24.6-24
					C493,537,503.1,527.1,517.7,527.1z M517.6,565.7c8.8,0,14.2-5.6,14.2-14.5s-5.5-14.5-14.1-14.5c-8.8,0-14.3,5.6-14.3,14.5
					S508.9,565.7,517.6,565.7z"/>
			</g>
		</g>
	</g>
</g>
<g>
	<g>
		<g>
			<g>
				<path class="st1" d="M300.8,122.5l-6.5-12.3c-2,0.4-6.3,0.6-8.4,0.6c-2.3,0-1.5,0.1-4.5-0.1v11.5h-9.8v-46
					c5.6-0.6,11.1-1.5,16.7-1.5c10.4,0,21,5.5,21,18.4c-0.2,5.6-2,10.3-6.6,13.6l8.1,15C307.3,121.8,303.9,122.1,300.8,122.5z
					 M289,101.7c4.7,0,9.9-2.2,9.9-8.6c0-5.1-4.3-8.7-10.8-8.7c-1.9,0-4.2,0.1-6.7,0.3v16.7C284.2,101.6,286.8,101.7,289,101.7z"/>
				<path class="st1" d="M324.7,122.5c-3.5-0.4-7-0.6-10.4-0.7l20.1-46.3h6.6l20,46.3c-3.5,0-6.9,0.3-10.4,0.7l-4-9.9h-17.7
					L324.7,122.5z M332.1,104.2H343L337.6,91L332.1,104.2z"/>
				<path class="st1" d="M382.1,113.6c5.4,0,9.4-1.2,9.4-4.2c0-3.1-3.4-4-11.6-6.1c-6.3-1.6-16.3-4.5-16.3-13.7
					c0-9.7,6.9-14.8,18.6-14.8c6.5,0,15.2,2.1,18.7,4.5l-4.4,9.2c-5.6-3.4-11.1-4.3-14.3-4.3c-4.5,0-8.3,0.9-8.3,4.3
					c0,3.3,3,4,11.9,6.1c9.7,2.4,16,5.3,16,14.8c0,8.6-7.5,13.6-20.6,13.6c-8.3,0-14.5-2.1-19.3-4.5l4.2-9.2
					C369.6,111.3,377,113.6,382.1,113.6z"/>
				<path class="st1" d="M419.8,122.2v-37h-14.1v-9.7h38.6v9.7H430v37H419.8L419.8,122.2z"/>
				<path class="st1" d="M478.8,122.5l-6.5-12.3c-2,0.4-6.3,0.6-8.4,0.6c-2.3,0-1.5,0.1-4.5-0.1v11.5h-9.8v-46
					c5.6-0.6,11.1-1.5,16.7-1.5c10.4,0,21,5.5,21,18.4c-0.2,5.6-2,10.3-6.6,13.6l8.1,15C485.3,121.8,482,122.1,478.8,122.5z
					 M467,101.7c4.7,0,9.9-2.2,9.9-8.6c0-5.1-4.3-8.7-10.8-8.7c-1.9,0-4.2,0.1-6.7,0.3v16.7C462.3,101.6,464.9,101.7,467,101.7z"/>
				<path class="st1" d="M517.7,74.7c14.5,0,24.6,9.9,24.6,24.1s-10,24.1-24.6,24.1c-14.5,0-24.6-9.9-24.6-24.1
					C493,84.7,503.1,74.7,517.7,74.7z M517.6,113.3c8.8,0,14.2-5.6,14.2-14.5s-5.5-14.5-14.1-14.5c-8.8,0-14.3,5.6-14.3,14.5
					C503.4,107.8,508.9,113.3,517.6,113.3z"/>
			</g>
		</g>
	</g>
</g>
<g>
	<g>
		<g>
			<g>
				<path class="st1" d="M735.4,380.9l-12.3,6.5c0.4,2,0.6,6.3,0.6,8.4c0,2.3,0.1,1.5-0.1,4.5h11.5v9.8h-46
					c-0.6-5.6-1.5-11.1-1.5-16.7c0-10.4,5.5-21,18.4-21c5.6,0.2,10.3,2,13.6,6.6l15-8.1C734.7,374.4,735,377.8,735.4,380.9z
					 M714.6,392.6c0-4.7-2.2-9.9-8.6-9.9c-5.1,0-8.7,4.3-8.7,10.8c0,1.9,0.1,4.2,0.3,6.7h16.7C714.5,397.5,714.6,394.8,714.6,392.6z
					"/>
				<path class="st1" d="M735.4,357c-0.4,3.5-0.6,7-0.7,10.4l-46.3-20.1v-6.6l46.3-20c0,3.5,0.3,6.9,0.7,10.4l-9.9,4v17.7L735.4,357
					z M717,349.5v-10.9l-13.2,5.4L717,349.5z"/>
				<path class="st1" d="M726.5,299.5c0-5.4-1.2-9.4-4.2-9.4c-3.1,0-4,3.4-6.1,11.6c-1.6,6.3-4.5,16.3-13.7,16.3
					c-9.7,0-14.8-6.9-14.8-18.6c0-6.5,2.1-15.2,4.5-18.7l9.2,4.4c-3.5,5.6-4.3,11.1-4.3,14.3c0,4.5,0.9,8.3,4.3,8.3
					c3.3,0,4-3,6.1-11.9c2.4-9.7,5.3-16,14.8-16c8.6,0,13.6,7.5,13.6,20.6c0,8.3-2,14.5-4.5,19.3l-9.2-4.2
					C724.2,312.1,726.5,304.6,726.5,299.5z"/>
				<path class="st1" d="M735.1,261.9h-37V276h-9.7v-38.6h9.7v14.2h37V261.9L735.1,261.9z"/>
				<path class="st1" d="M735.4,202.8l-12.3,6.5c0.4,2,0.6,6.3,0.6,8.4c0,2.3,0.1,1.5-0.1,4.5h11.5v9.8h-46
					c-0.6-5.6-1.5-11.1-1.5-16.7c0-10.4,5.5-21.1,18.4-21.1c5.6,0.2,10.3,2.1,13.6,6.6l15-8.1C734.7,196.3,735,199.7,735.4,202.8z
					 M714.6,214.6c0-4.7-2.2-9.9-8.6-9.9c-5.1,0-8.7,4.3-8.7,10.8c0,1.9,0.1,4.2,0.3,6.7h16.7C714.5,219.4,714.6,216.8,714.6,214.6z
					"/>
				<path class="st1" d="M687.6,163.9c0-14.5,9.9-24.6,24.1-24.6s24,10,24,24.6c0,14.5-9.9,24.6-24,24.6
					C697.5,188.6,687.6,178.5,687.6,163.9z M726.2,164c0-8.8-5.6-14.2-14.5-14.2s-14.5,5.5-14.5,14.1c0,8.8,5.6,14.3,14.5,14.3
					C720.6,178.2,726.2,172.8,726.2,164z"/>
			</g>
		</g>
	</g>
</g>
<g>
	<g>
		<g>
			<g>
				<path class="st1" d="M126,380.9l-12.3,6.5c0.4,2,0.6,6.3,0.6,8.4c0,2.3,0.1,1.5-0.1,4.5h11.5v9.8h-46
					c-0.6-5.6-1.5-11.1-1.5-16.7c0-10.4,5.5-21,18.4-21c5.6,0.2,10.3,2,13.6,6.6l15-8.1C125.3,374.4,125.5,377.8,126,380.9z
					 M105.2,392.6c0-4.7-2.2-9.9-8.6-9.9c-5.1,0-8.7,4.3-8.7,10.8c0,1.9,0.1,4.2,0.3,6.7h16.7C105.1,397.5,105.2,394.8,105.2,392.6z
					"/>
				<path class="st1" d="M126,357c-0.4,3.5-0.6,7-0.7,10.4L79,347.3v-6.6l46.3-20c0,3.5,0.3,6.9,0.7,10.4l-9.9,4v17.7L126,357z
					 M107.6,349.5v-10.9L94.4,344L107.6,349.5z"/>
				<path class="st1" d="M117,299.5c0-5.4-1.2-9.4-4.2-9.4c-3.1,0-4,3.4-6.1,11.6C105.1,308,102.1,318,93,318
					c-9.7,0-14.8-6.9-14.8-18.6c0-6.5,2.1-15.2,4.5-18.7l9.2,4.4c-3.4,5.6-4.3,11.1-4.3,14.3c0,4.5,0.9,8.3,4.3,8.3
					c3.3,0,4-3,6.1-11.9c2.4-9.7,5.3-16,14.8-16c8.6,0,13.6,7.5,13.6,20.6c0,8.3-2.1,14.5-4.5,19.3l-9.2-4.2
					C114.8,312.1,117,304.6,117,299.5z"/>
				<path class="st1" d="M125.7,261.9h-37V276H79v-38.6h9.7v14.2h37V261.9z"/>
				<path class="st1" d="M126,202.8l-12.3,6.5c0.4,2,0.6,6.3,0.6,8.4c0,2.3,0.1,1.5-0.1,4.5h11.5v9.8h-46
					c-0.6-5.6-1.5-11.1-1.5-16.7c0-10.4,5.5-21.1,18.4-21.1c5.6,0.2,10.3,2.1,13.6,6.6l15-8.1C125.3,196.3,125.5,199.7,126,202.8z
					 M105.2,214.6c0-4.7-2.2-9.9-8.6-9.9c-5.1,0-8.7,4.3-8.7,10.8c0,1.9,0.1,4.2,0.3,6.7h16.7C105.1,219.4,105.2,216.8,105.2,214.6z
					"/>
				<path class="st1" d="M78.2,163.9c0-14.5,9.9-24.6,24.1-24.6s24,10,24,24.6c0,14.5-9.9,24.6-24.1,24.6
					C88.1,188.6,78.2,178.5,78.2,163.9z M116.8,164c0-8.8-5.6-14.2-14.5-14.2s-14.5,5.5-14.5,14.1c0,8.8,5.6,14.3,14.5,14.3
					C111.2,178.2,116.8,172.8,116.8,164z"/>
			</g>
		</g>
	</g>
</g>
<line class="st2" x1="127.4" y1="3.5" x2="127.4" y2="646.5"/>
<line class="st2" x1="77.2" y1="3.5" x2="77.2" y2="646.5"/>
<line class="st2" x1="806" y1="123.9" x2="13.3" y2="123.9"/>
<line class="st2" x1="807" y1="73.7" x2="14.3" y2="73.7"/>
<line class="st2" x1="807" y1="425.5" x2="7" y2="425.5"/>
<line class="st2" x1="807" y1="475.8" x2="7" y2="475.8"/>
<line class="st2" x1="807" y1="526" x2="7" y2="526"/>
<line class="st2" x1="807" y1="576.3" x2="7" y2="576.3"/>
<line class="st2" x1="686.6" y1="3.5" x2="686.6" y2="646.5"/>
<line class="st2" x1="736.8" y1="3.5" x2="736.8" y2="646.5"/>
<g>
	<g>
		<g>
			<g>
				<g>
					<g>
						<g>
							<g>
								<g>
									<g>
										<g>
											<defs>
												<path id="SVGID_1_" d="M535,125.3h-79.6h-126H272c-12.1,0-22.2,9.8-21.9,22c0.2,11.7,9.8,21.1,21.5,21.1h70.2h4.9
													c12.1,0,22.2,9.8,21.9,22c-0.2,11.7-9.8,21.1-21.5,21.1H304h-6.3c-12.1,0-22.2,9.8-21.9,22c0.2,11.7,9.8,21.1,21.5,21.1
													h6.7h0.8c12.1,0,22.2,9.8,21.9,22c-0.2,11.7-9.8,21.1-21.5,21.1h-24.1h-81.2c-12.1,0-22.2,9.8-21.9,22
													c0.2,11.7,9.8,21.1,21.5,21.1h81.6h94.1c12.1,0,22.2,9.8,21.9,22c-0.2,11.7-9.8,21.1-21.5,21.1h-41l0,0
													c-12.1,0-22.2,9.8-21.9,22c0.2,11.7,9.8,21.1,21.5,21.1h23.9v-0.3h178c82.9,0,150.1-66.9,150.6-149.6
													C687.2,193.5,618.4,125.3,535,125.3z"/>
											</defs>
											<clipPath id="SVGID_2_">
												<use xlink:href="#SVGID_1_"  style="overflow:visible;"/>
											</clipPath>
											
												<linearGradient id="SVGID_3_" gradientUnits="userSpaceOnUse" x1="119" y1="91.3" x2="701.6" y2="91.3" gradientTransform="matrix(1 0 0 -1 0 372)">
												<stop  offset="0" style="stop-color:#10FECC"/>
												<stop  offset="0.2091" style="stop-color:#39FEAD"/>
												<stop  offset="0.6761" style="stop-color:#A0FF61"/>
												<stop  offset="1" style="stop-color:#EBFF29"/>
											</linearGradient>
											<rect x="119" y="111.5" class="st3" width="582.6" height="338.4"/>
										</g>
									</g>
								</g>
							</g>
						</g>
					</g>
					<g>
						<g>
							<g>
								<g>
									<g>
										<g>
											<defs>
												<path id="SVGID_4_" d="M274.2,426.7h-51.8c-10.3,0-18.7-8.4-18.7-18.7v-5.2c0-10.3,8.4-18.7,18.7-18.7h51.8
													c10.3,0,18.7,8.4,18.7,18.7v5.2C292.9,418.3,284.5,426.7,274.2,426.7z"/>
											</defs>
											<clipPath id="SVGID_5_">
												<use xlink:href="#SVGID_4_"  style="overflow:visible;"/>
											</clipPath>
											
												<linearGradient id="SVGID_6_" gradientUnits="userSpaceOnUse" x1="119" y1="91.3" x2="701.6" y2="91.3" gradientTransform="matrix(1 0 0 -1 0 372)">
												<stop  offset="0" style="stop-color:#10FECC"/>
												<stop  offset="0.2091" style="stop-color:#39FEAD"/>
												<stop  offset="0.6761" style="stop-color:#A0FF61"/>
												<stop  offset="1" style="stop-color:#EBFF29"/>
											</linearGradient>
											<rect x="119" y="111.5" class="st4" width="582.6" height="338.4"/>
										</g>
									</g>
								</g>
							</g>
						</g>
					</g>
					<g>
						<g>
							<g>
								<g>
									<g>
										<g>
											<defs>
												<path id="SVGID_7_" d="M179,254.3h-32.9c-10.3,0-18.7-8.4-18.7-18.7v-5.2c0-10.3,8.4-18.7,18.7-18.7H179
													c10.3,0,18.7,8.4,18.7,18.7v5.2C197.8,246,189.4,254.3,179,254.3z"/>
											</defs>
											<clipPath id="SVGID_8_">
												<use xlink:href="#SVGID_7_"  style="overflow:visible;"/>
											</clipPath>
											
												<linearGradient id="SVGID_9_" gradientUnits="userSpaceOnUse" x1="117.4" y1="89.5" x2="700" y2="89.5" gradientTransform="matrix(1 0 0 -1 0 372)">
												<stop  offset="0" style="stop-color:#10FECC"/>
												<stop  offset="0.2091" style="stop-color:#39FEAD"/>
												<stop  offset="0.6761" style="stop-color:#A0FF61"/>
												<stop  offset="1" style="stop-color:#EBFF29"/>
											</linearGradient>
											<rect x="117.4" y="113.3" class="st5" width="582.6" height="338.4"/>
										</g>
									</g>
								</g>
							</g>
						</g>
					</g>
					<g>
						<g>
							<g>
								<g>
									<g>
										<g>
											<defs>
												<path id="SVGID_10_" d="M235.8,254.3h0.1c-11.8,0-21.3-9.6-21.3-21.3l0,0c0-11.8,9.6-21.3,21.3-21.3h-0.1
													c11.8,0,21.3,9.6,21.3,21.3l0,0C257.2,244.8,247.6,254.3,235.8,254.3z"/>
											</defs>
											<clipPath id="SVGID_11_">
												<use xlink:href="#SVGID_10_"  style="overflow:visible;"/>
											</clipPath>
											
												<linearGradient id="SVGID_12_" gradientUnits="userSpaceOnUse" x1="119" y1="91.3" x2="701.6" y2="91.3" gradientTransform="matrix(1 0 0 -1 0 372)">
												<stop  offset="0" style="stop-color:#10FECC"/>
												<stop  offset="0.2091" style="stop-color:#39FEAD"/>
												<stop  offset="0.6761" style="stop-color:#A0FF61"/>
												<stop  offset="1" style="stop-color:#EBFF29"/>
											</linearGradient>
											<rect x="119" y="111.5" class="st6" width="582.6" height="338.4"/>
										</g>
									</g>
								</g>
							</g>
						</g>
					</g>
				</g>
			</g>
		</g>
		<g>
			<g>
				<path class="st1" d="M464.4,340.7c-11.9,0-21.5,9.7-21.5,21.6s9.7,21.6,21.6,21.6h64.9c2.2,0.1,4.3,0.2,6.5,0.2
					c59.7,0,108-48.4,108-108s-48.4-108-108-108c-1.8,0-3.6,0-5.3,0.1V168H423.9c-11.9,0-21.6,9.7-21.6,21.6
					c0,11.9,9.7,21.6,21.6,21.6h25.6h8.4c11.9,0,21.6,9.7,21.6,21.6s-9.7,21.6-21.6,21.6H430h-35c-11.9,0-21.6,9.7-21.6,21.6
					s9.7,21.6,21.6,21.6h35.1h61.2c11.9,0,21.6,9.7,21.6,21.6s-9.7,21.6-21.6,21.6L464.4,340.7z"/>
			</g>
		</g>
	</g>
</g>
</svg>
