<?xml version="1.0" encoding="utf-8"?>
<!-- Generator: Adobe Illustrator 24.0.0, SVG Export Plug-In . SVG Version: 6.00 Build 0)  -->
<svg version="1.1" id="Layer_1" xmlns="http://www.w3.org/2000/svg" xmlns:xlink="http://www.w3.org/1999/xlink" x="0px" y="0px"
	 viewBox="0 0 2166 1544" style="enable-background:new 0 0 2166 1544;" xml:space="preserve">
<style type="text/css">
	.st0{opacity:0.15;fill:#7DFE7A;}
</style>
<path class="st0" d="M2166,11.1c0,400.77,0,822.37,0,1223.14c-289.64-167.34-548.13-80.12-820.14,35.6
	c-239.84,102.2-518.16,267.21-776.51,274.15c-13.69,0-27.38,0-41.07,0c-277.81-2.87-428.6-259.74-467.55-502.83
	c-44.78-296.76,103.83-528.4,424.26-481.48c73.03,11.53,140.89,40.48,209.65,65.94c130.97,50.21,218.56,60.11,335.17,31.23
	c409.23-111.84,447.97-471.38,753.01-598.4C1897.35,6.12,2054.34-14.81,2166,11.1z"/>
</svg>
