<svg id="Layer_1" xmlns="http://www.w3.org/2000/svg" xmlns:xlink="http://www.w3.org/1999/xlink" viewBox="0 0 1920 1044" style="enable-background:new 0 0 1920 1044"><style>.st0{fill:#f6f6f6}</style><g><path class="st0" d="M414.8 933.2c-4.1-.4-5.9-.1-6.1.2C412.5 933.6 415.6 933.7 414.8 933.2z"/><path class="st0" d="M505.4 946.1c-2-.3-3.6-.4-5.4-.6C502 946 504.1 946.3 505.4 946.1z"/><path class="st0" d="M1 6.7l2 1.6c.9-.3 1.8-.5 2.4-1C4 7.1 2.4 6.9 1 6.7z"/><path class="st0" d="M673.4 953c-.3.0-.4.0-.8-.1C668.3 953.5 670.8 953.3 673.4 953z"/><path class="st0" d="M1056.1 907.3c-1-.5-2.6-.6-4.3-.7C1052.1 906.9 1053.1 907.2 1056.1 907.3z"/><path class="st0" d="M771.4 941.9l7.2.1C775.7 941.8 773.4 941.8 771.4 941.9z"/><path class="st0" d="M1206.9 874.4c-.5-.1-1-.2-1.6-.2-1.3.5-2.9 1-5.4 1.2C1201.8 875.3 1203.5 875.2 1206.9 874.4z"/><path class="st0" d="M1199.8 875.3c-.9.0-1.9.0-3.1.1C1197.9 875.5 1198.9 875.4 1199.8 875.3z"/><path class="st0" d="M1348.2 864.7c-.8-.3-1.9-.5-2.8-.7-1.5.1-3.3.2-4.8.3L1348.2 864.7z"/><path class="st0" d="M779.8 939.8c1.2-.4 2.5-.7 3.8-1C780.4 939.3 776.8 939.5 779.8 939.8z"/><path class="st0" d="M785.5 938.5c-.6.1-1.3.2-1.9.3C784.3 938.8 785 938.7 785.5 938.5z"/><path class="st0" d="M1221.8 869.9c0 0 .2-.2.3-.3C1221.9 869.6 1221.8 869.8 1221.8 869.9z"/><path class="st0" d="M913.8 141.9c-.2.0-.3.0-.4.0C913.4 141.9 913.5 141.9 913.8 141.9z"/><path class="st0" d="M1198.3 85.3c.6-.1 1.2-.1 1.8-.1C1199.4 85.2 1198.8 85.2 1198.3 85.3z"/><path class="st0" d="M1049.4 114.4c0 0 .09999999999990905.0.0.0C1049.6 114.4 1049.6 114.4 1049.4 114.4z"/><path class="st0" d="M1943.6 787.4l-4.8 16.9c-5.5-29.4 8.7-25.4 3.3-55l3.3 9.4c-1.9-15.2.1-56-8.3-70.9 1.2-2.7 4-6.2 4.8.5 1.3-36.3-8.9-80.8-3.7-109l2.5 2.8c-.7-6.8-4.8-11.8-2.2-20.3 1.1.4 2.5 2.7 2.7-.4-.9-3.6-4.4-18-3-27l2.9 7.7c3.3-35.4-7-54.3-8.7-84 7.5.1 9.9-27.8 11.1-41.7l1.1.5c.9-41.2-6.2-70-9.1-108.2 2-5.9 3.3-13.9 4-23.1.4-4.6.7-9.5.9-14.7v-1c0-.6.0-1.1.0-1.7.0-1.1.0-2.3.1-3.4.1-2.3.1-4.6.0-6.9.0-1.2.0-2.3.0-3.5.0-.1.0-.3-.1-.4l-.4-.3-.8-.6-1.6-1.2c-2.1-1.6-4.3-3.3-6.5-5-1.1-.8-2.2-1.7-3.3-2.5-1-.7-2-1.5-3-2.2-1.3-1-2.7-1.9-4-2.9-2.7-1.9-5.4-3.9-8.2-5.8-5.5-3.8-11.1-7.6-16.5-11.4-11-7.4-21.6-14.6-30.9-21.2 5.2 4.5-4.5 2.9-12.1-.7-4.2-3.2-11.5-6.1-17.1-8.6-5.6-2.5-9.4-4.6-6.6-6.4l3.3 2c-1.6-4.1-7.7-8.6-15.3-13.1-7.6-4.5-16.9-8.8-24.8-12.8l-7.5 4.6c-8.6-7.3-20.1-13.9-32.8-20-12.7-6-26.6-11.4-40-16.2-13.4-4.8-26.4-9.1-37.3-13.1-5.4-2.1-10.4-4-14.6-6-4.2-2-7.7-4-10.3-6-11.9-2-25.7-6.2-37.7-7.7l2.3-3.3c-15.5-4.8-27.3-8.2-40.2-11.3-3.2-.8-6.5-1.6-10-2.3-3.5-.7-7.1-1.5-10.9-2.3-3.8-.8-7.9-1.5-12.3-2.3-4.4-.8-9.1-1.5-14.2-2.3l9-1.1c-5.7-1.1-10.6-1.3-15-1-4.4.3-8.3 1-12.1 1.9-3.8.8-7.6 1.7-11.7 2.2-4.1.6-8.6.7-13.8.1l-5.3-6.2c-20.1-2.2-40.4-4.8-61-5.9-5.1-.2-10.3-.5-15.4-.5-2.6.0-5.1.0-7.7.0-2.6.0-5.1.1-7.6.2-5 .2-10 .6-15 1-2.5.2-5 .5-7.4.8-2.5.3-4.9.7-7.4 1.1.6-.8 1.7-2.5 8.2-2.9-4.7.1-11.7.2-19.3.2-1.9.0-3.9.0-5.8.1-1 0-2 0-3 0l-3 .1c-4 .2-8 .3-11.7.6s-7.3.5-10.5.9c-3.2.4-5.9.9-8.1 1.4-3.7.9-5.6 2.1-4.9 3.5-2.4-1.5-11.8-.8-23.1 1-3.2.5-6.6 1.1-9.9 1.7-3.4.7-6.8 1.4-10.1 2.1-3.3.7-6.6 1.4-9.7 2.1-3.1.7-6 1.4-8.6 2l2.5-4.1c-8.5 3.5-12.8 5.6-18.1 7.4-2.6.9-5.5 1.8-9.2 2.8-1.9.5-4 1-6.3 1.5-1.2.3-2.5.5-3.8.8-1.3.3-2.8.6-4.3 1-5.5.5-5.9-1.6.3-2.3-8.7.8-12.1 2.2-15.9 3.6-4.1 1.6-8.6 3.3-20.7 4.5l8.1-3.9c-10.1 1.7-14.6 2.8-17.9 4.1-3.3 1.3-5.3 2.7-10.3 5.1-6 2-15.5 3.7-23.9 4.6-8.4.9-15.9 1-18-.2-1.9 2.5-11.8 7.4-23.7 9.1-2-.9 1.9-2.5 3.9-3.4-33.7 4.8-47.2 14.8-71 16.1-.9-1.1-2.5-1.3-4.5-1.3 13-2.7 24.8-5.2 33-6.9 6.8-1.4 11.3-2.3 12.1-2.4-1.5-3.1-22.3.8-7.3-7.3-15.9 6.2-42.8 17.7-63.8 20.3-1.1-.1-2.2-.2-3.1-.6l2-.8c-4.8.6-9 1.7-12.8 3.1-6.7.8-11 1.1-17.3 2.3-1.6-1.1-7.8-.4-14.8.9-7.1 1.2-15 2.9-20.3 3.7 1.9 3.5-11.8 5.1 1.3 6-.4-.1 3.2-.9 9.3-2.1 1.5-.4 3.4-.8 4.4-1.2-.2.1-.4.3-.6.4 3.4-.7 7.4-1.4 11.8-2.3 4.4-.9 9.2-1.8 14.3-2.8-7.7 3.4-16 6.6-28.2 6.6-4.7 3.3-10 6.7-13.1 8.4-4-.7-8.8-1.1-13.8-1.3-5-.2-10.2-.3-15.1-.5-9.7-.3-18-.6-20.4-1.9-8 1.6-16.7 3.2-25.7 4.7-9 1.5-18.1 2.9-26.8 4.4-17.5 2.9-33.5 6.2-43.3 10.6-9.2 1.8-11.1-1-14.7-1.7 5.3-1.2 11.7-1.7 14.5-3-4.6.9-10.3 1.7-16.4 2.5-6.1.8-12.6 1.4-18.5 2.2-6 .8-11.5 1.6-15.8 2.5-4.3.9-7.3 1.9-8.3 3.2-23.9-.6 12.8-5.3-19.6-2.4l4.2-1.8c-4-.2-8-.3-11.8-.4s-7.6-.1-11.3.0c-7.4.2-14.4.7-21.3 1.4-6.9.6-13.6 1.4-20.3 2.3-6.7.9-13.3 1.9-20 2.8-6.7.8-13.4 1.6-20.3 2.3-3.5.4-7 .7-10.5.9-1.8.1-3.6.3-5.4.4-1.8.1-3.6.1-5.5.1-13.2.1-27.3-.3-42.7-2.8 1.4.3 2.3.6 2.8 1.1-5-.5-10.1-.9-15.1-1.3-2.5-.2-5.1-.4-7.6-.5-1.3-.1-2.5-.1-3.8-.3l-3.8-.4c-10.1-.9-20.4-1.6-30.6-2.4-10.2-1-20.5-1.9-30.8-2.7-10.2-1.1-20.5-2.3-30.7-3.4-1.3-.1-2.6-.3-3.8-.5l-3.8-.6-7.6-1.1c-5.1-.8-10.1-1.5-15.2-2.3-10.1-1.7-20-3.7-29.9-5.7-4.9-1.1-9.8-2.3-14.6-3.5-4.8-1.2-9.7-2.4-14.4-3.8-4.7-1.4-9.4-2.9-14-4.4-2.3-.8-4.6-1.5-6.9-2.3l-3.4-1.2c-1.1-.4-2.2-.9-3.4-1.3-10.3-3.6-16.3-4.9-21.5-5.4-5.2-.6-9.6-.5-16.6-1.4l-2.6-5.1-6-.7-6-.8-12-1.6c-2-.5-4-1-5.9-1.5-1.9-.6-3.7-1.2-5.5-1.9-3.6-1.4-6.9-2.8-10.2-4.4-6.6-3.1-12.5-6.9-18.8-10.6-6.3-3.6-12.7-7.6-20.1-11.1-3.7-1.7-7.6-3.6-11.9-5.2-2.1-.8-4.3-1.7-6.6-2.4-2.3-.8-4.7-1.5-7.2-2.3l1.4 2.3 1.4 2.2c-1.6-.8-3.4-1.7-5.4-2.7-2-1-4.1-2-6.3-3.1-2.2-1.1-4.5-2.1-6.7-3.2-2.2-1.1-4.4-2.2-6.4-3.3-4.1-2.1-7.7-4.1-9.9-5.6-2.2-1.6-3.2-2.6-2.1-3-1.6-.3-6.1.0-9.9-3.8l1.2-1.9c-2.8-1.1-5.4-2.4-8.1-3.6l-8.1-3.7-8-3.8c-2.7-1.3-5.4-2.5-8-3.9-10.5-7.8-7.8-8.8-6.6-10.5.6-.9.9-1.9-.9-4.1-.9-1.1-2.3-2.5-4.5-4.2-2.1-1.8-4.9-4-8.6-6.8-6-3.8-15.1-8.7-22.2-12.3-3.6-1.8-6.6-3.3-8.6-4-1-.4-1.7-.5-2.1-.5C5.8 3.2 5.7 3.5 6 4c.8.8 1.7 1.7 2.5 2.6-.8.7-1.3 2.2-1.4 4.6-1.4-1-2.8-2-4.1-3C2.5 8.4 2 8.5 1.5 8.6.5 7.7.0 7.3.0 7.3V9c-1.1.2-2.2.4-3.3.6-2.1.4-3.9 1.1-4.9 2.4-.2.3-.5.7-.6 1.1-.1.5-.1 1-.1 1.5.1 1.1.4 2.5 1.2 4.1C-6.5 21.4-4.1 25 0 29.6v110.7l-1.3-1.4 1.3 4v17.2c-1-.5-1.9-2.2-2.3-5.6-3.5 12.5 2.5 11.1-1.4 21.8-.6 1.2-.9.6-1.2-.4l2.1 12.2c-1.5-2.4-5 2-4-5.5-4.1 21.9 5.3 35.3-.1 43.6l-.4-1.8c1.8 22.7 3.8 13.1 7.3 16.3v14.2l-8.8 10.5 5.2 3c-.2 3.1-.6 9.3-2.7 8.2 3.5 11.7 2.3-2 5.6 4.8-4.7 15.1 2.2 41.6-6.1 45 3.9 5.4 3-14.4 5.8 1.7-8.9 4.6 1.5 18.6-2.6 32.4-4.6-4.2-2.2-17.3-6.3-3.5 7.8 8.3-1.7 26.8-.2 38.5 6.2.5 2.6 25.3 4.6 44.8-2.1-1.2-3.4 36.7-5.6 54.9l-1-.5c6.2 3.5 5.1 22.2 6.3 35.9-3.7-.5-5.2-3-6.9-10.4v12.8c2 3 3.1 7 3.8 15.3l-4.7-3.2c.3 17 5.5 34.3 2.4 56.3 2.9.8 7.5-7.5 11-5.7v11.9c-1.5-.4-2.8-1.7-3.3-4.8.3 2 2 7.1 1 11.1l-4-9.3c-1.7 10 3.3 5.2 2.9 13.2-3.4-.2-2.4 5.9-5.1 4.8-.3-2 1.4-7 .1-10-.6 9-2.6 19.9-5.1 23.5 1.9-.8 4.5.0 5 6.6.2 17-4 5.8-5.8 15.8 2.3 4.1-.1 15 4.9 15.3.0 5-2.4 5.9-3.7 7.8 2.2 8.8.6 41.2 6 31.3l.3-2.3c.1.4.1.9.2 1.4 1.3 7.2 1.7 14.6 1.7 22 0 3.7-.1 7.5-.3 11.2-.1 1.9-.2 3.8-.3 5.7-.1 2.3-.2 4.5-.3 6.8-.2.6.4 1 .7 1.5l1.1 1.5 2.3 2.9c.4.5.8 1 1.2 1.5l1.1 1.3c.7.8 1.4 1.6 2.1 2.4 2.8 3.2 5.7 6.3 8.7 9.3 1.5 1.5 3.1 3 4.6 4.4 1.6 1.4 3.2 2.8 4.8 4.2.8.7 1.6 1.4 2.5 2 .8.7 1.7 1.3 2.5 2 1.7 1.3 3.4 2.6 5.2 3.8l-1.2.9c8.7 5.7 18 12.2 27.2 17.8 2.3 1.4 4.6 2.8 6.8 4.1 2.3 1.3 4.5 2.5 6.7 3.6 4.3 2.2 8.4 4.2 12.1 5.4 5.3 3 10.7 9.2 7.2 9.1 7.4 3.4 11.8 5 16.6 7.4 2.5 1.1 5.1 2.4 8.3 4.2 1.6.9 3.3 1.9 5.3 3.1 1 .6 2 1.2 3.1 1.9 1.1.7 2.3 1.3 3.5 2-4.1-1.2-5.9-1.6-6.6-1.7-.7.0-.4.4-.2.6.5.4.5.3-9.4-4.9 4.5 2.6 8.1 4.8 11.3 6.7 3.2 1.8 6.1 3.5 9 5 3 1.5 6.1 2.9 9.9 4.3 3.9 1.3 8.4 2.7 14.3 4.1-4.6-.1-1.6 2.4 3.9 5.3 5.6 2.8 13.6 5.8 18.7 7.3l-12.6-7.6c5.5 1.9 10.5 3.8 15.3 5.7 4.9 1.9 9.6 3.7 14.3 5.5l-7.6 2.1c4.9 2.5 9.8 4.6 14.8 6.5 5 1.8 10 3.3 15 4.6 2.5.7 5 1.3 7.4 1.9 1.2.3 2.5.6 3.7.8 1.2.3 2.5.5 3.7.8 4.9 1 9.7 1.9 14.5 2.8 2.4.5 4.7.9 7 1.3 2.3.4 4.6.8 6.9 1.2 4.5.8 9 1.8 13.3 2.9 2.1.5 4.3 1.2 6.3 1.8 2.1.7 4.2 1.3 6.2 2 4.1 1.4 8 3.1 11.8 5.1 12.7-.3-23-7.5-11.3-8.6 5 1.3 9.9 2.9 14.5 4.7 4.7 1.8 9 3.7 13.1 5.3 8.1 3.3 14.5 6.2 17.7 6.9 3.4 1 6.4 1.8 9.1 2.2 2.7.5 5.1.7 7.3.9 4.4.3 8 0 11.5-.2 3.6-.3 7.2-.5 11.8-.3 4.5.2 10 .6 17.3 2.1-3.4-2.1-5.9-6.7 16.3-5 1.3.2 2.5.5 3.6.7 1.1.2 2.2.4 3.2.7 2 .5 3.8 1 5.3 1.5 3 1 5 2.1 5.9 3.1 1.8 2-.6 3.5-7.3 3.4-5-.4-7.3-1.2-7-1.7-6.8-.3-15.7-1-7.9 1.9l3-1.2c2.5.8 6.1 1.5 10.1 2.2 4 .7 8.3 1.4 12 2.1 7.5 1.3 12.9 2.6 9.3 3.5 8 .2 9.8-.4 8.1-1-1.2-.5-4-1.2-7.6-1.9 1.5.3 3 .5 4.5.8.8.1 1.5.2 2.2.4.7.1 1.5.2 2.2.3 1.4.2 2.9.3 4.3.5 5.6.6 10.8 1.1 16.1 1.5 5.3.4 10.6.9 16.3 1.3 5.7.4 11.8.9 18.7 1.7-4.3-1.1-8.1-3.2-3.8-2.9 20.1 2.2 24.6 1.8 27.6.8 2.9-1 4.2-2.3 17.9-2.2 7.7 1.5 6.2 2.8 6.3 3.7.0.4.4.8 2.6.9 1.1.1 2.6.1 4.7.1 1 0 2.3.0 3.6-.1.7.0 1.4.0 2.2-.1.8.0 1.6-.1 2.5-.1 16.8 1.8 3.5 4.2-3.3 5.4 12.7-1.3 24.5-.7 34.9.4 2.6.3 5.1.6 7.6.8 2.4.3 4.8.5 7 .8 4.5.5 8.5.9 12.1 1l-13.2 1.3c7.9-.8 14.4-.8 21-.8l-7.6-3.1c7.8.5 14.3.5 14.2 1.8 8-2.1-6.2-5.2 9.6-8 10.4 1.4 31.4-2.3 35.1 1.8-29.3-.8-2.9 3.2-17.3 4.8 3.9-.1 8.2-.1 13.1.2 1.2.4-1.1.9-3.2 1.2 15.7 1.6 19.2.3 22.9-1.5 3.7-1.7 7.4-3.9 23.6-4.4-2 1.2.0 2.3 3 2.9 3.1.6 7.3.8 10 .5-13 .5-6.5-3.6 5.3-5.9 10.4.5 16-.1 20.3-.9 4.3-.8 7.4-1.7 12.8-1.9l-12.4-.1c4-2.6 14.3-2.9 28.6-4.4.4.5-.6.9-2 1.2 2.2-.3 4.5-.5 6.9-.6 4.5-.2 9.3.1 14.2.3 5 .2 10.2.6 15.5.5 5.3-.1 10.7-.6 16.2-1.8 10.6.7 1.7 4.3 10.9 4.5 12.3-2.8 19.2-2.7 26.3-2.6 7.1.0 14.4.1 27.3-2.8-4.1-1-6.5-1.4-5.5-2.1.5-.3 1.7-.8 4-1.5s5.5-1.7 9.9-3.1l-10.6 2-10.6 1.8c-7.1 1.2-14.2 2.5-21.3 3.6l6.7-1.9 6.7-2 13.3-3.9c-6.5.8-13.2 2.1-19.3 3.3-6.1 1.1-11.6 2-15.5 2.2 12.7-3.9 11.5-3 4.8-4.9 9.3 1.5 17.9-.3 26.8-2.3 2.2-.5 4.5-1 6.8-1.5 2.3-.5 4.6-1 6.9-1.4 4.7-.8 9.6-1.4 14.9-1.3l1.2 7.7c7.9-.3 15.2-1.3 22.3-2.5 7.1-1.3 14-3.1 21.2-4.9 7.2-1.9 14.6-3.9 22.7-5.8 8.1-2 16.9-3.8 26.8-5.3-4.3.4-8.6.9-13 1.3 4.3-4 23.9-5.3 36-9.3-.3 2.8 7.9 2 13.8 2.3-1.3-1.7 28.3-6 29.9-11.8 6.1-.1 12.2-.3 18.3-.4 7.8-1.3 13.8-2.8 18.8-4.4 5-1.6 9.1-3.5 13.2-5.2 4.1-1.7 8.1-3.5 13-5.1 4.9-1.6 10.8-2.9 18.3-4-8.3 4.3 5.8 3.8-13.6 9.2 10-1.7 19-2.7 18.7-4.5 3.1.3 9.8-1.6 17-3.4 7.2-1.8 14.9-3.5 19.8-2.8 4-1.7 4.9-4.5 16.3-5.6.8.2.7.6.5.9 1.1-.6 4.5-1.4 7.1-2.2 3.1-.9 5-2-.3-2.9 4.1.6 8.6 1 13.3 1.1 2.3.1 4.8.1 7.2.0 2.5.0 5-.1 7.5-.2 5.1-.2 10.4-.5 15.7-.9 5.3-.4 10.8-.7 16.2-1.1 2.7-.2 5.4-.4 8-.6 1.3-.1 2.7-.2 4-.3 1.3-.1 2.6-.1 3.9-.2 5.2-.2 10.3-.4 15.2-.5 9.7-.2 18.5.5 25.5 2.1 2.8-.2 5.7-.3 8.6-.5 1.5-.1 2.9-.2 4.4-.3 1.5-.1 3-.1 4.5-.2 6-.2 12.1-.5 18.2-.7 3-.1 6.1-.2 9-.3 2.9.0 5.8-.1 8.6-.1 5.6.0 11 .1 16 .4-1.3.7-.2 1.3-3.9.8 3.4.5 6.2.8 8.6.9 2.4.2 4.4.1 6.1.0s3.2-.4 4.5-.7c1.3-.3 2.6-.6 3.8-1 2.5-.7 5.2-1.4 9.1-1.4 2 0 4.3.1 7.1.4 2.8.3 6 .9 9.9 1.8 3.8 1.6 4.6 2.4 3.8 2.7-.8.3-3.1.2-5.5.0-4.9-.4-10.6-1.3-5.8.2.6 2.3 3.3 3.6 7.2 4.5 2 .5 4.2.8 6.8 1.2 2.5.3 5.3.6 8.1.9 2.9.3 5.9.5 9 .9 3.1.4 6.2.8 9.2 1.3 3 .5 6 1.2 8.8 2 2.8.8 5.4 1.8 7.8 2.9l-5.1-.5c3.7 1.5 8 2.5 12.7 3.5 2.4.5 4.9.8 7.5 1.2 2.6.4 5.3.8 8.1 1.1 11.1 1.5 23.7 3.2 36.1 7 0 0-1.6.4-.7 1.2 9.5.3 22.7 2.5 36.4 5.5s28.1 7 40.4 10.5c-9.1.6-11.7-2-8.9 2.6 5.4 1.6 5.4.0 6.6-1.1 1.3-1.1 3.9-1.9 14.8 1.3 3 2 8.1 4.8 12.4 7.5 4.3 2.8 7.9 5.5 7.9 7.5l-9.9-3.5-10-3.4c7.7 7.8 25.7 9 35.7 13.6l-2.5 1.3c15.2 5.3 23.6 7 32.3 8.9s17.5 4 33.3 10.8l-2.3-2.7c20.6 2.7 12.8 8.5 32.4 12.6l1.9 6.8c6.1 1.9 16.8 5.1 28.6 9 11.8 3.9 24.6 8.4 34.9 12.6-7-1-16.6-3.8-26.6-6.8-9.9-3.1-20.2-6.4-28.3-8.6 5.6 2.5 15.1 6.6 24.2 10.2 9.1 3.6 17.6 6.7 21.3 6.9-4.8-1.6-11.2-3.1-15.1-5.8 8.2 1.3 17 3.7 26.6 7 4.8 1.7 9.7 3.6 14.9 5.7 1.3.5 2.6 1.1 3.9 1.7 1.3.6 2.5 1.1 4.2 1.9 3.2 1.5 6.3 3 9.6 4.6-1 1.1-.5 2.6 1.4 4.5 1.9 1.9 5.2 4.2 9.6 6.9 8.8 5.4 21.9 12.5 35.5 19.8l.2-.2.1-.1c0 0 0 0 0-.1v-.1-1-2c0-1.3.1-2.6.1-4 .1-2.7.1-5.3.2-7.9.2-5.2.4-10.3.8-15.1.7-9.5 2-17.8 4.4-23.3l-.2-2.8-.1-1.4v-.3-.2l-.1-.4-.3-3.3c-.2-2.2-.4-4.4-.5-6.6-.3-4.4-.4-8.8-.4-13.3.0-8.9.3-17.8.8-27 1-18.3 2.5-37.3 2.2-57.9-10.1 14.6-.3-12-10.7-9.5-.7-9.5-.5-13.2.2-14.1l-.4 2c.2-.9.3-1.3.5-2.1h0l6.2-29c3-6.9 2.3 9.1 4.6 8.2.8-21 4.4-8.8 7.2-22.7C1943.8 809.5 1942.2 799.4 1943.6 787.4zM932.3 134.5c-.2.2-.5.4-.7.6.5-.8 1-1.6 2.2-2.3 6.8-1.8 9.4-1.5 10.5-1C941.1 132.5 937.3 133.4 932.3 134.5zM13.7 15.8l-1.4-.9-.6-4.3C13.5 12.8 14.6 14.9 13.7 15.8zM-.8 181.2c.2-.8.5-1.3.8-1.7v7.3C-.3 185.1-.5 183.2-.8 181.2z"/><path class="st0" d="M663.5 951.7c-2.3.1-4.5.2-6.5.5C659.8 952 661.9 951.9 663.5 951.7z"/><path class="st0" d="M522.4 173.7c-1.3-.3-3.1-.6-5.4-1C518.8 173.1 520.6 173.4 522.4 173.7z"/><path class="st0" d="M922.6 139.8c-1 .3-1.5.5-2.8.8 1.5.1 3 .1 4.4.1.7-.5 1.5-1.1 2.2-1.6C925.1 139.3 923.8 139.5 922.6 139.8z"/><path class="st0" d="M93.9 839.3l.3-.1C94.1 839.2 94 839.3 93.9 839.3z"/><path class="st0" d="M93.9 839.3l-3.5 1.9C100.2 846 92.1 840.6 93.9 839.3z"/><path class="st0" d="M261.1 911.4c6.5 1.2 13 2.5 19.5 3.7-4.8-.9-9.5-1.9-14.3-2.9L261.1 911.4z"/><path class="st0" d="M1321.3 868.7l-3.7-4C1309.8 865.7 1308.5 870.4 1321.3 868.7z"/><path class="st0" d="M1772.9 965.8c-8.8-4.1-16.8-9.2-21.8-10.6C1754.3 958.8 1764.7 964.6 1772.9 965.8z"/><path class="st0" d="M1777.6 154.1c-2.6-1.1-5.3-2.1-8-3.1-2.7-1-5.3-2.1-8-3.1 2.3 1.2 4.7 2.3 7 3.5C1771.6 152.4 1774.6 153.2 1777.6 154.1z"/></g></svg>