<?xml version="1.0" encoding="utf-8"?>
<!-- Generator: Adobe Illustrator 24.0.0, SVG Export Plug-In . SVG Version: 6.00 Build 0)  -->
<svg version="1.1" id="Layer_1" xmlns="http://www.w3.org/2000/svg" xmlns:xlink="http://www.w3.org/1999/xlink" x="0px" y="0px"
	 viewBox="0 0 1920 1044" style="enable-background:new 0 0 1920 1044;" xml:space="preserve">
<style type="text/css">
	.st0{fill:#F6F6F6;}
</style>
<g>
	<path class="st0" d="M414.8,933.2c-4.1-0.4-5.9-0.1-6.1,0.2C412.5,933.6,415.6,933.7,414.8,933.2z"/>
	<path class="st0" d="M505.4,946.1c-2-0.3-3.6-0.4-5.4-0.6C502,946,504.1,946.3,505.4,946.1z"/>
	<path class="st0" d="M1,6.7l2,1.6c0.9-0.3,1.8-0.5,2.4-1C4,7.1,2.4,6.9,1,6.7z"/>
	<path class="st0" d="M673.4,953c-0.3,0-0.4,0-0.8-0.1C668.3,953.5,670.8,953.3,673.4,953z"/>
	<path class="st0" d="M1056.1,907.3c-1-0.5-2.6-0.6-4.3-0.7C1052.1,906.9,1053.1,907.2,1056.1,907.3z"/>
	<path class="st0" d="M771.4,941.9l7.2,0.1C775.7,941.8,773.4,941.8,771.4,941.9z"/>
	<path class="st0" d="M1206.9,874.4c-0.5-0.1-1-0.2-1.6-0.2c-1.3,0.5-2.9,1-5.4,1.2C1201.8,875.3,1203.5,875.2,1206.9,874.4z"/>
	<path class="st0" d="M1199.8,875.3c-0.9,0-1.9,0-3.1,0.1C1197.9,875.5,1198.9,875.4,1199.8,875.3z"/>
	<path class="st0" d="M1348.2,864.7c-0.8-0.3-1.9-0.5-2.8-0.7c-1.5,0.1-3.3,0.2-4.8,0.3L1348.2,864.7z"/>
	<path class="st0" d="M779.8,939.8c1.2-0.4,2.5-0.7,3.8-1C780.4,939.3,776.8,939.5,779.8,939.8z"/>
	<path class="st0" d="M785.5,938.5c-0.6,0.1-1.3,0.2-1.9,0.3C784.3,938.8,785,938.7,785.5,938.5z"/>
	<path class="st0" d="M1221.8,869.9c0,0,0.2-0.2,0.3-0.3C1221.9,869.6,1221.8,869.8,1221.8,869.9z"/>
	<path class="st0" d="M913.8,141.9c-0.2,0-0.3,0-0.4,0C913.4,141.9,913.5,141.9,913.8,141.9z"/>
	<path class="st0" d="M1198.3,85.3c0.6-0.1,1.2-0.1,1.8-0.1C1199.4,85.2,1198.8,85.2,1198.3,85.3z"/>
	<path class="st0" d="M1049.4,114.4C1049.4,114.4,1049.5,114.4,1049.4,114.4C1049.6,114.4,1049.6,114.4,1049.4,114.4z"/>
	<path class="st0" d="M1943.6,787.4l-4.8,16.9c-5.5-29.4,8.7-25.4,3.3-55l3.3,9.4c-1.9-15.2,0.1-56-8.3-70.9c1.2-2.7,4-6.2,4.8,0.5
		c1.3-36.3-8.9-80.8-3.7-109l2.5,2.8c-0.7-6.8-4.8-11.8-2.2-20.3c1.1,0.4,2.5,2.7,2.7-0.4c-0.9-3.6-4.4-18-3-27l2.9,7.7
		c3.3-35.4-7-54.3-8.7-84c7.5,0.1,9.9-27.8,11.1-41.7l1.1,0.5c0.9-41.2-6.2-70-9.1-108.2c2-5.9,3.3-13.9,4-23.1
		c0.4-4.6,0.7-9.5,0.9-14.7l0-1c0-0.6,0-1.1,0-1.7c0-1.1,0-2.3,0.1-3.4c0.1-2.3,0.1-4.6,0-6.9c0-1.2,0-2.3,0-3.5
		c0-0.1,0-0.3-0.1-0.4l-0.4-0.3l-0.8-0.6l-1.6-1.2c-2.1-1.6-4.3-3.3-6.5-5c-1.1-0.8-2.2-1.7-3.3-2.5c-1-0.7-2-1.5-3-2.2
		c-1.3-1-2.7-1.9-4-2.9c-2.7-1.9-5.4-3.9-8.2-5.8c-5.5-3.8-11.1-7.6-16.5-11.4c-11-7.4-21.6-14.6-30.9-21.2
		c5.2,4.5-4.5,2.9-12.1-0.7c-4.2-3.2-11.5-6.1-17.1-8.6c-5.6-2.5-9.4-4.6-6.6-6.4l3.3,2c-1.6-4.1-7.7-8.6-15.3-13.1
		c-7.6-4.5-16.9-8.8-24.8-12.8l-7.5,4.6c-8.6-7.3-20.1-13.9-32.8-20c-12.7-6-26.6-11.4-40-16.2c-13.4-4.8-26.4-9.1-37.3-13.1
		c-5.4-2.1-10.4-4-14.6-6c-4.2-2-7.7-4-10.3-6c-11.9-2-25.7-6.2-37.7-7.7l2.3-3.3c-15.5-4.8-27.3-8.2-40.2-11.3
		c-3.2-0.8-6.5-1.6-10-2.3c-3.5-0.7-7.1-1.5-10.9-2.3c-3.8-0.8-7.9-1.5-12.3-2.3c-4.4-0.8-9.1-1.5-14.2-2.3l9-1.1
		c-5.7-1.1-10.6-1.3-15-1c-4.4,0.3-8.3,1-12.1,1.9c-3.8,0.8-7.6,1.7-11.7,2.2c-4.1,0.6-8.6,0.7-13.8,0.1l-5.3-6.2
		c-20.1-2.2-40.4-4.8-61-5.9c-5.1-0.2-10.3-0.5-15.4-0.5c-2.6,0-5.1,0-7.7,0c-2.6,0-5.1,0.1-7.6,0.2c-5,0.2-10,0.6-15,1
		c-2.5,0.2-5,0.5-7.4,0.8c-2.5,0.3-4.9,0.7-7.4,1.1c0.6-0.8,1.7-2.5,8.2-2.9c-4.7,0.1-11.7,0.2-19.3,0.2c-1.9,0-3.9,0-5.8,0.1
		c-1,0-2,0-3,0l-3,0.1c-4,0.2-8,0.3-11.7,0.6s-7.3,0.5-10.5,0.9c-3.2,0.4-5.9,0.9-8.1,1.4c-3.7,0.9-5.6,2.1-4.9,3.5
		c-2.4-1.5-11.8-0.8-23.1,1c-3.2,0.5-6.6,1.1-9.9,1.7c-3.4,0.7-6.8,1.4-10.1,2.1c-3.3,0.7-6.6,1.4-9.7,2.1c-3.1,0.7-6,1.4-8.6,2
		l2.5-4.1c-8.5,3.5-12.8,5.6-18.1,7.4c-2.6,0.9-5.5,1.8-9.2,2.8c-1.9,0.5-4,1-6.3,1.5c-1.2,0.3-2.5,0.5-3.8,0.8
		c-1.3,0.3-2.8,0.6-4.3,1c-5.5,0.5-5.9-1.6,0.3-2.3c-8.7,0.8-12.1,2.2-15.9,3.6c-4.1,1.6-8.6,3.3-20.7,4.5l8.1-3.9
		c-10.1,1.7-14.6,2.8-17.9,4.1c-3.3,1.3-5.3,2.7-10.3,5.1c-6,2-15.5,3.7-23.9,4.6c-8.4,0.9-15.9,1-18-0.2
		c-1.9,2.5-11.8,7.4-23.7,9.1c-2-0.9,1.9-2.5,3.9-3.4c-33.7,4.8-47.2,14.8-71,16.1c-0.9-1.1-2.5-1.3-4.5-1.3c13-2.7,24.8-5.2,33-6.9
		c6.8-1.4,11.3-2.3,12.1-2.4c-1.5-3.1-22.3,0.8-7.3-7.3c-15.9,6.2-42.8,17.7-63.8,20.3c-1.1-0.1-2.2-0.2-3.1-0.6l2-0.8
		c-4.8,0.6-9,1.7-12.8,3.1c-6.7,0.8-11,1.1-17.3,2.3c-1.6-1.1-7.8-0.4-14.8,0.9c-7.1,1.2-15,2.9-20.3,3.7c1.9,3.5-11.8,5.1,1.3,6
		c-0.4-0.1,3.2-0.9,9.3-2.1c1.5-0.4,3.4-0.8,4.4-1.2c-0.2,0.1-0.4,0.3-0.6,0.4c3.4-0.7,7.4-1.4,11.8-2.3c4.4-0.9,9.2-1.8,14.3-2.8
		c-7.7,3.4-16,6.6-28.2,6.6c-4.7,3.3-10,6.7-13.1,8.4c-4-0.7-8.8-1.1-13.8-1.3c-5-0.2-10.2-0.3-15.1-0.5c-9.7-0.3-18-0.6-20.4-1.9
		c-8,1.6-16.7,3.2-25.7,4.7c-9,1.5-18.1,2.9-26.8,4.4c-17.5,2.9-33.5,6.2-43.3,10.6c-9.2,1.8-11.1-1-14.7-1.7
		c5.3-1.2,11.7-1.7,14.5-3c-4.6,0.9-10.3,1.7-16.4,2.5c-6.1,0.8-12.6,1.4-18.5,2.2c-6,0.8-11.5,1.6-15.8,2.5
		c-4.3,0.9-7.3,1.9-8.3,3.2c-23.9-0.6,12.8-5.3-19.6-2.4l4.2-1.8c-4-0.2-8-0.3-11.8-0.4s-7.6-0.1-11.3,0c-7.4,0.2-14.4,0.7-21.3,1.4
		c-6.9,0.6-13.6,1.4-20.3,2.3c-6.7,0.9-13.3,1.9-20,2.8c-6.7,0.8-13.4,1.6-20.3,2.3c-3.5,0.4-7,0.7-10.5,0.9
		c-1.8,0.1-3.6,0.3-5.4,0.4c-1.8,0.1-3.6,0.1-5.5,0.1c-13.2,0.1-27.3-0.3-42.7-2.8c1.4,0.3,2.3,0.6,2.8,1.1
		c-5-0.5-10.1-0.9-15.1-1.3c-2.5-0.2-5.1-0.4-7.6-0.5c-1.3-0.1-2.5-0.1-3.8-0.3l-3.8-0.4c-10.1-0.9-20.4-1.6-30.6-2.4
		c-10.2-1-20.5-1.9-30.8-2.7c-10.2-1.1-20.5-2.3-30.7-3.4c-1.3-0.1-2.6-0.3-3.8-0.5l-3.8-0.6l-7.6-1.1c-5.1-0.8-10.1-1.5-15.2-2.3
		c-10.1-1.7-20-3.7-29.9-5.7c-4.9-1.1-9.8-2.3-14.6-3.5c-4.8-1.2-9.7-2.4-14.4-3.8c-4.7-1.4-9.4-2.9-14-4.4
		c-2.3-0.8-4.6-1.5-6.9-2.3l-3.4-1.2c-1.1-0.4-2.2-0.9-3.4-1.3c-10.3-3.6-16.3-4.9-21.5-5.4c-5.2-0.6-9.6-0.5-16.6-1.4l-2.6-5.1
		l-6-0.7l-6-0.8l-12-1.6c-2-0.5-4-1-5.9-1.5c-1.9-0.6-3.7-1.2-5.5-1.9c-3.6-1.4-6.9-2.8-10.2-4.4c-6.6-3.1-12.5-6.9-18.8-10.6
		c-6.3-3.6-12.7-7.6-20.1-11.1c-3.7-1.7-7.6-3.6-11.9-5.2c-2.1-0.8-4.3-1.7-6.6-2.4c-2.3-0.8-4.7-1.5-7.2-2.3l1.4,2.3l1.4,2.2
		c-1.6-0.8-3.4-1.7-5.4-2.7c-2-1-4.1-2-6.3-3.1c-2.2-1.1-4.5-2.1-6.7-3.2c-2.2-1.1-4.4-2.2-6.4-3.3c-4.1-2.1-7.7-4.1-9.9-5.6
		c-2.2-1.6-3.2-2.6-2.1-3c-1.6-0.3-6.1,0-9.9-3.8l1.2-1.9c-2.8-1.1-5.4-2.4-8.1-3.6l-8.1-3.7l-8-3.8c-2.7-1.3-5.4-2.5-8-3.9
		c-10.5-7.8-7.8-8.8-6.6-10.5c0.6-0.9,0.9-1.9-0.9-4.1c-0.9-1.1-2.3-2.5-4.5-4.2c-2.1-1.8-4.9-4-8.6-6.8c-6-3.8-15.1-8.7-22.2-12.3
		c-3.6-1.8-6.6-3.3-8.6-4c-1-0.4-1.7-0.5-2.1-0.5C5.8,3.2,5.7,3.5,6,4c0.8,0.8,1.7,1.7,2.5,2.6c-0.8,0.7-1.3,2.2-1.4,4.6
		c-1.4-1-2.8-2-4.1-3C2.5,8.4,2,8.5,1.5,8.6C0.5,7.7,0,7.3,0,7.3v1.7c-1.1,0.2-2.2,0.4-3.3,0.6c-2.1,0.4-3.9,1.1-4.9,2.4
		c-0.2,0.3-0.5,0.7-0.6,1.1c-0.1,0.5-0.1,1-0.1,1.5c0.1,1.1,0.4,2.5,1.2,4.1C-6.5,21.4-4.1,25,0,29.6v110.7l-1.3-1.4l1.3,4v17.2
		c-1-0.5-1.9-2.2-2.3-5.6c-3.5,12.5,2.5,11.1-1.4,21.8c-0.6,1.2-0.9,0.6-1.2-0.4l2.1,12.2c-1.5-2.4-5,2-4-5.5
		c-4.1,21.9,5.3,35.3-0.1,43.6l-0.4-1.8c1.8,22.7,3.8,13.1,7.3,16.3v14.2l-8.8,10.5l5.2,3c-0.2,3.1-0.6,9.3-2.7,8.2
		c3.5,11.7,2.3-2,5.6,4.8c-4.7,15.1,2.2,41.6-6.1,45c3.9,5.4,3-14.4,5.8,1.7c-8.9,4.6,1.5,18.6-2.6,32.4c-4.6-4.2-2.2-17.3-6.3-3.5
		c7.8,8.3-1.7,26.8-0.2,38.5c6.2,0.5,2.6,25.3,4.6,44.8c-2.1-1.2-3.4,36.7-5.6,54.9l-1-0.5c6.2,3.5,5.1,22.2,6.3,35.9
		c-3.7-0.5-5.2-3-6.9-10.4l0,12.8c2,3,3.1,7,3.8,15.3l-4.7-3.2c0.3,17,5.5,34.3,2.4,56.3c2.9,0.8,7.5-7.5,11-5.7v11.9
		c-1.5-0.4-2.8-1.7-3.3-4.8c0.3,2,2,7.1,1,11.1l-4-9.3c-1.7,10,3.3,5.2,2.9,13.2c-3.4-0.2-2.4,5.9-5.1,4.8c-0.3-2,1.4-7,0.1-10
		c-0.6,9-2.6,19.9-5.1,23.5c1.9-0.8,4.5,0,5,6.6c0.2,17-4,5.8-5.8,15.8c2.3,4.1-0.1,15,4.9,15.3c0,5-2.4,5.9-3.7,7.8
		c2.2,8.8,0.6,41.2,6,31.3l0.3-2.3c0.1,0.4,0.1,0.9,0.2,1.4c1.3,7.2,1.7,14.6,1.7,22c0,3.7-0.1,7.5-0.3,11.2
		c-0.1,1.9-0.2,3.8-0.3,5.7c-0.1,2.3-0.2,4.5-0.3,6.8c-0.2,0.6,0.4,1,0.7,1.5l1.1,1.5l2.3,2.9c0.4,0.5,0.8,1,1.2,1.5l1.1,1.3
		c0.7,0.8,1.4,1.6,2.1,2.4c2.8,3.2,5.7,6.3,8.7,9.3c1.5,1.5,3.1,3,4.6,4.4c1.6,1.4,3.2,2.8,4.8,4.2c0.8,0.7,1.6,1.4,2.5,2
		c0.8,0.7,1.7,1.3,2.5,2c1.7,1.3,3.4,2.6,5.2,3.8l-1.2,0.9c8.7,5.7,18,12.2,27.2,17.8c2.3,1.4,4.6,2.8,6.8,4.1
		c2.3,1.3,4.5,2.5,6.7,3.6c4.3,2.2,8.4,4.2,12.1,5.4c5.3,3,10.7,9.2,7.2,9.1c7.4,3.4,11.8,5,16.6,7.4c2.5,1.1,5.1,2.4,8.3,4.2
		c1.6,0.9,3.3,1.9,5.3,3.1c1,0.6,2,1.2,3.1,1.9c1.1,0.7,2.3,1.3,3.5,2c-4.1-1.2-5.9-1.6-6.6-1.7c-0.7,0-0.4,0.4-0.2,0.6
		c0.5,0.4,0.5,0.3-9.4-4.9c4.5,2.6,8.1,4.8,11.3,6.7c3.2,1.8,6.1,3.5,9,5c3,1.5,6.1,2.9,9.9,4.3c3.9,1.3,8.4,2.7,14.3,4.1
		c-4.6-0.1-1.6,2.4,3.9,5.3c5.6,2.8,13.6,5.8,18.7,7.3l-12.6-7.6c5.5,1.9,10.5,3.8,15.3,5.7c4.9,1.9,9.6,3.7,14.3,5.5l-7.6,2.1
		c4.9,2.5,9.8,4.6,14.8,6.5c5,1.8,10,3.3,15,4.6c2.5,0.7,5,1.3,7.4,1.9c1.2,0.3,2.5,0.6,3.7,0.8c1.2,0.3,2.5,0.5,3.7,0.8
		c4.9,1,9.7,1.9,14.5,2.8c2.4,0.5,4.7,0.9,7,1.3c2.3,0.4,4.6,0.8,6.9,1.2c4.5,0.8,9,1.8,13.3,2.9c2.1,0.5,4.3,1.2,6.3,1.8
		c2.1,0.7,4.2,1.3,6.2,2c4.1,1.4,8,3.1,11.8,5.1c12.7-0.3-23-7.5-11.3-8.6c5,1.3,9.9,2.9,14.5,4.7c4.7,1.8,9,3.7,13.1,5.3
		c8.1,3.3,14.5,6.2,17.7,6.9c3.4,1,6.4,1.8,9.1,2.2c2.7,0.5,5.1,0.7,7.3,0.9c4.4,0.3,8,0,11.5-0.2c3.6-0.3,7.2-0.5,11.8-0.3
		c4.5,0.2,10,0.6,17.3,2.1c-3.4-2.1-5.9-6.7,16.3-5c1.3,0.2,2.5,0.5,3.6,0.7c1.1,0.2,2.2,0.4,3.2,0.7c2,0.5,3.8,1,5.3,1.5
		c3,1,5,2.1,5.9,3.1c1.8,2-0.6,3.5-7.3,3.4c-5-0.4-7.3-1.2-7-1.7c-6.8-0.3-15.7-1-7.9,1.9l3-1.2c2.5,0.8,6.1,1.5,10.1,2.2
		c4,0.7,8.3,1.4,12,2.1c7.5,1.3,12.9,2.6,9.3,3.5c8,0.2,9.8-0.4,8.1-1c-1.2-0.5-4-1.2-7.6-1.9c1.5,0.3,3,0.5,4.5,0.8
		c0.8,0.1,1.5,0.2,2.2,0.4c0.7,0.1,1.5,0.2,2.2,0.3c1.4,0.2,2.9,0.3,4.3,0.5c5.6,0.6,10.8,1.1,16.1,1.5c5.3,0.4,10.6,0.9,16.3,1.3
		c5.7,0.4,11.8,0.9,18.7,1.7c-4.3-1.1-8.1-3.2-3.8-2.9c20.1,2.2,24.6,1.8,27.6,0.8c2.9-1,4.2-2.3,17.9-2.2c7.7,1.5,6.2,2.8,6.3,3.7
		c0,0.4,0.4,0.8,2.6,0.9c1.1,0.1,2.6,0.1,4.7,0.1c1,0,2.3,0,3.6-0.1c0.7,0,1.4,0,2.2-0.1c0.8,0,1.6-0.1,2.5-0.1
		c16.8,1.8,3.5,4.2-3.3,5.4c12.7-1.3,24.5-0.7,34.9,0.4c2.6,0.3,5.1,0.6,7.6,0.8c2.4,0.3,4.8,0.5,7,0.8c4.5,0.5,8.5,0.9,12.1,1
		l-13.2,1.3c7.9-0.8,14.4-0.8,21-0.8l-7.6-3.1c7.8,0.5,14.3,0.5,14.2,1.8c8-2.1-6.2-5.2,9.6-8c10.4,1.4,31.4-2.3,35.1,1.8
		c-29.3-0.8-2.9,3.2-17.3,4.8c3.9-0.1,8.2-0.1,13.1,0.2c1.2,0.4-1.1,0.9-3.2,1.2c15.7,1.6,19.2,0.3,22.9-1.5
		c3.7-1.7,7.4-3.9,23.6-4.4c-2,1.2,0,2.3,3,2.9c3.1,0.6,7.3,0.8,10,0.5c-13,0.5-6.5-3.6,5.3-5.9c10.4,0.5,16-0.1,20.3-0.9
		c4.3-0.8,7.4-1.7,12.8-1.9l-12.4-0.1c4-2.6,14.3-2.9,28.6-4.4c0.4,0.5-0.6,0.9-2,1.2c2.2-0.3,4.5-0.5,6.9-0.6
		c4.5-0.2,9.3,0.1,14.2,0.3c5,0.2,10.2,0.6,15.5,0.5c5.3-0.1,10.7-0.6,16.2-1.8c10.6,0.7,1.7,4.3,10.9,4.5
		c12.3-2.8,19.2-2.7,26.3-2.6c7.1,0,14.4,0.1,27.3-2.8c-4.1-1-6.5-1.4-5.5-2.1c0.5-0.3,1.7-0.8,4-1.5s5.5-1.7,9.9-3.1l-10.6,2
		l-10.6,1.8c-7.1,1.2-14.2,2.5-21.3,3.6l6.7-1.9l6.7-2l13.3-3.9c-6.5,0.8-13.2,2.1-19.3,3.3c-6.1,1.1-11.6,2-15.5,2.2
		c12.7-3.9,11.5-3,4.8-4.9c9.3,1.5,17.9-0.3,26.8-2.3c2.2-0.5,4.5-1,6.8-1.5c2.3-0.5,4.6-1,6.9-1.4c4.7-0.8,9.6-1.4,14.9-1.3
		l1.2,7.7c7.9-0.3,15.2-1.3,22.3-2.5c7.1-1.3,14-3.1,21.2-4.9c7.2-1.9,14.6-3.9,22.7-5.8c8.1-2,16.9-3.8,26.8-5.3
		c-4.3,0.4-8.6,0.9-13,1.3c4.3-4,23.9-5.3,36-9.3c-0.3,2.8,7.9,2,13.8,2.3c-1.3-1.7,28.3-6,29.9-11.8c6.1-0.1,12.2-0.3,18.3-0.4
		c7.8-1.3,13.8-2.8,18.8-4.4c5-1.6,9.1-3.5,13.2-5.2c4.1-1.7,8.1-3.5,13-5.1c4.9-1.6,10.8-2.9,18.3-4c-8.3,4.3,5.8,3.8-13.6,9.2
		c10-1.7,19-2.7,18.7-4.5c3.1,0.3,9.8-1.6,17-3.4c7.2-1.8,14.9-3.5,19.8-2.8c4-1.7,4.9-4.5,16.3-5.6c0.8,0.2,0.7,0.6,0.5,0.9
		c1.1-0.6,4.5-1.4,7.1-2.2c3.1-0.9,5-2-0.3-2.9c4.1,0.6,8.6,1,13.3,1.1c2.3,0.1,4.8,0.1,7.2,0c2.5,0,5-0.1,7.5-0.2
		c5.1-0.2,10.4-0.5,15.7-0.9c5.3-0.4,10.8-0.7,16.2-1.1c2.7-0.2,5.4-0.4,8-0.6c1.3-0.1,2.7-0.2,4-0.3c1.3-0.1,2.6-0.1,3.9-0.2
		c5.2-0.2,10.3-0.4,15.2-0.5c9.7-0.2,18.5,0.5,25.5,2.1c2.8-0.2,5.7-0.3,8.6-0.5c1.5-0.1,2.9-0.2,4.4-0.3c1.5-0.1,3-0.1,4.5-0.2
		c6-0.2,12.1-0.5,18.2-0.7c3-0.1,6.1-0.2,9-0.3c2.9,0,5.8-0.1,8.6-0.1c5.6,0,11,0.1,16,0.4c-1.3,0.7-0.2,1.3-3.9,0.8
		c3.4,0.5,6.2,0.8,8.6,0.9c2.4,0.2,4.4,0.1,6.1,0s3.2-0.4,4.5-0.7c1.3-0.3,2.6-0.6,3.8-1c2.5-0.7,5.2-1.4,9.1-1.4
		c2,0,4.3,0.1,7.1,0.4c2.8,0.3,6,0.9,9.9,1.8c3.8,1.6,4.6,2.4,3.8,2.7c-0.8,0.3-3.1,0.2-5.5,0c-4.9-0.4-10.6-1.3-5.8,0.2
		c0.6,2.3,3.3,3.6,7.2,4.5c2,0.5,4.2,0.8,6.8,1.2c2.5,0.3,5.3,0.6,8.1,0.9c2.9,0.3,5.9,0.5,9,0.9c3.1,0.4,6.2,0.8,9.2,1.3
		c3,0.5,6,1.2,8.8,2c2.8,0.8,5.4,1.8,7.8,2.9l-5.1-0.5c3.7,1.5,8,2.5,12.7,3.5c2.4,0.5,4.9,0.8,7.5,1.2c2.6,0.4,5.3,0.8,8.1,1.1
		c11.1,1.5,23.7,3.2,36.1,7c0,0-1.6,0.4-0.7,1.2c9.5,0.3,22.7,2.5,36.4,5.5s28.1,7,40.4,10.5c-9.1,0.6-11.7-2-8.9,2.6
		c5.4,1.6,5.4,0,6.6-1.1c1.3-1.1,3.9-1.9,14.8,1.3c3,2,8.1,4.8,12.4,7.5c4.3,2.8,7.9,5.5,7.9,7.5l-9.9-3.5l-10-3.4
		c7.7,7.8,25.7,9,35.7,13.6l-2.5,1.3c15.2,5.3,23.6,7,32.3,8.9s17.5,4,33.3,10.8l-2.3-2.7c20.6,2.7,12.8,8.5,32.4,12.6l1.9,6.8
		c6.1,1.9,16.8,5.1,28.6,9c11.8,3.9,24.6,8.4,34.9,12.6c-7-1-16.6-3.8-26.6-6.8c-9.9-3.1-20.2-6.4-28.3-8.6
		c5.6,2.5,15.1,6.6,24.2,10.2c9.1,3.6,17.6,6.7,21.3,6.9c-4.8-1.6-11.2-3.1-15.1-5.8c8.2,1.3,17,3.7,26.6,7
		c4.8,1.7,9.7,3.6,14.9,5.7c1.3,0.5,2.6,1.1,3.9,1.7c1.3,0.6,2.5,1.1,4.2,1.9c3.2,1.5,6.3,3,9.6,4.6c-1,1.1-0.5,2.6,1.4,4.5
		c1.9,1.9,5.2,4.2,9.6,6.9c8.8,5.4,21.9,12.5,35.5,19.8l0.2-0.2l0.1-0.1c0,0,0,0,0-0.1v-0.1l0-1l0-2c0-1.3,0.1-2.6,0.1-4
		c0.1-2.7,0.1-5.3,0.2-7.9c0.2-5.2,0.4-10.3,0.8-15.1c0.7-9.5,2-17.8,4.4-23.3l-0.2-2.8l-0.1-1.4l0-0.3l0-0.2l-0.1-0.4l-0.3-3.3
		c-0.2-2.2-0.4-4.4-0.5-6.6c-0.3-4.4-0.4-8.8-0.4-13.3c0-8.9,0.3-17.8,0.8-27c1-18.3,2.5-37.3,2.2-57.9c-10.1,14.6-0.3-12-10.7-9.5
		c-0.7-9.5-0.5-13.2,0.2-14.1l-0.4,2c0.2-0.9,0.3-1.3,0.5-2.1h0l6.2-29c3-6.9,2.3,9.1,4.6,8.2c0.8-21,4.4-8.8,7.2-22.7
		C1943.8,809.5,1942.2,799.4,1943.6,787.4z M932.3,134.5c-0.2,0.2-0.5,0.4-0.7,0.6c0.5-0.8,1-1.6,2.2-2.3c6.8-1.8,9.4-1.5,10.5-1
		C941.1,132.5,937.3,133.4,932.3,134.5z M13.7,15.8l-1.4-0.9l-0.6-4.3C13.5,12.8,14.6,14.9,13.7,15.8z M-0.8,181.2
		c0.2-0.8,0.5-1.3,0.8-1.7v7.3C-0.3,185.1-0.5,183.2-0.8,181.2z"/>
	<path class="st0" d="M663.5,951.7c-2.3,0.1-4.5,0.2-6.5,0.5C659.8,952,661.9,951.9,663.5,951.7z"/>
	<path class="st0" d="M522.4,173.7c-1.3-0.3-3.1-0.6-5.4-1C518.8,173.1,520.6,173.4,522.4,173.7z"/>
	<path class="st0" d="M922.6,139.8c-1,0.3-1.5,0.5-2.8,0.8c1.5,0.1,3,0.1,4.4,0.1c0.7-0.5,1.5-1.1,2.2-1.6
		C925.1,139.3,923.8,139.5,922.6,139.8z"/>
	<path class="st0" d="M93.9,839.3l0.3-0.1C94.1,839.2,94,839.3,93.9,839.3z"/>
	<path class="st0" d="M93.9,839.3l-3.5,1.9C100.2,846,92.1,840.6,93.9,839.3z"/>
	<path class="st0" d="M261.1,911.4c6.5,1.2,13,2.5,19.5,3.7c-4.8-0.9-9.5-1.9-14.3-2.9L261.1,911.4z"/>
	<path class="st0" d="M1321.3,868.7l-3.7-4C1309.8,865.7,1308.5,870.4,1321.3,868.7z"/>
	<path class="st0" d="M1772.9,965.8c-8.8-4.1-16.8-9.2-21.8-10.6C1754.3,958.8,1764.7,964.6,1772.9,965.8z"/>
	<path class="st0" d="M1777.6,154.1c-2.6-1.1-5.3-2.1-8-3.1c-2.7-1-5.3-2.1-8-3.1c2.3,1.2,4.7,2.3,7,3.5
		C1771.6,152.4,1774.6,153.2,1777.6,154.1z"/>
</g>
</svg>
