<?xml version="1.0" encoding="utf-8"?>
<!-- Generator: Adobe Illustrator 24.0.0, SVG Export Plug-In . SVG Version: 6.00 Build 0)  -->
<svg version="1.1" id="Layer_1" xmlns="http://www.w3.org/2000/svg" xmlns:xlink="http://www.w3.org/1999/xlink" x="0px" y="0px"
	 viewBox="0 0 1920 1044" style="enable-background:new 0 0 1920 1044;" xml:space="preserve">
<style type="text/css">
	.st0{fill:#232323;}
	.st1{opacity:0.1;fill:#7DFE7A;}
	.st2{opacity:0.1;}
	.st3{fill:#8DFE8B;}
	.st4{fill-rule:evenodd;clip-rule:evenodd;fill:#10FECC;}
	.st5{fill:#EBFF29;}
	.st6{fill:#7DFE7A;}
	.st7{fill:#10FECC;}
	.st8{fill:#FFFFFF;}
	.st9{fill:#FF445A;}
	.st10{clip-path:url(#SVGID_8_);fill:url(#SVGID_9_);}
	.st11{clip-path:url(#SVGID_10_);fill:url(#SVGID_11_);}
	.st12{clip-path:url(#SVGID_12_);fill:url(#SVGID_13_);}
	.st13{clip-path:url(#SVGID_14_);fill:url(#SVGID_15_);}
	.st14{clip-path:url(#SVGID_21_);fill:url(#SVGID_22_);}
	.st15{clip-path:url(#SVGID_24_);fill:url(#SVGID_25_);}
	.st16{clip-path:url(#SVGID_27_);fill:url(#SVGID_28_);}
	.st17{clip-path:url(#SVGID_32_);fill:url(#SVGID_33_);}
	.st18{opacity:0.15;fill:#7DFE7A;}
	.st19{opacity:0.15;fill:url(#SVGID_34_);}
	.st20{opacity:0.3;fill:#10FECC;}
	.st21{opacity:0.86;fill:#FFFFFF;stroke:#12A4AA;stroke-width:5;stroke-miterlimit:10;}
	.st22{fill:url(#SVGID_35_);}
	.st23{fill:url(#SVGID_36_);}
	.st24{fill:#3B3B3B;}
	.st25{fill:#666666;}
	.st26{fill:url(#SVGID_37_);}
	.st27{fill:url(#SVGID_38_);}
	.st28{fill:url(#SVGID_39_);}
	.st29{fill:url(#SVGID_40_);}
	.st30{fill:url(#SVGID_54_);}
	.st31{fill:url(#SVGID_55_);}
	.st32{filter:url(#Adobe_OpacityMaskFilter);}
	.st33{filter:url(#Adobe_OpacityMaskFilter_1_);}
	.st34{mask:url(#SVGID_56_);fill:url(#SVGID_57_);}
	.st35{fill:url(#SVGID_58_);}
	.st36{fill:url(#SVGID_59_);}
	.st37{filter:url(#Adobe_OpacityMaskFilter_2_);}
	.st38{filter:url(#Adobe_OpacityMaskFilter_3_);}
	.st39{mask:url(#SVGID_62_);fill:url(#SVGID_63_);}
	.st40{opacity:0.2;fill:url(#SVGID_64_);}
	.st41{fill:none;}
	.st42{fill:#929292;}
	.st43{fill:url(#SVGID_65_);}
	.st44{fill:#DFDFDF;}
	.st45{fill:url(#SVGID_66_);}
	.st46{fill:url(#SVGID_91_);}
	.st47{fill:url(#SVGID_92_);}
	.st48{fill:url(#SVGID_93_);}
	.st49{fill:url(#SVGID_96_);}
	.st50{fill:url(#SVGID_97_);}
	.st51{fill:url(#SVGID_98_);}
	.st52{fill:#0C0C0C;}
	.st53{filter:url(#Adobe_OpacityMaskFilter_4_);}
	.st54{filter:url(#Adobe_OpacityMaskFilter_5_);}
	.st55{mask:url(#SVGID_99_);fill:url(#SVGID_100_);}
	.st56{opacity:0.1;fill:url(#SVGID_101_);}
	.st57{fill:url(#SVGID_102_);}
	.st58{fill:url(#SVGID_103_);}
	.st59{fill:url(#SVGID_104_);}
	.st60{fill:url(#SVGID_105_);}
	.st61{fill:url(#SVGID_106_);}
	.st62{fill:url(#SVGID_108_);}
	.st63{fill:#FFE8FF;}
	.st64{fill:#FFD6FE;}
	.st65{fill:url(#SVGID_109_);}
	.st66{fill:url(#SVGID_110_);}
	.st67{fill:url(#SVGID_111_);}
	.st68{fill:url(#SVGID_112_);}
	.st69{fill:url(#SVGID_113_);}
	.st70{fill:url(#SVGID_114_);}
	.st71{fill:url(#SVGID_115_);}
	.st72{fill:none;stroke:#FFFFFF;stroke-miterlimit:10;}
	.st73{fill:none;stroke:#082E36;stroke-width:3;stroke-linecap:round;stroke-miterlimit:10;}
	.st74{fill:#FFFFFF;stroke:#082E36;stroke-width:3;stroke-linecap:round;stroke-linejoin:round;stroke-miterlimit:10;}
	.st75{fill:#082E36;}
	.st76{fill:#F7FAFF;}
	.st77{fill:#E3E9FF;}
	.st78{fill:url(#SVGID_116_);}
	.st79{fill:#63D6E6;}
	.st80{fill:none;stroke:url(#SVGID_117_);stroke-width:3;stroke-linecap:round;stroke-linejoin:round;stroke-miterlimit:10;}
	.st81{fill:none;stroke:url(#SVGID_118_);stroke-width:3;stroke-linecap:round;stroke-linejoin:round;stroke-miterlimit:10;}
	.st82{fill:url(#SVGID_119_);}
	.st83{fill:url(#SVGID_120_);}
	.st84{fill:#F7F2FF;}
	.st85{fill:#ECE0FF;}
	.st86{fill:url(#SVGID_121_);}
	.st87{fill:#3F1583;}
	.st88{fill:url(#SVGID_122_);}
	.st89{fill:#7C44FF;}
	.st90{fill:#F5F9FA;}
	.st91{fill:#EBF8FA;}
	.st92{fill:url(#SVGID_123_);}
	.st93{fill:url(#SVGID_124_);}
	.st94{fill:url(#SVGID_125_);}
	.st95{fill:url(#SVGID_126_);}
	.st96{fill:url(#SVGID_127_);}
	.st97{fill:url(#SVGID_128_);}
	.st98{fill:url(#SVGID_129_);}
	.st99{clip-path:url(#SVGID_131_);}
	.st100{fill:#7350D0;}
	.st101{clip-path:url(#SVGID_133_);}
	.st102{clip-path:url(#SVGID_135_);}
	.st103{fill:none;stroke:#082E36;stroke-width:3;stroke-linecap:round;stroke-linejoin:round;stroke-miterlimit:10;}
	.st104{opacity:0.87;}
	.st105{clip-path:url(#SVGID_137_);}
	.st106{fill:#FF919C;}
	.st107{opacity:0.6;fill:#EBFF29;}
	.st108{fill:url(#SVGID_138_);}
	.st109{opacity:0.63;fill:url(#SVGID_139_);}
	.st110{clip-path:url(#SVGID_141_);}
	.st111{fill:#FF87B3;}
	.st112{clip-path:url(#SVGID_143_);}
	.st113{opacity:0.79;clip-path:url(#SVGID_145_);}
	.st114{opacity:0.79;clip-path:url(#SVGID_147_);}
	.st115{opacity:0.79;clip-path:url(#SVGID_149_);}
	.st116{opacity:0.79;clip-path:url(#SVGID_151_);}
	.st117{opacity:0.79;clip-path:url(#SVGID_153_);}
	.st118{opacity:0.79;clip-path:url(#SVGID_155_);}
	.st119{opacity:0.79;clip-path:url(#SVGID_157_);}
	.st120{opacity:0.79;clip-path:url(#SVGID_159_);}
	.st121{opacity:0.79;clip-path:url(#SVGID_161_);}
	.st122{opacity:0.79;clip-path:url(#SVGID_163_);}
	.st123{opacity:0.71;}
	.st124{opacity:0.79;clip-path:url(#SVGID_165_);}
	.st125{opacity:0.79;clip-path:url(#SVGID_167_);}
	.st126{opacity:0.79;clip-path:url(#SVGID_169_);}
	.st127{opacity:0.79;clip-path:url(#SVGID_171_);}
	.st128{opacity:0.79;clip-path:url(#SVGID_173_);}
	.st129{fill:none;stroke:url(#SVGID_174_);stroke-width:4;stroke-miterlimit:10;}
	.st130{clip-path:url(#SVGID_181_);fill:url(#SVGID_182_);}
	.st131{clip-path:url(#SVGID_183_);fill:url(#SVGID_184_);}
	.st132{clip-path:url(#SVGID_185_);fill:url(#SVGID_186_);}
	.st133{clip-path:url(#SVGID_187_);fill:url(#SVGID_188_);}
	.st134{opacity:0.5;fill:#0C1D1E;}
	.st135{clip-path:url(#SVGID_197_);fill:url(#SVGID_198_);}
	.st136{clip-path:url(#SVGID_199_);fill:url(#SVGID_200_);}
	.st137{clip-path:url(#SVGID_201_);fill:url(#SVGID_202_);}
	.st138{clip-path:url(#SVGID_203_);fill:url(#SVGID_204_);}
	.st139{opacity:0.1;fill:url(#SVGID_209_);}
	.st140{fill:url(#SVGID_210_);}
	.st141{fill:url(#SVGID_211_);}
	.st142{fill:url(#SVGID_212_);}
	.st143{fill:url(#SVGID_213_);}
	.st144{fill:url(#SVGID_214_);}
	.st145{fill:url(#SVGID_215_);}
	.st146{fill:url(#SVGID_216_);}
	.st147{fill:url(#SVGID_217_);}
	.st148{filter:url(#Adobe_OpacityMaskFilter_6_);}
	.st149{filter:url(#Adobe_OpacityMaskFilter_7_);}
	.st150{mask:url(#SVGID_218_);fill:url(#SVGID_219_);}
	.st151{fill:url(#SVGID_220_);}
	.st152{fill:url(#SVGID_221_);}
	.st153{filter:url(#Adobe_OpacityMaskFilter_8_);}
	.st154{filter:url(#Adobe_OpacityMaskFilter_9_);}
	.st155{mask:url(#SVGID_224_);fill:url(#SVGID_225_);}
	.st156{opacity:0.2;fill:url(#SVGID_226_);}
	.st157{fill:url(#SVGID_227_);}
	.st158{fill:url(#SVGID_228_);}
	.st159{fill:url(#SVGID_229_);}
	.st160{fill:url(#SVGID_230_);}
	.st161{fill:url(#SVGID_231_);}
	.st162{fill:url(#SVGID_234_);}
	.st163{fill:url(#SVGID_235_);}
	.st164{fill:url(#SVGID_236_);}
	.st165{filter:url(#Adobe_OpacityMaskFilter_10_);}
	.st166{filter:url(#Adobe_OpacityMaskFilter_11_);}
	.st167{mask:url(#SVGID_237_);fill:url(#SVGID_238_);}
	.st168{opacity:0.1;fill:url(#SVGID_239_);}
	.st169{fill:url(#SVGID_240_);}
	.st170{fill:url(#SVGID_241_);}
	.st171{fill:url(#SVGID_242_);}
	.st172{fill:url(#SVGID_243_);}
	.st173{fill:url(#SVGID_244_);}
	.st174{fill:url(#SVGID_246_);}
	.st175{fill:#5B5B5B;}
	.st176{clip-path:url(#SVGID_251_);fill:url(#SVGID_252_);}
	.st177{clip-path:url(#SVGID_253_);fill:url(#SVGID_254_);}
	.st178{clip-path:url(#SVGID_255_);fill:url(#SVGID_256_);}
	.st179{clip-path:url(#SVGID_257_);fill:url(#SVGID_258_);}
	.st180{opacity:0.15;fill:url(#SVGID_263_);}
	.st181{fill:url(#SVGID_264_);}
	.st182{fill:url(#SVGID_265_);}
	.st183{fill:url(#SVGID_266_);}
	.st184{fill:url(#SVGID_267_);}
	.st185{fill:url(#SVGID_268_);}
	.st186{fill:url(#SVGID_269_);}
	.st187{fill:url(#SVGID_270_);}
	.st188{fill:url(#SVGID_271_);}
	.st189{fill:none;stroke:url(#SVGID_272_);stroke-width:3;stroke-linecap:round;stroke-linejoin:round;stroke-miterlimit:10;}
	.st190{fill:none;stroke:url(#SVGID_273_);stroke-width:3;stroke-linecap:round;stroke-linejoin:round;stroke-miterlimit:10;}
	.st191{fill:url(#SVGID_274_);}
	.st192{fill:url(#SVGID_275_);}
	.st193{fill:url(#SVGID_276_);}
	.st194{fill:url(#SVGID_277_);}
	.st195{fill:url(#SVGID_278_);}
	.st196{fill:url(#SVGID_279_);}
	.st197{fill:url(#SVGID_280_);}
	.st198{fill:url(#SVGID_281_);}
	.st199{fill:url(#SVGID_282_);}
	.st200{fill:url(#SVGID_283_);}
	.st201{fill:url(#SVGID_284_);}
	.st202{clip-path:url(#SVGID_286_);}
	.st203{clip-path:url(#SVGID_288_);}
	.st204{clip-path:url(#SVGID_290_);}
	.st205{fill:url(#SVGID_291_);}
	.st206{fill:url(#SVGID_292_);}
	.st207{fill:url(#SVGID_293_);}
	.st208{fill:url(#SVGID_294_);}
	.st209{fill:url(#SVGID_295_);}
	.st210{fill:url(#SVGID_296_);}
	.st211{fill:url(#SVGID_297_);}
	.st212{fill:url(#SVGID_298_);}
	.st213{fill:none;stroke:url(#SVGID_299_);stroke-width:3;stroke-linecap:round;stroke-linejoin:round;stroke-miterlimit:10;}
	.st214{fill:none;stroke:url(#SVGID_300_);stroke-width:3;stroke-linecap:round;stroke-linejoin:round;stroke-miterlimit:10;}
	.st215{fill:url(#SVGID_301_);}
	.st216{fill:url(#SVGID_302_);}
	.st217{fill:url(#SVGID_303_);}
	.st218{fill:url(#SVGID_304_);}
	.st219{fill:url(#SVGID_305_);}
	.st220{fill:url(#SVGID_306_);}
	.st221{fill:url(#SVGID_307_);}
	.st222{fill:url(#SVGID_308_);}
	.st223{fill:url(#SVGID_309_);}
	.st224{fill:url(#SVGID_310_);}
	.st225{fill:url(#SVGID_311_);}
	.st226{clip-path:url(#SVGID_313_);}
	.st227{clip-path:url(#SVGID_315_);}
	.st228{clip-path:url(#SVGID_317_);}
	.st229{fill:url(#SVGID_318_);}
	.st230{fill:url(#SVGID_319_);}
	.st231{fill:url(#SVGID_320_);}
	.st232{fill:url(#SVGID_321_);}
	.st233{fill:url(#SVGID_322_);}
	.st234{fill:url(#SVGID_323_);}
	.st235{fill:url(#SVGID_324_);}
	.st236{clip-path:url(#SVGID_326_);}
	.st237{clip-path:url(#SVGID_328_);}
	.st238{clip-path:url(#SVGID_330_);}
	.st239{fill:url(#SVGID_331_);}
	.st240{fill:url(#SVGID_332_);}
	.st241{fill:url(#SVGID_333_);}
	.st242{fill:url(#SVGID_334_);}
	.st243{fill:url(#SVGID_335_);}
	.st244{fill:url(#SVGID_336_);}
	.st245{fill:url(#SVGID_337_);}
	.st246{fill:url(#SVGID_338_);}
	.st247{filter:url(#Adobe_OpacityMaskFilter_12_);}
	.st248{filter:url(#Adobe_OpacityMaskFilter_13_);}
	.st249{mask:url(#SVGID_339_);fill:url(#SVGID_340_);}
	.st250{fill:url(#SVGID_341_);}
	.st251{fill:url(#SVGID_342_);}
	.st252{filter:url(#Adobe_OpacityMaskFilter_14_);}
	.st253{filter:url(#Adobe_OpacityMaskFilter_15_);}
	.st254{mask:url(#SVGID_345_);fill:url(#SVGID_346_);}
	.st255{opacity:0.2;fill:url(#SVGID_347_);}
	.st256{fill:url(#SVGID_348_);}
	.st257{fill:url(#SVGID_349_);}
	.st258{fill:url(#SVGID_350_);}
	.st259{fill:url(#SVGID_351_);}
	.st260{fill:url(#SVGID_352_);}
	.st261{fill:url(#SVGID_355_);}
	.st262{fill:url(#SVGID_356_);}
	.st263{fill:url(#SVGID_357_);}
	.st264{filter:url(#Adobe_OpacityMaskFilter_16_);}
	.st265{filter:url(#Adobe_OpacityMaskFilter_17_);}
	.st266{mask:url(#SVGID_358_);fill:url(#SVGID_359_);}
	.st267{opacity:0.1;fill:url(#SVGID_360_);}
	.st268{fill:url(#SVGID_361_);}
	.st269{fill:url(#SVGID_362_);}
	.st270{fill:url(#SVGID_363_);}
	.st271{fill:url(#SVGID_364_);}
	.st272{fill:url(#SVGID_365_);}
	.st273{fill:url(#SVGID_367_);}
	.st274{opacity:0.3;fill:#EBFF29;}
	.st275{clip-path:url(#SVGID_372_);fill:url(#SVGID_373_);}
	.st276{clip-path:url(#SVGID_374_);fill:url(#SVGID_375_);}
	.st277{clip-path:url(#SVGID_376_);fill:url(#SVGID_377_);}
	.st278{clip-path:url(#SVGID_378_);fill:url(#SVGID_379_);}
	.st279{clip-path:url(#SVGID_388_);fill:url(#SVGID_389_);}
	.st280{clip-path:url(#SVGID_390_);fill:url(#SVGID_391_);}
	.st281{clip-path:url(#SVGID_392_);fill:url(#SVGID_393_);}
	.st282{clip-path:url(#SVGID_394_);fill:url(#SVGID_395_);}
	.st283{clip-path:url(#SVGID_400_);}
	.st284{fill-rule:evenodd;clip-rule:evenodd;fill:#EBFF29;}
	.st285{opacity:0.1;fill:url(#SVGID_401_);}
	.st286{clip-path:url(#SVGID_402_);}
	.st287{fill-rule:evenodd;clip-rule:evenodd;fill:#FFFFFF;}
	.st288{clip-path:url(#SVGID_407_);fill:url(#SVGID_408_);}
	.st289{clip-path:url(#SVGID_409_);fill:url(#SVGID_410_);}
	.st290{clip-path:url(#SVGID_411_);fill:url(#SVGID_412_);}
	.st291{clip-path:url(#SVGID_413_);fill:url(#SVGID_414_);}
	.st292{fill:url(#SVGID_419_);}
	.st293{fill:url(#SVGID_420_);}
	.st294{fill:url(#SVGID_421_);}
	.st295{fill:url(#SVGID_422_);}
	.st296{fill:url(#SVGID_423_);}
	.st297{fill:url(#SVGID_424_);}
	.st298{fill:url(#SVGID_425_);}
	.st299{fill:url(#SVGID_426_);}
	.st300{filter:url(#Adobe_OpacityMaskFilter_18_);}
	.st301{filter:url(#Adobe_OpacityMaskFilter_19_);}
	.st302{mask:url(#SVGID_427_);fill:url(#SVGID_428_);}
	.st303{fill:url(#SVGID_429_);}
	.st304{fill:url(#SVGID_430_);}
	.st305{filter:url(#Adobe_OpacityMaskFilter_20_);}
	.st306{filter:url(#Adobe_OpacityMaskFilter_21_);}
	.st307{mask:url(#SVGID_433_);fill:url(#SVGID_434_);}
	.st308{opacity:0.2;fill:url(#SVGID_435_);}
	.st309{fill:url(#SVGID_436_);}
	.st310{fill:url(#SVGID_437_);}
	.st311{fill:url(#SVGID_438_);}
	.st312{fill:url(#SVGID_439_);}
	.st313{fill:url(#SVGID_440_);}
	.st314{fill:url(#SVGID_443_);}
	.st315{fill:url(#SVGID_444_);}
	.st316{fill:url(#SVGID_445_);}
	.st317{filter:url(#Adobe_OpacityMaskFilter_22_);}
	.st318{filter:url(#Adobe_OpacityMaskFilter_23_);}
	.st319{mask:url(#SVGID_446_);fill:url(#SVGID_447_);}
	.st320{opacity:0.1;fill:url(#SVGID_448_);}
	.st321{fill:url(#SVGID_449_);}
	.st322{fill:url(#SVGID_450_);}
	.st323{fill:url(#SVGID_451_);}
	.st324{fill:url(#SVGID_452_);}
	.st325{fill:url(#SVGID_453_);}
	.st326{fill:url(#SVGID_455_);}
</style>
<g class="st2">
	<path class="st3" d="M414.77,933.18c-4.07-0.36-5.85-0.13-6.14,0.24C412.46,933.56,415.6,933.65,414.77,933.18z"/>
	<path class="st3" d="M505.41,946.07c-1.96-0.26-3.61-0.42-5.38-0.63C502.04,945.97,504.1,946.32,505.41,946.07z"/>
	<path class="st3" d="M0.96,6.66L3,8.22c0.89-0.27,1.76-0.54,2.43-0.99C3.95,7.06,2.43,6.87,0.96,6.66z"/>
	<path class="st3" d="M673.42,953.01c-0.33-0.04-0.44-0.03-0.75-0.06C668.27,953.45,670.77,953.34,673.42,953.01z"/>
	<path class="st3" d="M1056.14,907.33c-0.99-0.46-2.63-0.61-4.34-0.73C1052.06,906.93,1053.07,907.19,1056.14,907.33z"/>
	<path class="st3" d="M771.38,941.89l7.15,0.08C775.68,941.8,773.39,941.82,771.38,941.89z"/>
	<path class="st3" d="M1206.89,874.4c-0.51-0.13-1-0.19-1.64-0.24c-1.27,0.54-2.91,0.99-5.4,1.18
		C1201.79,875.29,1203.51,875.19,1206.89,874.4z"/>
	<path class="st3" d="M1199.85,875.34c-0.92,0.02-1.88,0.04-3.1,0.11C1197.92,875.45,1198.94,875.41,1199.85,875.34z"/>
	<path class="st3" d="M1348.22,864.65c-0.82-0.26-1.9-0.45-2.84-0.68c-1.51,0.1-3.28,0.21-4.83,0.31L1348.22,864.65z"/>
	<path class="st3" d="M779.85,939.83c1.24-0.41,2.52-0.72,3.83-0.97C780.42,939.33,776.81,939.54,779.85,939.83z"/>
	<path class="st3" d="M785.54,938.54c-0.63,0.09-1.25,0.2-1.86,0.32C784.34,938.76,784.97,938.66,785.54,938.54z"/>
	<path class="st3" d="M1221.78,869.86c0,0,0.19-0.15,0.33-0.35C1221.88,869.63,1221.76,869.75,1221.78,869.86z"/>
	<path class="st3" d="M913.77,141.91c-0.15-0.01-0.27-0.02-0.41-0.03C913.42,141.91,913.55,141.92,913.77,141.91z"/>
	<path class="st3" d="M1198.25,85.26c0.57-0.05,1.17-0.1,1.79-0.14C1199.38,85.16,1198.8,85.21,1198.25,85.26z"/>
	<path class="st3" d="M1049.44,114.39c0.01,0.02,0.03,0.04,0.04,0.06C1049.64,114.39,1049.62,114.37,1049.44,114.39z"/>
	<path class="st3" d="M1943.6,787.39l-4.79,16.87c-5.53-29.36,8.72-25.38,3.25-54.98l3.27,9.36c-1.93-15.19,0.07-56.03-8.28-70.92
		c1.2-2.69,4.04-6.24,4.79,0.45c1.25-36.3-8.89-80.8-3.74-109.01l2.54,2.75c-0.73-6.77-4.78-11.79-2.22-20.27
		c1.05,0.44,2.54,2.73,2.69-0.41c-0.88-3.58-4.45-17.99-2.97-26.96l2.86,7.67c3.33-35.4-6.96-54.34-8.71-84.02
		c7.48,0.08,9.91-27.78,11.13-41.69l1.06,0.48c0.92-41.23-6.2-70.03-9.14-108.21c2.03-5.92,3.26-13.9,4.03-23.14
		c0.39-4.62,0.66-9.55,0.86-14.69l0.04-0.98c0.01-0.56,0.02-1.12,0.03-1.69c0.02-1.13,0.04-2.27,0.07-3.41
		c0.06-2.29,0.05-4.58,0.04-6.9c-0.01-1.16-0.01-2.32-0.02-3.49c-0.02-0.14,0.04-0.31-0.05-0.42l-0.4-0.31l-0.8-0.62l-1.6-1.24
		c-2.14-1.65-4.28-3.33-6.5-4.99c-1.11-0.83-2.23-1.66-3.35-2.49c-1-0.73-2-1.47-3.01-2.21c-1.34-0.97-2.69-1.95-4.04-2.93
		c-2.71-1.94-5.45-3.88-8.2-5.8c-5.5-3.84-11.06-7.64-16.54-11.36c-10.97-7.44-21.63-14.57-30.91-21.21
		c5.24,4.48-4.54,2.95-12.07-0.72c-4.23-3.2-11.52-6.14-17.08-8.64c-5.55-2.51-9.37-4.63-6.63-6.38l3.34,1.96
		c-1.64-4.11-7.69-8.61-15.34-13.05c-7.63-4.46-16.88-8.8-24.79-12.84l-7.47,4.55c-8.6-7.25-20.07-13.94-32.76-19.96
		c-12.69-6.03-26.59-11.39-40.03-16.2c-13.44-4.82-26.42-9.08-37.31-13.11c-5.43-2.05-10.39-3.97-14.57-5.99
		c-4.21-1.97-7.7-3.96-10.25-6.04c-11.92-1.99-25.74-6.22-37.65-7.74l2.25-3.33c-15.46-4.85-27.26-8.18-40.16-11.34
		c-3.24-0.77-6.53-1.55-9.98-2.32c-3.47-0.72-7.08-1.47-10.9-2.27c-3.83-0.77-7.92-1.48-12.29-2.28c-4.37-0.79-9.09-1.49-14.17-2.31
		l9.03-1.11c-5.71-1.09-10.56-1.32-14.96-0.98c-4.4,0.32-8.29,1.02-12.14,1.88c-3.84,0.84-7.59,1.68-11.7,2.19
		c-4.12,0.55-8.56,0.69-13.82,0.1l-5.32-6.21c-20.13-2.17-40.43-4.82-60.97-5.93c-5.13-0.22-10.27-0.46-15.4-0.51
		c-2.57-0.01-5.13-0.01-7.7,0.02c-2.57,0.02-5.13,0.07-7.61,0.21c-5,0.24-9.99,0.57-14.96,1.04c-2.48,0.23-4.96,0.49-7.43,0.79
		c-2.47,0.29-4.93,0.71-7.39,1.11c0.6-0.82,1.68-2.54,8.18-2.94c-4.73,0.07-11.68,0.17-19.34,0.22c-1.92,0.02-3.87,0.04-5.85,0.07
		c-0.99,0.01-1.98,0.03-2.98,0.04l-2.99,0.11c-3.99,0.15-7.97,0.34-11.74,0.58c-3.77,0.24-7.33,0.51-10.49,0.87
		c-3.15,0.41-5.91,0.88-8.06,1.41c-3.69,0.92-5.62,2.05-4.88,3.46c-2.45-1.53-11.84-0.85-23.11,1.02c-3.2,0.51-6.55,1.09-9.94,1.71
		c-3.38,0.67-6.8,1.4-10.14,2.12c-3.34,0.73-6.61,1.45-9.7,2.13c-3.09,0.67-5.97,1.43-8.58,2.04l2.53-4.06
		c-8.52,3.54-12.81,5.61-18.06,7.43c-2.62,0.94-5.48,1.81-9.22,2.77c-1.87,0.48-3.96,0.97-6.34,1.51c-1.19,0.26-2.46,0.54-3.81,0.83
		c-1.35,0.3-2.78,0.63-4.3,0.97c-5.51,0.48-5.89-1.61,0.34-2.26c-8.7,0.75-12.1,2.15-15.93,3.63c-4.08,1.6-8.62,3.33-20.71,4.53
		l8.09-3.88c-10.08,1.66-14.58,2.84-17.86,4.11c-3.27,1.28-5.31,2.69-10.34,5.09c-5.98,2-15.46,3.65-23.91,4.59
		c-8.45,0.93-15.94,1.03-17.96-0.24c-1.95,2.53-11.8,7.45-23.69,9.08c-2-0.86,1.94-2.54,3.92-3.37
		c-33.7,4.79-47.23,14.85-71.02,16.13c-0.88-1.07-2.55-1.35-4.54-1.3c13.02-2.71,24.78-5.15,33.03-6.87
		c6.8-1.39,11.25-2.28,12.09-2.36c-1.47-3.12-22.25,0.77-7.3-7.31c-15.92,6.15-42.8,17.67-63.82,20.25c-1.1-0.12-2.17-0.24-3.09-0.6
		l2-0.78c-4.83,0.6-8.96,1.74-12.76,3.08c-6.71,0.77-10.99,1.14-17.29,2.25c-1.64-1.14-7.77-0.36-14.81,0.88
		c-7.06,1.19-15.03,2.88-20.3,3.74c1.89,3.46-11.78,5.14,1.3,5.99c-0.38-0.15,3.15-0.93,9.25-2.13c1.55-0.38,3.4-0.77,4.39-1.16
		c-0.17,0.14-0.39,0.29-0.63,0.44c3.44-0.67,7.43-1.37,11.8-2.25c4.38-0.85,9.18-1.78,14.28-2.78c-7.72,3.37-15.96,6.59-28.24,6.59
		c-4.74,3.25-10.03,6.74-13.11,8.38c-3.99-0.67-8.78-1.06-13.77-1.3c-5-0.24-10.21-0.33-15.08-0.52
		c-9.74-0.31-18.05-0.59-20.36-1.86c-7.97,1.63-16.72,3.16-25.65,4.71c-8.95,1.47-18.09,2.88-26.83,4.44
		c-17.52,2.91-33.46,6.22-43.27,10.56c-9.22,1.76-11.06-0.97-14.7-1.73c5.28-1.2,11.7-1.69,14.46-2.96
		c-4.59,0.88-10.33,1.69-16.42,2.48c-6.1,0.76-12.56,1.43-18.55,2.2c-6,0.76-11.54,1.59-15.84,2.52c-4.3,0.9-7.34,1.94-8.33,3.23
		c-23.91-0.62,12.78-5.33-19.61-2.39l4.23-1.77c-4.04-0.23-7.96-0.31-11.81-0.39c-3.85-0.08-7.6-0.07-11.28,0.02
		c-7.36,0.18-14.42,0.66-21.31,1.35c-6.9,0.63-13.63,1.41-20.31,2.31c-6.67,0.88-13.32,1.92-19.99,2.82
		c-6.65,0.83-13.38,1.65-20.29,2.34c-3.45,0.35-6.95,0.66-10.51,0.93c-1.78,0.13-3.57,0.27-5.38,0.35c-1.81,0.06-3.63,0.1-5.47,0.12
		c-13.19,0.15-27.3-0.25-42.65-2.79c1.43,0.31,2.33,0.63,2.83,1.07c-5.02-0.48-10.06-0.9-15.12-1.29c-2.53-0.18-5.06-0.36-7.6-0.54
		c-1.27-0.09-2.54-0.15-3.81-0.27l-3.8-0.35c-10.14-0.93-20.35-1.65-30.6-2.4c-10.21-0.99-20.47-1.88-30.75-2.74
		c-10.24-1.14-20.49-2.28-30.73-3.42c-1.28-0.13-2.56-0.31-3.83-0.5l-3.81-0.55l-7.62-1.1c-5.08-0.75-10.15-1.51-15.22-2.26
		c-10.06-1.74-20.04-3.7-29.94-5.69c-4.91-1.12-9.78-2.31-14.62-3.51c-4.84-1.22-9.67-2.42-14.41-3.76
		c-4.72-1.42-9.39-2.87-14.02-4.37c-2.31-0.75-4.62-1.51-6.91-2.28l-3.42-1.17c-1.13-0.41-2.24-0.85-3.36-1.27
		c-10.27-3.64-16.3-4.88-21.55-5.4c-5.2-0.61-9.59-0.54-16.58-1.44l-2.59-5.09l-6.02-0.65l-5.96-0.79l-11.99-1.6
		c-2.03-0.46-3.99-0.98-5.9-1.53c-1.91-0.56-3.71-1.23-5.5-1.9c-3.56-1.36-6.94-2.85-10.21-4.44c-6.6-3.1-12.54-6.9-18.83-10.58
		c-6.33-3.62-12.66-7.6-20.09-11.12c-3.74-1.74-7.6-3.56-11.85-5.23c-2.12-0.84-4.33-1.65-6.65-2.43c-2.31-0.78-4.74-1.52-7.21-2.3
		l1.38,2.27l1.43,2.23c-1.6-0.8-3.43-1.72-5.4-2.71c-1.98-0.98-4.13-2.02-6.34-3.07c-2.22-1.05-4.49-2.13-6.74-3.19
		c-2.23-1.08-4.38-2.21-6.43-3.26c-4.09-2.12-7.66-4.05-9.93-5.56c-2.23-1.55-3.17-2.63-2.08-2.97c-1.62-0.3-6.14,0-9.9-3.83
		l1.22-1.88c-2.77-1.14-5.41-2.41-8.13-3.62l-8.11-3.67l-8-3.83c-2.66-1.29-5.37-2.53-7.98-3.89c-10.48-7.81-7.79-8.83-6.56-10.55
		c0.62-0.86,0.91-1.91-0.88-4.09c-0.89-1.09-2.31-2.46-4.45-4.24c-2.08-1.82-4.93-4.02-8.64-6.81C33.23,16.3,24.12,11.4,17.02,7.76
		c-3.55-1.81-6.63-3.29-8.62-4.03c-1.03-0.4-1.69-0.51-2.14-0.49C5.81,3.24,5.73,3.55,5.96,4.03c0.79,0.77,1.66,1.66,2.53,2.6
		c-0.77,0.71-1.35,2.2-1.37,4.56C5.73,10.21,4.36,9.22,3,8.22C2.51,8.38,2,8.51,1.48,8.63C0.5,7.74,0,7.26,0,7.26v1.68
		c-1.11,0.21-2.24,0.4-3.33,0.6c-2.09,0.42-3.9,1.05-4.93,2.35c-0.24,0.34-0.49,0.67-0.58,1.14c-0.1,0.46-0.1,1-0.09,1.54
		c0.06,1.11,0.43,2.48,1.19,4.1C-6.46,21.43-4.05,25,0,29.58v110.67l-1.31-1.35l1.31,4v17.22c-1.01-0.52-1.88-2.17-2.29-5.56
		c-3.5,12.49,2.51,11.05-1.38,21.78c-0.61,1.18-0.95,0.65-1.23-0.45l2.11,12.2c-1.49-2.39-4.99,2.03-3.97-5.47
		c-4.08,21.9,5.3,35.31-0.05,43.56l-0.44-1.83c1.79,22.72,3.8,13.11,7.26,16.34v14.21l-8.78,10.51l5.19,2.99
		c-0.19,3.14-0.58,9.34-2.65,8.19c3.55,11.67,2.26-1.99,5.61,4.78c-4.73,15.09,2.21,41.6-6.06,45c3.94,5.41,3.04-14.43,5.79,1.68
		c-8.89,4.59,1.52,18.62-2.56,32.4c-4.59-4.23-2.16-17.29-6.25-3.5c7.76,8.32-1.7,26.84-0.22,38.46c6.18,0.55,2.58,25.28,4.64,44.79
		c-2.08-1.23-3.4,36.71-5.63,54.86l-1.04-0.54c6.24,3.51,5.06,22.23,6.35,35.86c-3.73-0.54-5.21-2.99-6.88-10.37l0.03,12.81
		c2,3.02,3.05,7.02,3.77,15.33l-4.66-3.22c0.26,17.05,5.49,34.34,2.38,56.29c2.95,0.84,7.46-7.46,10.97-5.7v11.91
		c-1.48-0.4-2.79-1.68-3.29-4.81c0.31,1.99,1.96,7.09,0.95,11.1l-3.96-9.27c-1.74,9.99,3.31,5.23,2.94,13.22
		c-3.36-0.16-2.4,5.91-5.06,4.77c-0.32-2.04,1.39-6.97,0.07-10.03c-0.6,9.01-2.59,19.9-5.13,23.5c1.91-0.79,4.52,0,4.96,6.6
		c0.24,17.05-4.04,5.84-5.76,15.79c2.33,4.13-0.08,15.01,4.94,15.3c-0.03,4.99-2.37,5.91-3.72,7.84c2.21,8.83,0.63,41.23,5.97,31.28
		l0.35-2.26c0.1,0.42,0.11,0.92,0.22,1.44c1.25,7.23,1.69,14.6,1.69,22.04c0,3.72-0.11,7.46-0.29,11.2c-0.1,1.9-0.21,3.81-0.31,5.71
		c-0.13,2.25-0.24,4.52-0.32,6.81c-0.19,0.61,0.38,1.05,0.7,1.55l1.09,1.46l2.29,2.91c0.39,0.49,0.8,0.97,1.2,1.45l1.11,1.32
		c0.67,0.82,1.36,1.62,2.07,2.41c2.78,3.19,5.7,6.27,8.72,9.26c1.53,1.48,3.06,2.95,4.61,4.41c1.58,1.43,3.2,2.82,4.82,4.2
		c0.82,0.69,1.63,1.37,2.45,2.05c0.84,0.67,1.69,1.32,2.54,1.96c1.7,1.3,3.42,2.57,5.16,3.81l-1.24,0.88
		c8.68,5.67,17.96,12.19,27.21,17.76c2.3,1.4,4.57,2.77,6.8,4.07c2.26,1.27,4.5,2.45,6.66,3.57c4.33,2.23,8.37,4.15,12.14,5.4
		c5.26,3.05,10.68,9.15,7.24,9.09c7.42,3.42,11.79,5.02,16.64,7.37c2.47,1.12,5.08,2.4,8.28,4.18c1.6,0.89,3.34,1.9,5.3,3.07
		c0.97,0.59,2,1.22,3.09,1.88c1.11,0.65,2.28,1.33,3.52,2.05c-4.1-1.21-5.88-1.64-6.6-1.65c-0.72-0.02-0.38,0.36-0.15,0.58
		c0.46,0.44,0.47,0.27-9.38-4.87c4.51,2.58,8.06,4.79,11.25,6.7c3.24,1.84,6.07,3.45,9.04,4.95c2.98,1.48,6.07,2.94,9.92,4.29
		c3.87,1.32,8.45,2.66,14.25,4.12c-4.6-0.07-1.58,2.44,3.92,5.33c5.58,2.75,13.61,5.85,18.67,7.27l-12.65-7.61
		c5.48,1.87,10.51,3.78,15.33,5.72c4.87,1.86,9.6,3.65,14.34,5.51l-7.61,2.11c4.88,2.46,9.8,4.64,14.75,6.5
		c5.01,1.76,10.02,3.28,14.98,4.64c2.48,0.68,4.96,1.31,7.41,1.92c1.22,0.31,2.46,0.58,3.7,0.83c1.24,0.25,2.47,0.5,3.69,0.75
		c4.91,0.97,9.74,1.86,14.46,2.75c2.36,0.45,4.69,0.9,7.01,1.34c2.33,0.39,4.64,0.8,6.92,1.22c4.55,0.85,8.98,1.78,13.28,2.89
		c2.15,0.55,4.26,1.15,6.34,1.8c2.08,0.66,4.16,1.26,6.19,1.98c4.07,1.42,7.99,3.1,11.78,5.13c12.71-0.29-23.05-7.52-11.31-8.57
		c4.96,1.29,9.85,2.93,14.5,4.7c4.66,1.75,9.05,3.71,13.12,5.31c8.09,3.31,14.54,6.22,17.74,6.86c3.42,0.97,6.4,1.76,9.12,2.21
		c2.71,0.46,5.11,0.72,7.31,0.86c4.39,0.28,7.95,0.04,11.55-0.22c3.6-0.26,7.23-0.53,11.77-0.33c4.54,0.18,10.03,0.64,17.32,2.12
		c-3.43-2.07-5.9-6.66,16.29-5.01c1.27,0.22,2.47,0.45,3.61,0.68c1.14,0.21,2.22,0.43,3.24,0.66c2.03,0.46,3.79,0.95,5.29,1.45
		c3,1.01,4.95,2.08,5.85,3.06c1.8,1.95-0.61,3.5-7.29,3.36c-5-0.44-7.3-1.21-6.98-1.7c-6.79-0.31-15.7-0.95-7.89,1.9l3.02-1.16
		c2.47,0.79,6.13,1.48,10.11,2.19c3.98,0.69,8.27,1.43,12.02,2.08c7.51,1.34,12.89,2.56,9.3,3.45c8.01,0.2,9.8-0.36,8.15-1.05
		c-1.16-0.49-4.01-1.18-7.59-1.91c1.53,0.28,3.03,0.55,4.5,0.79c0.75,0.12,1.49,0.24,2.22,0.36c0.74,0.1,1.46,0.19,2.18,0.28
		c1.44,0.17,2.86,0.34,4.26,0.51c5.58,0.63,10.84,1.08,16.12,1.5c5.28,0.44,10.59,0.87,16.29,1.34c5.71,0.4,11.82,0.93,18.69,1.73
		c-4.31-1.13-8.14-3.21-3.78-2.92c20.12,2.22,24.65,1.78,27.55,0.76c2.9-0.96,4.2-2.31,17.89-2.15c7.69,1.47,6.23,2.84,6.29,3.72
		c0.03,0.44,0.44,0.75,2.58,0.9c1.07,0.07,2.57,0.1,4.67,0.08c1.05-0.02,2.25-0.04,3.62-0.07c0.69-0.02,1.41-0.04,2.18-0.06
		c0.77-0.04,1.59-0.09,2.46-0.14c16.82,1.81,3.45,4.2-3.35,5.36c12.7-1.32,24.46-0.71,34.92,0.37c2.61,0.27,5.14,0.56,7.58,0.85
		c2.44,0.3,4.75,0.52,6.98,0.77c4.46,0.47,8.51,0.87,12.1,0.99l-13.23,1.33c7.92-0.79,14.4-0.81,21-0.84l-7.58-3.08
		c7.76,0.5,14.34,0.48,14.21,1.78c7.96-2.09-6.18-5.16,9.61-8.05c10.37,1.42,31.38-2.25,35.09,1.84c-29.29-0.76-2.87,3.16-17.31,4.8
		c3.88-0.13,8.23-0.07,13.11,0.18c1.19,0.44-1.07,0.88-3.19,1.15c15.67,1.62,19.23,0.25,22.88-1.47c3.66-1.73,7.42-3.92,23.56-4.36
		c-1.98,1.23-0.05,2.28,3.05,2.94c3.09,0.63,7.35,0.84,9.97,0.48c-13.05,0.52-6.47-3.62,5.32-5.93c10.4,0.45,16.01-0.11,20.35-0.86
		c4.34-0.79,7.43-1.71,12.84-1.92l-12.42-0.14c3.98-2.57,14.31-2.86,28.59-4.43c0.43,0.52-0.56,0.91-2.01,1.21
		c2.22-0.33,4.52-0.5,6.9-0.59c4.49-0.16,9.25,0.06,14.23,0.32c4.97,0.24,10.16,0.56,15.48,0.45c5.31-0.14,10.74-0.62,16.2-1.8
		c10.56,0.65,1.67,4.27,10.92,4.53c12.27-2.8,19.15-2.73,26.26-2.6c7.08,0.03,14.38,0.1,27.25-2.77c-4.12-1.05-6.46-1.39-5.55-2.08
		c0.45-0.35,1.72-0.79,3.98-1.49c2.26-0.7,5.49-1.72,9.92-3.1l-10.59,2.02l-10.63,1.85c-7.09,1.22-14.18,2.52-21.31,3.59l6.71-1.86
		l6.68-1.96l13.3-3.93c-6.47,0.76-13.19,2.08-19.29,3.26c-6.11,1.11-11.59,2.04-15.53,2.19c12.7-3.92,11.45-3,4.81-4.93
		c9.27,1.47,17.92-0.35,26.83-2.31c2.23-0.49,4.47-1,6.75-1.48c2.27-0.5,4.58-1,6.93-1.41c4.71-0.83,9.62-1.38,14.89-1.3l1.22,7.73
		c7.91-0.25,15.2-1.25,22.35-2.52c7.13-1.31,14.05-3.11,21.24-4.92c7.17-1.87,14.57-3.93,22.68-5.81
		c8.06-1.99,16.88-3.76,26.77-5.35c-4.33,0.43-8.64,0.88-12.99,1.26c4.25-4,23.94-5.35,36.04-9.28c-0.26,2.76,7.91,1.98,13.81,2.35
		c-1.29-1.71,28.26-6.03,29.9-11.75c6.11-0.12,12.22-0.3,18.3-0.37c7.84-1.28,13.81-2.84,18.83-4.44c5.02-1.62,9.1-3.45,13.16-5.18
		c4.06-1.74,8.09-3.48,13.01-5.09c4.92-1.59,10.75-2.92,18.33-4c-8.27,4.29,5.8,3.79-13.63,9.15c9.97-1.65,19.03-2.74,18.73-4.47
		c3.13,0.35,9.83-1.56,17.02-3.43c7.21-1.77,14.92-3.45,19.8-2.85c4.01-1.66,4.88-4.47,16.34-5.57c0.79,0.22,0.71,0.63,0.51,0.92
		c1.05-0.61,4.49-1.42,7.08-2.19c3.12-0.93,4.96-1.95-0.3-2.9c4.12,0.63,8.57,0.97,13.26,1.08c2.35,0.06,4.75,0.06,7.21,0.01
		c2.46-0.04,4.98-0.06,7.54-0.15c5.11-0.17,10.38-0.49,15.72-0.88c5.34-0.36,10.76-0.73,16.15-1.09c2.69-0.19,5.38-0.38,8.04-0.57
		c1.33-0.09,2.66-0.18,3.98-0.27c1.32-0.06,2.64-0.12,3.95-0.19c5.23-0.23,10.34-0.41,15.2-0.46c9.71-0.16,18.51,0.52,25.46,2.07
		c2.8-0.17,5.67-0.34,8.59-0.52c1.46-0.09,2.94-0.17,4.42-0.26c1.49-0.06,2.98-0.12,4.49-0.19c6.02-0.23,12.14-0.47,18.2-0.7
		c3.03-0.1,6.05-0.2,9.03-0.3c2.9-0.03,5.76-0.06,8.57-0.1c5.62,0.05,11.01,0.12,16,0.4c-1.35,0.7-0.19,1.29-3.92,0.8
		c3.4,0.5,6.21,0.77,8.61,0.87c2.4,0.15,4.37,0.13,6.08-0.01c1.71-0.14,3.16-0.4,4.49-0.7c1.33-0.29,2.55-0.63,3.8-0.97
		c2.5-0.66,5.15-1.37,9.11-1.42c1.98-0.03,4.29,0.08,7.08,0.4c2.78,0.32,6.03,0.93,9.89,1.78c3.77,1.57,4.55,2.42,3.8,2.73
		c-0.75,0.32-3.06,0.19-5.53-0.01c-4.95-0.42-10.56-1.25-5.77,0.19c0.63,2.25,3.28,3.62,7.21,4.52c1.96,0.46,4.24,0.85,6.76,1.16
		c2.52,0.3,5.26,0.56,8.14,0.87c2.88,0.3,5.91,0.55,8.96,0.93c3.06,0.38,6.16,0.79,9.19,1.31c3.03,0.55,6,1.2,8.8,1.98
		c2.8,0.78,5.42,1.77,7.77,2.9l-5.13-0.55c3.67,1.54,7.96,2.54,12.7,3.46c2.38,0.45,4.87,0.84,7.47,1.2
		c2.59,0.39,5.29,0.76,8.08,1.13c11.13,1.51,23.66,3.22,36.14,6.97c0,0-1.55,0.38-0.7,1.18c9.54,0.32,22.67,2.49,36.43,5.55
		c13.76,3.06,28.14,6.99,40.36,10.45c-9.12,0.57-11.72-1.97-8.93,2.64c5.44,1.56,5.36,0.05,6.64-1.07
		c1.27-1.11,3.93-1.89,14.81,1.35c2.99,2.01,8.06,4.76,12.4,7.47c4.32,2.75,7.91,5.47,7.92,7.47l-9.95-3.46l-9.98-3.4
		c7.67,7.8,25.72,8.97,35.65,13.6l-2.47,1.35c15.22,5.32,23.62,6.97,32.25,8.86c8.63,1.89,17.47,4.05,33.3,10.75l-2.35-2.73
		c20.55,2.69,12.83,8.55,32.43,12.56l1.94,6.78c6.07,1.89,16.77,5.13,28.55,8.99c11.77,3.86,24.61,8.36,34.94,12.62
		c-6.96-1-16.62-3.78-26.57-6.83c-9.95-3.06-20.2-6.38-28.26-8.59c5.59,2.46,15.13,6.58,24.17,10.19c9.05,3.6,17.6,6.69,21.33,6.92
		c-4.79-1.64-11.24-3.12-15.14-5.82c8.15,1.34,17.03,3.66,26.6,6.98c4.79,1.66,9.74,3.57,14.86,5.74c1.28,0.54,2.57,1.1,3.87,1.67
		c1.32,0.58,2.51,1.11,4.2,1.9c3.15,1.47,6.34,2.99,9.6,4.61c-0.96,1.12-0.49,2.57,1.43,4.46c1.91,1.9,5.23,4.2,9.64,6.92
		c8.8,5.44,21.91,12.47,35.51,19.81l0.2-0.21l0.1-0.1c0.01-0.02,0.04-0.03,0.04-0.06l0-0.12l0.02-0.98l0.04-1.97
		c0.03-1.32,0.06-2.64,0.08-3.97c0.07-2.65,0.14-5.29,0.21-7.91c0.17-5.23,0.4-10.33,0.77-15.1c0.74-9.53,2.02-17.84,4.37-23.33
		l-0.22-2.79l-0.1-1.39l-0.02-0.32l-0.02-0.21l-0.05-0.41l-0.35-3.31c-0.21-2.21-0.39-4.41-0.52-6.62
		c-0.27-4.42-0.4-8.84-0.43-13.28c-0.04-8.88,0.34-17.83,0.85-26.97c1.02-18.27,2.54-37.27,2.16-57.87
		c-10.12,14.61-0.29-12.03-10.68-9.5c-0.66-9.53-0.5-13.2,0.16-14.09l-0.44,2.02c0.2-0.86,0.31-1.35,0.49-2.08h-0.03l6.2-29.04
		c3.03-6.89,2.29,9.13,4.62,8.24c0.8-21.01,4.41-8.82,7.17-22.72C1943.78,809.52,1942.18,799.36,1943.6,787.39z M932.27,134.52
		c-0.16,0.17-0.54,0.4-0.69,0.59c0.46-0.81,1.03-1.58,2.22-2.29c6.81-1.81,9.36-1.54,10.55-0.98
		C941.06,132.5,937.26,133.38,932.27,134.52z M13.74,15.76l-1.35-0.91l-0.61-4.32C13.5,12.84,14.56,14.9,13.74,15.76z M-0.75,181.21
		c0.24-0.75,0.5-1.31,0.75-1.7v7.33C-0.27,185.07-0.52,183.21-0.75,181.21z"/>
	<path class="st3" d="M663.5,951.68c-2.34,0.08-4.5,0.23-6.5,0.45C659.77,952.01,661.89,951.86,663.5,951.68z"/>
	<path class="st3" d="M522.37,173.66c-1.32-0.29-3.08-0.58-5.41-0.97C518.79,173.05,520.59,173.37,522.37,173.66z"/>
	<path class="st3" d="M922.61,139.75c-0.99,0.26-1.51,0.51-2.81,0.77c1.53,0.07,2.97,0.1,4.42,0.08c0.74-0.53,1.5-1.06,2.15-1.57
		C925.1,139.27,923.79,139.53,922.61,139.75z"/>
	<path class="st3" d="M93.9,839.31l0.25-0.14C94.05,839.21,93.97,839.26,93.9,839.31z"/>
	<path class="st3" d="M93.9,839.31l-3.54,1.92C100.2,845.97,92.07,840.64,93.9,839.31z"/>
	<path class="st3" d="M261.15,911.42c6.5,1.24,12.97,2.54,19.46,3.72c-4.78-0.9-9.53-1.92-14.3-2.88L261.15,911.42z"/>
	<path class="st3" d="M1321.28,868.67l-3.74-4C1309.76,865.72,1308.47,870.43,1321.28,868.67z"/>
	<path class="st3" d="M1772.9,965.8c-8.8-4.07-16.84-9.21-21.78-10.63C1754.26,958.79,1764.72,964.64,1772.9,965.8z"/>
	<path class="st3" d="M1777.61,154.12c-2.64-1.06-5.32-2.07-7.98-3.11c-2.66-1.03-5.33-2.05-8.01-3.05c2.35,1.16,4.68,2.33,7,3.53
		C1771.61,152.37,1774.63,153.22,1777.61,154.12z"/>
</g>
</svg>
