<svg id="Layer_1" xmlns="http://www.w3.org/2000/svg" xmlns:xlink="http://www.w3.org/1999/xlink" viewBox="0 0 1926 1025" style="enable-background:new 0 0 1926 1025"><style>.st0{fill:#f6f6f6}.st1{fill-rule:evenodd;clip-rule:evenodd;fill:#ff445a}</style><g><path class="st0" d="M410.6 918.3c-4.1-.4-5.9-.1-6.1.2C408.3 918.7 411.4 918.8 410.6 918.3z"/><path class="st0" d="M501.3 931c-2-.3-3.6-.4-5.4-.6C497.9 930.9 5e2 931.2 501.3 931z"/><path class="st0" d="M-3.6 3.5l2 1.6c.9-.3 1.8-.5 2.4-1C-.6 3.9-2.2 3.7-3.6 3.5z"/><path class="st0" d="M669.5 937.8c-.3.0-.4.0-.8-.1C664.4 938.3 666.9 938.1 669.5 937.8z"/><path class="st0" d="M1052.6 892.7c-1-.5-2.6-.6-4.3-.7C1048.6 892.3 1049.6 892.6 1052.6 892.7z"/><path class="st0" d="M767.6 926.9l7.2.1C771.9 926.8 769.6 926.8 767.6 926.9z"/><path class="st0" d="M1203.6 860.2c-.5-.1-1-.2-1.6-.2-1.3.5-2.9 1-5.4 1.2C1198.5 861.1 1200.2 861 1203.6 860.2z"/><path class="st0" d="M1196.5 861.1c-.9.0-1.9.0-3.1.1C1194.6 861.3 1195.6 861.2 1196.5 861.1z"/><path class="st0" d="M1345.1 850.6c-.8-.3-1.9-.5-2.8-.7-1.5.1-3.3.2-4.8.3L1345.1 850.6z"/><path class="st0" d="M776 924.8c1.2-.4 2.5-.7 3.8-1C776.6 924.3 773 924.5 776 924.8z"/><path class="st0" d="M781.8 923.5c-.6.1-1.3.2-1.9.3C780.6 923.8 781.3 923.7 781.8 923.5z"/><path class="st0" d="M1218.5 855.8c0 0 .2-.2.3-.3C1218.6 855.5 1218.5 855.7 1218.5 855.8z"/><path class="st0" d="M910.2 136.9c-.2.0-.3.0-.4.0C909.8 136.9 909.9 136.9 910.2 136.9z"/><path class="st0" d="M1195 81.1c.6-.1 1.2-.1 1.8-.1C1196.1 81 1195.5 81 1195 81.1z"/><path class="st0" d="M1045.9 109.8c0 0 .09999999999990905.0.0.0C1046.1 109.8 1046.1 109.8 1045.9 109.8z"/><path class="st0" d="M-19.1 793.8c2.8 13.7 6.4 1.7 7.2 22.4 2.3.9 1.6-14.9 4.6-8.1l6.2 28.6v0c.2.8.3 1.2.5 2.1l-.4-2c.7.9.9 4.5.2 13.9-10.4-2.5-.6 23.8-10.7 9.4-.3 20.3 1.2 39.1 2.2 57.2.5 9.1.8 17.9.8 26.7.0 4.4-.1 8.8-.4 13.1-.1 2.2-.3 4.3-.5 6.5l-.3 3.3-.1.4v.2.3l-.1 1.4-.2 2.8c2.4 5.4 3.7 13.6 4.4 23 .4 4.7.6 9.8.8 14.9.1 2.6.1 5.1.2 7.8.0 1.4.1 2.7.1 3.9v2 1 .1c0 .1.0.1.0.1l.1.1.2.2c13.6-7.2 26.7-14.2 35.5-19.6 4.4-2.7 7.7-4.9 9.6-6.8 1.9-1.9 2.4-3.4 1.4-4.4 3.3-1.6 6.4-3.1 9.6-4.5 1.7-.8 2.9-1.3 4.2-1.9 1.3-.6 2.6-1.2 3.9-1.7 5.2-2.1 10.1-3.9 14.9-5.6 9.6-3.3 18.4-5.6 26.6-6.9-3.9 2.7-10.3 4.1-15.1 5.7 3.7-.2 12.2-3.3 21.3-6.8s18.6-7.6 24.2-10.1c-8.1 2.2-18.4 5.4-28.3 8.5-10 3-19.6 5.7-26.6 6.7 10.3-4.1 23.1-8.6 34.9-12.4 11.8-3.9 22.5-7 28.6-8.9l1.9-6.7c19.6-4 11.8-9.8 32.4-12.4l-2.3 2.7c15.8-6.7 24.6-8.8 33.3-10.7 8.7-1.9 17.1-3.6 32.3-8.8l-2.5-1.3c10-4.5 28-5.7 35.7-13.4l-10 3.4-9.9 3.5c0-2 3.6-4.6 7.9-7.4 4.3-2.7 9.4-5.4 12.4-7.4 10.9-3.2 13.5-2.4 14.8-1.3 1.2 1.1 1.2 2.7 6.6 1.1 2.8-4.5.2-2-8.9-2.6 12.3-3.5 26.7-7.4 40.4-10.4 13.7-3 26.9-5.1 36.4-5.4.9-.8-.7-1.2-.7-1.2 12.4-3.8 25-5.4 36.1-6.9 2.8-.3 5.5-.7 8.1-1.1 2.6-.4 5.1-.7 7.5-1.2 4.7-1 9-2 12.7-3.5l-5.1.5c2.4-1.1 5-2.1 7.8-2.9 2.8-.8 5.8-1.5 8.8-2 3-.5 6.1-.9 9.2-1.3 3.1-.4 6.1-.6 9-.9 2.8-.3 5.6-.6 8.1-.9 2.6-.4 4.8-.7 6.8-1.2 3.9-.9 6.6-2.2 7.2-4.4 4.8-1.5-.9-.6-5.8-.2-2.4.2-4.7.3-5.5.0-.8-.3.0-1.1 3.8-2.7 3.9-.9 7.1-1.5 9.9-1.8 2.8-.3 5.1-.4 7.1-.4 3.9.0 6.6.7 9.1 1.4 1.2.4 2.5.7 3.8 1s2.8.6 4.5.7c1.7.1 3.7.2 6.1.0 2.4-.1 5.2-.4 8.6-.9-3.7.5-2.6-.1-3.9-.8 5-.3 10.4-.4 16-.4 2.8.0 5.7.1 8.6.1 2.9.1 6 .2 9 .3 6.1.2 12.2.5 18.2.7 1.5.1 3 .1 4.5.2s2.9.2 4.4.3c2.9.2 5.8.3 8.6.5 7-1.6 15.8-2.3 25.5-2.1 4.9.1 10 .3 15.2.5 1.3.1 2.6.1 3.9.2 1.3.1 2.7.2 4 .3 2.6.2 5.3.4 8 .6 5.4.4 10.9.7 16.2 1.1 5.3.4 10.6.7 15.7.9 2.5.1 5 .2 7.5.2 2.4.1 4.9.1 7.2.0 4.7-.1 9.2-.5 13.3-1.1-5.3.9-3.4 2-.3 2.9 2.6.8 6 1.6 7.1 2.2-.2-.3-.3-.7.5-.9 11.4 1.1 12.3 3.9 16.3 5.5 4.9-.7 12.6 1 19.8 2.8 7.2 1.8 13.9 3.7 17 3.4-.3 1.8 8.7 2.8 18.7 4.4-19.4-5.3-5.3-4.8-13.6-9.1 7.5 1.1 13.4 2.4 18.3 3.9s8.9 3.4 13 5c4.1 1.7 8.2 3.6 13.2 5.1s11 3.1 18.8 4.3c6.1.1 12.2.3 18.3.4 1.6 5.7 31.2 10 29.9 11.7 5.9-.3 14.1.5 13.8-2.3 12.1 3.9 31.7 5.2 36 9.2-4.4-.4-8.7-.9-13-1.3 9.9 1.5 18.7 3.3 26.8 5.2 8.1 1.9 15.5 3.9 22.7 5.7 7.2 1.8 14.1 3.6 21.2 4.8 7.1 1.2 14.4 2.2 22.3 2.5l1.2-7.6c5.3-.1 10.2.5 14.9 1.3 2.3.4 4.6.9 6.9 1.4 2.3.5 4.6 1 6.8 1.5 8.9 2 17.5 3.8 26.8 2.3-6.7 1.9-7.9 1 4.8 4.8-3.9-.2-9.4-1.1-15.5-2.2-6.1-1.2-12.8-2.5-19.3-3.3l13.3 3.9 6.7 2 6.7 1.9c-7.1-1.1-14.2-2.4-21.3-3.6l-10.6-1.8-10.6-2c4.4 1.4 7.6 2.4 9.9 3.1 2.3.7 3.5 1.2 4 1.5 1 .7-1.4 1.1-5.5 2.1 12.9 2.9 20.2 2.8 27.3 2.8 7.1-.1 14-.2 26.3 2.6 9.2-.2.3-3.8 10.9-4.4 5.5 1.2 10.9 1.7 16.2 1.8 5.3.1 10.5-.3 15.5-.5 4.9-.2 9.7-.5 14.2-.3 2.4.1 4.7.3 6.9.6-1.4-.3-2.4-.7-2-1.2 14.3 1.5 24.6 1.8 28.6 4.3l-12.4.1c5.4.2 8.5 1.1 12.8 1.9 4.3.8 9.9 1.4 20.3.9 11.8 2.3 18.3 6.3 5.3 5.8 2.7.3 6.9.1 10-.5 3-.6 5-1.7 3-2.9 16.2.5 19.9 2.7 23.6 4.3 3.7 1.8 7.2 3.1 22.9 1.5-2.1-.3-4.4-.8-3.2-1.2 4.9-.3 9.2-.3 13.1-.2-14.4-1.6 12-5.5-17.3-4.7 3.7-4 24.7-.4 35.1-1.8 15.8 2.8 1.6 5.8 9.6 7.9-.1-1.3 6.4-1.3 14.2-1.8l-7.6 3.1c6.6.0 13.1.0 21 .8l-13.2-1.3c3.6-.1 7.6-.5 12.1-1 2.2-.3 4.6-.5 7-.8 2.5-.2 5-.5 7.6-.8 10.4-1.1 22.2-1.7 34.9-.4-6.8-1.2-20.1-3.6-3.3-5.3.9.0 1.7.1 2.5.1.8.1 1.5.1 2.2.1 1.3.1 2.6.1 3.6.1 2.1.0 3.6.0 4.7-.1 2.2-.1 2.6-.5 2.6-.9.1-.9-1.4-2.2 6.3-3.7 13.7-.1 15 1.2 17.9 2.2 3 1 7.5 1.4 27.6-.8 4.3-.3.5 1.8-3.8 2.9 6.9-.8 13-1.3 18.7-1.7 5.7-.4 11-.9 16.3-1.3 5.3-.4 10.5-.9 16.1-1.5 1.4-.2 2.9-.3 4.3-.5.7-.1 1.5-.2 2.2-.3.7-.2 1.4-.3 2.2-.4 1.5-.3 3-.5 4.5-.8-3.6.7-6.4 1.4-7.6 1.9-1.7.6.1 1.2 8.1 1-3.6-.9 1.8-2.2 9.3-3.5 3.7-.7 8-1.4 12-2.1 4-.7 7.6-1.4 10.1-2.2l3 1.2c7.8-2.9-1.1-2.2-7.9-1.9.3.5-2 1.3-7 1.7-6.7.1-9.1-1.4-7.3-3.4.9-1 2.9-2.1 5.9-3.1 1.5-.5 3.3-1 5.3-1.5 1-.3 2.1-.5 3.2-.7 1.1-.2 2.3-.5 3.6-.7 22.2-1.7 19.7 2.9 16.3 4.9 7.3-1.5 12.8-1.9 17.3-2.1 4.6-.2 8.2.0 11.8.3 3.5.2 7.1.5 11.5.2 2.2-.2 4.6-.4 7.3-.9 2.7-.4 5.7-1.2 9.1-2.2 3.2-.7 9.6-3.6 17.7-6.8 4.1-1.6 8.4-3.5 13.1-5.2 4.6-1.8 9.5-3.4 14.5-4.6 11.7 1.1-24 8.2-11.3 8.5 3.8-2 7.7-3.7 11.8-5 2-.7 4.1-1.3 6.2-2 2-.6 4.2-1.3 6.3-1.8 4.3-1.1 8.8-2.1 13.3-2.9 2.3-.4 4.6-.8 6.9-1.2 2.3-.4 4.6-.8 7-1.3 4.8-.9 9.6-1.8 14.5-2.8 1.2-.3 2.5-.5 3.7-.8 1.2-.2 2.5-.5 3.7-.8 2.4-.6 4.9-1.2 7.4-1.9 5-1.3 10-2.8 15-4.5 5-1.9 9.9-3.9 14.8-6.4l-7.6-2.1c4.7-1.8 9.4-3.6 14.3-5.4 4.8-1.9 9.8-3.8 15.3-5.6l-12.6 7.5c5.1-1.5 13.1-4.4 18.7-7.2 5.5-2.9 8.5-5.3 3.9-5.2 5.9-1.4 10.4-2.8 14.3-4 3.8-1.4 6.9-2.8 9.9-4.2 2.9-1.5 5.8-3.2 9-4.9 3.2-1.9 6.8-4 11.3-6.6-9.9 5.1-9.9 5.2-9.4 4.8.2-.2.5-.6-.2-.6-.7.1-2.5.5-6.6 1.7 1.2-.7 2.4-1.3 3.5-2 1.1-.7 2.1-1.3 3.1-1.9 2-1.2 3.7-2.2 5.3-3.1 3.2-1.8 5.8-3.1 8.3-4.1 4.8-2.4 9.2-3.9 16.6-7.3-3.5.1 1.9-6 7.2-9 3.7-1.2 7.8-3.2 12.1-5.3 2.2-1.1 4.4-2.3 6.7-3.6 2.2-1.3 4.5-2.7 6.8-4 9.2-5.5 18.5-11.9 27.2-17.6l-1.2-.9c1.8-1.2 3.5-2.5 5.2-3.8.8-.7 1.7-1.3 2.5-2 .9-.6 1.7-1.3 2.5-2 1.6-1.4 3.2-2.8 4.8-4.1 1.5-1.4 3.1-2.9 4.6-4.3 3-3 5.9-6 8.7-9.2.7-.8 1.4-1.6 2.1-2.4l1.1-1.3c.4-.5.8-1 1.2-1.5l2.3-2.9 1.1-1.5c.3-.5.9-.9.7-1.5-.1-2.3-.2-4.4-.3-6.7-.1-1.9-.2-3.8-.3-5.6-.2-3.7-.3-7.4-.3-11.1.0-7.3.4-14.6 1.7-21.7.1-.5.1-1 .2-1.4l.3 2.3c5.4 9.8 3.8-22.2 6-30.9-1.3-1.9-3.7-2.8-3.7-7.7 5-.3 2.6-11.1 4.9-15.1-1.8-9.9-6 1.2-5.8-15.6.5-6.5 3.1-7.3 5-6.5-2.5-3.6-4.5-14.3-5.1-23.2-1.3 3 .4 7.9.1 9.9-2.7 1.1-1.7-4.9-5.1-4.7-.4-7.9 4.6-3.2 2.9-13l-4 9.2c-1-3.9.7-9 1-11-.5 3.1-1.8 4.3-3.3 4.7V585c3.5-1.8 8.1 6.4 11 5.6-3.1-21.7 2.1-38.8 2.4-55.6l-4.7 3.2c.7-8.2 1.8-12.1 3.8-15.1v-12.6c-1.7 7.3-3.2 9.8-6.9 10.3 1.2-13.5.1-32 6.3-35.4l-1 .5c-2.2-18-3.5-55.4-5.6-54.2 2-19.3-1.6-43.7 4.6-44.2 1.5-11.6-8-29.8-.2-38-4.1-13.6-1.7-.7-6.3 3.5-4.1-13.6 6.3-27.4-2.6-32 2.8-15.9 1.9 3.7 5.8-1.7-8.3-3.4-1.4-29.5-6.1-44.4 3.3-6.7 2.1 6.8 5.6-4.7-2.1 1.1-2.5-5-2.7-8.1l5.2-3-8.8-10.4v-14c3.5-3.2 5.5 6.3 7.3-16.1l-.4 1.8c-5.4-8.2 4-21.4-.1-43 1 7.4-2.5 3.1-4 5.4l2.1-12c-.3 1-.6 1.6-1.2.4-3.9-10.6 2.1-9.2-1.4-21.5-.4 3.4-1.3 5-2.3 5.5v-17l1.3-3.9-1.3 1.4V26.1c4.1-4.5 6.5-8.1 7.7-10.8.8-1.6 1.1-3 1.2-4 0-.5.0-1-.1-1.5-.1-.4-.4-.8-.6-1.1-1-1.3-2.8-2-4.9-2.4-1.1-.2-2.2-.4-3.3-.6V4c0 0-.5.4-1.5 1.3-.5-.1-1-.2-1.5-.4-1.3 1-2.7 2-4.1 3-.1-2.4-.6-3.9-1.4-4.5.8-.9 1.7-1.8 2.5-2.6.3-.5.2-.8-.6-.8-.4.0-1.1.1-2.1.5-2 .7-5 2.2-8.6 3.9-7.1 3.6-16.2 8.4-22.2 12.1-3.7 2.8-6.5 4.9-8.6 6.7-2.2 1.7-3.6 3.1-4.5 4.1-1.8 2.2-1.5 3.2-.9 4 1.2 1.7 3.9 2.7-6.6 10.4-2.6 1.4-5.3 2.6-8 3.9l-8 3.8-8.1 3.7c-2.7 1.2-5.3 2.5-8.1 3.6l1.2 1.9c-3.8 3.8-8.3 3.5-9.9 3.8 1.1.4.1 1.4-2.1 3-2.2 1.5-5.8 3.5-9.9 5.5-2 1.1-4.2 2.2-6.4 3.3-2.2 1.1-4.5 2.1-6.7 3.2-2.2 1.1-4.3 2.1-6.3 3.1s-3.8 1.9-5.4 2.7l1.4-2.2 1.4-2.3c-2.5.8-4.9 1.5-7.2 2.3-2.3.7-4.5 1.6-6.6 2.4-4.3 1.6-8.2 3.5-11.9 5.1-7.4 3.5-13.8 7.4-20.1 11-6.3 3.7-12.2 7.4-18.8 10.5-3.3 1.6-6.6 3-10.2 4.3-1.8.7-3.6 1.3-5.5 1.9-1.9.5-3.9 1-5.9 1.5l-12 1.6-6 .8-6 .7-2.6 5c-7 .9-11.4.8-16.6 1.4-5.2.5-11.2 1.8-21.5 5.3-1.2.4-2.3.9-3.4 1.3l-3.4 1.2c-2.3.8-4.6 1.5-6.9 2.3-4.6 1.5-9.3 3-14 4.3-4.7 1.4-9.6 2.6-14.4 3.8-4.8 1.2-9.7 2.4-14.6 3.5-9.9 2-19.8 3.9-29.9 5.6-5.1.8-10.1 1.5-15.2 2.3l-7.6 1.1-3.8.6c-1.2.2-2.5.4-3.8.5-10.2 1.1-20.5 2.3-30.7 3.4-10.3.8-20.6 1.7-30.8 2.7-10.2.8-20.5 1.5-30.6 2.4l-3.8.4c-1.3.2-2.5.2-3.8.3-2.5.1-5.1.3-7.6.5-5 .4-10.1.8-15.1 1.3.5-.5 1.4-.8 2.8-1.1-15.4 2.5-29.5 2.9-42.7 2.8-1.9.0-3.7.0-5.5-.1-1.8-.1-3.6-.3-5.4-.4-3.5-.2-7-.5-10.5-.9-6.9-.7-13.6-1.5-20.3-2.3-6.7-.9-13.3-1.9-20-2.8-6.7-.9-13.4-1.7-20.3-2.3-6.9-.7-13.9-1.2-21.3-1.4-3.7-.1-7.5-.1-11.3.0-3.8.1-7.8.2-11.8.4l4.2 1.8c-32.4-2.9 4.3 1.8-19.6 2.4-1-1.3-4-2.3-8.3-3.2-4.3-.9-9.8-1.7-15.8-2.5-5.9-.8-12.4-1.4-18.5-2.2-6.1-.8-11.8-1.6-16.4-2.5 2.8 1.3 9.2 1.8 14.5 3-3.6.7-5.5 3.5-14.7 1.7-9.8-4.3-25.8-7.6-43.3-10.5-8.7-1.5-17.8-2.9-26.8-4.3-9-1.5-17.7-3.1-25.7-4.6-2.4 1.3-10.7 1.6-20.4 1.9-4.9.2-10.1.3-15.1.5-5 .2-9.8.6-13.8 1.3-3.1-1.7-8.4-5-13.1-8.3-12.2.0-20.5-3.2-28.2-6.5 5.1 1 9.9 1.9 14.3 2.8 4.4.9 8.4 1.6 11.8 2.3-.2-.1-.4-.3-.6-.4 1 .4 2.9.8 4.4 1.2 6.1 1.2 9.7 2 9.3 2.1 13.1-.9-.6-2.5 1.3-5.9-5.3-.8-13.2-2.5-20.3-3.7-7-1.3-13.2-2-14.8-.9-6.3-1.2-10.6-1.5-17.3-2.3-3.8-1.4-8-2.5-12.8-3.1l2 .8c-.9.4-2 .5-3.1.6-21-2.6-48-13.9-63.9-20 15 8-5.8 4.1-7.3 7.2.8.1 5.3 1 12.1 2.4 8.2 1.7 20 4.1 33 6.8-2 0-3.6.2-4.5 1.3-23.8-1.3-37.3-11.2-71.1-15.9 2 .9 5.9 2.5 3.9 3.4-11.9-1.7-21.8-6.5-23.7-9-2.1 1.2-9.6 1.1-18 .2-8.4-.9-17.9-2.6-23.9-4.5-5-2.4-7-3.8-10.3-5-3.3-1.3-7.8-2.4-17.9-4l8.1 3.9c-12.1-1.2-16.6-2.9-20.7-4.4-3.8-1.4-7.2-2.8-15.9-3.6 6.2.7 5.8 2.8.3 2.3-1.5-.4-3-.7-4.3-1-1.3-.3-2.6-.5-3.8-.8-2.3-.5-4.4-1-6.3-1.5-3.7-1-6.6-1.9-9.2-2.8-5.3-1.8-9.6-3.9-18.1-7.3l2.5 4c-2.6-.6-5.5-1.3-8.6-2-3.1-.7-6.4-1.4-9.7-2.1-3.3-.7-6.7-1.4-10.1-2.1-3.3-.6-6.7-1.2-9.9-1.7-11.3-1.8-20.7-2.5-23.1-1 .7-1.4-1.2-2.6-4.9-3.5-2.2-.5-4.9-1-8.1-1.4-3.2-.4-6.8-.6-10.5-.9-3.7-.3-7.7-.4-11.7-.6l-3-.1c-1 0-2 0-3 0-1.9-.1-3.9-.1-5.8-.1-7.6.0-14.6-.1-19.3-.2 6.5.4 7.6 2.1 8.2 2.9-2.5-.4-4.9-.8-7.4-1.1-2.4-.3-4.9-.6-7.4-.8-5-.4-10-.8-15-1-2.5-.1-5-.2-7.6-.2s-5.1.0-7.7.0c-5.1.0-10.3.3-15.4.5-20.6 1.1-40.9 3.7-61.1 5.8l-5.3 6.1c-5.2.6-9.7.5-13.8-.1-4.1-.5-7.9-1.4-11.7-2.2-3.8-.9-7.7-1.6-12.1-1.9-4.4-.3-9.3-.1-15 1l9 1.1c-5.1.8-9.8 1.5-14.2 2.3s-8.5 1.5-12.3 2.3c-3.8.8-7.4 1.6-10.9 2.3-3.5.7-6.8 1.5-10 2.3-12.9 3.1-24.7 6.4-40.2 11.2l2.3 3.3c-12 1.5-25.8 5.6-37.7 7.6-2.6 2-6.1 3.9-10.3 5.9-4.2 2-9.2 3.9-14.6 5.9-10.9 3.9-23.9 8.2-37.3 12.9s-27.3 10.1-40 16c-12.7 6-24.2 12.5-32.8 19.7l-7.5-4.5c-7.9 3.9-17.2 8.2-24.8 12.6-7.6 4.4-13.7 8.9-15.3 12.9l3.3-2c2.8 1.8-1 3.9-6.6 6.3-5.6 2.5-12.9 5.3-17.1 8.5-7.6 3.6-17.3 5.1-12.1.7-9.3 6.5-19.9 13.6-30.9 20.9-5.4 3.8-11 7.5-16.5 11.3-2.8 1.9-5.5 3.9-8.2 5.7-1.3 1-2.7 1.9-4 2.9-1 .7-2 1.5-3 2.2-1.1.8-2.2 1.7-3.3 2.5-2.2 1.7-4.4 3.4-6.5 4.9l-1.6 1.2-.8.6-.4.3c-.1.1-.1.3-.1.4.0 1.2.0 2.3.0 3.5-.1 2.3-.1 4.5.0 6.8.1 1.1.1 2.3.1 3.4.0.6.0 1.1.0 1.7v1c.2 5.1.5 10 .9 14.5.7 9.1 2 17 4 22.8-2.9 37.7-10 66.2-9.1 106.8l1.1-.5c1.2 13.7 3.6 41.3 11.1 41.2-1.7 29.3-12 48-8.7 82.9l2.9-7.6c1.4 8.9-2.1 23.1-3 26.7.2 3.1 1.6.8 2.7.4 2.6 8.4-1.5 13.3-2.2 20l2.5-2.8c5.2 27.8-5 71.8-3.7 107.6.8-6.6 3.6-3.2 4.8-.5-8.4 14.7-6.4 55-8.3 70l3.3-9.3C-19 765.9-4.8 762-10.3 791l-4.8-16.7C-13.7 786.2-15.3 796.1-19.1 793.8zM985.3 127c1.1-.5 3.7-.8 10.5 1 1.2.7 1.7 1.5 2.2 2.3-.2-.2-.5-.4-.7-.6C992.3 128.6 988.5 127.7 985.3 127zM1918.9 7.3l-.6 4.2-1.4.9C1916 11.6 1917.1 9.5 1918.9 7.3zM1930.6 181.3v-7.2c.3.4.6.9.8 1.7C1931.1 177.7 1930.9 179.6 1930.6 181.3z"/><path class="st0" d="M659.6 936.5c-2.3.1-4.5.2-6.5.5C655.9 936.8 658 936.7 659.6 936.5z"/><path class="st0" d="M518.4 168.3c-1.3-.3-3.1-.6-5.4-1C514.8 167.8 516.6 168.1 518.4 168.3z"/><path class="st0" d="M919 134.9c-1 .3-1.5.5-2.8.8 1.5.1 3 .1 4.4.1.7-.5 1.5-1.1 2.2-1.6C921.5 134.4 920.2 134.6 919 134.9z"/><path class="st0" d="M89.4 825.5l.3-.1C89.6 825.5 89.5 825.5 89.4 825.5z"/><path class="st0" d="M89.4 825.5l-3.5 1.9C95.7 832.2 87.6 826.8 89.4 825.5z"/><path class="st0" d="M256.8 896.7c6.5 1.2 13 2.5 19.5 3.7-4.8-.9-9.5-1.9-14.3-2.9L256.8 896.7z"/><path class="st0" d="M1318.1 854.6l-3.7-3.9C1306.6 851.6 1305.3 856.3 1318.1 854.6z"/><path class="st0" d="M1770.2 950.5c-8.8-4-16.8-9.1-21.8-10.5C1751.6 943.5 1762 949.3 1770.2 950.5z"/><path class="st0" d="M1774.9 149c-2.6-1.1-5.3-2.1-8-3.1s-5.3-2.1-8-3.1c2.3 1.2 4.7 2.3 7 3.5C1768.9 147.3 1771.9 148.1 1774.9 149z"/></g><g><g><path class="st1" d="M1117.3 170.9v0 0 0z"/><path class="st1" d="M1118.3 173.2c-.1.2-.4.7-.4.7v0c.1-.4.2-.8.2-.9.1-.2.2-.7.0-.4.0.1.0.1-.1.0v0c-.2.2-.2.2-.2.3.0.2-.2.2-.3.6.0.1-.1.1-.1-.1.4-1 .1-.4-.1-.3v0 0c0 0 0 0 0 .1v0 0 0 0 0 0c0-.1.1-.2.0-.3-.1.0.0-.4.0-.5.1-.3.2-.8.3-1.1v-.1c-.1-.1.1-.3-.3-.1.0.1-.1.1-.2.1s0-.2.0-.3v0c-.1.1-.1.2-.1.2-.1.1.0-.3.0-.4.0-.1.0-.2-.2-.1-.2.2.1-.3.0-.3v0l-.1.1c-.1.2-.2.1-.2.1.0-.1.0-.1.0-.2.0.0.0.0.0-.1.0.0.2-.1.1-.3.0.0.0-.1-.1-.1.0.0-.1.0-.1.1-.2.3-.2.4-.4.4-.1.1-.3.3-.3.4.0.1-.2.1-.1.0.0.0.1-.3.2-.3.0-.1-.1-.1-.1-.1-.3.1-.2.2-.4.4-.1.1.0.2.0.2.0.1-.1.2-.2.2-.2-.1-.1-.1-.1-.3-.1-.2.2-.1.2-.3.0-.1.0-.1.1-.2.0-.2.2-.2.2-.3s0-.2.0-.3c0 0 0-.2.1-.2.1-.6-.1.0-.3.2-.1.2-.2.3-.3.5-.1.2-.2.4-.3.6-.1.2-.2.2-.2.1.2-.4.3-.5.3-.6.0-.2.2-.7.3-.9l.1-.2c0-.1-.1.1-.1.1-.2.1-.1.3-.2.3s-.1.1-.4.6c-.1.1-.2.0-.1-.1.1-.3.1-.3.1-.4.0-.1.2-.1.1-.3.0.0.0-.1-.1-.1-.2.1-.1.2-.2.2.0.1-.1.0-.1.0.0-.1.1-.1.1-.3s-.3.2-.4.4c-.1.1-.3.4-.3.5h-.1c0-.1.0.0.5-.9.1-.2.0-.2-.1-.1-.1.2-.2.3-.4.5-.1.1-.1.1-.2.2-.1.1-.1.2-.2.2-.4.4-.2.1-.2.0s0-.2.4-.9c-.1.0-.1.0-.1.0-.1.1-.2.2-.3.3.0.1.0.1-.1.3-.2.3-.1.2-.2.2.0.0.0-.1.0-.2-.1.1-.2.3-.3.3-.1.1-.1.1-.2.3-.1.1-.2.1.0-.2.1-.1.6-1 .4-.9-.1.0-1.9 2.9-2 2.9-.2.1.2-.4.3-.6.0.0.0.0-.2.1-.1.2-.1.2-.1.4.0.1.0.2-.1.3s-.2.3-.2.3.1.0.1.1-.1.0-.1.0.0.0-.1.1-.1.1-.1.2c-.2.1-.1.1-.4.5-.1.2-.2.3-.3.4-.2.4-.3.5-.4.9-.2.5-.8 1.3-.9 1.6-.1.2.1.1.0.3s-.2.3-.3.5c0 0 0 .1-.1.1-.3.3-1.1 2.1-1.3 2-.1-.2.0-.3.5-1.2.2-.3.2-.5.4-.6.1-.1.1-.3.2-.4v0c-.1.0-.1.2-.3.3.0.0.0.0.0.1-.1.1-.1.2-.2.3-.2.2-.1.1-.3.4-1 1.7-1 1.6-1.3 2.1-.3.6-.4.7-.5.9-.1.1-.2.4-.5.7-.1.1-.2.3-.3.4.0.0.0.1-.1.1-.4.8-.3.4-1.4 2.3.0.1-.4.7-.5.7-.1-.1.1-.3.1-.3-.1-.1.0-.2.3-.6.1-.2.2-.4.3-.5.3-.4.9-1.5 1.1-1.6.1-.1.1-.1.3-.4.8-1.3 3.6-5.8 3.2-5.4l-.1.1c-.1.3-.3.4-.3.5s-.1.1-.2.2c0 .1-.1.1-.1.2-.1.1-.1.3-.2.2.0-.1.0-.1.2-.4.3-.6.2-.6.5-.8.1-.1.2-.3.3-.4v-.1c.2-.2.3-.5.5-.8.3-.4 2.9-4.6 2.9-4.7.1-.2-1 1.2-1.1 1.6.0.0-.9 1.3-1 1.4-.1.2-.2.3-.4.7-.1.2-.3.5-.4.7.0.0-1.4 2.3-1.7 2.8-.1.1.2.1.1.2-.5.7-.1.2-.1.0s-1 1.5-1.1 1.6c0 0-.1.0.0.0.9-1.6.7-1.1.8-1.4.0-.1-.1.1-.2.1.0-.1.1-.3.0-.3v0c0 .2-.2.4-.3.3-.1-.1.0-.1.1-.3.0.0.0-.1-.1.0.0.0.0.1-.1.1h-.1c0-.1.0-.1.0-.1-.1.0-.3.7-.3.8.0.3-.1.2.0.3.0-.1.1-.2.1-.3.0.0.0-.1.1-.1.2-.1.1-.3.3-.2.1.0.0.2.0.3-.1.0-.1.1-.2.2-.1.1-.1.2-.1.3-.1.1.0.1.0.3.0.1.0.2.1.2-.1.3-.2.5-.4.7-.2.1.1-.5.2-.6.0-.1-.1-.1-.1-.1h-.1c.2.2.0.2-.1.3.0.1-.1-.1-.1-.1.0-.1-.1-.1-.1.0-.2.3-.2.4-.2.4.3.0.3-.1-1 1.9-.3.5-.4.6-.5.6.0.0.0.2-.1.2-.1.1-.1.2-.2.4.0.1-.1.2-.2.3-.2.3-.1.2-.2.3.0.0-.1.1-.2.2.0.1.0.1.0.2.0.0-.2.3-.2.4-.1.1.1.1.1.0s.1-.2.1-.3h.1c0 .1-.1.2-.2.3-.1.2-.3.2-.4.5.0.2-.1.3.0.3.0.1.0.2.0.2-.1.2-.2.3-.3.3.0.0-.1.0-.1.1.0.0-1 1.6-1 1.7-.1.2-.3.4-.3.6.0.1-.3.6-.3.6-.1.1-.1.2-.2.3-.4.2-.3.3-.5.5-.1.1-.3.3-.4.5v.1c0 0-.1.0-.2.0.0.0-.1.0.0.1.0.0.1.1.2.1.0.1-.1.1-.2.2.0.0.0.0.0.1-.2-.1-.3-.1-.4-.2v0 0c0-.1-.1-.2-.1-.1.0.0.0.0-.1.1.0.0.0.0-.1.0.0.0.0.0-.1.0v.1c0 0 0 0 .1.0-.1.1-.1.1.0.2.0.0.0.0-.1.0-.3-.2-.4-.2-.5-.2-.2.0-.2-.1-.2-.1s.1-.2.0-.3c-.3-.1.0.0-.4-.3-.1-.1.1-.2.2-.1.4.2.2.1.5.3.1.0.2.1.2.0s0-.1.0-.2c-.1-.1-.2-.2-.3-.3-.1.0-.1-.1-.2.0s-.1.0-.1.0c-.2-.1-.4-.2-.6-.3-.3-.1-.1-.2-.3-.3-.2-.1-.5-.2-.7-.3.0.1.0.0.0.1s-.2.0-.3.0c-.1-.1-.2-.1-.2-.2.0-.1-.1-.2-.1-.3-.5.0-.5-.1-.4.1l-.1.1c-.1-.1-.2-.1-.3-.2l-.1-.1c0 0 .1.0.1-.1s-.1-.1-.3-.1c-.2-.1-.2.0-.4.1-.1.0.0.1.2.3.0.0.0.1.0.0-.5-.3-.1.0-.6-.5.0.0.0.0-.1.0s0 .1.0.1v.1c-.1.0-.1-.1-.2-.1.0.1.1.1.2.2.1.3-1.2-.5-1.2-.5-.1-.2-.2-.1-.4-.2-.7-.3-.6-.3-.6-.3s0-.2.1-.1c.3.1.3.2.5.2v0c-.1-.1.0.0-.3-.2v-.1c.2.1.2.0.3.0.1.1.2.2.3.2.2.1.2.2.4.3.1.1.3.1.3.2.0.0.0.0.1.0.0-.1.0-.1.1-.1.0.0.0.0-.1.1.2.0.3.0.3.0.1.0.1-.2.0-.2-.4-.2-.4-.1-.4-.2.0-.1-.1-.1-.1-.1s-.2.1-.3.0c-.1-.1-.3-.3-.6-.3h-.1c-.4-.3-.3-.2-1.2-.6-.3-.1-.4-.2-.5-.3-.1.0-.2-.1-.2-.1-.1-.1-.2-.1-.2-.1-.1.0-.1-.1-.2-.1s-.1.0-.2.0c-.2.0-.1.1-.1.2v.1c-.2.1-.1.4-.3.1-.4.0-.4.0.1.3.2.1.3.4.2.4.0.0.0.0-.1.0v0c.1.0.2.1.2.1.2.2-.2.3-.4.1h-.1c-.1.2-.2.2-.4.1-.2-.1-.2-.2-.2-.2.1.0.1.0.2.0s.1-.1.1-.1c-.2.0-.1.1-.3-.2-.2-.2-.2-.1-.4-.2-.2-.1-.1.0-.2.0-.3.0-.2.1-.4.0.0.0.0.0-.1.0h-.1c0 0-.1-.2-.3-.1.0.0-.2.0.1-.2-.1-.1-.1-.1-.2-.2.0-.1-.1-.1-.2-.1-.1-.1-.1-.1-.2-.2-.5-.1.1-.2-.5-.4h-.1c-.1-.1-.2-.1-.3-.2-.1.0-.2.0-.3-.1-.1-.1-.1-.1-.2-.1-.1-.1-.2.0-.3-.2.2-.1.1-.1.2-.2.0-.1.2.0.3.1.2.1.2.1.4.2.1.1.1.1.1.2.0.1.2.0.2.1v0 0 0c.3.3.2.3.7.2-.3-.3-.2-.1-.3-.2-.1-.1.0-.2.0-.1.2.1.1.1.3.2.8.3.5.4.6.6.2.2.2.2.3.2.1.0.2.0.2.0.2-.2-.1-.2-.2-.3-.1.0.0-.1.0-.1s.1.0.1-.1c-.1-.2.1-.1.1-.1.1-.1.2-.1.3-.1.1-.1-.2-.4-.2-.4-.1.0-.2.0-.5-.2-.1-.1.0-.1.0-.2v0h-.1c-.1.1.1.1-.3.1-.2.0-.1-.1-.3-.1-.3.0-.4-.1-.9-.4-.1-.1-.2-.2-.2-.2-.1-.1-.1-.1-.3.0-.6-.3-1.5-.6-1.6-.6.0.1.1.1.2.1.2.1.3.2.5.2l.3.1c0 .1-.3-.1-.5-.1s-.3-.1-.5-.1-.3-.2-.8-.3c-.1.0-1-.4-1.2-.4-.3-.1-.3-.1-.5-.1s-.4-.1-.5-.2c-.1.0-.3.0-.4-.1-.2-.1-.3.0-.5-.1s-.1-.1-.2-.1v0c.2.2.5.2.9.3.1.0.1.1.0.1h-.1c0 .2-.1.1-.2.2-.1.1.0.1-.1.1s0-.1.0-.1-.2.0-.3.0c-.2-.1-.2.1-.4.0-.1.0-.5-.1-.6-.1-.4.0-.9-.2-.5.0.1.0.0.1-.1.1s-.1-.1-.3.0v.1c.2.1.2.0.2.1l-.1.1c-.3.0-.5-.1-.6-.1.0.0-.1.1-.2.1-.1-.1.0-.1-.2-.1v.1c.1.0.1.1.2.1-.2.1-.2.0-.5.0-.1.0.0.2.2.2.1.0.3.1.0.1.4.2.9.3.9.4h-.1c-.1.0-.6-.1-.6.0.0.0.0.0.4.2.1.0.0.2-.2.1.0.0-.9-.2-1-.3-.1.0-.1.1-.1.1.0.1-.2-.1-.4-.1.0.0-.1.0.0.1s.2.2.4.2c.1.0.1.2-.2.0-.3-.1-.3.0-.5-.1-.1.0-.4-.2-.4-.1.1.0.2.1.3.1.2.1.2.2.4.3v.1c-.2.1-.1.0-.4-.1-.2.0-.2-.1-.3-.2h-.1c0 .2.2.1.3.3h.1c.1.1.2.1.3.2-.1.0-.1.0-.7-.2-.1.0-.1.0-.1.1s.1.1-.1.2c0 0 0 0 .1.0h.2l.1-.1c0 0 0 0 0 .1.2.1.2.0.3.1.2.1.3.2.5.2.1.0.1.2.2.3.0.0.0.1-.1.1-.1.1-.2.1-.2.2.0.0.0.0-.1.0-.5.0-.5-.3-1.4-.5-.1.0-.1-.1-.2-.1-.2-.1-.1.1.6.3.4.1.5.2.6.3.0.1.1.1.2.1v0 0c.1.1.1.1.2.1.3-.1 1.2.6-.1.1-.1.0-.1-.1-.1-.1v0 0c0 0 0 .1-.1.1s-.3.0-.4-.1h-.1c-.2.2-.2.1-.4.1-.1.1-.3-.1-.4-.1.0.1.1.2.2.2.2.1.3.2.4.3h.1c.2.0.4.2.0.2v0c0 .1.1.0.2.2h.1.1c.1.1.3.1.3.2.1.1.0.2-.1.1-.2-.1-.2.1-.3.1-.4-.1-.4-.1-.4-.1s0 .1.1.1c0 0 0 .1.0.0-.2.0-.3-.2-.5-.1-.1.0-.2-.1-.5-.1-.1.1-.1.1-.2.1-.1-.1-.1.0-.2.0-.1.1.6.3.7.5v0c-.1.0-.2-.1-.3-.1-.1.0-.2.0-.4-.1-.1-.1-.1.0-.3.0-.2-.1-.2-.1-.4-.1.0.0-.1.0.0.1.0.0.7.4.8.5.4.2.5.4.8.5.1.0.3.2.3.2s0 0-.2.0c-.2.1-.7-.3-.6-.2.5.4.5.3.2.4-.4-.1-.3-.2-.6-.3.2.3 1.2.7 1.3.9.0.1.1.1.2.1.2.2.4.3.7.4.1.2.1.1.3.2v.1c-.1.0.0.0-.5-.2-.1.0-.1.0.0.1.2.2.2.1.4.2.3.2.1.1.5.2-.1-.1.1-.1.1.0v.1c-.3-.1.4.3 1 .7 1.2.8.5.2 1 .5 1.6.8 1.4.8 1.5.8l-.1-.1c-.1.0-.2-.1-.2-.2h.2c0-.1-.1-.1-.1-.2.0.0.0.0.1.0s.2.2.4.2c0 0 1.8 1 2.1 1.2.2.1 1.1.6.9.3v0c-.2-.1-.4-.2-.5-.3.0.0-.2-.1-.3-.1-3.6-1.9-2.9-1.5-3.4-1.9.3.1.1.0.5.1v0c-.2-.2-.3-.2-.2-.2.1-.1.1.0.2.0.2-.1.4.3.5-.1.0-.1.3.0.4.1.2.1.2.0.4.1.2.1.4.3.7.3.1.0.2.1.3.1.2.1.1.2.2.3.6.4.6.0.4.0.0.0.0.0-.1.0-.2.0-.3-.4-.1-.2.3.2 1.2.5 1.4.7l.1.1c.2.1.2.2.4.2.1.1.3.1.4.2.0.0.0.0.1.0.2.1.2.3.4.2.1.0.1.1.3.1.1.1.6.3.7.3.8.4.8.4.8.5h.1c.6.2.3.4.2.3-.1-.1-.4-.1-.3.0l.1.1c.2.0.3.1.4.0h.1c.2.1.2.0.3.1.2.2.2.1.3.2.2.2.6.0.7.4.0.1.1.1.2.2.1.0.2.0.3.0.2.2.2.2.3.2h.1c.1.2-.2.3-.4.2v0 0c.1.1.2.0.3.1.1.1.2.2.3.2.1.1-.1.1.4.2v0c-.4-.2-.5-.6.1-.2.1.1.4.1.4.0.0.0-.1-.2.0-.1.1.0.2.0.2.1.1.1.2.2.2.3s.1.1.2.1h.1c.1-.1.3.1.2.1-.1.1-.1.0.0.2.1.1.2.1.3.1.2-.1.3.1.1.2-.2.1-.2-.1-.3.0-.1.3-.4-.1-.7-.4-.1-.1.0-.2.0-.2-.1-.1-.2-.1-.3-.2h-.1c-.1.2-.2.1-.3.1-.1.0.0.1.0.1.3.0.5.3.7.4.2.1.0.2.2.3.1.1.1.1.1.1.1.2-.2-.1-.4.0.1.1.1.0.7.4v0c-.2.0-.3.0-.4-.1-.2-.1-1.8-.8-2-1-.1-.1-.2-.1-.4-.2-.4-.2.0-.1-.5-.3-.1-.1-.3-.1-.4-.2-.1-.1-.3-.1-.4-.2h-.1c0 0 .2.3.5.3.1.0.3.1.4.2.1.1.1.1.2.2.3.1.8.4 1 .4.2.1.3.2.6.4.3.2.3.2.5.2s.3.2.4.2.2.1.3.1c.1.0.2.1.2.2.2.3.1.2.1.3-1.3-.4 1.7 1 1.8 1 .2.0.3.1.6.2h-.1c0-.1-.1.0-.1.0l-.4.6c-.1.3-.2.3-.3.4-.1.2-.2.4-.3.5.0.1-.1.1-.1.2-.2.3.2-.4-.8 1.2-.2.4-.3.4-.4.5.0.0-.5.9-.9 1.4-.2.3-.1.3-.3.6-.1.1-.1.2-.2.3-.1.2-.2.3-.6 1-.1.2.0.3-.1.4-.1.1-.2.3-.3.4.0.0-.1.0-.6 1.1-.1.2.1.2-.3.8-.1.2-.2-.1-.2.2.0.1.0.3.0.4.0.0.0.0.0.1.0.2.1.1-.1.3.0.1.0.3.0.3.1.0.1.0.1.2.0.0-.1.2-.1.3-.1.2.0.2.1.3s-.1.2.0.3.0.4.1.4.1-.2.1-.3c.1-.1.1.0.2.0.0-.2.1-.3.1-.5.0-.1.0-.1.1-.1.2-.2.1-.3.2-.6.1-.2.2-.2.3-.2.3-.5.2-.3.4-.3.2-.3.2-.4.2-.4h.1c-.1.3-.3.5-.2.7.1.1-.1.2.0.3.1.0.4-.2.2.2-.1.1-.1.1-.2.1s0-.1-.1-.2l-.1.1c-.1.2-.2.2-.3.4.0.1-.2.2-.1.4.0.0.0.2.1.1.3-.1.3-.5.5-.6.0.0.0.0.0.1s-.1.3.0.4c.2-.1.2-.2.2-.3s.1-.1.1.0.0.1.1.1c0 0 .1.0.0.1.0.0.0.1-.1.1.0.1.1.1.0.2.0.0.0.1.1.0.2-.1.1.0.2.0v.1c-.1.1-.2.2-.2.2s0 .1.0.2c.1.0.2.1.1.3s-.2.1-.3.2c-.2.1-.2.1-.4.0-.1-.1-.1-.2.1-.5.0-.1-.1-.1-.1-.1-.1.1-.2.2-.3.3-.1.2-.2.3-.2.5.0.1-.3.2-.2.3l.1.1c0 .1.1.3.3.2.1.0.1.0.1.1.2-.2.1-.1.2-.2h.1c-.1.1.0.2.1.3s.1.1.3.3c.1.1.2.0.4.0.1.0.2.0.3-.1h.1c0 .3-.2.3.1.4.1.1.3.1.4.0.1-.3.1-.2.3-.3h.1c.1.0.0.1.1.1.0.0.1.0.1.1s0 .3.1.2.0.0.2.0c.2.1.1.5.4.3.1-.1.1.1.1.2.1.0.1-.1.2.0s.1.1.0.2c-.1.1-.1.3.1.3s.2.1.3.1c.1.1.2-.2.3-.1-.1.4-.2.4.2.5.1.0.2-.1.2-.1.0-.1.0-.1.0-.2.0-.1.0-.3.1-.3v0c0 .1.1.1.1.2.1.1.1.1.1.2v.1c.2.0.1.2.3.1.0-.1.1-.2.1-.2.0-.1.1-.2.1-.3.0-.2.2-.1.2-.2.1-.1.2.0.1.1s-.2.1-.1.2c0 .1.1.0.2-.1.1.0.1-.1.1-.1.0-.1.1-.1.1-.1s0 0 0 .1.1.0.1.0c0-.2.0-.3.1-.3s.1.1.2.1.1-.1.1-.1h-.1c0-.1.0-.1.1-.2.1-.2.2-.2.3-.3.1-.1.4-.3.3-.1.0.0.0.0.0.1v.1c.2.0.2-.1.3-.1.2-.3-.1-.2-.2-.2s.1-.1.1-.2c0-.1.0-.2.3-.5.1.0.3.0.3-.1-.1-.1.2-.4.4-.8.1-.2.2-.2.4-.4.0.0.1-.1.1-.2.1-.2.2-.3.3-.4.3-.4.6-.5.6-.3-.1.2-.1.3-.3.5-.2.1.2.1.0.2-.1.1-.2.2-.2.3l-.1.1c-.1.1-.1.2-.3.4-.4.1.0.1-.3.4-.2.2-.1.2-.2.3s0 .3.1.3c.2.1-.1.6-.2.1-.1.0-.2.1-.2.2-.2.3.0.3-.1.5.0.1-.1.0-.1.3.2.0.1.2.0.1l-.1-.1v.1c0 .1.0.1.1.1.2.0.2.1.2.0.1-.1.2-.2.3-.1v.1c-.1.1.1.1.2.1.0-.1.0-.2.0-.2v-.1c.2-.1.2.0.3-.2v-.1c0 0 0 0-.1.0.0.0.0-.1.1-.1.0.0.1.1.1.0.3-.8-.1-.2-.2-.3.0-.1.0-.2.2-.3s.2-.1.3-.2c.1-.1.2.1.2.0s.2-.2.2-.3.1-.2.2-.2v0c.1.1.1.0.3-.1.2-.1.1-.2.3-.4.1-.1-.1-.3.1-.3.1.0.2-.2.2-.2.2-.3.1-.2.2-.4.1-.1.1.0.2-.1.2-.3.3-.2.4-.3.2-.3.2-.3.1-.3s-.1.1-.2.1c-.1.1-.1-.2.0-.3.5-.5.4-.5.6-.8.1-.1.2-.2.2-.3s-.1.0.0-.2c0 0 .1.0.0.0v0c.2-.4.1-.3.1-.4.0-.1.1-.3.2-.3s.2-.1.2.0c0 0 0 0 0-.1s0-.2.1-.2c.2-.1.0.0.4-.4.1-.1-.1-.1.0-.3.1-.1.1-.3.2-.4.1-.1.1-.1.2-.2.1-.1.1-.2.2-.3s.1-.2.2-.3c0 0 .2-.3.3-.5.1-.3.3-.6.5-.8.1-.1.3.0.2-.3.2-.3.3-.6.4-.7.1.0.1.0.2.1.2.1.3.3.2.3h-.1v0c.1.1.3.1.2.2.0.0-.2.1.0.2l.3.1c.1.0.3.0.3.0.0-.1-.1-.1-.2-.2v-.1c.1.0.2.0.3.1h.1c.1.0.1.0.4.1.6.2.4.2.6.3h.1c.3.1 1.2.6 1.9.9.2.1.1.2.2.3s.2.1.1.2c-.1.1.0.1.2.2.0.0.1.1.0.1-.1.1-.1-.1.0.1.1.1.1.1.0.2v0 0 0 0 0c.2.2.2-.1.3.0.1.1.1.1.2.2.1.0.1.1.2.1s.2.1.3.1c.1.0.0.1.3.2.5.2.5.4.7.4.1.0.3.1.4.1.2.1.2-.1.4.1.1.1-.1.1.0.1.3.2.4.2.5.2s.1-.2.2-.1c.7.2.7.3.9.4.1.1.1-.1.3.1.1.1.2.2.3.1.0-.1.0-.1.2.0v.1c-.2.0-.1.0-.3.0.2.1.2.1.1.1h-.1c-.5-.1-.2.0.0.1.7.2.6.2.8.3.2-.2.2.1.5.0.2.0.3.0.3.1l.2-.1v-.1c-.2.0-.3-.3-.1-.3.0.0.0.0.1.0.0.0.0.0.0-.1-.5-.2-.2.1-.7-.2v-.1c.1.0.3.1.4.0.0.0.0.0.1.0.3.1.2.0 1 .2.2.2.0.1.0.3.0.0.2.0.5.1.0.0.1.0.1-.1s-.2-.1-.3-.2c.3-.2.2-.2.5.0.1.1.1.0.4.1.0-.1-.1-.1.0-.2.0-.1-.3-.1-.4-.2-.4-.1-.2.0-.5-.1-.1-.1-.1-.1-.4-.2-.1.0-.1-.1-.2-.2-.1-.1.0-.1.1-.1s.1.0.0-.2c.5.2.0.0.7.4h.1c0-.2-.1-.2-.2-.3.0.0-.1-.1.0-.1s.2.1.2.0c-.1-.1.1-.1.1-.1.1.0.2.1.4.1.1.0.0.2.1.3.1.0.1.0.2.0.1.1.3-.1.3-.1s.1.0.3.0c.4.3.4.2.8-.1v-.1c-.1-.1.0-.1.1-.2.2-.2.2-.1.3-.3.0-.1.1-.1.0-.2.0.0.0-.1-.1-.1.0.0.0-.1.1-.1s.3.1.3.0v-.1c0-.1.0-.1.0-.1.1-.1.1-.2.1-.4.0-.1.2.0.3.0.1.0.1-.1.2-.3.0-.1-.1-.1-.2-.2.0-.1.1-.1.2-.2.1-.1-.1-.1-.1-.2.0.0.0.0.1.0.2.0.2.1.3.0.1.0.1-.2.0-.3.0.0-.2-.2-.1-.2s.2.1.2.0.1-.1.2-.2c.1-.1-.1-.1.0-.3.0-.1.2.0.2.1.1.1.2.1.3.0.1-.1.2-.2.2-.3.0-.2.2-.2.1-.4.0-.1.0-.1.1-.1s.1.1.2.1c.2.1.2-.3-.1-.3-.3.0-.2.0-.4.1-.1.1.0.2.0.3-.2.4-.6.3-.6.2s-.1-.2-.1-.3c0 0 0-.1.1.0.2.1.3.4.4.2.0.0-.1-.1.0-.3.1-.1-.2-.3-.1-.3s.1.0.2.0v0c-.1-.1-.3-.1-.4-.1.0.0-.1-.1.0-.1.1-.1.2-.1.3-.2.0.0.1-.1.1.0.1.1.1.2.2.3v.1c0 .1.0.1.2.1.1-.1.2-.1.2-.2.0-.1.1-.1.1-.2v0c0-.1.0-.1.0-.1.2-.1.3-.2.1-.3-.3-.1-.1-.1-.1-.3h-.1v0c-.1.1-.1.0-.2-.1.0.0.0-.1-.1-.1-.1-.1-.1-.2-.2-.2.1-.1.0-.1-.2-.4h-.1c-.1-.1-.2-.2-.2-.2-.2-.4-.4-.4-.5-.8l.1-.1c-.1-.3-.3-.4-.4-.5s0-.4.0-.3c.1.1.4.2.3.3s0 .1.2.4c0 0 .1.0.2.1s.1.2.2.3.2.1.3.2c.3.4.1.2.6.7.3.3.3.5.6.5.4.0-.7-1-.5-1.3v0-.1c.1-.5.4-.3.2-.6-.2-.4-2.8-1.7-2.8-1.7-.1-.1-.5-.2-.4-.3l.1-.1c-.2-.2-.5-.1-.8-.3-.3-.1-4.7-2.3-7.8-3.8.4-.7 1-1.4 1-1.5s.2-.2.3-.4c.1-.3.3-.3.4-.6.1-.4 1.5-2.4 1.5-2.5.1-.2.1-.2.4-.7 1-1.8.4-.6 1-1.7.0.0.0-.1.1-.1.2-.2.3-.4.4-.5.2-.3.1-.1.2-.4.0.0 1.6-2.7 3.6-6.5.0-.1-.1-.1-.1-.1s0 0 0 .1c-.3.5-.1.2-.7 1.3-.2.4-.2.3-.3.5.0.1-.2.1-.1.0.0-.1.0-.1-.1-.1.0.0-.2.2-.2.0.0-.1.0-.4.1-.4h.1l.1-.1c0-.1-.2.1-.1-.1.1-.1.2.0.1-.1V181c0-.1.0-.2.1-.2.1-.2.2-.5.3-.7.2-.2.2-.4.3-.6.3-.4.2-.3.3-.6.0-.1.0-.2.0-.2-.2.0-.2.1-.1-.2v-.1c-.2.1-.2.1-.3.3-.5.8-.3.1.0-.3.1-.2.2-.4.3-.6.3-.5.5-.9.7-1.4.0.0.0-.1-.1-.1v-.1c.1-.1.2.0.2-.2.0-.1.0-.2.1-.3s0-.1.1-.4c.1-.4.2-.6.3-.7.1-.1-.1-.1.0-.3C1118.1 174.1 1118.2 173.8 1118.3 173.2c.1-.1.0-.1.0-.1C1118.3 173.1 1118.3 173.2 1118.3 173.2zM1116.9 172v0C1117 172 1117 172 1116.9 172zM1116.8 171.6c0 0 .10000000000013642.0.0.0C1116.8 171.8 1116.8 171.7 1116.8 171.6zM1115.2 170.1v0C1115.2 170 1115.2 170 1115.2 170.1zM1115 170.3v0C1114.9 170.3 1115 170.2 1115 170.3zM1105.7 178.2c0 0 0 .1-.1.1S1105.6 178.1 1105.7 178.2zM1102.7 182.3C1102.7 182.4 1102.7 182.4 1102.7 182.3v0zM1102.5 182.7c.1.0.0.1.0.1C1102.4 182.7 1102.4 182.7 1102.5 182.7zM1102.2 183c.2-.2.2.0.0.1C1102.1 183.2 1102.1 183.1 1102.2 183zM1085.5 185.3c.1.0.1.0.1.1C1085.6 185.4 1085.5 185.3 1085.5 185.3zm-.5-1C1085 184.4 1085 184.4 1085 184.3 1085 184.4 1084.9 184.2 1085 184.3zM1084.8 184.2v0 0c0 0-.09999999999990905.0.0.0-.09999999999990905.0.0.0.0.0zM1083.8 183.8c0 0 0 0 .4.2.1.0.0.1.2.2l.1.1c-.1.1.2.2.3.3v0c-.1.0-.1.0-.3-.1v0c-.4-.3-.3-.2-.2-.3v0c-.3-.2-.3-.2-.3-.2C1083.9 183.9 1083.8 183.8 1083.8 183.8zM1082.9 183.4v0 0zM1072.6 189c0 .09999999999999432.0.0.0.0S1072.7 189 1072.6 189zM1072.6 188.7c0 0 0 .10000000000002274.0.0C1072.5 188.8 1072.5 188.7 1072.6 188.7zM1072.2 187.6v0C1072.2 187.7 1072.2 187.7 1072.2 187.6zM1074 183.5c.1.0.2.1.1.1S1073.9 183.5 1074 183.5zM1075.6 189.7v0C1075.8 189.7 1075.7 189.7 1075.6 189.7zM1076.1 190.9c-.09999999999990905.0.0.0.0.0.2.0.4.1.3.1C1076.4 191.1 1076.2 191 1076.1 190.9zM1076.2 190.1C1075.6 189.8 1075.9 189.7 1076.2 190.1 1076.3 190 1076.3 190.1 1076.2 190.1zM1077.2 190.8v0c.1.0.1.0.2.1C1077.5 190.9 1077.3 190.9 1077.2 190.8zM1077.7 190.9c.1-.1.2.0.3.1C1077.9 191.1 1077.6 190.9 1077.7 190.9zM1081.5 184.4c.1.0.1.0.2.0s.1.2.0.2-.2-.1-.2.0.0.1-.2.0v0c0-.1-.1-.2-.2-.2C1080.6 184.1 1081.3 184.2 1081.5 184.4zM1081.2 183.9c0 0 .1.0.1.1C1081.3 184 1081.3 184 1081.2 183.9v0zM1081.6 184.1c-.09999999999990905.0.0.0.0.0C1081.7 184.2 1081.6 184.2 1081.6 184.1zM1083.6 192.4c.4.2.4.2.3.2C1083.9 192.6 1083.6 192.5 1083.6 192.4 1083.4 192.5 1083.5 192.3 1083.6 192.4zM1082.9 192.1c0 0 0 .1-.1.1-.1.1-.4-.2-.3-.2C1082.7 191.9 1082.9 192 1082.9 192.1zM1082.2 191.2c.1.1.1.2-.1.1C1082.1 191.2 1082.1 191.1 1082.2 191.2zM1082.3 191.8c.1.1.1.2.1.2-.2.0-.4-.1-.5-.2-.1-.1-.2.0-.3-.2.0-.1.1-.1.2-.1.0.0.1.0.0.1C1081.6 191.6 1082 191.5 1082.3 191.8zM1078.8 182.5v0C1078.8 182.4 1078.8 182.4 1078.8 182.5zM1081.1 190.6c0 0 .2.0.3.0.3.1.7.3.6.4C1081.8 191.1 1081.8 191.1 1081.1 190.6c0 .09999999999999432.0.0.0.0zM1081 191.1C1081.1 191.1 1081.1 191.1 1081 191.1 1081.4 191.4 1081.1 191.2 1081 191.1c-.09999999999990905.0.0.0.0.0zM1080.5 190.9c0 0 .09999999999990905.0.0.0C1080.6 190.9 1080.6 190.9 1080.5 190.9v0zm-4-7.5C1076.5 183.5 1076.4 183.5 1076.5 183.4 1076.3 183.4 1076.4 183.4 1076.5 183.4zM1079.3 191.5c0 0-.09999999999990905.0.0.0.0.0.10000000000013642.0.0.0zM1085.5 193.5c-.5-.2-.5-.2-.6-.3-.3-.2-.3-.2-.3-.2s0 .1.1.2c.2.1.2.2.3.4.4.3.1.2.4.4.6.4.2.2.2.2-.2-.1-.6-.3-.7-.3-.3-.1-.4-.2-.7-.3-.2-.1-.2-.2-.3-.2-.3-.1-.7-.3-.8-.4-.2-.1-.2.0-.4-.1-.2-.1-.3-.2-.3-.2.0-.1-.1-.1-.3-.3-.1-.1-.1.0-.2.0-.3-.1-.8-.4-1-.5-.4-.2-.2-.4-.6-.4-.3.0-.3-.1-.6-.2-.3-.1-.7-.4-.4-.4.2.0.2.1.2-.1.0-.1-.1.0-.3-.1l-.2-.1c-.1.0-.2-.1-.3-.1-.2-.1-.6-.2-.6-.3s.1.0.4.1c.4.2.4.3.6.2s.5.4.9.3c.1.0.2.1.3.2.1.1.1.1.2.2l.1.1c.1.2.4.2.6.4.1.1.2.0.3-.1.2.0.3.1.5.2.3.2.5.2.4.3s.1.2.3.3c.4.2.3-.1.7.1.5.3.5.3.6.4.1.1.2.1.2.2.0.1.1.1.2.1s.1.0.1-.2c0-.1-.1-.1-.1-.1s0-.1-.1-.1v-.1c.2.0.2.2.3.1.3.1.2.1.3.2C1085 193 1085.5 193.4 1085.5 193.5v0zM1085.1 193.4C1085 193.4 1085 193.4 1085.1 193.4 1085 193.3 1085.1 193.4 1085.1 193.4zM1082.7 185.2C1082.8 185.2 1082.7 185.3 1082.7 185.2c-.4-.1-.4-.1-.4-.2.0-.1.1-.1.1-.1L1082.7 185.2zM1082.5 184.5v0C1082.6 184.6 1082.4 184.5 1082.5 184.5zM1082.3 184.8C1082.3 184.8 1082.2 184.7 1082.3 184.8 1082.3 184.7 1082.4 184.7 1082.3 184.8zM1082.1 184.4c-.4-.2-.3-.3-.2-.3.1.0.2.1.3.1C1082.2 184.3 1082.2 184.4 1082.1 184.4zM1082.2 184.9v0C1082.1 184.9 1082.1 184.8 1082.2 184.9 1082.2 184.8 1082.2 184.8 1082.2 184.9zM1081.9 184.5c.1.0.2.1.2.1C1082 184.7 1081.8 184.5 1081.9 184.5zM1082.6 184.1c-.1.1-.1.1-.8-.2-.6-.3-.3-.1-.7-.3.0.0-.1-.1.0-.1s.2.1.3.1c.2.1.2.0.5.2h.1v0 0 0c0-.1-.1-.1-.2-.1-.3-.1-.2-.2-.1-.1.2.1.5.3.5.3-.1.1.0.0-.3.0v0c.1.0.2.1.4.2C1082.4 184 1082.6 184.1 1082.6 184.1zM1085.9 194.3v0 0zM1089.7 197.8c0 0 0 0 0 0C1089.5 197.7 1089.7 197.7 1089.7 197.8zM1089.7 198.6c-.1.0-.1-.1-.2-.1s-.1-.1-.2-.1l-.1-.1c0 0 .1-.1.3.0.1.1.3.1.4.2C1090 198.7 1090.1 198.7 1089.7 198.6zM1089.7 197.7C1089.7 197.6 1089.7 197.6 1089.7 197.7 1089.7 197.6 1089.7 197.6 1089.7 197.7 1089.8 197.6 1089.8 197.6 1089.7 197.7zM1087.6 210.7C1087.5 210.8 1087.5 210.7 1087.6 210.7c-.2.0-.2.0-.2-.1.1-.2-.1.0.0-.3.0-.1.2-.1.2.0C1087.4 210.8 1087.8 210.3 1087.6 210.7zM1091.6 214.8C1091.5 214.9 1091.4 214.8 1091.6 214.8 1091.5 214.7 1091.6 214.7 1091.6 214.8zM1092 213.7c0 0 .09999999999990905.0.0.0C1092 213.8 1092 213.8 1092 213.7zM1092.1 213.2v-.1C1092.2 213.1 1092.2 213.2 1092.1 213.2zM1095.7 212.9c0-.2.3-.3.3-.2C1095.9 212.9 1095.7 213 1095.7 212.9zM1096.1 212.6c0 0 0-.09999999999999432.0.0C1096.2 212.5 1096.2 212.6 1096.1 212.6c.10000000000013642.0.0.0.0.0zM1119.2 202.9c.1.0.1.0.2.2.0.1-.1.1-.1.0C1119.3 203.1 1119.2 203.1 1119.2 202.9c0 .09999999999999432.0.0.0.0zM1104.4 182.2v0C1104.4 182.1 1104.5 182.1 1104.4 182.2zM1104.4 182.5c0 .1-.1.2-.1.1C1104.2 182.6 1104.3 182.4 1104.4 182.5zM1107.7 194.7c0 0-.1.0-.2.0s0-.1.0-.2C1107.5 194.5 1107.6 194.5 1107.7 194.7c.09999999999990905.0.0.0.0.0zM1102.9 185.8C1102.9 185.7 1102.9 185.7 1102.9 185.8v0zM1103.3 186.5c.1.0.0.2-.1.2C1103.1 186.6 1103.2 186.4 1103.3 186.5zM1103.8 184.3v0 0c0 0-.09999999999990905.0.0.0zM1103.6 184.2C1103.7 183.7 1103.9 184 1103.6 184.2 1103.6 184.3 1103.5 184.3 1103.6 184.2zM1103.2 184.7c.2-.2.0-.3.2-.3.0.0.1.1.0.1C1103.3 184.7 1103.3 184.7 1103.2 184.7v0 0zM1102.9 184.6c-.1.3-.1.3-.2.3C1102.6 184.9 1102.8 184.5 1102.9 184.6zM1102.5 185.2c0 .1.0.1-.1.2v0C1102.4 185.2 1102.5 185.1 1102.5 185.2zM1102.3 185.8v0c.1-.1.1-.3.2-.3s.1.0.1.1c.1-.1.1-.3.3-.2.0.0.1.0.0.1s-.1.0-.3.2c0 .1-.2.1-.2.2.0.2.1.1-.2.3-.1.1-.2.1-.2.0C1102.3 186 1102.3 185.9 1102.3 185.8zM1101.8 183.7v0 0C1101.8 183.5 1102.1 183.4 1101.8 183.7zM1101.9 183.8C1102 183.8 1102 183.8 1101.9 183.8c0 .2-.2.7-.3.7C1101.4 184.4 1101.8 184.1 1101.9 183.8zM1101.8 184.9c.1.0.0.2-.1.2C1101.7 185 1101.7 184.9 1101.8 184.9zM1097.2 190.5c.1.1.2.1.4.2.0.0.0.1-.1.1s-.3-.1-.4-.2C1097.2 190.6 1097.2 190.6 1097.2 190.5zM1091.6 198.8c0 0-.1.0-.1-.1C1091.4 198.7 1091.6 198.6 1091.6 198.8 1091.6 198.7 1091.6 198.7 1091.6 198.8v0zM1090.4 196c.1.0.5.2.5.3s-.2.0-.2.0c-.1-.1-.1.1-.1.1-.2-.1.1-.1-.3-.3-.3-.1-.5-.3-.2-.3.1.0.0-.2.1-.2s.2.0.3.2c0 .1-.1.0-.2.0C1090.3 196 1090.3 196 1090.4 196zM1090.8 196.8c0 0-.1.1-.2-.1C1090.6 196.7 1090.7 196.7 1090.8 196.8zm-3-10c0 0-.1.0-.1-.1-.1-.1.0-.1.1-.1.2.1.2.1.4.1s.3.2.3.2c-.1.1-.2-.1-.3.0-.1.1-.2.0-.2-.1C1087.9 186.9 1087.9 186.9 1087.8 186.8zM1088.3 187.2C1088.2 187.3 1088.2 187.1 1088.3 187.2 1088.3 187.1 1088.4 187.2 1088.3 187.2zM1093.6 188.4C1093.6 188.5 1093.6 188.5 1093.6 188.4v0c0 0 0 .09999999999999432.0.0C1093.6 188.5 1093.6 188.5 1093.6 188.4 1093.6 188.5 1093.6 188.5 1093.6 188.4v0zM1093.7 188.9c.1-.2.3-.1.3.0v-.1c0 0 0-.1.1.0.1.0.1.1.2.1s.1.0.2.1.1.0.3.1c.2.1.3.1.3.2v.1c.1.0.2.1.1.1-.2.1.2.1.1.3v.1c0 0 0 0-.1.0s-.1-.1-.2-.1-.1-.1-.2-.1c-.2.0-.2-.2-.3-.3-.1-.1-.2.1-.3.0-.1-.1-.3-.1-.4-.2-.1.0-.1-.1-.2-.1C1093.7 189 1093.7 188.9 1093.7 188.9zM1093.1 188.2c.1.0.2.1.2.1l.1.1C1093.3 188.4 1093.1 188.3 1093.1 188.2 1093 188.2 1093 188.1 1093.1 188.2zM1093 188.6c.1.0.3.1.3.2C1093.3 188.9 1093.1 188.8 1093 188.6v0zM1092.8 188.1c0 0-.09999999999990905.0.0.0C1092.7 188 1092.8 188 1092.8 188.1zM1092.7 188.3c.1.1.1.3-.1.2C1092.2 188.3 1092.4 188.1 1092.7 188.3zM1092.3 188.2c0 0 0 .10000000000002274.0.0-.2.1-.3.0-.2-.1C1092.1 188.1 1092.2 188.1 1092.3 188.2zM1091.7 188.4v0C1091.7 188.5 1091.5 188.4 1091.7 188.4zM1091.6 188.5c0 .1-.1.0-.2.0C1091.3 188.4 1091.5 188.4 1091.6 188.5zM1090.6 189.4C1090.6 189.4 1090.7 189.5 1090.6 189.4c0 .09999999999999432.0.0.0.0zM1088.2 185.9c0 0 0 .09999999999999432.0.0C1088.1 186 1088.1 185.9 1088.2 185.9zM1087.4 185.7c.2.1.4.1 1 .4.1.1.2.0.3.0.1.0.1.0.5.4.1.1.0.2-.1.2-.4-.2-.5-.2-.4-.3.0-.1.0-.1-.1-.1-.3.0-.1.0-.5-.1l-.3-.2C1087.6 185.9 1087.4 185.9 1087.4 185.7 1087.3 185.8 1087.4 185.7 1087.4 185.7zM1087.3 187.5v0c.3.1.4.1.5.2.1.1.2.2.3.3.0.1.4.2.3.3-.2.2-.5-.2-.9-.2-.1.0-.2-.1-.2-.1v-.1h.1v-.1c-.1.0-.3.0-.3-.1C1087 187.5 1087 187.5 1087.3 187.5zm2.5 8v0c-.2-.1-.1-.1-.1-.1C1089.7 195.4 1089.8 195.5 1089.8 195.5zM1086.7 187.1C1086.7 187.1 1086.8 187.2 1086.7 187.1 1086.7 187.4 1086.5 187.2 1086.7 187.1zM1086.1 186.9v0C1086 186.9 1086 186.9 1086.1 186.9zM1085.2 186.2c.1.0.2.0.4.2.1.1.0.1.0.1C1085.1 186.5 1085.1 186.4 1085.2 186.2zM1085.3 186.6c.1.0.0.0.2.0s.3.2.2.2C1085.5 186.7 1085.3 186.6 1085.3 186.6zM1085.5 186.9c0 0-.09999999999990905.0.0.0.0-.09999999999999432.0.0.0.0zM1085.1 186.5v0C1085 186.5 1085 186.5 1085.1 186.5 1085 186.4 1085.1 186.4 1085.1 186.5zM1083.6 184.9c.3.1.4.3.3.3s-.4-.1-.4-.2C1083.4 184.9 1083.5 184.8 1083.6 184.9zM1085.8 193.6v0C1085.9 193.7 1085.8 193.7 1085.8 193.6zM1086.1 194.4c.2.1.3.1.4.2C1086.7 194.7 1086.2 194.7 1086.1 194.4zM1083.7 185.5c.6.2.2.1.7.3.3.1.4.1.6.3v.1c-.2-.1-.3-.1-.3-.1s0 .1.1.1c.2.1.0.1.1.2.2.2.2.2.2.3s-.1.0-.4-.1c-.1.0-.2-.2-.1-.2h.1c0 0 .1.0.0-.1-.4-.3-.1-.3-.5-.4.0-.1-.1-.2-.2-.2C1083.7 185.5 1083.7 185.6 1083.7 185.5zM1087.3 194.2C1087.2 194.2 1087.2 194.1 1087.3 194.2 1087.6 194.3 1087.4 194.3 1087.3 194.2zM1083.9 185.8v0c0 0 .09999999999990905.0.0.0zM1090.2 198.3c0 0 0-.10000000000002274.0.0C1090.3 198.3 1090.3 198.3 1090.2 198.3zM1090 196.4c-.1-.1-.2-.1-.3-.2-.1.0-.1-.1-.2-.1-.2.0-.2.1-.3.0-.2-.1-.4-.2-.5-.4-.2-.3-.3-.1-.5-.3-.1-.1-.2-.1-.4-.2-.3-.1-.4-.3-.7-.3-.2-.1-.5-.3-.3-.3.1.0.2.0.2.0.1.0.1-.1.0-.2.0.0-.1.0-.1-.1.0-.2-.4-.1-.2-.4.0.0.1.0.2.1s.1.1.2.2c.1.1.2.0.3.1.2.3.1.1.3.1.1.0.2.1.3.1.2.2.2.3.3.3.4.0.3.3.5.3s0 0 .5.3v.1c-.1.0-.1.0-.1.1h-.1c-.2-.1-.1-.3-.3-.2-.1.0-.3-.1-.4-.2-.1-.1-.1-.1-.4-.2-.6-.3-.3-.1-.6-.2-.4-.2-.3.0-.2.1.0.0.4.1.6.3.1.1.2.1.3.2.1.1.2.1.7.4.2.1.3.0.3.1v.1c0 0 .2.0.2.1C1089.7 196.3 1089.9 196 1090 196.4c.09999999999990905.0.0.0.0.0zM1090.5 197.5v0c-.1.0-.1.0-.1-.1.0.0.0.0.1.0V197.5zM1090.2 196.6c-.1-.1.0-.1.0-.1C1090.5 196.4 1090.6 196.9 1090.2 196.6zM1096.2 211.8v0C1096.2 211.6 1096.4 211.6 1096.2 211.8zM1096.4 211.5c0 0 0-.09999999999999432.0.0C1096.5 211.4 1096.5 211.5 1096.4 211.5zM1096.6 211.3c-.1.0.2-.4.3-.4C1097 210.8 1096.7 211.4 1096.6 211.3zM1098.1 209.5c-.1.0.0-.2.1-.2C1098.4 209.1 1098.2 209.5 1098.1 209.5zM1098.7 207.6c0-.1.0-.1.2-.4.0.0.1-.1.1.0C1099.1 207.3 1098.8 207.8 1098.7 207.6zM1099.2 207.5C1099.1 207.7 1099.1 207.7 1099.2 207.5 1099.1 207.4 1099.3 207.4 1099.2 207.5zm0-.5c0-.1.1-.2.1-.1C1099.3 207 1099.2 207.1 1099.2 207zM1100.3 205.8v0c-.1.1-.1.2-.1.3s-.1.2-.2.2c-.1.1-.2.2-.2.1.0-.1.0-.1.0-.2.3-.4.5-1.1.8-.8C1100.7 205.5 1100.5 205.7 1100.3 205.8zM1101.1 204.6v0c-.1.1-.1.3-.3.4l-.1.1c0 0-.1-.1.0-.3C1101 204.5 1101 204.6 1101.1 204.6 1101.1 204.6 1101.2 204.5 1101.1 204.6 1101.2 204.6 1101.2 204.6 1101.1 204.6zM1101.1 204.3c0-.1.1-.1.1-.2v0c0 0 .1.0.1.1L1101.1 204.3C1101.2 204.3 1101.1 204.4 1101.1 204.3zM1106.4 206.8v0 0 0zM1111.8 209.1c-.2-.1-.6-.3-.4-.3.2-.1.5.0.5.2C1111.9 209 1112 209.1 1111.8 209.1zM1112.1 209c0 0 0-.1.2.0C1112.4 209.1 1112.4 209.2 1112.1 209zM1113.2 208.7c-.2.0-.2-.2-.2-.1C1113.1 208.5 1113.2 208.6 1113.2 208.7c0-.09999999999999432.0.0.0.0zm0-.5c-.3.0-.1-.1-.1-.1C1113.2 208.1 1113.2 208.2 1113.2 208.2zM1113.6 208.5c0 0-.2.0-.2-.1v-.1C1113.5 208.4 1113.6 208.4 1113.6 208.5zM1114.4 208.2c-.2.0.0.0-.5-.2-.1-.1-.1-.2.0-.2.3.1.3.1.5.2C1114.4 208 1114.5 208.2 1114.4 208.2zM1113.8 207.6c-.1-.1.2-.2.3.0C1114.2 207.7 1114 207.7 1113.8 207.6zM1118.6 204.2v0c0 .10000000000002274.0.0.0.0zM1118.9 203.3c.1.0.1.2.1.3.0.0-.1.0-.4-.3v-.1C1118.7 203.2 1118.7 203.3 1118.9 203.3zM1118.5 200.6C1118.5 200.7 1118.4 200.6 1118.5 200.6 1118.4 200.5 1118.5 200.6 1118.5 200.6zM1108.3 194.9c.1.1 1.1.5 1.1.5.9.4.4.3 1.1.5.4.2.3.2.4.3.5.3.6.3 1 .5.2.1.5.2.7.4.9.5.5.3 2.7 1.4.3.2.2.2.3.3.3.1.6.1.8.3.2.1.5.2.6.3.5.3 1.1.7 1.4.9.0.0.1.1.0.1.0.1-.2.0-.3-.1.0-.1.0-.1-.5-.3-.1.0-.1-.1-.2-.1.0.1.1.1.1.2.0.1.0.1.0.2.1.1.1.1.0.2-.1.0-.2.0-.2.0s-.2.0-.2-.1c0-.2-.2-.1-.5-.3-.1-.1-.1-.1-.2.0-.1.0-.1.0-.1-.1s0-.1-.1-.2c0 0 0-.1.1.0s.2.2.4.2c.1.0.2.1.3.1.1.0-.1-.2-.1-.3h-.1l-.1-.1h-.1c-.3.0-.1.1-.4-.1-.2.1-.2.0-.3.0-.2-.1-.1-.1-.3-.3-.1.0-.2-.1-.3-.1-.1-.1-.1-.1-.1-.2-.1-.1-.2-.1-.4-.1v0c0-.1.0.0.0-.1-.6-.3-.4.0-.7-.3-.3-.3-.4-.1-.5-.3.0-.1-.1-.1-.8-.4-.2-.3-.7-.4-.9-.5-.2-.1-.2.1-.3.0-.1.0-.1.0-.2.0s0-.1-.2-.2c-.2-.1-.2.0-.3-.1-.2-.1-.2.0-.4-.3-.1-.1-.1-.3-.3-.2-.2.1-.1-.1-.4-.2-.2-.1-.4-.3-.6-.4-.1-.1-.2-.1-.4-.2-.2-.1-.4-.2-.6-.3s-.3-.1-.4-.2C1108.1 195 1108.1 194.9 1108.3 194.9 1108.2 194.8 1108.3 194.8 1108.3 194.9zM1108.2 194C1108.1 194.1 1108.1 194.1 1108.2 194c-.1.2-.2.3-.3.4v.1c-.1.0-.1-.1-.2-.1.2-.3.4-.6.5-.7C1108.2 193.7 1108.2 193.7 1108.2 194zM1104.6 181.9c0 0 0-.1.1-.2h.1C1104.7 181.8 1104.6 181.9 1104.6 181.9zM1110.8 171.7C1110.9 171.7 1110.9 171.8 1110.8 171.7c0 .10000000000002274.0.0.0.0zM1111.6 187c.1-.1.1.3-.1.2C1111.5 187.2 1111.5 187.1 1111.6 187zM1111.1 187.9v0 0zM1107.5 176.9C1107.6 176.9 1107.6 176.9 1107.5 176.9c0 .2-.1.4-.2.5C1107.2 177.4 1107.4 177.1 1107.5 176.9zM1110.7 188.5l.1-.2C1110.9 188.1 1111 188.6 1110.7 188.5zm-3.5-11C1107.2 177.6 1107.2 177.6 1107.2 177.5 1107.1 178 1106.9 177.7 1107.2 177.5zM1110.4 188.9v0c0 0 0-.09999999999999432.0.0zM1106.4 178.8c0 0 0 0 .3-.5.1-.1.1.0.2-.1.0.0.1.1.0.2-.1.1-.1.1-.1.2.0.1-.2.1-.1.1.0.2-.1.3-.2.4.0.1-.1.1-.1.1C1106.2 179.2 1106.5 179 1106.4 178.8zM1110.3 190.3c-.1.1-.1-.1.0-.1C1110.3 190.1 1110.4 190.2 1110.3 190.3zM1109.8 189.9v0c.1.1.1.1-.1.3C1109.6 190.3 1109.4 190.2 1109.8 189.9zM1109.8 190.3c-.1.0-.1-.2.0-.2S1109.9 190.3 1109.8 190.3zM1105.9 179.7c0-.1.1-.1.2.0.0.0.0.0-.3.6l-.1.1C1105.6 180.2 1105.6 180.3 1105.9 179.7zM1105.2 180.1c.1.0.1.1.0.2C1105 180.4 1105 180.1 1105.2 180.1zM1108.7 192.8c0 .1-.1.1-.1.3.1.2.0.3.0.3-.1.0.0-.2.0-.2.0-.1.0-.1.0-.1C1108.6 192.7 1108.8 192.7 1108.7 192.8zM1105.1 181.2c0-.1.1-.1.1-.2C1105.2 181.2 1105.1 181.3 1105.1 181.2zM1109.5 192.1c0 0 0-.2.1-.1C1109.6 192 1109.6 192.1 1109.5 192.1zM1112.2 188c-.1.2-.2.1-.3.3v0c0 0 .1-.1.2.0.0.0.0.0.0.1-.1.1-.1.3-.3.4-.1.1.0.2-.1.2-.2.2-.6 1-.7 1s-.2.0-.3.1c-.1.1.2.1.0.3-.5.4-.4.3-.5.6v0c.1.2-.1.2-.4.8.0.1-.1.1-.2.1.0.1-.1.1-.2.2-.1.1-.2.1-.3.2-.1.1.0.2.0.2.0.1-.1.2-.1.2-.2-.1-.5.4.3-1-.2-.1.0-.1.1-.2.1-.1.2-.2.3-.4.1-.3.2-.2.3-.5.1-.2.2.0.2-.1.2-.3.3-.3.2-.4.0-.1.1-.3.0-.3s-.1.1-.1.1c-.1.1-.1-.2.2-.5.1-.2.0-.3.1-.4.3-.2.2-.3.4-.6.1-.1.3-.5.3-.5.1-.1.1-.1.2-.2.1-.1.2.0.3-.2.0-.2.1-.1.2-.2.0-.1.0-.1-.1-.1-.1-.1.1-.2.2-.2.0.0.2-.1.1.0.0.1-.1.3.2.1C1112.6 187.5 1112.4 187.7 1112.2 188zM1114 184.5c0 .6-.1.3-.4.9.0.0.0.1-.1.1-.1.1-.1.1-.3.5.0.1-.2.1-.2.2.0.0-.1.2-.2.2s-.2.1-.2.1c-.1.1-.2.1-.2.2.0.0-.1.0.0-.2.1-.1.1-.1-.1-.1-.1-.2.0-.2.3-.8.0-.1.1-.3.2-.2s-.1.5.1.2c.1-.2.3.0.3-.5-.1.0-.2.2-.2.1.0-.1.3-.6.3-.4.0.3.1-.1.3-.3.2-.1.2-.3.4-.5h.1C1114.2 184.3 1114.1 184.4 1114 184.5zM1114.2 184c-.1-.1.0-.4.1-.4h.1C1114.4 183.9 1114.3 184.1 1114.2 184zM1114.4 183.5c-.1-.2.3-.4.3-.3C1114.6 183.5 1114.5 183.5 1114.4 183.5zM1111 171.5v0C1111 171.5 1110.9 171.6 1111 171.5zM1115.5 182.3c0-.1.0-.2.1-.1C1115.7 182.1 1115.6 182.3 1115.5 182.3zM1115.8 181.8C1115.9 181.6 1115.9 181.8 1115.8 181.8 1115.7 181.8 1115.7 181.8 1115.8 181.8zM1116.5 178.9c0-.2.2-.3.2-.3C1116.8 178.7 1116.6 178.8 1116.5 178.9c0 .2.0.2.0.3v0c0 0 0 0 0-.1C1116.4 179 1116.5 179 1116.5 178.9zM1116.3 179.1C1116.3 179.2 1116.3 179.2 1116.3 179.1v0zM1113.7 170.1l-.1.1v0C1113.5 170.3 1113.5 170.2 1113.7 170.1v0zM1114.9 170.5c0 0 0-.09999999999999432.0.0C1114.9 170.5 1114.8 170.6 1114.9 170.5zM1116.9 173.1v0C1116.8 173.2 1116.9 173.1 1116.9 173.1zM1117 173.8c0 0 0 0 0-.1v0C1117.1 173.7 1117.1 173.8 1117 173.8zM1117.6 173.3C1117.6 173.2 1117.6 173.2 1117.6 173.3 1117.7 173.3 1117.7 173.3 1117.6 173.3c0 .09999999999999432.0.0.0.0z"/><path class="st1" d="M1094.3 215.4c0-.4-.1-.3-.2-.3s-.1.0-.2.1c0 .1-.2.0-.3-.1-.3-.3-.3.1-.8.2-.1.0-.2.1-.4.3-.2.6-.1.3.1.4.1.0.1.0.2.0l.1-.1c.2-.1.1-.3.2-.3.2.0.2.1.2.2-.1.2.0.1.1.3.0.2.1.3.3.3.1-.1.1-.1.1-.2.0-.1.1-.1.3-.3.1.1.1.1.2.2h.1c.1-.2.0-.1.2-.3C1094.4 215.7 1094.3 215.6 1094.3 215.4zM1093.5 215.5c0-.1.0-.1.0-.2v0V215.5C1093.8 215.5 1093.6 215.7 1093.5 215.5z"/><path class="st1" d="M1084.2 209.5C1084.2 209.6 1084.1 209.6 1084.2 209.5 1084.1 209.5 1084.1 209.5 1084.2 209.5c-.1-.1-.2-.2-.3.0-.1.1-.2.1-.2.2-.1.2-.2.4-.1.5.0.1-.1.1-.1.2.0.1.0.1.1.1.1-.1.1-.1.1-.1.2.0.2-.2.5-.4.1-.1.2-.2.3-.3.0.0.2-.4.1-.3C1084.3 209.3 1084.2 209.5 1084.2 209.5z"/><path class="st1" d="M1099.8 186.7C1099.8 186.6 1099.9 186.6 1099.8 186.7c.1.0.2.2.3.1.1-.1.4-.5.4-.7.0.0-.1.1-.2.2v0 0c0 0 0 0-.1.0v0 0c0 0 0 0 .1.0v0c0-.1.0-.1.0-.2.0-.1.1-.2.0-.2.0.0.0.0-.1.0-.3.2-.1.2-.3.5-.2.2-.4.7-.2.7C1099.7 187 1099.7 186.9 1099.8 186.7zM11e2 186.4c.1.1-.1.2-.1.1C11e2 186.4 11e2 186.3 11e2 186.4z"/><path class="st1" d="M1084.4 211.1c-.2.2-.2.0-.5.2-.1.1-.1-.1-.2-.1v0c.1.1.1.2.1.3s.1.1.2.0.2.0.2-.1c.1-.1.5-.9.4-.8C1084.5 210.7 1084.6 210.9 1084.4 211.1z"/><path class="st1" d="M1097.6 190.1c0-.2.1-.3.2-.2s0 .1.2-.1c.1-.1.2-.1.2-.2.1-.2.1-.3.1-.3-.3.0-.2.5-.5.5-.1.0.2-.4.2-.5v0c-.1.1-.2.3-.3.4.0.1-.3.3-.2.5C1097.6 190.2 1097.6 190.2 1097.6 190.1z"/><path class="st1" d="M1110.4 171C1110.4 171 1110.5 170.9 1110.4 171c.3-.5 1-1.5 1.2-1.9l.1-.2c-.2.2-.7 1-.9 1.3C1110.7 170.5 1110.3 170.9 1110.4 171z"/><path class="st1" d="M1108.7 173.3c0 0-.1.1.0.1.0.1.0.1.0.2.3-.3.2-.1.7-1.1-.3.3-.4.3-.4.4C1109 173.1 1108.9 173.1 1108.7 173.3z"/><path class="st1" d="M1086.6 210v-.1C1086.5 210 1086.5 210 1086.6 210c-.1.2-.2.2-.3.3-.1.4-.3.6-.1.6.1.0.2.0.1-.1.2-.4.1-.2.2-.5C1086.4 210 1086.5 210.1 1086.6 210z"/><path class="st1" d="M1101 184.2c0-.2.1-.2.2-.3v0C1101 184 1100.9 184.1 1101 184.2c-.2.1-.3.4-.3.4C1100.8 184.6 1100.9 184.4 1101 184.2z"/><path class="st1" d="M1101 184.6c-.1-.1-.4.4-.4.5s.1.0.2-.1.1.0.2.0C1101 184.7 1101.1 184.7 1101 184.6z"/><path class="st1" d="M1101.1 184.9v0 0 0z"/><path class="st1" d="M1101.6 183.4C1101.6 183.3 1101.6 183.3 1101.6 183.4c.1-.2.2-.2.1-.3.0.0.0.0-.1.0-.1.1.0.1-.2.3-.1.1-.2.2-.2.3s0 .1.0.1C1101.4 183.6 1101.4 183.5 1101.6 183.4z"/><path class="st1" d="M1103.5 180.4c.1-.2.2-.3.1-.4C1103.5 180.1 1103.4 180.2 1103.5 180.4 1103.3 180.5 1103.4 180.5 1103.5 180.4z"/><path class="st1" d="M1093 214.5c-.1.0.0.1.0.2.0.1-.2.0.1.2h.1c0 0 0-.2-.1-.2S1093.1 214.5 1093 214.5z"/><path class="st1" d="M1085.3 208.1c.2.1.2.1.3-.3C1085.6 207.7 1085.2 208 1085.3 208.1z"/><path class="st1" d="M1102.5 180c.1-.2.1-.3.0-.3.0.0.0.0-.2.4C1102.3 180.1 1102.3 180.2 1102.5 180 1102.5 180.1 1102.5 180.1 1102.5 180z"/><path class="st1" d="M1096.3 213.2v0c.2-.1.3-.2.2-.2C1096.4 212.9 1096.2 213 1096.3 213.2z"/><path class="st1" d="M1103.6 178.3c0-.1.0-.2.0-.2-.1.0-.1.1-.2.1C1103.3 178.3 1103.6 178.4 1103.6 178.3z"/><path class="st1" d="M1087.5 203.9c0 0 0 .09999999999999432.0.0.3-.2.2-.2.1-.3C1087.6 203.6 1087.5 203.8 1087.5 203.9z"/><path class="st1" d="M1085.5 211.7c-.1.3-.2.3-.1.4C1085.5 212.1 1085.5 211.8 1085.5 211.7 1085.5 211.6 1085.5 211.6 1085.5 211.7z"/><path class="st1" d="M1084.9 209.9C1084.8 209.8 1084.8 209.8 1084.9 209.9 1084.5 210.3 1085 210 1084.9 209.9z"/><path class="st1" d="M1100.4 206.7c0 0-.1.0-.1.1C1100.1 207.1 1100.4 207 1100.4 206.7 1100.5 206.7 1100.5 206.7 1100.4 206.7z"/><path class="st1" d="M1088.1 203.1c0-.1.0-.1.1-.2C1088 202.9 1087.9 203.1 1088.1 203.1 1088 203.2 1088.1 203.1 1088.1 203.1z"/><path class="st1" d="M1107.2 175.7c0 0 0 .10000000000002274.0.0.2.0.2-.2.2-.3C1107.4 175.4 1107.3 175.6 1107.2 175.7z"/><path class="st1" d="M1083.8 210.8c0 .1-.1.1-.1.2.0.1.1.1.2.0C1084 210.7 1083.9 210.7 1083.8 210.8z"/><path class="st1" d="M1100.6 206.5c0 .1.0.2.1.1C1100.9 206.3 1100.6 206.3 1100.6 206.5z"/><path class="st1" d="M1108.3 174C1108.4 174.1 1108.4 174.1 1108.3 174c-.2.1.0.2.0.1C1108.5 173.9 1108.5 173.9 1108.3 174 1108.3 173.9 1108.3 173.9 1108.3 174z"/><path class="st1" d="M1096.8 212.5c0 0 .2-.4.1-.4S1096.7 212.4 1096.8 212.5z"/><path class="st1" d="M1084.9 210.4C1084.9 210.5 1085 210.5 1084.9 210.4 1085.1 210.4 1085 210.1 1084.9 210.4z"/><path class="st1" d="M1114.6 168.7c0 .1-.1.2-.1.3v0C1114.6 168.9 1114.7 168.6 1114.6 168.7z"/><path class="st1" d="M1111.3 170.3c.2-.2.0-.3.0-.2C1111.2 170.2 1111.2 170.4 1111.3 170.3z"/><path class="st1" d="M1102.3 182.1c-.1.1-.1.2.0.2C1102.3 182.3 1102.3 182.2 1102.3 182.1 1102.4 182.1 1102.3 182 1102.3 182.1z"/><path class="st1" d="M1094.5 216c0 0 0 .09999999999999432.0.0.1.1.2.0.2-.1v0C1094.6 216 1094.6 216 1094.5 216z"/><path class="st1" d="M1095.3 214.7c0 .1.0.1.1.1C1095.6 214.7 1095.4 214.6 1095.3 214.7z"/><path class="st1" d="M1111.6 189.9c.1-.1.1-.2.1-.3C1111.7 189.7 1111.6 189.8 1111.6 189.9z"/><path class="st1" d="M1117.1 179.4l-.1.2C1117.1 179.6 1117.2 179.5 1117.1 179.4 1117.2 179.3 1117.2 179.3 1117.1 179.4z"/><path class="st1" d="M1095.3 215.6c0 0 .1-.1.0-.2C1095.3 215.4 1095.3 215.5 1095.3 215.6z"/><path class="st1" d="M1094.9 212.4C1095 212.4 1095 212.3 1094.9 212.4c0-.09999999999999432.0.0.0.0z"/><path class="st1" d="M1117.6 172.7l.1-.1c0-.1.0-.1.0-.1C1117.6 172.7 1117.6 172.7 1117.6 172.7z"/><path class="st1" d="M1098.3 209.4v.1C1098.3 209.6 1098.4 209.5 1098.3 209.4c0 .09999999999999432.0.0.0.0z"/><path class="st1" d="M1110.2 171.3C1110.3 171.2 1110.3 171.2 1110.2 171.3 1110.2 171.2 1110.1 171.3 1110.2 171.3z"/><path class="st1" d="M1103.3 179.9C1103.3 180 1103.3 180 1103.3 179.9 1103.3 180 1103.4 180 1103.3 179.9c.10000000000013642.0.0.0.0.0z"/><path class="st1" d="M1105.1 177.2c0 0 .10000000000013642.0.0.0C1105.3 177 1105.1 177.1 1105.1 177.2z"/><path class="st1" d="M1107.9 174.7C1108 174.7 1108 174.6 1107.9 174.7 1108 174.4 1107.9 174.6 1107.9 174.7z"/><path class="st1" d="M1083.5 211v0C1083.4 211 1083.4 211 1083.5 211z"/><path class="st1" d="M1100.8 185.5l-.1.1C1100.7 185.6 1100.8 185.6 1100.8 185.5z"/><path class="st1" d="M1097.8 211.2v0 0z"/><path class="st1" d="M1086.9 211.6c.1-.1.1-.1.1-.1S1086.9 211.5 1086.9 211.6z"/><path class="st1" d="M1087.4 204.3C1087.4 204.2 1087.3 204.3 1087.4 204.3 1087.2 204.4 1087.4 204.4 1087.4 204.3z"/><path class="st1" d="M1111 170.7c.1-.1.1-.1.0-.1C1111.1 170.6 1111.1 170.6 1111 170.7z"/><path class="st1" d="M1088.4 202.5C1088.4 202.5 1088.5 202.6 1088.4 202.5 1088.5 202.5 1088.5 202.5 1088.4 202.5 1088.5 202.4 1088.4 202.4 1088.4 202.5z"/><path class="st1" d="M1117.3 170.8c0 0 0 .09999999999999432.0.0C1117.3 170.9 1117.4 170.8 1117.3 170.8z"/><path class="st1" d="M1117.7 172.4C1117.8 172.3 1117.7 172.3 1117.7 172.4 1117.7 172.5 1117.7 172.5 1117.7 172.4v0z"/><path class="st1" d="M1100.6 185.7v0C1100.7 185.7 1100.7 185.7 1100.6 185.7z"/><path class="st1" d="M1115.4 184.3v0C1115.4 184.2 1115.4 184.2 1115.4 184.3z"/><path class="st1" d="M1106.8 177.7v0C1106.7 177.7 1106.7 177.8 1106.8 177.7z"/><path class="st1" d="M1096.7 214.1v0C1096.6 214.1 1096.7 214.2 1096.7 214.1z"/><path class="st1" d="M1106.5 175v0 0z"/><path class="st1" d="M1084.6 211.5C1084.7 211.5 1084.7 211.5 1084.6 211.5c0 0 0-.09999999999999432.0.0z"/><path class="st1" d="M1086 213.4c0 0 0-.09999999999999432.0.0C1085.9 213.4 1085.9 213.4 1086 213.4z"/><path class="st1" d="M1101.7 204.8C1101.8 204.8 1101.8 204.8 1101.7 204.8v0z"/><path class="st1" d="M1115.7 183.6v0C1115.7 183.7 1115.7 183.7 1115.7 183.6z"/><path class="st1" d="M1100.6 185.4v0C1100.6 185.3 1100.5 185.4 1100.6 185.4z"/><path class="st1" d="M1089.4 201c0 0 0-.09999999999999432.0.0C1089.4 200.9 1089.4 200.9 1089.4 201 1089.4 200.9 1089.4 200.9 1089.4 201c0-.09999999999999432.0.0.0.0z"/><path class="st1" d="M1114.5 186v0 0z"/><path class="st1" d="M1099 208.8v0 0z"/><path class="st1" d="M1098.8 209.1v0 0z"/><path class="st1" d="M1111.8 168.9c0 0-.09999999999990905.0.0.0v0z"/><path class="st1" d="M1093.3 214.3v0C1093.2 214.3 1093.2 214.4 1093.3 214.3z"/><path class="st1" d="M1110.1 172.3c0 0 0-.10000000000002274.0.0C1110.1 172.2 1110 172.3 1110.1 172.3z"/><path class="st1" d="M1098.6 209.3v0 0 0z"/><path class="st1" d="M1098.7 209.3v0 0z"/><path class="st1" d="M1098.6 209.3v0 0 0z"/><path class="st1" d="M1084.9 209.6C1084.9 209.5 1084.9 209.5 1084.9 209.6 1084.9 209.5 1084.9 209.5 1084.9 209.6 1084.9 209.5 1084.9 209.5 1084.9 209.6z"/><path class="st1" d="M1093.8 214.8v0C1093.9 214.8 1093.9 214.8 1093.8 214.8 1093.9 214.8 1093.9 214.8 1093.8 214.8v0z"/><path class="st1" d="M1093.8 214.8v0 0 0z"/><path class="st1" d="M1117 179.6l.1-.1C1117.1 179.6 1117 179.6 1117 179.6z"/><path class="st1" d="M1085.1 213.2v0 0 0 0 0 0 0 0z"/><path class="st1" d="M1109.8 191.2c-.1.0.0.1.0.2.1.1.3-.3.3-.5C1110.2 190.9 1109.8 191.2 1109.8 191.2z"/><path class="st1" d="M1111.1 189.2c-.1.1.0.1.0.2.0.0.1.1.2-.1C1111.3 189.3 1111.2 189.4 1111.1 189.2v0z"/><path class="st1" d="M1111.6 188.5c0 0 .1.1.2.0C1111.9 188.4 1111.6 188.4 1111.6 188.5z"/><path class="st1" d="M1111 189C1110.8 189.1 1111 189.2 1111 189 1111.1 189 1111 188.9 1111 189z"/><path class="st1" d="M1111.7 188.7v0c-.10000000000013642.0.0.0.0.0z"/><path class="st1" d="M1072.7 184.7v0 0 0z"/><path class="st1" d="M1083 195.3c.3.2.3.3.6.3.1.0.1.0.6.3.0-.1-.2-.1-.2-.3.0.0.0.0-.1.0-.2.0-.3-.1-.4-.2.0.0-.1-.2.1-.2.3.1.4.1.5.2.1.1.2.2.4.2.2.0-.4-.3-.7-.4-.1.0-.1-.1-.1-.2.0-.1-.1.0-.5-.2-.1-.1-.3-.1-.4-.2l-.5-.3c0 .1.0.1.1.1.2.1 1.2.7 1 .8v0c-.1.0-.1.0-.2-.1-.6-.3-.4-.2-.7-.3C1081 194.2 1081.9 194.7 1083 195.3z"/><path class="st1" d="M1080 193.5c-.1-.1-.2-.1-.5-.2-.2-.1-.2.0-.4-.1-.2-.1-.3-.1-.4-.3-.2-.2-.2.0-.6-.1-.2-.1-.2-.1-.1.0 1.1.6 1.2.7 1.4.8.1.1.2.1.3.1.1.1.1.0.5.2.8.4.3.1.3.0C1080.5 193.7 1080.3 193.8 1080 193.5z"/><path class="st1" d="M1085.7 184.3c.1.0.0.0.4.1.3.1.1-.2.3-.1.1.0.2.1.2.0.0.0.0.0-.2-.2-.1-.1-.1-.1-.2-.2-.1.0-.1.0-.2.0.0.0-.2-.1-.2.0s0 .1-.1.2c0 0-.1-.3-.3-.3v0c.1.1.1.2.2.3C1085.7 184.2 1085.7 184.3 1085.7 184.3z"/><path class="st1" d="M1082.8 182.8c.1.1.2.1.2.1s0 0 .1.0.2.1.2.1c.1.1.1.0.3.1.0.0.1-.1.0-.1-.1-.1-.2.0-.2-.2-.1-.1-.2.0-.3-.1-.1-.1-.2-.2-.1-.3v0c0 0-.1.1-.2-.1h-.1c-.1.1-.1.1.0.2v0c0 0-.2-.1-.2.0C1082.6 182.7 1082.7 182.7 1082.8 182.8z"/><path class="st1" d="M1082.3 195.7c.1.1.3.2.3.2s0-.2.2-.1c.2.1.2-.1.1-.1s-.1.0-.2.0c-.1-.1-.3-.1-.4-.2-.1.0-.2-.1-.2-.1-.4-.1-.3-.2-.5-.2v0C1081.9 195.4 1082 195.4 1082.3 195.7 1082.4 195.6 1082.3 195.7 1082.3 195.7z"/><path class="st1" d="M1088.9 198.8c.2.0.2.1.2.0.0.0.0.0-.5-.3v0 .1c0 .1-.2.0-.3.0.0.1-.1.1.0.1C1088.9 198.8 1088.8 198.8 1088.9 198.8c0 .09999999999999432.0.0.0.0z"/><path class="st1" d="M1080.4 193c.1.1.2.1.2.1.1.0.3.0.4.1.2-.2.3.0.4-.1.0-.1-.1-.1-.2-.1-.2.0-.3-.1-.3.0s-.1.0-.3.0C1080.6 193 1080.5 192.9 1080.4 193 1080.4 192.9 1080.4 192.9 1080.4 193z"/><path class="st1" d="M1085.8 195.2c0 0 0-.09999999999999432.0.0-.2.1-.3.0-.6-.1.0.0-.1.0-.1.1l.1.1C1085.8 195.5 1085.7 195.5 1085.8 195.2z"/><path class="st1" d="M1089.5 186c.1.0.2.0.2.0-.1-.2-.1-.1-.3-.2-.1.0-.1-.1-.2-.2-.1.0-.1.0-.1.1s.1.2.2.2C1089.3 185.9 1089.4 185.9 1089.5 186z"/><path class="st1" d="M1080.7 192.3c-.2-.2-.2-.2-.3-.2-.2.0-.2.0-.2.0.0.1.1.1.2.1.1.1.2.2.2.2C1080.6 192.4 1080.8 192.4 1080.7 192.3z"/><path class="st1" d="M1081.8 193c-.2-.1-.4-.3-.6-.3C1081.5 192.9 1081.4 192.9 1081.8 193 1081.8 193.1 1081.9 193 1081.8 193z"/><path class="st1" d="M1104.3 205.9c-.1-.1-.2-.1-.3-.1.0.0.0.1.1.1.2.1.4.2.7.3C1104.6 205.9 1104.5 206.1 1104.3 205.9z"/><path class="st1" d="M1088.2 197.8c-.1-.1-.3-.1-.4-.2h-.1c0 0 0 .1.1.2C1088 197.8 1088 197.7 1088.2 197.8c.1.1.2.2.2.1C1088.4 197.8 1088.4 197.8 1088.2 197.8z"/><path class="st1" d="M1087.5 196.5c-.1.0.0.0-.1.1s-.1.0-.3.0v.1c.4.1.4.1.4.0C1087.6 196.7 1087.5 196.6 1087.5 196.5c0 .09999999999999432.0.0.0.0z"/><path class="st1" d="M1085.4 196.4c-.1.0-.2.0-.2-.1-.1-.1-.2-.1-.3-.1-.1.0-.1-.1-.2.0C1084.7 196.2 1084.7 196.1 1085.4 196.4 1085.5 196.6 1085.5 196.4 1085.4 196.4z"/><path class="st1" d="M1074.7 191.3C1074.7 191.4 1074.7 191.4 1074.7 191.3c.2.2.3.2.6.5.1.1.2.0-.2-.2C1074.8 191.4 1074.7 191.3 1074.7 191.3z"/><path class="st1" d="M1090.5 186.4c0-.1-.2-.1-.4-.2v0c.1.1.2.1.2.2C1090.3 186.5 1090.5 186.5 1090.5 186.4z"
			/><path class="st1" d="M1078.8 193.9c.3.2.3.2.4.1C1079.3 193.9 1079.3 193.8 1078.8 193.9v0z"/><path class="st1" d="M1084.6 183.5c-.1-.1.0-.1-.1-.2.0.0-.1-.1-.1.0s-.1.1-.1.1c0 .1.1.1.1.2C1084.5 183.6 1084.7 183.6 1084.6 183.5z"/><path class="st1" d="M1084 194.5c0 0-.09999999999990905.0.0.0C1083.9 194.5 1083.8 194.5 1084 194.5c.1.1.1.2.0.2.0.0.0.0.1.0s.1.0.2-.1C1084.2 194.5 1084.1 194.6 1084 194.5z"/><path class="st1" d="M1086.6 185.1c.1.1.2.0.2.0l-.1-.1C1086.6 184.9 1086.3 184.9 1086.6 185.1z"/><path class="st1" d="M1105.3 206.7c.2.1.6.2.2-.1C1105.4 206.6 1105.3 206.6 1105.3 206.7z"/><path class="st1" d="M1088.2 185.4v0c0-.1-.1-.2-.2-.2.0.0-.1.0.0.0C1088 185.5 1088 185.4 1088.2 185.4z"/><path class="st1" d="M1083.3 194.6c0 .1.3.1.3.0s-.1-.1-.2-.1C1083.3 194.5 1083.2 194.6 1083.3 194.6z"/><path class="st1" d="M1086 195.6c0 0 0 .1.2.2.0-.1.1-.1.1-.2C1086.1 195.6 1086.1 195.6 1086 195.6z"/><path class="st1" d="M1082.2 195.2c0-.1.0-.1-.2-.1-.1.0-.1.0.0.1C1082 195.3 1082.2 195.3 1082.2 195.2z"/><path class="st1" d="M1107 207.8v0c.2.2.2.2.3.2C1107.3 208 1107.3 207.8 1107 207.8z"/><path class="st1" d="M1079.5 192.7C1080.4 193.2 1080 192.8 1079.5 192.7v0z"/><path class="st1" d="M1077.6 193.2v0C1077.4 193.2 1077.4 193.3 1077.6 193.2c0 .1.1.2.3.2C1077.9 193.4 1077.9 193.3 1077.6 193.2z"/><path class="st1" d="M1079.3 194.1c0 0 0 .09999999999999432.0.0.1.1.2.1.3.2.0.0.0.0.1.0S1079.7 194.3 1079.3 194.1C1079.4 194.1 1079.4 194.1 1079.3 194.1z"/><path class="st1" d="M1083.4 193.8c0 0 0-.1-.2-.1C1083.1 193.7 1083.3 193.9 1083.4 193.8z"/><path class="st1" d="M1117.8 198.9C1117.8 198.9 1117.7 198.8 1117.8 198.9c-.1-.1-.2-.1-.2-.1-.1.0-.1.1-.1.1C1117.6 198.9 1117.7 199 1117.8 198.9z"/><path class="st1" d="M1082.4 195.3v0c0 .1.1.1.1.1C1082.5 195.4 1082.5 195.3 1082.4 195.3z"/><path class="st1" d="M1114.8 208.8c-.1.0.0.1.1.1.0.0.0.0.1.0C1114.9 208.9 1114.9 208.8 1114.8 208.8z"/><path class="st1" d="M1081.7 194.9C1081.7 194.9 1081.6 194.8 1081.7 194.9 1081.5 195.1 1081.8 195 1081.7 194.9z"/><path class="st1" d="M1082.9 193.8C1083.1 193.8 1082.9 193.6 1082.9 193.8 1082.8 193.7 1082.8 193.8 1082.9 193.8z"/><path class="st1" d="M1084.3 195.1C1084.3 195 1084.3 195 1084.3 195.1 1084.1 194.9 1084.2 195.3 1084.3 195.1z"/><path class="st1" d="M1079.3 192l.1.1C1079.5 191.9 1079.2 191.9 1079.3 192z"/><path class="st1" d="M1092.2 187.8c.1.0.0-.1.0-.1C1092.1 187.6 1092.1 187.7 1092.2 187.8z"/><path class="st1" d="M1085.3 185.9c0 0 0 0-.2.0C1085.3 185.9 1085.2 185.9 1085.3 185.9z"/><path class="st1" d="M1083.2 195.6c-.1.0-.1.0-.1-.1C1083.1 195.5 1083.1 195.6 1083.2 195.6z"/><path class="st1" d="M1119 199.3c0 0-.1-.1-.2.0C1118.7 199.3 1118.9 199.4 1119 199.3z"/><path class="st1" d="M1072.6 189.7l.1.1C1072.7 189.7 1072.7 189.7 1072.6 189.7z"/><path class="st1" d="M1078.4 193.5C1078.4 193.6 1078.6 193.6 1078.4 193.5 1078.3 193.4 1078.3 193.5 1078.4 193.5z"/><path class="st1" d="M1078.1 193.6c.1.1.1.1.2.1C1078.2 193.5 1078.1 193.5 1078.1 193.6z"/><path class="st1" d="M1106.1 207c0 0 0-.09999999999999432.0.0-.09999999999990905.0.0.0.0.0z"/><path class="st1" d="M1085 183.6C1084.9 183.6 1084.9 183.6 1085 183.6c0 .09999999999999432.0.0.0.0z"/><path class="st1" d="M1081.8 182.4v0C1082 182.4 1081.9 182.4 1081.8 182.4z"/><path class="st1" d="M1083.1 194.5v0C1083 194.5 1083 194.6 1083.1 194.5z"/><path class="st1" d="M1084.1 196.7v0 0z"/><path class="st1" d="M1087 184.8C1086.9 184.8 1086.9 184.8 1087 184.8c0 .09999999999999432.0.0.0.0z"/><path class="st1" d="M1083.7 194.1v0C1083.6 194 1083.6 194.1 1083.7 194.1v0z"/><path class="st1" d="M1080.2 192.8C1080.3 192.8 1080.3 192.7 1080.2 192.8 1080.2 192.7 1080.2 192.7 1080.2 192.8z"/><path class="st1" d="M1089.4 198.9v0C1089.6 199 1089.4 198.9 1089.4 198.9z"/><path class="st1" d="M1074.5 191.1C1074.5 191.2 1074.5 191.2 1074.5 191.1 1074.5 191.2 1074.5 191.2 1074.5 191.1v0z"/><path class="st1" d="M1080 182.1c0 0 0-.09999999999999432.0.0-.1-.1-.1-.1-.2-.1v0C1079.9 182.1 1080 182.1 1080 182.1z"/><path class="st1" d="M1114.9 209.1C1115 209.2 1115.1 209.1 1114.9 209.1c0 0-.10000000000013642.0.0.0z"/><path class="st1" d="M1077.8 182C1077.7 182 1077.7 182 1077.8 182 1077.8 182.1 1077.8 182.1 1077.8 182c0 .09999999999999432.0.0.0.0v0z"/><path class="st1" d="M1079.4 181.8c-.10000000000013642.0.0.0.0.0C1079.4 181.9 1079.4 181.9 1079.4 181.8z"/><path class="st1" d="M1089.9 186.3c0 0-.10000000000013642.0.0.0C1089.7 186.3 1089.9 186.4 1089.9 186.3z"/><path class="st1" d="M1086.9 196.6C1087 196.6 1087 196.6 1086.9 196.6 1087 196.6 1087 196.5 1086.9 196.6z"/><path class="st1" d="M1088.1 198.6v0c0 0 0-.09999999999999432.0.0z"/><path class="st1" d="M1082.8 193.5c.10000000000013642.0.0.0.0.0C1082.9 193.5 1082.9 193.5 1082.8 193.5z"/><path class="st1" d="M1086 185.7c0 0-.09999999999990905.0.0.0C1085.9 185.8 1086 185.8 1086 185.7z"/><path class="st1" d="M1078.6 193.8v0 0z"/><path class="st1" d="M1107.4 208.1C1107.4 208.2 1107.5 208.2 1107.4 208.1c.09999999999990905.0.0.0.0.0z"/><path class="st1" d="M1082.3 182.6v0C1082.4 182.6 1082.4 182.6 1082.3 182.6 1082.5 182.6 1082.4 182.5 1082.3 182.6z"/><path class="st1" d="M1114.3 210.5c0 0 0 .09999999999999432.0.0C1114.3 210.6 1114.4 210.6 1114.3 210.5 1114.4 210.5 1114.4 210.5 1114.3 210.5z"/><path class="st1" d="M1086.6 197.1v0c0-.09999999999999432.0.0.0.0z"/><path class="st1" d="M1081.4 194.4c0 0-.10000000000013642.0.0.0v0z"/><path class="st1" d="M1074.5 191.2l.2.1L1074.5 191.2z"/><path class="st1" d="M1080.6 192.5v0c0 0-.09999999999990905.0.0.0z"/><path class="st1" d="M1097.2 189.9C1097.2 189.9 1097.1 190 1097.2 189.9 1097.2 190 1097.2 190 1097.2 189.9z"/><path class="st1" d="M1087.8 185.1v0 0z"/><path class="st1" d="M1081.4 193.7v0C1081.5 193.7 1081.5 193.7 1081.4 193.7z"/><path class="st1" d="M1084 194.8C1084 194.7 1084 194.7 1084 194.8 1084 194.7 1084 194.7 1084 194.8c-.09999999999990905.0.0.0.0.0z"/><path class="st1" d="M1074.9 191.9v0c0-.09999999999999432.0.0.0.0v0z"/><path class="st1" d="M1082.7 195.5v0C1082.7 195.6 1082.8 195.5 1082.7 195.5z"/><path class="st1" d="M1086.3 195.9v0C1086.2 195.9 1086.2 195.9 1086.3 195.9z"/><path class="st1" d="M1073.1 185.2v0C1073.1 185.1 1073 185.1 1073.1 185.2z"/><path class="st1" d="M1072.6 184.6c0 .1.0.1.1.1C1072.7 184.7 1072.6 184.6 1072.6 184.6z"/><path class="st1" d="M1108.4 208.4v0 0z"/><path class="st1" d="M1109.3 210.9v0 0z"/><path class="st1" d="M1110.9 209.3v0 0 0z"/><path class="st1" d="M1116.9 198.8v0c0-.10000000000002274.0.0.0.0.09999999999990905.0.0.0.0.0z"
			/><path class="st1" d="M1117.2 198.8v0c-.10000000000013642.0.0.0.0.0z"/><path class="st1" d="M1117.4 198.9c0 0-.1.0-.1-.1C1117.4 198.9 1117.4 198.9 1117.4 198.9z"/><path class="st1" d="M1117.3 198.8c-.1.0-.1-.1-.1-.1C1117.2 198.8 1117.3 198.8 1117.3 198.8z"/><path class="st1" d="M1082.3 194.3v0C1082.2 194.3 1082.2 194.3 1082.3 194.3z"/><path class="st1" d="M1118.5 199v0 0 0C1118.4 199 1118.5 199.1 1118.5 199 1118.5 199.1 1118.5 199.1 1118.5 199v0C1118.5 199.1 1118.5 199.1 1118.5 199c0 .09999999999999432.0.0.0.0z"/><path class="st1" d="M1113.7 210v0 0z"/><path class="st1" d="M1114 210.6v0 0z"/><path class="st1" d="M1114.7 209.8C1114.7 209.7 1114.7 209.7 1114.7 209.8 1114.7 209.7 1114.7 209.7 1114.7 209.8z"/><path class="st1" d="M1103.3 205.6v0 0 0c0 0 .10000000000013642.0.0.0v0l.1.1C1103.5 205.6 1103.4 205.6 1103.3 205.6v0z"/><path class="st1" d="M1103.5 205.6v0c-.09999999999990905.0.0.0.0.0z"/><path class="st1" d="M1078.9 182C1078.9 182.1 1078.9 182.1 1078.9 182 1078.9 182.1 1078.9 182.1 1078.9 182c0 .09999999999999432.0.0.0.0z"/><path class="st1" d="M1106.4 207.1c0 0-.10000000000013642.0.0.0v0z"/><path class="st1" d="M1114 209.7v0 0z"/><path class="st1" d="M1084.2 193.3c.1.1.1.1.1.1C1084.4 193.4 1084.1 193.3 1084.2 193.3z"/><path class="st1" d="M1081.8 192c0-.09999999999999432.0.0.0.0v0z"/><path class="st1" d="M1094.6 189.2C1094.7 189.2 1094.7 189.2 1094.6 189.2c-.1-.2-.1-.2-.3-.3v0c.1.1.1.1.2.2C1094.5 189.2 1094.6 189.2 1094.6 189.2z"/><path class="st1" d="M1094.8 189.3v0C1094.9 189.4 1095 189.4 1094.8 189.3z"/></g></g></svg>