<?xml version="1.0" encoding="utf-8"?>
<!-- Generator: Adobe Illustrator 24.0.0, SVG Export Plug-In . SVG Version: 6.00 Build 0)  -->
<svg version="1.1" id="Layer_1" xmlns="http://www.w3.org/2000/svg" xmlns:xlink="http://www.w3.org/1999/xlink" x="0px" y="0px"
	 viewBox="0 0 1926 1025" style="enable-background:new 0 0 1926 1025;" xml:space="preserve">
<style type="text/css">
	.st0{opacity:0.15;}
	.st1{fill:url(#SVGID_1_);}
	.st2{fill:url(#SVGID_2_);}
	.st3{fill:url(#SVGID_3_);}
	.st4{fill:url(#SVGID_4_);}
	.st5{fill:url(#SVGID_5_);}
	.st6{fill:url(#SVGID_6_);}
	.st7{fill:url(#SVGID_7_);}
	.st8{fill:url(#SVGID_8_);}
	.st9{fill:url(#SVGID_9_);}
	.st10{fill:url(#SVGID_10_);}
	.st11{fill:url(#SVGID_11_);}
	.st12{fill:url(#SVGID_12_);}
	.st13{fill:url(#SVGID_13_);}
	.st14{fill:url(#SVGID_14_);}
	.st15{fill:url(#SVGID_15_);}
	.st16{fill:url(#SVGID_16_);}
	.st17{fill:url(#SVGID_17_);}
	.st18{fill:url(#SVGID_18_);}
	.st19{fill:url(#SVGID_19_);}
	.st20{fill:url(#SVGID_20_);}
	.st21{fill:url(#SVGID_21_);}
	.st22{fill:url(#SVGID_22_);}
	.st23{fill:url(#SVGID_23_);}
	.st24{fill:url(#SVGID_24_);}
	.st25{fill:url(#SVGID_25_);}
	.st26{fill:url(#SVGID_26_);}
	.st27{fill:url(#SVGID_27_);}
	.st28{fill:url(#SVGID_28_);}
	.st29{fill:url(#SVGID_29_);}
	.st30{fill:url(#SVGID_30_);}
	.st31{fill:url(#SVGID_31_);}
	.st32{fill:url(#SVGID_32_);}
	.st33{fill:url(#SVGID_33_);}
</style>
<g class="st0">
	
		<linearGradient id="SVGID_1_" gradientUnits="userSpaceOnUse" x1="148.6491" y1="280.6363" x2="165.2645" y2="968.9879" gradientTransform="matrix(1 0 0 -1 0 1260)">
		<stop  offset="0" style="stop-color:#232323"/>
		<stop  offset="0.2378" style="stop-color:#242624"/>
		<stop  offset="0.3808" style="stop-color:#272E27"/>
		<stop  offset="0.4988" style="stop-color:#2D3C2D"/>
		<stop  offset="0.6031" style="stop-color:#365135"/>
		<stop  offset="0.6984" style="stop-color:#416B40"/>
		<stop  offset="0.7873" style="stop-color:#4E8B4C"/>
		<stop  offset="0.8711" style="stop-color:#5EB25C"/>
		<stop  offset="0.9487" style="stop-color:#6FDD6D"/>
		<stop  offset="1" style="stop-color:#7DFE7A"/>
	</linearGradient>
	<path class="st1" d="M152.3,731.8c1.3,0.3,2.9,0.6,4.7,0.8L152.3,731.8z"/>
	
		<linearGradient id="SVGID_2_" gradientUnits="userSpaceOnUse" x1="596.5004" y1="269.8261" x2="613.1157" y2="958.1777" gradientTransform="matrix(1 0 0 -1 0 1260)">
		<stop  offset="0" style="stop-color:#232323"/>
		<stop  offset="0.2378" style="stop-color:#242624"/>
		<stop  offset="0.3808" style="stop-color:#272E27"/>
		<stop  offset="0.4988" style="stop-color:#2D3C2D"/>
		<stop  offset="0.6031" style="stop-color:#365135"/>
		<stop  offset="0.6984" style="stop-color:#416B40"/>
		<stop  offset="0.7873" style="stop-color:#4E8B4C"/>
		<stop  offset="0.8711" style="stop-color:#5EB25C"/>
		<stop  offset="0.9487" style="stop-color:#6FDD6D"/>
		<stop  offset="1" style="stop-color:#7DFE7A"/>
	</linearGradient>
	<path class="st2" d="M603.1,820.3c-3.4-0.8-4.8-0.9-5.1-0.7C601.2,820.3,603.8,820.8,603.1,820.3z"/>
	
		<linearGradient id="SVGID_3_" gradientUnits="userSpaceOnUse" x1="671.0952" y1="268.0255" x2="687.7106" y2="956.3771" gradientTransform="matrix(1 0 0 -1 0 1260)">
		<stop  offset="0" style="stop-color:#232323"/>
		<stop  offset="0.2378" style="stop-color:#242624"/>
		<stop  offset="0.3808" style="stop-color:#272E27"/>
		<stop  offset="0.4988" style="stop-color:#2D3C2D"/>
		<stop  offset="0.6031" style="stop-color:#365135"/>
		<stop  offset="0.6984" style="stop-color:#416B40"/>
		<stop  offset="0.7873" style="stop-color:#4E8B4C"/>
		<stop  offset="0.8711" style="stop-color:#5EB25C"/>
		<stop  offset="0.9487" style="stop-color:#6FDD6D"/>
		<stop  offset="1" style="stop-color:#7DFE7A"/>
	</linearGradient>
	<path class="st3" d="M672.5,843.5c1.6,0.8,3.2,1.5,4.3,1.5C675.3,844.5,673.9,844,672.5,843.5z"/>
	
		<linearGradient id="SVGID_4_" gradientUnits="userSpaceOnUse" x1="157.0522" y1="280.4334" x2="173.6676" y2="968.7851" gradientTransform="matrix(1 0 0 -1 0 1260)">
		<stop  offset="0" style="stop-color:#232323"/>
		<stop  offset="0.2378" style="stop-color:#242624"/>
		<stop  offset="0.3808" style="stop-color:#272E27"/>
		<stop  offset="0.4988" style="stop-color:#2D3C2D"/>
		<stop  offset="0.6031" style="stop-color:#365135"/>
		<stop  offset="0.6984" style="stop-color:#416B40"/>
		<stop  offset="0.7873" style="stop-color:#4E8B4C"/>
		<stop  offset="0.8711" style="stop-color:#5EB25C"/>
		<stop  offset="0.9487" style="stop-color:#6FDD6D"/>
		<stop  offset="1" style="stop-color:#7DFE7A"/>
	</linearGradient>
	<path class="st4" d="M156.9,732.6c4,0.7,8,1.4,12,2.2C169.9,733.8,162.8,733.4,156.9,732.6z"/>
	
		<linearGradient id="SVGID_5_" gradientUnits="userSpaceOnUse" x1="61.7141" y1="282.7347" x2="78.3295" y2="971.0864" gradientTransform="matrix(1 0 0 -1 0 1260)">
		<stop  offset="0" style="stop-color:#232323"/>
		<stop  offset="0.2378" style="stop-color:#242624"/>
		<stop  offset="0.3808" style="stop-color:#272E27"/>
		<stop  offset="0.4988" style="stop-color:#2D3C2D"/>
		<stop  offset="0.6031" style="stop-color:#365135"/>
		<stop  offset="0.6984" style="stop-color:#416B40"/>
		<stop  offset="0.7873" style="stop-color:#4E8B4C"/>
		<stop  offset="0.8711" style="stop-color:#5EB25C"/>
		<stop  offset="0.9487" style="stop-color:#6FDD6D"/>
		<stop  offset="1" style="stop-color:#7DFE7A"/>
	</linearGradient>
	<path class="st5" d="M68.3,732.5c0-0.3-0.6-0.7-1.4-1C67.2,731.9,67.7,732.3,68.3,732.5z"/>
	
		<linearGradient id="SVGID_6_" gradientUnits="userSpaceOnUse" x1="-21.1028" y1="284.7337" x2="-4.4874" y2="973.0854" gradientTransform="matrix(1 0 0 -1 0 1260)">
		<stop  offset="0" style="stop-color:#232323"/>
		<stop  offset="0.2378" style="stop-color:#242624"/>
		<stop  offset="0.3808" style="stop-color:#272E27"/>
		<stop  offset="0.4988" style="stop-color:#2D3C2D"/>
		<stop  offset="0.6031" style="stop-color:#365135"/>
		<stop  offset="0.6984" style="stop-color:#416B40"/>
		<stop  offset="0.7873" style="stop-color:#4E8B4C"/>
		<stop  offset="0.8711" style="stop-color:#5EB25C"/>
		<stop  offset="0.9487" style="stop-color:#6FDD6D"/>
		<stop  offset="1" style="stop-color:#7DFE7A"/>
	</linearGradient>
	<path class="st6" d="M0.9,99.3c-0.7,1-1.3,1.9-2,2.9c0.7-0.4,1.5-0.8,2.2-1.3C1.1,100.4,1.1,99.8,0.9,99.3z"/>
	
		<linearGradient id="SVGID_7_" gradientUnits="userSpaceOnUse" x1="807.127" y1="264.742" x2="823.7424" y2="953.0936" gradientTransform="matrix(1 0 0 -1 0 1260)">
		<stop  offset="0" style="stop-color:#232323"/>
		<stop  offset="0.2378" style="stop-color:#242624"/>
		<stop  offset="0.3808" style="stop-color:#272E27"/>
		<stop  offset="0.4988" style="stop-color:#2D3C2D"/>
		<stop  offset="0.6031" style="stop-color:#365135"/>
		<stop  offset="0.6984" style="stop-color:#416B40"/>
		<stop  offset="0.7873" style="stop-color:#4E8B4C"/>
		<stop  offset="0.8711" style="stop-color:#5EB25C"/>
		<stop  offset="0.9487" style="stop-color:#6FDD6D"/>
		<stop  offset="1" style="stop-color:#7DFE7A"/>
	</linearGradient>
	<path class="st7" d="M810.9,891.9c-0.3-0.1-0.3-0.2-0.6-0.3C806.7,890.7,808.7,891.3,810.9,891.9z"/>
	
		<linearGradient id="SVGID_8_" gradientUnits="userSpaceOnUse" x1="1919.9471" y1="237.8808" x2="1936.5625" y2="926.2325" gradientTransform="matrix(1 0 0 -1 0 1260)">
		<stop  offset="0" style="stop-color:#232323"/>
		<stop  offset="0.2378" style="stop-color:#242624"/>
		<stop  offset="0.3808" style="stop-color:#272E27"/>
		<stop  offset="0.4988" style="stop-color:#2D3C2D"/>
		<stop  offset="0.6031" style="stop-color:#365135"/>
		<stop  offset="0.6984" style="stop-color:#416B40"/>
		<stop  offset="0.7873" style="stop-color:#4E8B4C"/>
		<stop  offset="0.8711" style="stop-color:#5EB25C"/>
		<stop  offset="0.9487" style="stop-color:#6FDD6D"/>
		<stop  offset="1" style="stop-color:#7DFE7A"/>
	</linearGradient>
	<path class="st8" d="M1930.9,694.8c-2.5,14.8-3.2-24.1-6-1.8C1926,690.9,1929.2,713.3,1930.9,694.8z"/>
	
		<linearGradient id="SVGID_9_" gradientUnits="userSpaceOnUse" x1="1129.1288" y1="256.9695" x2="1145.7441" y2="945.3212" gradientTransform="matrix(1 0 0 -1 0 1260)">
		<stop  offset="0" style="stop-color:#232323"/>
		<stop  offset="0.2378" style="stop-color:#242624"/>
		<stop  offset="0.3808" style="stop-color:#272E27"/>
		<stop  offset="0.4988" style="stop-color:#2D3C2D"/>
		<stop  offset="0.6031" style="stop-color:#365135"/>
		<stop  offset="0.6984" style="stop-color:#416B40"/>
		<stop  offset="0.7873" style="stop-color:#4E8B4C"/>
		<stop  offset="0.8711" style="stop-color:#5EB25C"/>
		<stop  offset="0.9487" style="stop-color:#6FDD6D"/>
		<stop  offset="1" style="stop-color:#7DFE7A"/>
	</linearGradient>
	<path class="st9" d="M1131.6,970.6c-0.6-0.5-1.9-1.1-3.2-1.6C1128.4,969.3,1129.1,969.8,1131.6,970.6z"/>
	
		<linearGradient id="SVGID_10_" gradientUnits="userSpaceOnUse" x1="892.2736" y1="262.6867" x2="908.8889" y2="951.0384" gradientTransform="matrix(1 0 0 -1 0 1260)">
		<stop  offset="0" style="stop-color:#232323"/>
		<stop  offset="0.2378" style="stop-color:#242624"/>
		<stop  offset="0.3808" style="stop-color:#272E27"/>
		<stop  offset="0.4988" style="stop-color:#2D3C2D"/>
		<stop  offset="0.6031" style="stop-color:#365135"/>
		<stop  offset="0.6984" style="stop-color:#416B40"/>
		<stop  offset="0.7873" style="stop-color:#4E8B4C"/>
		<stop  offset="0.8711" style="stop-color:#5EB25C"/>
		<stop  offset="0.9487" style="stop-color:#6FDD6D"/>
		<stop  offset="1" style="stop-color:#7DFE7A"/>
	</linearGradient>
	<path class="st10" d="M891.4,914.8l5.6,2.4C894.8,916.2,893,915.5,891.4,914.8z"/>
	
		<linearGradient id="SVGID_11_" gradientUnits="userSpaceOnUse" x1="1259.9719" y1="253.8112" x2="1276.5873" y2="942.1629" gradientTransform="matrix(1 0 0 -1 0 1260)">
		<stop  offset="0" style="stop-color:#232323"/>
		<stop  offset="0.2378" style="stop-color:#242624"/>
		<stop  offset="0.3808" style="stop-color:#272E27"/>
		<stop  offset="0.4988" style="stop-color:#2D3C2D"/>
		<stop  offset="0.6031" style="stop-color:#365135"/>
		<stop  offset="0.6984" style="stop-color:#416B40"/>
		<stop  offset="0.7873" style="stop-color:#4E8B4C"/>
		<stop  offset="0.8711" style="stop-color:#5EB25C"/>
		<stop  offset="0.9487" style="stop-color:#6FDD6D"/>
		<stop  offset="1" style="stop-color:#7DFE7A"/>
	</linearGradient>
	<path class="st11" d="M1262.1,973.9c-0.8-0.1-1.6-0.2-2.7-0.3C1260.4,973.8,1261.3,973.8,1262.1,973.9z"/>
	
		<linearGradient id="SVGID_12_" gradientUnits="userSpaceOnUse" x1="1264.4431" y1="253.7033" x2="1281.0585" y2="942.055" gradientTransform="matrix(1 0 0 -1 0 1260)">
		<stop  offset="0" style="stop-color:#232323"/>
		<stop  offset="0.2378" style="stop-color:#242624"/>
		<stop  offset="0.3808" style="stop-color:#272E27"/>
		<stop  offset="0.4988" style="stop-color:#2D3C2D"/>
		<stop  offset="0.6031" style="stop-color:#365135"/>
		<stop  offset="0.6984" style="stop-color:#416B40"/>
		<stop  offset="0.7873" style="stop-color:#4E8B4C"/>
		<stop  offset="0.8711" style="stop-color:#5EB25C"/>
		<stop  offset="0.9487" style="stop-color:#6FDD6D"/>
		<stop  offset="1" style="stop-color:#7DFE7A"/>
	</linearGradient>
	<path class="st12" d="M1262.1,973.9c1.7,0.2,3.2,0.3,6.3,0c-0.4-0.2-0.8-0.3-1.4-0.3C1265.8,973.8,1264.3,974,1262.1,973.9z"/>
	
		<linearGradient id="SVGID_13_" gradientUnits="userSpaceOnUse" x1="1387.8628" y1="250.7242" x2="1404.4781" y2="939.0759" gradientTransform="matrix(1 0 0 -1 0 1260)">
		<stop  offset="0" style="stop-color:#232323"/>
		<stop  offset="0.2378" style="stop-color:#242624"/>
		<stop  offset="0.3808" style="stop-color:#272E27"/>
		<stop  offset="0.4988" style="stop-color:#2D3C2D"/>
		<stop  offset="0.6031" style="stop-color:#365135"/>
		<stop  offset="0.6984" style="stop-color:#416B40"/>
		<stop  offset="0.7873" style="stop-color:#4E8B4C"/>
		<stop  offset="0.8711" style="stop-color:#5EB25C"/>
		<stop  offset="0.9487" style="stop-color:#6FDD6D"/>
		<stop  offset="1" style="stop-color:#7DFE7A"/>
	</linearGradient>
	<path class="st13" d="M1392.1,970.9c-0.7-0.2-1.7-0.3-2.5-0.4c-1.3,0.1-2.8,0.2-4.2,0.3C1387.7,970.9,1389.9,970.9,1392.1,970.9z"
		/>
	
		<linearGradient id="SVGID_14_" gradientUnits="userSpaceOnUse" x1="940.8051" y1="875.4421" x2="951.546" y2="1320.4237" gradientTransform="matrix(1 0 0 -1 0 1260)">
		<stop  offset="0" style="stop-color:#232323"/>
		<stop  offset="0.2378" style="stop-color:#242624"/>
		<stop  offset="0.3808" style="stop-color:#272E27"/>
		<stop  offset="0.4988" style="stop-color:#2D3C2D"/>
		<stop  offset="0.6031" style="stop-color:#365135"/>
		<stop  offset="0.6984" style="stop-color:#416B40"/>
		<stop  offset="0.7873" style="stop-color:#4E8B4C"/>
		<stop  offset="0.8711" style="stop-color:#5EB25C"/>
		<stop  offset="0.9487" style="stop-color:#6FDD6D"/>
		<stop  offset="1" style="stop-color:#7DFE7A"/>
	</linearGradient>
	<path class="st14" d="M946.1,162C946.1,162,946.1,162,946.1,162C946.3,162.1,946.3,162.1,946.1,162z"/>
	
		<linearGradient id="SVGID_15_" gradientUnits="userSpaceOnUse" x1="1054.512" y1="258.7706" x2="1071.1273" y2="947.1223" gradientTransform="matrix(1 0 0 -1 0 1260)">
		<stop  offset="0" style="stop-color:#232323"/>
		<stop  offset="0.2378" style="stop-color:#242624"/>
		<stop  offset="0.3808" style="stop-color:#272E27"/>
		<stop  offset="0.4988" style="stop-color:#2D3C2D"/>
		<stop  offset="0.6031" style="stop-color:#365135"/>
		<stop  offset="0.6984" style="stop-color:#416B40"/>
		<stop  offset="0.7873" style="stop-color:#4E8B4C"/>
		<stop  offset="0.8711" style="stop-color:#5EB25C"/>
		<stop  offset="0.9487" style="stop-color:#6FDD6D"/>
		<stop  offset="1" style="stop-color:#7DFE7A"/>
	</linearGradient>
	<path class="st15" d="M1073.3,191.2c0.5,0.1,0.9,0.3,1.5,0.4C1074.3,191.4,1073.8,191.3,1073.3,191.2z"/>
	
		<linearGradient id="SVGID_16_" gradientUnits="userSpaceOnUse" x1="808.0829" y1="264.7189" x2="824.6982" y2="953.0706" gradientTransform="matrix(1 0 0 -1 0 1260)">
		<stop  offset="0" style="stop-color:#232323"/>
		<stop  offset="0.2378" style="stop-color:#242624"/>
		<stop  offset="0.3808" style="stop-color:#272E27"/>
		<stop  offset="0.4988" style="stop-color:#2D3C2D"/>
		<stop  offset="0.6031" style="stop-color:#365135"/>
		<stop  offset="0.6984" style="stop-color:#416B40"/>
		<stop  offset="0.7873" style="stop-color:#4E8B4C"/>
		<stop  offset="0.8711" style="stop-color:#5EB25C"/>
		<stop  offset="0.9487" style="stop-color:#6FDD6D"/>
		<stop  offset="1" style="stop-color:#7DFE7A"/>
	</linearGradient>
	<path class="st16" d="M828.8,131.8c0,0,0.1,0.1,0.3,0.1C829,131.9,828.9,131.8,828.8,131.8z"/>
	
		<linearGradient id="SVGID_17_" gradientUnits="userSpaceOnUse" x1="901.0525" y1="262.4748" x2="917.6678" y2="950.8265" gradientTransform="matrix(1 0 0 -1 0 1260)">
		<stop  offset="0" style="stop-color:#232323"/>
		<stop  offset="0.2378" style="stop-color:#242624"/>
		<stop  offset="0.3808" style="stop-color:#272E27"/>
		<stop  offset="0.4988" style="stop-color:#2D3C2D"/>
		<stop  offset="0.6031" style="stop-color:#365135"/>
		<stop  offset="0.6984" style="stop-color:#416B40"/>
		<stop  offset="0.7873" style="stop-color:#4E8B4C"/>
		<stop  offset="0.8711" style="stop-color:#5EB25C"/>
		<stop  offset="0.9487" style="stop-color:#6FDD6D"/>
		<stop  offset="1" style="stop-color:#7DFE7A"/>
	</linearGradient>
	<path class="st17" d="M903.8,917.3c-0.5-0.2-1.1-0.3-1.6-0.4C902.8,917,903.3,917.1,903.8,917.3z"/>
	
		<linearGradient id="SVGID_18_" gradientUnits="userSpaceOnUse" x1="1281.302" y1="253.2964" x2="1297.9174" y2="941.648" gradientTransform="matrix(1 0 0 -1 0 1260)">
		<stop  offset="0" style="stop-color:#232323"/>
		<stop  offset="0.2378" style="stop-color:#242624"/>
		<stop  offset="0.3808" style="stop-color:#272E27"/>
		<stop  offset="0.4988" style="stop-color:#2D3C2D"/>
		<stop  offset="0.6031" style="stop-color:#365135"/>
		<stop  offset="0.6984" style="stop-color:#416B40"/>
		<stop  offset="0.7873" style="stop-color:#4E8B4C"/>
		<stop  offset="0.8711" style="stop-color:#5EB25C"/>
		<stop  offset="0.9487" style="stop-color:#6FDD6D"/>
		<stop  offset="1" style="stop-color:#7DFE7A"/>
	</linearGradient>
	<path class="st18" d="M1282,971.9c0,0,0.2-0.1,0.3-0.2C1282.1,971.7,1282,971.8,1282,971.9z"/>
	
		<linearGradient id="SVGID_19_" gradientUnits="userSpaceOnUse" x1="951.0148" y1="261.2688" x2="967.6301" y2="949.6205" gradientTransform="matrix(1 0 0 -1 0 1260)">
		<stop  offset="0" style="stop-color:#232323"/>
		<stop  offset="0.2378" style="stop-color:#242624"/>
		<stop  offset="0.3808" style="stop-color:#272E27"/>
		<stop  offset="0.4988" style="stop-color:#2D3C2D"/>
		<stop  offset="0.6031" style="stop-color:#365135"/>
		<stop  offset="0.6984" style="stop-color:#416B40"/>
		<stop  offset="0.7873" style="stop-color:#4E8B4C"/>
		<stop  offset="0.8711" style="stop-color:#5EB25C"/>
		<stop  offset="0.9487" style="stop-color:#6FDD6D"/>
		<stop  offset="1" style="stop-color:#7DFE7A"/>
	</linearGradient>
	<path class="st19" d="M1933.1,623.4l-2.8,18.7c-3.3-32.5,5.1-28.1,1.9-60.9l1.9,10.4c-1.1-16.8,0-62-4.9-78.5
		c0.7-3,2.4-6.9,2.8,0.5c0.7-40.2-5.2-89.5-2.2-120.7l1.5,3c-0.4-7.5-2.8-13.1-1.3-22.5c0.6,0.5,1.5,3,1.6-0.5
		c-0.5-4-2.6-19.9-1.8-29.9l1.7,8.5c2-39.2-4.1-60.2-5.1-93.1c1.9,0,3.2-5.4,4.2-12.9c0.1-0.9,0.2-1.9,0.3-2.9
		c0.1-0.5,0.1-1,0.2-1.5l0-0.2l0-0.3l0-0.7c0-0.4,0.1-0.9,0.1-1.4c0.2-3.6,0.4-7.4,0.5-11.4c0.2-4,0.3-7.9,0.4-11.9
		c0.1-2,0.1-4,0.2-5.9c0-1,0.1-1.9,0.1-2.9c0-0.5,0-1,0-1.4s0-1,0-1.4c-5.5,1.2-10.5,2.3-14.8,3.3l1.3-1c-5.4,1.4-10.6,2.4-15.7,3.6
		c-1.3,0.3-2.6,0.6-3.8,0.9l-1.9,0.4l-1.3,0.3c-1.3,0.3-2.6,0.5-3.9,0.8c-5.1,1.1-10.1,2.1-14.9,3.2c-9.7,2.1-19,4.1-28.2,6.1
		c-18.4,4-36.4,7.9-57.3,11c-3.3-0.2-7.2-0.3-11.4-0.2c-4.3,0-9,0.2-14.1,0.4c-10.1,0.6-21.7,1.2-33.7,2.1c-1.5,0.1-3,0.2-4.5,0.3
		c-1.5,0.1-3,0.2-4.6,0.3c-3.1,0.2-6.1,0.3-9.2,0.5c-6.1,0.3-12.3,0.7-18.4,0.9c-6.1,0.2-12,0.4-17.8,0.4
		c-5.8,0.1-11.3,0.1-16.6-0.1c6.4,0.6-0.9,3.5-8.4,4.1c-4.9-0.3-11.7,0.7-17.1,1.2c-5.4,0.5-9.3,0.5-8.6-1.5l3.5,0
		c-3.8-1.9-10.7-2.5-18.6-2.7c-4-0.1-8.2,0-12.4,0.1c-4.2,0-8.4,0.1-12.4,0l-2.6,5.3c-10.3-1.9-22.3-2.6-34.7-3.2
		c-12.4-0.4-25.4-0.2-37.8-0.3c-6.2,0-12.2-0.1-18-0.1c-5.8-0.1-11.2-0.1-16.3-0.5c-10.1-0.6-18.5-1.7-24-3.7
		c-2.5,0.2-5.2,0.3-7.9,0.4c-1.4,0-2.7,0-4.1,0.1c-1.4,0-2.8,0-4.2,0c-5.6-0.1-11.2-0.1-16.1,0.2l0.7-2.8
		c-13.8-1.3-24.1-2.2-35.2-3.4c-5.6-0.5-11.3-1-17.8-1.6c-3.3-0.3-6.7-0.5-10.4-0.8c-1.8-0.1-3.8-0.3-5.7-0.4c-2-0.2-4-0.4-6.2-0.5
		c2.4-0.4,4.8-0.8,7.1-1.3c-19.1-2.2-25,5.6-42.8,3.9l-4.8-4.8c-16.7-2-33.4-5-50.1-7.6c-16.7-2.8-33.3-5.2-50-5.6
		c0.6-0.5,1.8-1.6,7.2-1c-2-0.3-4.4-0.7-7.1-1.2c-2.7-0.5-5.7-1.1-8.8-1.7c-6.3-1.2-13.2-2.5-19.4-3.5c-11.6-1.9-20.9-2.7-20.3-0.2
		c-0.7-0.7-2.6-1.3-5.2-1.9c-3.5-0.8-8.3-1.6-13.7-2.3c-10.8-1.4-24-2.5-33.1-3.3l3.3-2.2c-3.9,0.2-6.9,0.4-9.6,0.5
		c-2.6,0.1-4.8,0.1-7.2,0.1c-4.8-0.1-10.3-0.7-20.9-2.4c-4.5-1.3-4-2.8,1.1-1.4c-7.1-2-10.3-2-13.9-2.1c-1.9-0.1-3.9-0.1-6.7-0.5
		c-2.8-0.4-6.3-1.1-11.3-2.6c2.6,0,5.2-0.1,7.9-0.1c-4.3-0.9-7.4-1.6-9.8-2c-2.4-0.4-4.2-0.7-5.7-0.8c-3.1-0.2-5.2,0.1-10.1,0.1
		c-11-1.3-32.2-7.8-34.1-10.9c-2.6,0.9-12.4,0.7-22.2-2.4c-1.1-1.3,2.7-0.9,4.5-0.8c-14-4.3-24.7-6.1-34.3-7.7
		c-2.4-0.4-4.7-0.8-7-1.2c-2.3-0.5-4.5-0.9-6.8-1.5c-4.5-1.1-8.9-2.5-13.6-4.4c-0.2-1-1.3-1.8-2.9-2.5c5.6,1.5,10.9,2.9,15.7,4.2
		s9.1,2.5,12.7,3.3c5.9,1.5,9.7,2.5,10.3,2.7c0.3-2.5-17.3-7.3-2.1-7.2c-3.8-0.4-8.2-0.8-13-1.4c-4.8-0.6-10-1.3-15.2-2
		c-10.5-1.6-21.3-3.6-30-6.5c-0.8-0.5-1.6-0.9-2.1-1.5l1.9,0.2c-4-1.3-7.7-2-11.3-2.5c-5.5-1.9-9-3.1-14.5-4.6
		c-1.5-2.6-20.6-6.6-29.6-9.1c0,2.9-11.5-0.6-1.5,4.4c-0.3-0.3,2.8,0.4,8.1,1.7c1.4,0.3,3,0.7,3.9,0.7c-0.2,0-0.4,0.1-0.7,0.1
		c6,1.5,13.7,3.5,22.6,5.8c-7.5-0.5-15.3-1.3-24.9-5.5c-5.1,0.5-10.7,1-13.8,1.1c-2.8-1.8-6.5-3.6-10.3-5.4c-3.8-1.8-8-3.5-11.8-5.1
		c-7.7-3.2-14.2-6-15.6-7.6c-28.1-5.6-66-14.3-84.6-13.2c-8.1-1-8.8-3.4-11.7-4.8c4.7,0.4,10.2,1.6,12.8,1.4
		c-16.2-2-47.4-9.2-51.9-6.4c-19.8-5.4,12-1.2-15.8-5.8l4-0.4c-13.4-4-25.7-6.4-37.6-8.2c-11.9-1.5-23.5-2.3-35.1-3.1
		c-5.8-0.4-11.7-0.9-17.7-1.4c-6-0.4-12.1-1-18.5-1.8c-6.3-0.8-12.9-1.8-19.7-3.1c-3.4-0.7-6.9-1.3-10.5-2.1c-2.5-0.5-5-1.1-7.6-1.7
		c2,0.5,3.1,0.9,3.7,1.4c-8.6-1.5-17.4-2.8-26.2-4.1c-2.2-0.3-4.4-0.6-6.6-0.9c-2.2-0.3-4.4-0.5-6.6-0.7c-4.4-0.5-8.9-0.9-13.3-1.4
		c-4.5-0.4-8.9-0.9-13.4-1.3l-6.7-0.6l-6.7-0.5c-9-0.6-18-1.2-27-1.8c-2.3-0.1-4.5-0.3-6.7-0.4l-6.7-0.3c-4.5-0.2-9-0.4-13.5-0.7
		c-4.5-0.3-9-0.5-13.4-0.8s-8.9-0.4-13.4-0.6c-4.5-0.2-8.9-0.4-13.3-0.7c-2.2-0.1-4.4-0.3-6.6-0.4l-3.3-0.2l-3.3-0.2
		c-8.8-0.5-17.5-1-26.2-1.8c-2.5-0.2-4.6-0.3-6.6-0.3c-2,0-3.7,0-5.3,0.1c-3.2,0.1-5.6,0.4-7.9,0.8c-4.5,0.7-8,1.8-14,2.8l-4.3-2.9
		l-20.4,4.2c-3.6,0.4-7.1,0.8-10.6,1c-3.4,0.2-6.8,0.2-10.1,0.2c-3.3,0-6.7-0.2-10-0.4c-3.3-0.1-6.7-0.2-10.1-0.3
		c-3.4-0.1-6.9-0.2-10.5-0.2c-1.8,0-3.6,0-5.5,0.1c-1.9,0.1-3.7,0.2-5.6,0.4c-3.8,0.3-7.8,0.8-11.9,1.4c-2.1,0.3-4.2,0.7-6.3,1.2
		c-2.2,0.5-4.4,1-6.6,1.6l5,1.4c-3.3,0.3-7.5,1-12,1.6c-2.2,0.3-4.5,0.7-6.8,1s-4.5,0.8-6.6,1.2c-4.2,0.7-8,1.3-10.6,1.5
		c-2.6,0.2-4,0.2-3.6-0.5c-1.3,0.6-3.9,2.9-9.2,2.8l-0.7-1.5c-2.6,0.8-5.3,1.4-7.9,2.2l-7.8,2.4c-2.6,0.8-5.2,1.6-7.8,2.4l-7.8,2.6
		c-6.2,1.2-9.1,1.6-10.7,1.3c-1.5-0.3-1.6-1-2-1.7c-0.4-0.6-1.2-1.2-4.1-0.9c-1.5,0.1-3.5,0.5-6.2,1.1c-1.4,0.3-2.9,0.7-4.7,1.2
		C33,79.2,32,79.5,31,79.8c-1,0.3-2.1,0.7-3.2,1c-6.6,2.4-15.6,7-22.1,11.1c-1.6,1-3.1,2-4.4,2.9c-1.3,0.9-2.3,1.7-3.1,2.4
		c-0.7,0.7-1.3,1.3-1.4,1.5C-3.2,99-3,99.1-2.3,98.9c5.3-2.7,13.6-5,14.6-3.7C10.4,96.1,8.5,97,6.6,98c-1.9,0.9-3.7,2-5.5,3
		c0,0.3,0,0.7-0.1,1c-1.2,0.6-1.8,0.9-1.8,0.9v147.3l-0.8-1.5l0.8,4.4v19.1c-0.6-0.6-1.1-2.4-1.4-6.2c-2.1,13.8,1.5,12.2-0.8,24.1
		c-0.4,1.3-0.6,0.7-0.7-0.5l1.2,13.5c-0.9-2.6-2.9,2.3-2.3-6c-2.4,24.3,3.1,39.1,0,48.2l-0.3-2c1,25.2,2.2,14.5,4.3,18.1v15.7
		l-5.2,11.6l3,3.3c-0.1,3.5-0.3,10.3-1.6,9.1c2.1,12.9,1.3-2.2,3.3,5.3c-2.8,16.7,1.3,46.1-3.6,49.8c2.3,6,1.8-16,3.4,1.9
		c-5.2,5.1,0.9,20.6-1.5,35.9c-2.7-4.7-1.3-19.1-3.7-3.9c4.6,9.2-1,29.7-0.1,42.6c3.6,0.6,1.5,28,2.7,49.6c-1.2-1.4-2,40.7-3.3,60.8
		l-0.6-0.6c3.7,3.9,3,24.6,3.7,39.7c-2.2-0.6-3.1-3.3-4.1-11.5l0,14.2c1.2,3.3,1.8,7.8,2.2,17l-2.7-3.6c0,2.7,0.1,5.3,0.2,8
		c0.1,1.3,0.1,2.7,0.2,4.1c0.1,1.9,0.2,3.9,0.2,5.8c0.2,3.8,0.3,7.7,0.5,11.7c0.1,1.9,0.2,3.8,0.3,5.8c0,1,0.1,1.9,0.1,2.9
		c0.1,0.9-0.1,2.2,0.6,2.3c1.6-0.5,3.2-1,4.7-1.5c1.6-0.5,3.2-1,4.8-1.4c3.3-1,6.5-1.7,9.8-2.5c1.6-0.3,3.3-0.6,4.9-0.8
		c0.7-0.1,1.4-0.2,2.1-0.3c0.6-0.1,1.2-0.1,1.8-0.2c2.5-0.2,4.9-0.4,7.5-0.5c0.3-0.7-0.8-1.3-2.2-2c-1.4-0.7-3.1-1.3-4.1-2
		c-0.7-0.5-1-1.1-0.6-1.7c4.1-0.5,8.5-1,13.1-1.3c-0.3,0.8-1.4,1.5-3.8,2.1c1.1-0.2,2.4-0.5,3.9-0.8c2.2-0.4,4.7-0.7,6.9-0.5
		c-1.7,0.5-3.3,1-5,1.5c-1.7,0.5-3.3,1-5,1.6c11,0.2,5.6-2.4,14.4-2.7c-0.1,2,6.6,1.2,5.4,2.8c-1.1,0.1-3,0-5.1,0
		c-2,0-4.2,0-5.9,0.5c9.9-0.3,21.8,0.7,25.7,2.2c-0.9-1.1,0-2.7,7.2-2.9c9.4,0,11,0.7,11.6,1.4c0.6,0.8,0.2,1.6,5.7,2.3
		c2.3-0.6,6.4-0.5,10-0.5c3.6,0,6.7-0.3,6.9-1.7c5.5,0.3,6.4,1.7,8.5,2.7c4.9-0.4,16.2,0.3,25,0.6c8.8,0.4,15,0.4,9.7-1.7l-2.5-0.4
		c0.5,0,1,0,1.6,0c0,0,0,0,0,0h0c16.1-0.1,32.6,2,48.9,4.6s32.7,5.6,48.5,7.2l-0.2,1c18.9,1.5,41.8,5.6,55.5,5.8
		c5.5,0.9,12.7,4,10.2,4.7c14.4,1.8,16.2,0.9,36.5,6.3c-14.6-1,4.7,2.4-14.9-1.4c18.4,4.2,22.2,6.5,42.6,7.7
		c-7.2,1.2,13.3,5.8,22.2,6.9l-12.6-4.4c5,0.8,9.6,1.7,14.1,2.7s8.8,2,13.1,3l-5.4,2.3c18.4,5.9,35.7,7.9,51.8,10.1
		c16.1,2.2,31,4.6,44.5,11.3c10.5,0.1-20-6.4-10.5-7c17.1,4.5,33.9,13.6,39.3,14.9c23,7.7,23.1,0.8,47.4,8.5c-2.8-2-5-5.8,13.7-2
		c17,5.1,19.7,10.5,8.7,8.5c-4.1-1-6-1.9-5.7-2.3c-5.6-1.1-13-2.5-6.6,0.5l2.5-0.5c4.1,1.7,12,4.2,18.2,6.2
		c6.1,2.1,10.5,3.8,7.5,3.9c11.5,2.2,7.5,0.3,0.1-2.4c19.4,6.7,31.9,8.9,52.8,16.1c-3.4-1.7-6.3-4-2.7-2.9c16.2,5.6,20,6.1,22.5,6.1
		c2.5-0.1,3.8-0.8,15,2.3c12.1,5.6-5.8,2.7,17,8.2c13.3,5.5,1.9,3.9-3.8,3.1c21,4.2,37.4,13.5,48.8,17.7l-10.9-2.6
		c6.5,1.6,11.8,3.3,17,5l-5.3-4.3c6.1,2.4,11.4,4.2,11,5.1c6.9,0.7-3.7-5.4,9.8-3.1c7.9,3.9,25.8,7.4,27.6,11.4
		c-23.2-9-3.2,1.4-15.1-1.6c3.1,1,6.5,2.3,10.3,3.9c0.8,0.7-1.1,0.3-2.8-0.1c24,11.4,12.6,0.6,38.4,9.9c-3.9,0.5,4.8,5.3,9.1,6.5
		c-10.3-3.8-4-4.6,6-2.4c16,7.3,18.2,5.7,26.9,9c-3.3-1.4-6.5-2.8-9.7-4.3c2-0.2,5,0.5,9,1.7c4,1.2,9.1,2.9,15,4.8
		c0.2,0.5-0.7,0.4-2,0.2c0.1,0,0.2,0,0.3,0.1c1.8,0.5,3.5,1.1,5.3,1.8c3.6,1.3,7.3,3,11.2,4.8c1.9,0.9,3.9,1.8,5.9,2.7
		s4.1,1.7,6.3,2.4c4.3,1.5,8.8,2.9,13.5,3.7c8.3,3.5-0.1,3.4,7.3,6.3c10.7,1.8,16.2,3.7,21.9,5.8c2.8,1,5.7,2.1,9.3,3.1
		c3.6,1,7.9,1.8,13.5,2.6c-5.9-3.8-7.1-3.4,9-2.3c-12.2-2.1-24.4-4.2-36.6-6.8l12,1.2c4,0.4,8,0.6,12,1c-2.7-0.6-5.5-1.2-8.4-1.7
		c-2.8-0.5-5.6-1-8.2-1.5c-5.3-1-10-1.9-13.2-2.9c11.5,0.9,10.2,1.1,5.5-2.1c7,3.5,14.5,5,22.3,6c3.9,0.5,7.9,1.1,12,1.8
		c4.1,0.7,8.2,1.6,12.4,3.1l-1.7,5.7c3.2,1,6.3,1.8,9.5,2.6c3.1,0.7,6.2,1.2,9.3,1.7c6.2,1,12.3,1.7,18.7,2.2
		c6.4,0.5,13.1,1.2,20.3,1.9c7.2,0.7,14.9,1.8,23.4,3.2c-3.6-0.8-7.3-1.5-10.9-2.4c2.4-0.8,7.8-0.3,13.8,0.6c3,0.4,6.3,0.9,9.5,1.3
		c3.2,0.4,6.3,0.7,9.1,0.7c-1.3,1.8,5.6,3.3,10.3,5c-0.2-0.7,6.1-0.1,12.9,0.2c3.4,0.2,6.9,0.3,9.8,0.1c2.9-0.2,5.1-0.7,6-1.6
		l15.2,3.8c6.9,0.7,12.4,0.8,17.2,0.7c4.7-0.2,8.7-0.7,12.6-1.2c3.9-0.5,7.8-1.1,12.4-1.4c4.6-0.3,9.8-0.5,16.5,0
		c-8.1,1.9,4,3.7-14,4.6c8.9,0.3,17,1,17.2-0.4c2.6,0.7,8.8,0.2,15.4-0.3c3.3-0.2,6.7-0.4,9.7-0.5c3.1,0,5.8,0.1,7.9,0.6
		c3.8-0.8,5-2.9,15-2.7c0.7,0.2,0.5,0.5,0.3,0.7c2.2-0.8,14.6-1.3,6.6-3.3c6.9,1.5,15.1,2.3,24,2.4c4.4,0.1,9,0.1,13.7,0
		c4.7-0.1,9.4-0.3,14.1-0.5c4.7-0.2,9.3-0.4,13.9-0.6c4.5-0.2,8.9-0.3,13.2-0.4c8.4-0.2,16,0.1,22,1.1c19.4-1.7,42.8-3.8,60.4-5.4
		c-1.1,0.7,0,1-3.3,1c12.2,0,15.8-1.8,19.9-3.5c4-1.7,8.5-3.5,22.3-3.7c14.4,1.9-14.5,3.1-5.6,3.5c4.4,6.2,33.2-4.1,52.2-2.4
		l-4.4,0.9c14.4,0.6,34.3-6.4,57.5-9c0,0-1.1,0.7,0,1c15.4-5.3,45.1-10.6,67-15c-6.5,3.6-9.8,2.9-5.3,4.8c9.9-1.9-3.5-3.6,16.1-7.5
		c6.7,0.3,21.1-0.8,23.4,1.6c-6.2,1.1-12.4,2.2-18.6,3.2c10.2,2,24.2-4.1,34.1-5.2l-1,1.8c14.3-2.7,21.3-5.1,28.6-7.5
		c7.3-2.4,14.9-4.7,30.2-7.5l-3.4-0.5c15.9-7.1,14.4-0.6,30.5-6.7l5.8,2.8c10.8-3.2,37.7-11.8,57.2-17
		c-10.5,5.4-33.2,11.9-47.1,16.5c10.9-2.2,37-8.2,42.2-11.4c-4.3,1.3-9.6,3.5-14.1,3.9c12.7-6,29.9-11.4,51.4-16.5
		c-0.5,2.1,2.8,2.4,8.3,1.7c2.7-0.3,6-1,9.7-1.7c0.9-0.2,1.8-0.4,2.8-0.6c1-0.2,2-0.5,3.1-0.7c2.9-0.7,5.9-1.4,8.9-2.2
		c1.5-0.4,3.1-0.8,4.6-1.2c0.8-0.2,1.6-0.4,2.3-0.6l1.2-0.3l0.3-0.1l0.2,0c0.1,0,0.1,0,0.1-0.1l0-0.6c0.1-3.2,0.1-6.4,0.2-9.6
		c0-1.6,0.1-3.2,0.1-4.8c0-0.8,0-1.6,0-2.4c0-0.7,0-1.3,0.1-1.9c0.1-2.1,0.2-4.2,0.3-6.2c0.4-8,1.2-14.8,2.7-18.8
		c-2.8-39.2,1.2-77.7,0.8-123.3c-6,16.2-0.2-13.3-6.3-10.5c-0.4-10.5-0.3-14.6,0.1-15.6l-0.3,2.2c0.1-1,0.2-1.5,0.3-2.3h0l3.7-32.2
		c1.8-7.6,1.3,10.1,2.7,9.1c0.5-23.3,2.6-9.8,4.2-25.2C1933.2,647.9,1932.3,636.7,1933.1,623.4z M846.8,133.4
		c-0.2,0.1-0.6,0.1-0.8,0.1c0.7-0.4,1.5-0.7,2.7-0.7c6.1,1.2,8,2.3,8.7,3C854.5,135.1,851.2,134.3,846.8,133.4z M-1.2,295.5
		c0.1-0.8,0.3-1.5,0.4-1.9v8.1C-0.9,299.8-1.1,297.8-1.2,295.5z"/>
	
		<linearGradient id="SVGID_20_" gradientUnits="userSpaceOnUse" x1="24.5337" y1="283.6322" x2="41.1491" y2="971.9838" gradientTransform="matrix(1 0 0 -1 0 1260)">
		<stop  offset="0" style="stop-color:#232323"/>
		<stop  offset="0.2378" style="stop-color:#242624"/>
		<stop  offset="0.3808" style="stop-color:#272E27"/>
		<stop  offset="0.4988" style="stop-color:#2D3C2D"/>
		<stop  offset="0.6031" style="stop-color:#365135"/>
		<stop  offset="0.6984" style="stop-color:#416B40"/>
		<stop  offset="0.7873" style="stop-color:#4E8B4C"/>
		<stop  offset="0.8711" style="stop-color:#5EB25C"/>
		<stop  offset="0.9487" style="stop-color:#6FDD6D"/>
		<stop  offset="1" style="stop-color:#7DFE7A"/>
	</linearGradient>
	<path class="st20" d="M30.8,727.1c-0.2,0-0.4,0.1-0.6,0.1C30.4,727.1,30.6,727.1,30.8,727.1z"/>
	
		<linearGradient id="SVGID_21_" gradientUnits="userSpaceOnUse" x1="798.1595" y1="264.9584" x2="814.7751" y2="953.3101" gradientTransform="matrix(1 0 0 -1 0 1260)">
		<stop  offset="0" style="stop-color:#232323"/>
		<stop  offset="0.2378" style="stop-color:#242624"/>
		<stop  offset="0.3808" style="stop-color:#272E27"/>
		<stop  offset="0.4988" style="stop-color:#2D3C2D"/>
		<stop  offset="0.6031" style="stop-color:#365135"/>
		<stop  offset="0.6984" style="stop-color:#416B40"/>
		<stop  offset="0.7873" style="stop-color:#4E8B4C"/>
		<stop  offset="0.8711" style="stop-color:#5EB25C"/>
		<stop  offset="0.9487" style="stop-color:#6FDD6D"/>
		<stop  offset="1" style="stop-color:#7DFE7A"/>
	</linearGradient>
	<path class="st21" d="M803.4,888.1c-1.9-0.6-3.7-1.1-5.3-1.6C800.3,887.3,802.1,887.8,803.4,888.1z"/>
	
		<linearGradient id="SVGID_22_" gradientUnits="userSpaceOnUse" x1="25.175" y1="283.6167" x2="41.7904" y2="971.9683" gradientTransform="matrix(1 0 0 -1 0 1260)">
		<stop  offset="0" style="stop-color:#232323"/>
		<stop  offset="0.2378" style="stop-color:#242624"/>
		<stop  offset="0.3808" style="stop-color:#272E27"/>
		<stop  offset="0.4988" style="stop-color:#2D3C2D"/>
		<stop  offset="0.6031" style="stop-color:#365135"/>
		<stop  offset="0.6984" style="stop-color:#416B40"/>
		<stop  offset="0.7873" style="stop-color:#4E8B4C"/>
		<stop  offset="0.8711" style="stop-color:#5EB25C"/>
		<stop  offset="0.9487" style="stop-color:#6FDD6D"/>
		<stop  offset="1" style="stop-color:#7DFE7A"/>
	</linearGradient>
	<path class="st22" d="M31.5,726.9c-0.3,0.1-0.5,0.1-0.7,0.2C31.1,727,31.3,727,31.5,726.9z"/>
	
		<linearGradient id="SVGID_23_" gradientUnits="userSpaceOnUse" x1="898.129" y1="262.5454" x2="914.7443" y2="950.897" gradientTransform="matrix(1 0 0 -1 0 1260)">
		<stop  offset="0" style="stop-color:#232323"/>
		<stop  offset="0.2378" style="stop-color:#242624"/>
		<stop  offset="0.3808" style="stop-color:#272E27"/>
		<stop  offset="0.4988" style="stop-color:#2D3C2D"/>
		<stop  offset="0.6031" style="stop-color:#365135"/>
		<stop  offset="0.6984" style="stop-color:#416B40"/>
		<stop  offset="0.7873" style="stop-color:#4E8B4C"/>
		<stop  offset="0.8711" style="stop-color:#5EB25C"/>
		<stop  offset="0.9487" style="stop-color:#6FDD6D"/>
		<stop  offset="1" style="stop-color:#7DFE7A"/>
	</linearGradient>
	<path class="st23" d="M898.8,916.2c1.1,0.1,2.3,0.3,3.4,0.6C899.5,916.1,896.5,915,898.8,916.2z"/>
	
		<linearGradient id="SVGID_24_" gradientUnits="userSpaceOnUse" x1="468.5517" y1="272.9145" x2="485.1671" y2="961.2661" gradientTransform="matrix(1 0 0 -1 0 1260)">
		<stop  offset="0" style="stop-color:#232323"/>
		<stop  offset="0.2378" style="stop-color:#242624"/>
		<stop  offset="0.3808" style="stop-color:#272E27"/>
		<stop  offset="0.4988" style="stop-color:#2D3C2D"/>
		<stop  offset="0.6031" style="stop-color:#365135"/>
		<stop  offset="0.6984" style="stop-color:#416B40"/>
		<stop  offset="0.7873" style="stop-color:#4E8B4C"/>
		<stop  offset="0.8711" style="stop-color:#5EB25C"/>
		<stop  offset="0.9487" style="stop-color:#6FDD6D"/>
		<stop  offset="1" style="stop-color:#7DFE7A"/>
	</linearGradient>
	<path class="st24" d="M492.5,67c-0.9-0.2-2-0.5-3.4-0.8C490.2,66.5,491.3,66.8,492.5,67z"/>
	
		<linearGradient id="SVGID_25_" gradientUnits="userSpaceOnUse" x1="816.4778" y1="264.5163" x2="833.0931" y2="952.8679" gradientTransform="matrix(1 0 0 -1 0 1260)">
		<stop  offset="0" style="stop-color:#232323"/>
		<stop  offset="0.2378" style="stop-color:#242624"/>
		<stop  offset="0.3808" style="stop-color:#272E27"/>
		<stop  offset="0.4988" style="stop-color:#2D3C2D"/>
		<stop  offset="0.6031" style="stop-color:#365135"/>
		<stop  offset="0.6984" style="stop-color:#416B40"/>
		<stop  offset="0.7873" style="stop-color:#4E8B4C"/>
		<stop  offset="0.8711" style="stop-color:#5EB25C"/>
		<stop  offset="0.9487" style="stop-color:#6FDD6D"/>
		<stop  offset="1" style="stop-color:#7DFE7A"/>
	</linearGradient>
	<path class="st25" d="M836.9,133.5c-0.9-0.2-1.4-0.2-2.5-0.5c1.2,0.6,2.3,1.1,3.4,1.6c0.8-0.1,1.6-0.2,2.4-0.3
		C839.1,134,837.9,133.8,836.9,133.5z"/>
	
		<linearGradient id="SVGID_26_" gradientUnits="userSpaceOnUse" x1="145.6767" y1="280.708" x2="162.2921" y2="969.0597" gradientTransform="matrix(1 0 0 -1 0 1260)">
		<stop  offset="0" style="stop-color:#232323"/>
		<stop  offset="0.2378" style="stop-color:#242624"/>
		<stop  offset="0.3808" style="stop-color:#272E27"/>
		<stop  offset="0.4988" style="stop-color:#2D3C2D"/>
		<stop  offset="0.6031" style="stop-color:#365135"/>
		<stop  offset="0.6984" style="stop-color:#416B40"/>
		<stop  offset="0.7873" style="stop-color:#4E8B4C"/>
		<stop  offset="0.8711" style="stop-color:#5EB25C"/>
		<stop  offset="0.9487" style="stop-color:#6FDD6D"/>
		<stop  offset="1" style="stop-color:#7DFE7A"/>
	</linearGradient>
	<path class="st26" d="M152.3,731.8c-0.5-0.1-0.9-0.2-1.3-0.4c0.1,0.1,0.2,0.1,0.4,0.2L152.3,731.8z"/>
	
		<linearGradient id="SVGID_27_" gradientUnits="userSpaceOnUse" x1="144.8206" y1="280.7287" x2="161.436" y2="969.0803" gradientTransform="matrix(1 0 0 -1 0 1260)">
		<stop  offset="0" style="stop-color:#232323"/>
		<stop  offset="0.2378" style="stop-color:#242624"/>
		<stop  offset="0.3808" style="stop-color:#272E27"/>
		<stop  offset="0.4988" style="stop-color:#2D3C2D"/>
		<stop  offset="0.6031" style="stop-color:#365135"/>
		<stop  offset="0.6984" style="stop-color:#416B40"/>
		<stop  offset="0.7873" style="stop-color:#4E8B4C"/>
		<stop  offset="0.8711" style="stop-color:#5EB25C"/>
		<stop  offset="0.9487" style="stop-color:#6FDD6D"/>
		<stop  offset="1" style="stop-color:#7DFE7A"/>
	</linearGradient>
	<path class="st27" d="M150.6,731.3c0.1,0.1,0.3,0.1,0.4,0.2C150.9,731.4,150.8,731.3,150.6,731.3z"/>
	
		<linearGradient id="SVGID_28_" gradientUnits="userSpaceOnUse" x1="313.1098" y1="276.6665" x2="329.7252" y2="965.0182" gradientTransform="matrix(1 0 0 -1 0 1260)">
		<stop  offset="0" style="stop-color:#232323"/>
		<stop  offset="0.2378" style="stop-color:#242624"/>
		<stop  offset="0.3808" style="stop-color:#272E27"/>
		<stop  offset="0.4988" style="stop-color:#2D3C2D"/>
		<stop  offset="0.6031" style="stop-color:#365135"/>
		<stop  offset="0.6984" style="stop-color:#416B40"/>
		<stop  offset="0.7873" style="stop-color:#4E8B4C"/>
		<stop  offset="0.8711" style="stop-color:#5EB25C"/>
		<stop  offset="0.9487" style="stop-color:#6FDD6D"/>
		<stop  offset="1" style="stop-color:#7DFE7A"/>
	</linearGradient>
	<path class="st28" d="M318.5,756.6l0.1-0.2C318.6,756.5,318.6,756.5,318.5,756.6z"/>
	
		<linearGradient id="SVGID_29_" gradientUnits="userSpaceOnUse" x1="313.7694" y1="276.6506" x2="330.3849" y2="965.0023" gradientTransform="matrix(1 0 0 -1 0 1260)">
		<stop  offset="0" style="stop-color:#232323"/>
		<stop  offset="0.2378" style="stop-color:#242624"/>
		<stop  offset="0.3808" style="stop-color:#272E27"/>
		<stop  offset="0.4988" style="stop-color:#2D3C2D"/>
		<stop  offset="0.6031" style="stop-color:#365135"/>
		<stop  offset="0.6984" style="stop-color:#416B40"/>
		<stop  offset="0.7873" style="stop-color:#4E8B4C"/>
		<stop  offset="0.8711" style="stop-color:#5EB25C"/>
		<stop  offset="0.9487" style="stop-color:#6FDD6D"/>
		<stop  offset="1" style="stop-color:#7DFE7A"/>
	</linearGradient>
	<path class="st29" d="M318.5,756.6l-1.6,2.1C326.5,760,317.9,757.9,318.5,756.6z"/>
	
		<linearGradient id="SVGID_30_" gradientUnits="userSpaceOnUse" x1="478.1562" y1="272.6827" x2="494.7715" y2="961.0343" gradientTransform="matrix(1 0 0 -1 0 1260)">
		<stop  offset="0" style="stop-color:#232323"/>
		<stop  offset="0.2378" style="stop-color:#242624"/>
		<stop  offset="0.3808" style="stop-color:#272E27"/>
		<stop  offset="0.4988" style="stop-color:#2D3C2D"/>
		<stop  offset="0.6031" style="stop-color:#365135"/>
		<stop  offset="0.6984" style="stop-color:#416B40"/>
		<stop  offset="0.7873" style="stop-color:#4E8B4C"/>
		<stop  offset="0.8711" style="stop-color:#5EB25C"/>
		<stop  offset="0.9487" style="stop-color:#6FDD6D"/>
		<stop  offset="1" style="stop-color:#7DFE7A"/>
	</linearGradient>
	<polygon class="st30" points="474.6,793.5 491,796.4 478.9,794.1 	"/>
	
		<linearGradient id="SVGID_31_" gradientUnits="userSpaceOnUse" x1="1363.6326" y1="251.3091" x2="1380.2479" y2="939.6608" gradientTransform="matrix(1 0 0 -1 0 1260)">
		<stop  offset="0" style="stop-color:#232323"/>
		<stop  offset="0.2378" style="stop-color:#242624"/>
		<stop  offset="0.3808" style="stop-color:#272E27"/>
		<stop  offset="0.4988" style="stop-color:#2D3C2D"/>
		<stop  offset="0.6031" style="stop-color:#365135"/>
		<stop  offset="0.6984" style="stop-color:#416B40"/>
		<stop  offset="0.7873" style="stop-color:#4E8B4C"/>
		<stop  offset="0.8711" style="stop-color:#5EB25C"/>
		<stop  offset="0.9487" style="stop-color:#6FDD6D"/>
		<stop  offset="1" style="stop-color:#7DFE7A"/>
	</linearGradient>
	<path class="st31" d="M1368.7,974.5l-3.2-3C1358.7,972.3,1357.4,975.9,1368.7,974.5z"/>
	
		<linearGradient id="SVGID_32_" gradientUnits="userSpaceOnUse" x1="1768.679" y1="241.5321" x2="1785.2943" y2="929.8838" gradientTransform="matrix(1 0 0 -1 0 1260)">
		<stop  offset="0" style="stop-color:#232323"/>
		<stop  offset="0.2378" style="stop-color:#242624"/>
		<stop  offset="0.3808" style="stop-color:#272E27"/>
		<stop  offset="0.4988" style="stop-color:#2D3C2D"/>
		<stop  offset="0.6031" style="stop-color:#365135"/>
		<stop  offset="0.6984" style="stop-color:#416B40"/>
		<stop  offset="0.7873" style="stop-color:#4E8B4C"/>
		<stop  offset="0.8711" style="stop-color:#5EB25C"/>
		<stop  offset="0.9487" style="stop-color:#6FDD6D"/>
		<stop  offset="1" style="stop-color:#7DFE7A"/>
	</linearGradient>
	<path class="st32" d="M1782,920.7c-8.7,1.5-17.7,2-22,3.3C1764.5,924.7,1775.6,923.6,1782,920.7z"/>
	
		<linearGradient id="SVGID_33_" gradientUnits="userSpaceOnUse" x1="1547.4231" y1="246.8728" x2="1564.0386" y2="935.2244" gradientTransform="matrix(1 0 0 -1 0 1260)">
		<stop  offset="0" style="stop-color:#232323"/>
		<stop  offset="0.2378" style="stop-color:#242624"/>
		<stop  offset="0.3808" style="stop-color:#272E27"/>
		<stop  offset="0.4988" style="stop-color:#2D3C2D"/>
		<stop  offset="0.6031" style="stop-color:#365135"/>
		<stop  offset="0.6984" style="stop-color:#416B40"/>
		<stop  offset="0.7873" style="stop-color:#4E8B4C"/>
		<stop  offset="0.8711" style="stop-color:#5EB25C"/>
		<stop  offset="0.9487" style="stop-color:#6FDD6D"/>
		<stop  offset="1" style="stop-color:#7DFE7A"/>
	</linearGradient>
	<path class="st33" d="M1573.5,238.6c-4.9,0.3-9.9,0.6-14.8,0.8c2.3,0.1,4.6,0.2,7,0.3L1573.5,238.6z"/>
</g>
</svg>
