<?xml version="1.0" encoding="utf-8"?>
<!-- Generator: Adobe Illustrator 24.0.0, SVG Export Plug-In . SVG Version: 6.00 Build 0)  -->
<svg version="1.1" id="Layer_1" xmlns="http://www.w3.org/2000/svg" xmlns:xlink="http://www.w3.org/1999/xlink" x="0px" y="0px"
	 viewBox="0 0 1926 1025" style="enable-background:new 0 0 1926 1025;" xml:space="preserve">
<style type="text/css">
	.st0{fill:#F6F6F6;}
	.st1{fill-rule:evenodd;clip-rule:evenodd;fill:#FF445A;}
</style>
<g>
	<path class="st0" d="M410.6,918.3c-4.1-0.4-5.9-0.1-6.1,0.2C408.3,918.7,411.4,918.8,410.6,918.3z"/>
	<path class="st0" d="M501.3,931c-2-0.3-3.6-0.4-5.4-0.6C497.9,930.9,500,931.2,501.3,931z"/>
	<path class="st0" d="M-3.6,3.5l2,1.6c0.9-0.3,1.8-0.5,2.4-1C-0.6,3.9-2.2,3.7-3.6,3.5z"/>
	<path class="st0" d="M669.5,937.8c-0.3,0-0.4,0-0.8-0.1C664.4,938.3,666.9,938.1,669.5,937.8z"/>
	<path class="st0" d="M1052.6,892.7c-1-0.5-2.6-0.6-4.3-0.7C1048.6,892.3,1049.6,892.6,1052.6,892.7z"/>
	<path class="st0" d="M767.6,926.9l7.2,0.1C771.9,926.8,769.6,926.8,767.6,926.9z"/>
	<path class="st0" d="M1203.6,860.2c-0.5-0.1-1-0.2-1.6-0.2c-1.3,0.5-2.9,1-5.4,1.2C1198.5,861.1,1200.2,861,1203.6,860.2z"/>
	<path class="st0" d="M1196.5,861.1c-0.9,0-1.9,0-3.1,0.1C1194.6,861.3,1195.6,861.2,1196.5,861.1z"/>
	<path class="st0" d="M1345.1,850.6c-0.8-0.3-1.9-0.5-2.8-0.7c-1.5,0.1-3.3,0.2-4.8,0.3L1345.1,850.6z"/>
	<path class="st0" d="M776,924.8c1.2-0.4,2.5-0.7,3.8-1C776.6,924.3,773,924.5,776,924.8z"/>
	<path class="st0" d="M781.8,923.5c-0.6,0.1-1.3,0.2-1.9,0.3C780.6,923.8,781.3,923.7,781.8,923.5z"/>
	<path class="st0" d="M1218.5,855.8c0,0,0.2-0.2,0.3-0.3C1218.6,855.5,1218.5,855.7,1218.5,855.8z"/>
	<path class="st0" d="M910.2,136.9c-0.2,0-0.3,0-0.4,0C909.8,136.9,909.9,136.9,910.2,136.9z"/>
	<path class="st0" d="M1195,81.1c0.6-0.1,1.2-0.1,1.8-0.1C1196.1,81,1195.5,81,1195,81.1z"/>
	<path class="st0" d="M1045.9,109.8C1045.9,109.8,1046,109.8,1045.9,109.8C1046.1,109.8,1046.1,109.8,1045.9,109.8z"/>
	<path class="st0" d="M-19.1,793.8c2.8,13.7,6.4,1.7,7.2,22.4c2.3,0.9,1.6-14.9,4.6-8.1l6.2,28.6l0,0c0.2,0.8,0.3,1.2,0.5,2.1
		l-0.4-2c0.7,0.9,0.9,4.5,0.2,13.9c-10.4-2.5-0.6,23.8-10.7,9.4c-0.3,20.3,1.2,39.1,2.2,57.2c0.5,9.1,0.8,17.9,0.8,26.7
		c0,4.4-0.1,8.8-0.4,13.1c-0.1,2.2-0.3,4.3-0.5,6.5l-0.3,3.3l-0.1,0.4v0.2v0.3l-0.1,1.4l-0.2,2.8c2.4,5.4,3.7,13.6,4.4,23
		c0.4,4.7,0.6,9.8,0.8,14.9c0.1,2.6,0.1,5.1,0.2,7.8c0,1.4,0.1,2.7,0.1,3.9v2v1v0.1c0,0.1,0,0.1,0,0.1l0.1,0.1l0.2,0.2
		c13.6-7.2,26.7-14.2,35.5-19.6c4.4-2.7,7.7-4.9,9.6-6.8c1.9-1.9,2.4-3.4,1.4-4.4c3.3-1.6,6.4-3.1,9.6-4.5c1.7-0.8,2.9-1.3,4.2-1.9
		c1.3-0.6,2.6-1.2,3.9-1.7c5.2-2.1,10.1-3.9,14.9-5.6c9.6-3.3,18.4-5.6,26.6-6.9c-3.9,2.7-10.3,4.1-15.1,5.7
		c3.7-0.2,12.2-3.3,21.3-6.8s18.6-7.6,24.2-10.1c-8.1,2.2-18.4,5.4-28.3,8.5c-10,3-19.6,5.7-26.6,6.7c10.3-4.1,23.1-8.6,34.9-12.4
		c11.8-3.9,22.5-7,28.6-8.9l1.9-6.7c19.6-4,11.8-9.8,32.4-12.4l-2.3,2.7c15.8-6.7,24.6-8.8,33.3-10.7c8.7-1.9,17.1-3.6,32.3-8.8
		l-2.5-1.3c10-4.5,28-5.7,35.7-13.4l-10,3.4l-9.9,3.5c0-2,3.6-4.6,7.9-7.4c4.3-2.7,9.4-5.4,12.4-7.4c10.9-3.2,13.5-2.4,14.8-1.3
		c1.2,1.1,1.2,2.7,6.6,1.1c2.8-4.5,0.2-2-8.9-2.6c12.3-3.5,26.7-7.4,40.4-10.4c13.7-3,26.9-5.1,36.4-5.4c0.9-0.8-0.7-1.2-0.7-1.2
		c12.4-3.8,25-5.4,36.1-6.9c2.8-0.3,5.5-0.7,8.1-1.1c2.6-0.4,5.1-0.7,7.5-1.2c4.7-1,9-2,12.7-3.5l-5.1,0.5c2.4-1.1,5-2.1,7.8-2.9
		c2.8-0.8,5.8-1.5,8.8-2c3-0.5,6.1-0.9,9.2-1.3c3.1-0.4,6.1-0.6,9-0.9c2.8-0.3,5.6-0.6,8.1-0.9c2.6-0.4,4.8-0.7,6.8-1.2
		c3.9-0.9,6.6-2.2,7.2-4.4c4.8-1.5-0.9-0.6-5.8-0.2c-2.4,0.2-4.7,0.3-5.5,0c-0.8-0.3,0-1.1,3.8-2.7c3.9-0.9,7.1-1.5,9.9-1.8
		c2.8-0.3,5.1-0.4,7.1-0.4c3.9,0,6.6,0.7,9.1,1.4c1.2,0.4,2.5,0.7,3.8,1s2.8,0.6,4.5,0.7c1.7,0.1,3.7,0.2,6.1,0
		c2.4-0.1,5.2-0.4,8.6-0.9c-3.7,0.5-2.6-0.1-3.9-0.8c5-0.3,10.4-0.4,16-0.4c2.8,0,5.7,0.1,8.6,0.1c2.9,0.1,6,0.2,9,0.3
		c6.1,0.2,12.2,0.5,18.2,0.7c1.5,0.1,3,0.1,4.5,0.2s2.9,0.2,4.4,0.3c2.9,0.2,5.8,0.3,8.6,0.5c7-1.6,15.8-2.3,25.5-2.1
		c4.9,0.1,10,0.3,15.2,0.5c1.3,0.1,2.6,0.1,3.9,0.2c1.3,0.1,2.7,0.2,4,0.3c2.6,0.2,5.3,0.4,8,0.6c5.4,0.4,10.9,0.7,16.2,1.1
		c5.3,0.4,10.6,0.7,15.7,0.9c2.5,0.1,5,0.2,7.5,0.2c2.4,0.1,4.9,0.1,7.2,0c4.7-0.1,9.2-0.5,13.3-1.1c-5.3,0.9-3.4,2-0.3,2.9
		c2.6,0.8,6,1.6,7.1,2.2c-0.2-0.3-0.3-0.7,0.5-0.9c11.4,1.1,12.3,3.9,16.3,5.5c4.9-0.7,12.6,1,19.8,2.8c7.2,1.8,13.9,3.7,17,3.4
		c-0.3,1.8,8.7,2.8,18.7,4.4c-19.4-5.3-5.3-4.8-13.6-9.1c7.5,1.1,13.4,2.4,18.3,3.9s8.9,3.4,13,5c4.1,1.7,8.2,3.6,13.2,5.1
		s11,3.1,18.8,4.3c6.1,0.1,12.2,0.3,18.3,0.4c1.6,5.7,31.2,10,29.9,11.7c5.9-0.3,14.1,0.5,13.8-2.3c12.1,3.9,31.7,5.2,36,9.2
		c-4.4-0.4-8.7-0.9-13-1.3c9.9,1.5,18.7,3.3,26.8,5.2c8.1,1.9,15.5,3.9,22.7,5.7c7.2,1.8,14.1,3.6,21.2,4.8
		c7.1,1.2,14.4,2.2,22.3,2.5l1.2-7.6c5.3-0.1,10.2,0.5,14.9,1.3c2.3,0.4,4.6,0.9,6.9,1.4c2.3,0.5,4.6,1,6.8,1.5
		c8.9,2,17.5,3.8,26.8,2.3c-6.7,1.9-7.9,1,4.8,4.8c-3.9-0.2-9.4-1.1-15.5-2.2c-6.1-1.2-12.8-2.5-19.3-3.3l13.3,3.9l6.7,2l6.7,1.9
		c-7.1-1.1-14.2-2.4-21.3-3.6l-10.6-1.8l-10.6-2c4.4,1.4,7.6,2.4,9.9,3.1c2.3,0.7,3.5,1.2,4,1.5c1,0.7-1.4,1.1-5.5,2.1
		c12.9,2.9,20.2,2.8,27.3,2.8c7.1-0.1,14-0.2,26.3,2.6c9.2-0.2,0.3-3.8,10.9-4.4c5.5,1.2,10.9,1.7,16.2,1.8
		c5.3,0.1,10.5-0.3,15.5-0.5c4.9-0.2,9.7-0.5,14.2-0.3c2.4,0.1,4.7,0.3,6.9,0.6c-1.4-0.3-2.4-0.7-2-1.2c14.3,1.5,24.6,1.8,28.6,4.3
		l-12.4,0.1c5.4,0.2,8.5,1.1,12.8,1.9c4.3,0.8,9.9,1.4,20.3,0.9c11.8,2.3,18.3,6.3,5.3,5.8c2.7,0.3,6.9,0.1,10-0.5
		c3-0.6,5-1.7,3-2.9c16.2,0.5,19.9,2.7,23.6,4.3c3.7,1.8,7.2,3.1,22.9,1.5c-2.1-0.3-4.4-0.8-3.2-1.2c4.9-0.3,9.2-0.3,13.1-0.2
		c-14.4-1.6,12-5.5-17.3-4.7c3.7-4,24.7-0.4,35.1-1.8c15.8,2.8,1.6,5.8,9.6,7.9c-0.1-1.3,6.4-1.3,14.2-1.8l-7.6,3.1
		c6.6,0,13.1,0,21,0.8l-13.2-1.3c3.6-0.1,7.6-0.5,12.1-1c2.2-0.3,4.6-0.5,7-0.8c2.5-0.2,5-0.5,7.6-0.8c10.4-1.1,22.2-1.7,34.9-0.4
		c-6.8-1.2-20.1-3.6-3.3-5.3c0.9,0,1.7,0.1,2.5,0.1c0.8,0.1,1.5,0.1,2.2,0.1c1.3,0.1,2.6,0.1,3.6,0.1c2.1,0,3.6,0,4.7-0.1
		c2.2-0.1,2.6-0.5,2.6-0.9c0.1-0.9-1.4-2.2,6.3-3.7c13.7-0.1,15,1.2,17.9,2.2c3,1,7.5,1.4,27.6-0.8c4.3-0.3,0.5,1.8-3.8,2.9
		c6.9-0.8,13-1.3,18.7-1.7c5.7-0.4,11-0.9,16.3-1.3c5.3-0.4,10.5-0.9,16.1-1.5c1.4-0.2,2.9-0.3,4.3-0.5c0.7-0.1,1.5-0.2,2.2-0.3
		c0.7-0.2,1.4-0.3,2.2-0.4c1.5-0.3,3-0.5,4.5-0.8c-3.6,0.7-6.4,1.4-7.6,1.9c-1.7,0.6,0.1,1.2,8.1,1c-3.6-0.9,1.8-2.2,9.3-3.5
		c3.7-0.7,8-1.4,12-2.1c4-0.7,7.6-1.4,10.1-2.2l3,1.2c7.8-2.9-1.1-2.2-7.9-1.9c0.3,0.5-2,1.3-7,1.7c-6.7,0.1-9.1-1.4-7.3-3.4
		c0.9-1,2.9-2.1,5.9-3.1c1.5-0.5,3.3-1,5.3-1.5c1-0.3,2.1-0.5,3.2-0.7c1.1-0.2,2.3-0.5,3.6-0.7c22.2-1.7,19.7,2.9,16.3,4.9
		c7.3-1.5,12.8-1.9,17.3-2.1c4.6-0.2,8.2,0,11.8,0.3c3.5,0.2,7.1,0.5,11.5,0.2c2.2-0.2,4.6-0.4,7.3-0.9c2.7-0.4,5.7-1.2,9.1-2.2
		c3.2-0.7,9.6-3.6,17.7-6.8c4.1-1.6,8.4-3.5,13.1-5.2c4.6-1.8,9.5-3.4,14.5-4.6c11.7,1.1-24,8.2-11.3,8.5c3.8-2,7.7-3.7,11.8-5
		c2-0.7,4.1-1.3,6.2-2c2-0.6,4.2-1.3,6.3-1.8c4.3-1.1,8.8-2.1,13.3-2.9c2.3-0.4,4.6-0.8,6.9-1.2c2.3-0.4,4.6-0.8,7-1.3
		c4.8-0.9,9.6-1.8,14.5-2.8c1.2-0.3,2.5-0.5,3.7-0.8c1.2-0.2,2.5-0.5,3.7-0.8c2.4-0.6,4.9-1.2,7.4-1.9c5-1.3,10-2.8,15-4.5
		c5-1.9,9.9-3.9,14.8-6.4l-7.6-2.1c4.7-1.8,9.4-3.6,14.3-5.4c4.8-1.9,9.8-3.8,15.3-5.6l-12.6,7.5c5.1-1.5,13.1-4.4,18.7-7.2
		c5.5-2.9,8.5-5.3,3.9-5.2c5.9-1.4,10.4-2.8,14.3-4c3.8-1.4,6.9-2.8,9.9-4.2c2.9-1.5,5.8-3.2,9-4.9c3.2-1.9,6.8-4,11.3-6.6
		c-9.9,5.1-9.9,5.2-9.4,4.8c0.2-0.2,0.5-0.6-0.2-0.6c-0.7,0.1-2.5,0.5-6.6,1.7c1.2-0.7,2.4-1.3,3.5-2c1.1-0.7,2.1-1.3,3.1-1.9
		c2-1.2,3.7-2.2,5.3-3.1c3.2-1.8,5.8-3.1,8.3-4.1c4.8-2.4,9.2-3.9,16.6-7.3c-3.5,0.1,1.9-6,7.2-9c3.7-1.2,7.8-3.2,12.1-5.3
		c2.2-1.1,4.4-2.3,6.7-3.6c2.2-1.3,4.5-2.7,6.8-4c9.2-5.5,18.5-11.9,27.2-17.6l-1.2-0.9c1.8-1.2,3.5-2.5,5.2-3.8
		c0.8-0.7,1.7-1.3,2.5-2c0.9-0.6,1.7-1.3,2.5-2c1.6-1.4,3.2-2.8,4.8-4.1c1.5-1.4,3.1-2.9,4.6-4.3c3-3,5.9-6,8.7-9.2
		c0.7-0.8,1.4-1.6,2.1-2.4l1.1-1.3c0.4-0.5,0.8-1,1.2-1.5l2.3-2.9l1.1-1.5c0.3-0.5,0.9-0.9,0.7-1.5c-0.1-2.3-0.2-4.4-0.3-6.7
		c-0.1-1.9-0.2-3.8-0.3-5.6c-0.2-3.7-0.3-7.4-0.3-11.1c0-7.3,0.4-14.6,1.7-21.7c0.1-0.5,0.1-1,0.2-1.4l0.3,2.3
		c5.4,9.8,3.8-22.2,6-30.9c-1.3-1.9-3.7-2.8-3.7-7.7c5-0.3,2.6-11.1,4.9-15.1c-1.8-9.9-6,1.2-5.8-15.6c0.5-6.5,3.1-7.3,5-6.5
		c-2.5-3.6-4.5-14.3-5.1-23.2c-1.3,3,0.4,7.9,0.1,9.9c-2.7,1.1-1.7-4.9-5.1-4.7c-0.4-7.9,4.6-3.2,2.9-13l-4,9.2c-1-3.9,0.7-9,1-11
		c-0.5,3.1-1.8,4.3-3.3,4.7V585c3.5-1.8,8.1,6.4,11,5.6c-3.1-21.7,2.1-38.8,2.4-55.6l-4.7,3.2c0.7-8.2,1.8-12.1,3.8-15.1v-12.6
		c-1.7,7.3-3.2,9.8-6.9,10.3c1.2-13.5,0.1-32,6.3-35.4l-1,0.5c-2.2-18-3.5-55.4-5.6-54.2c2-19.3-1.6-43.7,4.6-44.2
		c1.5-11.6-8-29.8-0.2-38c-4.1-13.6-1.7-0.7-6.3,3.5c-4.1-13.6,6.3-27.4-2.6-32c2.8-15.9,1.9,3.7,5.8-1.7
		c-8.3-3.4-1.4-29.5-6.1-44.4c3.3-6.7,2.1,6.8,5.6-4.7c-2.1,1.1-2.5-5-2.7-8.1l5.2-3l-8.8-10.4v-14c3.5-3.2,5.5,6.3,7.3-16.1
		l-0.4,1.8c-5.4-8.2,4-21.4-0.1-43c1,7.4-2.5,3.1-4,5.4l2.1-12c-0.3,1-0.6,1.6-1.2,0.4c-3.9-10.6,2.1-9.2-1.4-21.5
		c-0.4,3.4-1.3,5-2.3,5.5v-17l1.3-3.9l-1.3,1.4V26.1c4.1-4.5,6.5-8.1,7.7-10.8c0.8-1.6,1.1-3,1.2-4c0-0.5,0-1-0.1-1.5
		c-0.1-0.4-0.4-0.8-0.6-1.1c-1-1.3-2.8-2-4.9-2.4c-1.1-0.2-2.2-0.4-3.3-0.6V4c0,0-0.5,0.4-1.5,1.3c-0.5-0.1-1-0.2-1.5-0.4
		c-1.3,1-2.7,2-4.1,3c-0.1-2.4-0.6-3.9-1.4-4.5c0.8-0.9,1.7-1.8,2.5-2.6c0.3-0.5,0.2-0.8-0.6-0.8c-0.4,0-1.1,0.1-2.1,0.5
		c-2,0.7-5,2.2-8.6,3.9c-7.1,3.6-16.2,8.4-22.2,12.1c-3.7,2.8-6.5,4.9-8.6,6.7c-2.2,1.7-3.6,3.1-4.5,4.1c-1.8,2.2-1.5,3.2-0.9,4
		c1.2,1.7,3.9,2.7-6.6,10.4c-2.6,1.4-5.3,2.6-8,3.9l-8,3.8l-8.1,3.7c-2.7,1.2-5.3,2.5-8.1,3.6l1.2,1.9c-3.8,3.8-8.3,3.5-9.9,3.8
		c1.1,0.4,0.1,1.4-2.1,3c-2.2,1.5-5.8,3.5-9.9,5.5c-2,1.1-4.2,2.2-6.4,3.3c-2.2,1.1-4.5,2.1-6.7,3.2c-2.2,1.1-4.3,2.1-6.3,3.1
		s-3.8,1.9-5.4,2.7l1.4-2.2l1.4-2.3c-2.5,0.8-4.9,1.5-7.2,2.3c-2.3,0.7-4.5,1.6-6.6,2.4c-4.3,1.6-8.2,3.5-11.9,5.1
		c-7.4,3.5-13.8,7.4-20.1,11c-6.3,3.7-12.2,7.4-18.8,10.5c-3.3,1.6-6.6,3-10.2,4.3c-1.8,0.7-3.6,1.3-5.5,1.9c-1.9,0.5-3.9,1-5.9,1.5
		l-12,1.6l-6,0.8l-6,0.7l-2.6,5c-7,0.9-11.4,0.8-16.6,1.4c-5.2,0.5-11.2,1.8-21.5,5.3c-1.2,0.4-2.3,0.9-3.4,1.3l-3.4,1.2
		c-2.3,0.8-4.6,1.5-6.9,2.3c-4.6,1.5-9.3,3-14,4.3c-4.7,1.4-9.6,2.6-14.4,3.8c-4.8,1.2-9.7,2.4-14.6,3.5c-9.9,2-19.8,3.9-29.9,5.6
		c-5.1,0.8-10.1,1.5-15.2,2.3l-7.6,1.1l-3.8,0.6c-1.2,0.2-2.5,0.4-3.8,0.5c-10.2,1.1-20.5,2.3-30.7,3.4c-10.3,0.8-20.6,1.7-30.8,2.7
		c-10.2,0.8-20.5,1.5-30.6,2.4l-3.8,0.4c-1.3,0.2-2.5,0.2-3.8,0.3c-2.5,0.1-5.1,0.3-7.6,0.5c-5,0.4-10.1,0.8-15.1,1.3
		c0.5-0.5,1.4-0.8,2.8-1.1c-15.4,2.5-29.5,2.9-42.7,2.8c-1.9,0-3.7,0-5.5-0.1c-1.8-0.1-3.6-0.3-5.4-0.4c-3.5-0.2-7-0.5-10.5-0.9
		c-6.9-0.7-13.6-1.5-20.3-2.3c-6.7-0.9-13.3-1.9-20-2.8c-6.7-0.9-13.4-1.7-20.3-2.3c-6.9-0.7-13.9-1.2-21.3-1.4
		c-3.7-0.1-7.5-0.1-11.3,0c-3.8,0.1-7.8,0.2-11.8,0.4l4.2,1.8c-32.4-2.9,4.3,1.8-19.6,2.4c-1-1.3-4-2.3-8.3-3.2
		c-4.3-0.9-9.8-1.7-15.8-2.5c-5.9-0.8-12.4-1.4-18.5-2.2c-6.1-0.8-11.8-1.6-16.4-2.5c2.8,1.3,9.2,1.8,14.5,3
		c-3.6,0.7-5.5,3.5-14.7,1.7c-9.8-4.3-25.8-7.6-43.3-10.5c-8.7-1.5-17.8-2.9-26.8-4.3c-9-1.5-17.7-3.1-25.7-4.6
		c-2.4,1.3-10.7,1.6-20.4,1.9c-4.9,0.2-10.1,0.3-15.1,0.5c-5,0.2-9.8,0.6-13.8,1.3c-3.1-1.7-8.4-5-13.1-8.3
		c-12.2,0-20.5-3.2-28.2-6.5c5.1,1,9.9,1.9,14.3,2.8c4.4,0.9,8.4,1.6,11.8,2.3c-0.2-0.1-0.4-0.3-0.6-0.4c1,0.4,2.9,0.8,4.4,1.2
		c6.1,1.2,9.7,2,9.3,2.1c13.1-0.9-0.6-2.5,1.3-5.9c-5.3-0.8-13.2-2.5-20.3-3.7c-7-1.3-13.2-2-14.8-0.9c-6.3-1.2-10.6-1.5-17.3-2.3
		c-3.8-1.4-8-2.5-12.8-3.1l2,0.8c-0.9,0.4-2,0.5-3.1,0.6c-21-2.6-48-13.9-63.9-20c15,8-5.8,4.1-7.3,7.2c0.8,0.1,5.3,1,12.1,2.4
		c8.2,1.7,20,4.1,33,6.8c-2,0-3.6,0.2-4.5,1.3c-23.8-1.3-37.3-11.2-71.1-15.9c2,0.9,5.9,2.5,3.9,3.4c-11.9-1.7-21.8-6.5-23.7-9
		c-2.1,1.2-9.6,1.1-18,0.2c-8.4-0.9-17.9-2.6-23.9-4.5c-5-2.4-7-3.8-10.3-5c-3.3-1.3-7.8-2.4-17.9-4l8.1,3.9
		c-12.1-1.2-16.6-2.9-20.7-4.4c-3.8-1.4-7.2-2.8-15.9-3.6c6.2,0.7,5.8,2.8,0.3,2.3c-1.5-0.4-3-0.7-4.3-1c-1.3-0.3-2.6-0.5-3.8-0.8
		c-2.3-0.5-4.4-1-6.3-1.5c-3.7-1-6.6-1.9-9.2-2.8c-5.3-1.8-9.6-3.9-18.1-7.3l2.5,4c-2.6-0.6-5.5-1.3-8.6-2c-3.1-0.7-6.4-1.4-9.7-2.1
		c-3.3-0.7-6.7-1.4-10.1-2.1c-3.3-0.6-6.7-1.2-9.9-1.7c-11.3-1.8-20.7-2.5-23.1-1c0.7-1.4-1.2-2.6-4.9-3.5c-2.2-0.5-4.9-1-8.1-1.4
		c-3.2-0.4-6.8-0.6-10.5-0.9c-3.7-0.3-7.7-0.4-11.7-0.6l-3-0.1c-1,0-2,0-3,0c-1.9-0.1-3.9-0.1-5.8-0.1c-7.6,0-14.6-0.1-19.3-0.2
		c6.5,0.4,7.6,2.1,8.2,2.9c-2.5-0.4-4.9-0.8-7.4-1.1c-2.4-0.3-4.9-0.6-7.4-0.8c-5-0.4-10-0.8-15-1c-2.5-0.1-5-0.2-7.6-0.2
		s-5.1,0-7.7,0c-5.1,0-10.3,0.3-15.4,0.5c-20.6,1.1-40.9,3.7-61.1,5.8l-5.3,6.1c-5.2,0.6-9.7,0.5-13.8-0.1
		c-4.1-0.5-7.9-1.4-11.7-2.2c-3.8-0.9-7.7-1.6-12.1-1.9c-4.4-0.3-9.3-0.1-15,1l9,1.1c-5.1,0.8-9.8,1.5-14.2,2.3s-8.5,1.5-12.3,2.3
		c-3.8,0.8-7.4,1.6-10.9,2.3c-3.5,0.7-6.8,1.5-10,2.3c-12.9,3.1-24.7,6.4-40.2,11.2l2.3,3.3c-12,1.5-25.8,5.6-37.7,7.6
		c-2.6,2-6.1,3.9-10.3,5.9c-4.2,2-9.2,3.9-14.6,5.9c-10.9,3.9-23.9,8.2-37.3,12.9s-27.3,10.1-40,16c-12.7,6-24.2,12.5-32.8,19.7
		l-7.5-4.5c-7.9,3.9-17.2,8.2-24.8,12.6c-7.6,4.4-13.7,8.9-15.3,12.9l3.3-2c2.8,1.8-1,3.9-6.6,6.3c-5.6,2.5-12.9,5.3-17.1,8.5
		c-7.6,3.6-17.3,5.1-12.1,0.7c-9.3,6.5-19.9,13.6-30.9,20.9c-5.4,3.8-11,7.5-16.5,11.3c-2.8,1.9-5.5,3.9-8.2,5.7
		c-1.3,1-2.7,1.9-4,2.9c-1,0.7-2,1.5-3,2.2c-1.1,0.8-2.2,1.7-3.3,2.5c-2.2,1.7-4.4,3.4-6.5,4.9l-1.6,1.2l-0.8,0.6l-0.4,0.3
		c-0.1,0.1-0.1,0.3-0.1,0.4c0,1.2,0,2.3,0,3.5c-0.1,2.3-0.1,4.5,0,6.8c0.1,1.1,0.1,2.3,0.1,3.4c0,0.6,0,1.1,0,1.7v1
		c0.2,5.1,0.5,10,0.9,14.5c0.7,9.1,2,17,4,22.8c-2.9,37.7-10,66.2-9.1,106.8l1.1-0.5c1.2,13.7,3.6,41.3,11.1,41.2
		c-1.7,29.3-12,48-8.7,82.9l2.9-7.6c1.4,8.9-2.1,23.1-3,26.7c0.2,3.1,1.6,0.8,2.7,0.4c2.6,8.4-1.5,13.3-2.2,20l2.5-2.8
		c5.2,27.8-5,71.8-3.7,107.6c0.8-6.6,3.6-3.2,4.8-0.5c-8.4,14.7-6.4,55-8.3,70l3.3-9.3C-19,765.9-4.8,762-10.3,791l-4.8-16.7
		C-13.7,786.2-15.3,796.1-19.1,793.8z M985.3,127c1.1-0.5,3.7-0.8,10.5,1c1.2,0.7,1.7,1.5,2.2,2.3c-0.2-0.2-0.5-0.4-0.7-0.6
		C992.3,128.6,988.5,127.7,985.3,127z M1918.9,7.3l-0.6,4.2l-1.4,0.9C1916,11.6,1917.1,9.5,1918.9,7.3z M1930.6,181.3v-7.2
		c0.3,0.4,0.6,0.9,0.8,1.7C1931.1,177.7,1930.9,179.6,1930.6,181.3z"/>
	<path class="st0" d="M659.6,936.5c-2.3,0.1-4.5,0.2-6.5,0.5C655.9,936.8,658,936.7,659.6,936.5z"/>
	<path class="st0" d="M518.4,168.3c-1.3-0.3-3.1-0.6-5.4-1C514.8,167.8,516.6,168.1,518.4,168.3z"/>
	<path class="st0" d="M919,134.9c-1,0.3-1.5,0.5-2.8,0.8c1.5,0.1,3,0.1,4.4,0.1c0.7-0.5,1.5-1.1,2.2-1.6
		C921.5,134.4,920.2,134.6,919,134.9z"/>
	<path class="st0" d="M89.4,825.5l0.3-0.1C89.6,825.5,89.5,825.5,89.4,825.5z"/>
	<path class="st0" d="M89.4,825.5l-3.5,1.9C95.7,832.2,87.6,826.8,89.4,825.5z"/>
	<path class="st0" d="M256.8,896.7c6.5,1.2,13,2.5,19.5,3.7c-4.8-0.9-9.5-1.9-14.3-2.9L256.8,896.7z"/>
	<path class="st0" d="M1318.1,854.6l-3.7-3.9C1306.6,851.6,1305.3,856.3,1318.1,854.6z"/>
	<path class="st0" d="M1770.2,950.5c-8.8-4-16.8-9.1-21.8-10.5C1751.6,943.5,1762,949.3,1770.2,950.5z"/>
	<path class="st0" d="M1774.9,149c-2.6-1.1-5.3-2.1-8-3.1s-5.3-2.1-8-3.1c2.3,1.2,4.7,2.3,7,3.5
		C1768.9,147.3,1771.9,148.1,1774.9,149z"/>
</g>
<g>
	<g>
		<path class="st1" d="M1117.3,170.9L1117.3,170.9L1117.3,170.9L1117.3,170.9z"/>
		<path class="st1" d="M1118.3,173.2c-0.1,0.2-0.4,0.7-0.4,0.7l0,0c0.1-0.4,0.2-0.8,0.2-0.9c0.1-0.2,0.2-0.7,0-0.4
			c0,0.1,0,0.1-0.1,0l0,0c-0.2,0.2-0.2,0.2-0.2,0.3c0,0.2-0.2,0.2-0.3,0.6c0,0.1-0.1,0.1-0.1-0.1c0.4-1,0.1-0.4-0.1-0.3l0,0l0,0
			c0,0,0,0,0,0.1l0,0l0,0l0,0l0,0l0,0l0,0c0-0.1,0.1-0.2,0-0.3c-0.1,0,0-0.4,0-0.5c0.1-0.3,0.2-0.8,0.3-1.1v-0.1
			c-0.1-0.1,0.1-0.3-0.3-0.1c0,0.1-0.1,0.1-0.2,0.1s0-0.2,0-0.3l0,0c-0.1,0.1-0.1,0.2-0.1,0.2c-0.1,0.1,0-0.3,0-0.4
			c0-0.1,0-0.2-0.2-0.1c-0.2,0.2,0.1-0.3,0-0.3l0,0l-0.1,0.1c-0.1,0.2-0.2,0.1-0.2,0.1c0-0.1,0-0.1,0-0.2c0,0,0,0,0-0.1
			c0,0,0.2-0.1,0.1-0.3c0,0,0-0.1-0.1-0.1c0,0-0.1,0-0.1,0.1c-0.2,0.3-0.2,0.4-0.4,0.4c-0.1,0.1-0.3,0.3-0.3,0.4
			c0,0.1-0.2,0.1-0.1,0c0,0,0.1-0.3,0.2-0.3c0-0.1-0.1-0.1-0.1-0.1c-0.3,0.1-0.2,0.2-0.4,0.4c-0.1,0.1,0,0.2,0,0.2
			c0,0.1-0.1,0.2-0.2,0.2c-0.2-0.1-0.1-0.1-0.1-0.3c-0.1-0.2,0.2-0.1,0.2-0.3c0-0.1,0-0.1,0.1-0.2c0-0.2,0.2-0.2,0.2-0.3
			s0-0.2,0-0.3c0,0,0-0.2,0.1-0.2c0.1-0.6-0.1,0-0.3,0.2c-0.1,0.2-0.2,0.3-0.3,0.5c-0.1,0.2-0.2,0.4-0.3,0.6
			c-0.1,0.2-0.2,0.2-0.2,0.1c0.2-0.4,0.3-0.5,0.3-0.6c0-0.2,0.2-0.7,0.3-0.9l0.1-0.2c0-0.1-0.1,0.1-0.1,0.1
			c-0.2,0.1-0.1,0.3-0.2,0.3s-0.1,0.1-0.4,0.6c-0.1,0.1-0.2,0-0.1-0.1c0.1-0.3,0.1-0.3,0.1-0.4c0-0.1,0.2-0.1,0.1-0.3
			c0,0,0-0.1-0.1-0.1c-0.2,0.1-0.1,0.2-0.2,0.2c0,0.1-0.1,0-0.1,0c0-0.1,0.1-0.1,0.1-0.3s-0.3,0.2-0.4,0.4c-0.1,0.1-0.3,0.4-0.3,0.5
			h-0.1c0-0.1,0,0,0.5-0.9c0.1-0.2,0-0.2-0.1-0.1c-0.1,0.2-0.2,0.3-0.4,0.5c-0.1,0.1-0.1,0.1-0.2,0.2c-0.1,0.1-0.1,0.2-0.2,0.2
			c-0.4,0.4-0.2,0.1-0.2,0s0-0.2,0.4-0.9c-0.1,0-0.1,0-0.1,0c-0.1,0.1-0.2,0.2-0.3,0.3c0,0.1,0,0.1-0.1,0.3
			c-0.2,0.3-0.1,0.2-0.2,0.2c0,0,0-0.1,0-0.2c-0.1,0.1-0.2,0.3-0.3,0.3c-0.1,0.1-0.1,0.1-0.2,0.3c-0.1,0.1-0.2,0.1,0-0.2
			c0.1-0.1,0.6-1,0.4-0.9c-0.1,0-1.9,2.9-2,2.9c-0.2,0.1,0.2-0.4,0.3-0.6c0,0,0,0-0.2,0.1c-0.1,0.2-0.1,0.2-0.1,0.4
			c0,0.1,0,0.2-0.1,0.3s-0.2,0.3-0.2,0.3s0.1,0,0.1,0.1s-0.1,0-0.1,0s0,0-0.1,0.1s-0.1,0.1-0.1,0.2c-0.2,0.1-0.1,0.1-0.4,0.5
			c-0.1,0.2-0.2,0.3-0.3,0.4c-0.2,0.4-0.3,0.5-0.4,0.9c-0.2,0.5-0.8,1.3-0.9,1.6c-0.1,0.2,0.1,0.1,0,0.3s-0.2,0.3-0.3,0.5
			c0,0,0,0.1-0.1,0.1c-0.3,0.3-1.1,2.1-1.3,2c-0.1-0.2,0-0.3,0.5-1.2c0.2-0.3,0.2-0.5,0.4-0.6c0.1-0.1,0.1-0.3,0.2-0.4l0,0
			c-0.1,0-0.1,0.2-0.3,0.3c0,0,0,0,0,0.1c-0.1,0.1-0.1,0.2-0.2,0.3c-0.2,0.2-0.1,0.1-0.3,0.4c-1,1.7-1,1.6-1.3,2.1
			c-0.3,0.6-0.4,0.7-0.5,0.9c-0.1,0.1-0.2,0.4-0.5,0.7c-0.1,0.1-0.2,0.3-0.3,0.4c0,0,0,0.1-0.1,0.1c-0.4,0.8-0.3,0.4-1.4,2.3
			c0,0.1-0.4,0.7-0.5,0.7c-0.1-0.1,0.1-0.3,0.1-0.3c-0.1-0.1,0-0.2,0.3-0.6c0.1-0.2,0.2-0.4,0.3-0.5c0.3-0.4,0.9-1.5,1.1-1.6
			c0.1-0.1,0.1-0.1,0.3-0.4c0.8-1.3,3.6-5.8,3.2-5.4l-0.1,0.1c-0.1,0.3-0.3,0.4-0.3,0.5s-0.1,0.1-0.2,0.2c0,0.1-0.1,0.1-0.1,0.2
			c-0.1,0.1-0.1,0.3-0.2,0.2c0-0.1,0-0.1,0.2-0.4c0.3-0.6,0.2-0.6,0.5-0.8c0.1-0.1,0.2-0.3,0.3-0.4v-0.1c0.2-0.2,0.3-0.5,0.5-0.8
			c0.3-0.4,2.9-4.6,2.9-4.7c0.1-0.2-1,1.2-1.1,1.6c0,0-0.9,1.3-1,1.4c-0.1,0.2-0.2,0.3-0.4,0.7c-0.1,0.2-0.3,0.5-0.4,0.7
			c0,0-1.4,2.3-1.7,2.8c-0.1,0.1,0.2,0.1,0.1,0.2c-0.5,0.7-0.1,0.2-0.1,0s-1,1.5-1.1,1.6c0,0-0.1,0,0,0c0.9-1.6,0.7-1.1,0.8-1.4
			c0-0.1-0.1,0.1-0.2,0.1c0-0.1,0.1-0.3,0-0.3l0,0c0,0.2-0.2,0.4-0.3,0.3c-0.1-0.1,0-0.1,0.1-0.3c0,0,0-0.1-0.1,0c0,0,0,0.1-0.1,0.1
			h-0.1c0-0.1,0-0.1,0-0.1c-0.1,0-0.3,0.7-0.3,0.8c0,0.3-0.1,0.2,0,0.3c0-0.1,0.1-0.2,0.1-0.3c0,0,0-0.1,0.1-0.1
			c0.2-0.1,0.1-0.3,0.3-0.2c0.1,0,0,0.2,0,0.3c-0.1,0-0.1,0.1-0.2,0.2c-0.1,0.1-0.1,0.2-0.1,0.3c-0.1,0.1,0,0.1,0,0.3
			c0,0.1,0,0.2,0.1,0.2c-0.1,0.3-0.2,0.5-0.4,0.7c-0.2,0.1,0.1-0.5,0.2-0.6c0-0.1-0.1-0.1-0.1-0.1h-0.1c0.2,0.2,0,0.2-0.1,0.3
			c0,0.1-0.1-0.1-0.1-0.1c0-0.1-0.1-0.1-0.1,0c-0.2,0.3-0.2,0.4-0.2,0.4c0.3,0,0.3-0.1-1,1.9c-0.3,0.5-0.4,0.6-0.5,0.6
			c0,0,0,0.2-0.1,0.2c-0.1,0.1-0.1,0.2-0.2,0.4c0,0.1-0.1,0.2-0.2,0.3c-0.2,0.3-0.1,0.2-0.2,0.3c0,0-0.1,0.1-0.2,0.2
			c0,0.1,0,0.1,0,0.2c0,0-0.2,0.3-0.2,0.4c-0.1,0.1,0.1,0.1,0.1,0s0.1-0.2,0.1-0.3h0.1c0,0.1-0.1,0.2-0.2,0.3
			c-0.1,0.2-0.3,0.2-0.4,0.5c0,0.2-0.1,0.3,0,0.3c0,0.1,0,0.2,0,0.2c-0.1,0.2-0.2,0.3-0.3,0.3c0,0-0.1,0-0.1,0.1c0,0-1,1.6-1,1.7
			c-0.1,0.2-0.3,0.4-0.3,0.6c0,0.1-0.3,0.6-0.3,0.6c-0.1,0.1-0.1,0.2-0.2,0.3c-0.4,0.2-0.3,0.3-0.5,0.5c-0.1,0.1-0.3,0.3-0.4,0.5
			v0.1c0,0-0.1,0-0.2,0c0,0-0.1,0,0,0.1c0,0,0.1,0.1,0.2,0.1c0,0.1-0.1,0.1-0.2,0.2c0,0,0,0,0,0.1c-0.2-0.1-0.3-0.1-0.4-0.2l0,0l0,0
			c0-0.1-0.1-0.2-0.1-0.1c0,0,0,0-0.1,0.1c0,0,0,0-0.1,0c0,0,0,0-0.1,0v0.1c0,0,0,0,0.1,0c-0.1,0.1-0.1,0.1,0,0.2c0,0,0,0-0.1,0
			c-0.3-0.2-0.4-0.2-0.5-0.2c-0.2,0-0.2-0.1-0.2-0.1s0.1-0.2,0-0.3c-0.3-0.1,0,0-0.4-0.3c-0.1-0.1,0.1-0.2,0.2-0.1
			c0.4,0.2,0.2,0.1,0.5,0.3c0.1,0,0.2,0.1,0.2,0s0-0.1,0-0.2c-0.1-0.1-0.2-0.2-0.3-0.3c-0.1,0-0.1-0.1-0.2,0s-0.1,0-0.1,0
			c-0.2-0.1-0.4-0.2-0.6-0.3c-0.3-0.1-0.1-0.2-0.3-0.3c-0.2-0.1-0.5-0.2-0.7-0.3c0,0.1,0,0,0,0.1s-0.2,0-0.3,0
			c-0.1-0.1-0.2-0.1-0.2-0.2c0-0.1-0.1-0.2-0.1-0.3c-0.5,0-0.5-0.1-0.4,0.1l-0.1,0.1c-0.1-0.1-0.2-0.1-0.3-0.2l-0.1-0.1
			c0,0,0.1,0,0.1-0.1s-0.1-0.1-0.3-0.1c-0.2-0.1-0.2,0-0.4,0.1c-0.1,0,0,0.1,0.2,0.3c0,0,0,0.1,0,0c-0.5-0.3-0.1,0-0.6-0.5
			c0,0,0,0-0.1,0s0,0.1,0,0.1v0.1c-0.1,0-0.1-0.1-0.2-0.1c0,0.1,0.1,0.1,0.2,0.2c0.1,0.3-1.2-0.5-1.2-0.5c-0.1-0.2-0.2-0.1-0.4-0.2
			c-0.7-0.3-0.6-0.3-0.6-0.3s0-0.2,0.1-0.1c0.3,0.1,0.3,0.2,0.5,0.2l0,0c-0.1-0.1,0,0-0.3-0.2v-0.1c0.2,0.1,0.2,0,0.3,0
			c0.1,0.1,0.2,0.2,0.3,0.2c0.2,0.1,0.2,0.2,0.4,0.3c0.1,0.1,0.3,0.1,0.3,0.2c0,0,0,0,0.1,0c0-0.1,0-0.1,0.1-0.1c0,0,0,0-0.1,0.1
			c0.2,0,0.3,0,0.3,0c0.1,0,0.1-0.2,0-0.2c-0.4-0.2-0.4-0.1-0.4-0.2c0-0.1-0.1-0.1-0.1-0.1s-0.2,0.1-0.3,0c-0.1-0.1-0.3-0.3-0.6-0.3
			h-0.1c-0.4-0.3-0.3-0.2-1.2-0.6c-0.3-0.1-0.4-0.2-0.5-0.3c-0.1,0-0.2-0.1-0.2-0.1c-0.1-0.1-0.2-0.1-0.2-0.1
			c-0.1,0-0.1-0.1-0.2-0.1s-0.1,0-0.2,0c-0.2,0-0.1,0.1-0.1,0.2v0.1c-0.2,0.1-0.1,0.4-0.3,0.1c-0.4,0-0.4,0,0.1,0.3
			c0.2,0.1,0.3,0.4,0.2,0.4c0,0,0,0-0.1,0l0,0c0.1,0,0.2,0.1,0.2,0.1c0.2,0.2-0.2,0.3-0.4,0.1h-0.1c-0.1,0.2-0.2,0.2-0.4,0.1
			c-0.2-0.1-0.2-0.2-0.2-0.2c0.1,0,0.1,0,0.2,0s0.1-0.1,0.1-0.1c-0.2,0-0.1,0.1-0.3-0.2c-0.2-0.2-0.2-0.1-0.4-0.2
			c-0.2-0.1-0.1,0-0.2,0c-0.3,0-0.2,0.1-0.4,0c0,0,0,0-0.1,0h-0.1c0,0-0.1-0.2-0.3-0.1c0,0-0.2,0,0.1-0.2c-0.1-0.1-0.1-0.1-0.2-0.2
			c0-0.1-0.1-0.1-0.2-0.1c-0.1-0.1-0.1-0.1-0.2-0.2c-0.5-0.1,0.1-0.2-0.5-0.4h-0.1c-0.1-0.1-0.2-0.1-0.3-0.2c-0.1,0-0.2,0-0.3-0.1
			c-0.1-0.1-0.1-0.1-0.2-0.1c-0.1-0.1-0.2,0-0.3-0.2c0.2-0.1,0.1-0.1,0.2-0.2c0-0.1,0.2,0,0.3,0.1c0.2,0.1,0.2,0.1,0.4,0.2
			c0.1,0.1,0.1,0.1,0.1,0.2c0,0.1,0.2,0,0.2,0.1l0,0l0,0l0,0c0.3,0.3,0.2,0.3,0.7,0.2c-0.3-0.3-0.2-0.1-0.3-0.2
			c-0.1-0.1,0-0.2,0-0.1c0.2,0.1,0.1,0.1,0.3,0.2c0.8,0.3,0.5,0.4,0.6,0.6c0.2,0.2,0.2,0.2,0.3,0.2c0.1,0,0.2,0,0.2,0
			c0.2-0.2-0.1-0.2-0.2-0.3c-0.1,0,0-0.1,0-0.1s0.1,0,0.1-0.1c-0.1-0.2,0.1-0.1,0.1-0.1c0.1-0.1,0.2-0.1,0.3-0.1
			c0.1-0.1-0.2-0.4-0.2-0.4c-0.1,0-0.2,0-0.5-0.2c-0.1-0.1,0-0.1,0-0.2l0,0h-0.1c-0.1,0.1,0.1,0.1-0.3,0.1c-0.2,0-0.1-0.1-0.3-0.1
			c-0.3,0-0.4-0.1-0.9-0.4c-0.1-0.1-0.2-0.2-0.2-0.2c-0.1-0.1-0.1-0.1-0.3,0c-0.6-0.3-1.5-0.6-1.6-0.6c0,0.1,0.1,0.1,0.2,0.1
			c0.2,0.1,0.3,0.2,0.5,0.2l0.3,0.1c0,0.1-0.3-0.1-0.5-0.1s-0.3-0.1-0.5-0.1s-0.3-0.2-0.8-0.3c-0.1,0-1-0.4-1.2-0.4
			c-0.3-0.1-0.3-0.1-0.5-0.1s-0.4-0.1-0.5-0.2c-0.1,0-0.3,0-0.4-0.1c-0.2-0.1-0.3,0-0.5-0.1s-0.1-0.1-0.2-0.1l0,0
			c0.2,0.2,0.5,0.2,0.9,0.3c0.1,0,0.1,0.1,0,0.1h-0.1c0,0.2-0.1,0.1-0.2,0.2c-0.1,0.1,0,0.1-0.1,0.1s0-0.1,0-0.1s-0.2,0-0.3,0
			c-0.2-0.1-0.2,0.1-0.4,0c-0.1,0-0.5-0.1-0.6-0.1c-0.4,0-0.9-0.2-0.5,0c0.1,0,0,0.1-0.1,0.1s-0.1-0.1-0.3,0v0.1
			c0.2,0.1,0.2,0,0.2,0.1l-0.1,0.1c-0.3,0-0.5-0.1-0.6-0.1c0,0-0.1,0.1-0.2,0.1c-0.1-0.1,0-0.1-0.2-0.1v0.1c0.1,0,0.1,0.1,0.2,0.1
			c-0.2,0.1-0.2,0-0.5,0c-0.1,0,0,0.2,0.2,0.2c0.1,0,0.3,0.1,0,0.1c0.4,0.2,0.9,0.3,0.9,0.4h-0.1c-0.1,0-0.6-0.1-0.6,0
			c0,0,0,0,0.4,0.2c0.1,0,0,0.2-0.2,0.1c0,0-0.9-0.2-1-0.3c-0.1,0-0.1,0.1-0.1,0.1c0,0.1-0.2-0.1-0.4-0.1c0,0-0.1,0,0,0.1
			s0.2,0.2,0.4,0.2c0.1,0,0.1,0.2-0.2,0c-0.3-0.1-0.3,0-0.5-0.1c-0.1,0-0.4-0.2-0.4-0.1c0.1,0,0.2,0.1,0.3,0.1
			c0.2,0.1,0.2,0.2,0.4,0.3v0.1c-0.2,0.1-0.1,0-0.4-0.1c-0.2,0-0.2-0.1-0.3-0.2h-0.1c0,0.2,0.2,0.1,0.3,0.3h0.1
			c0.1,0.1,0.2,0.1,0.3,0.2c-0.1,0-0.1,0-0.7-0.2c-0.1,0-0.1,0-0.1,0.1s0.1,0.1-0.1,0.2c0,0,0,0,0.1,0h0.2l0.1-0.1c0,0,0,0,0,0.1
			c0.2,0.1,0.2,0,0.3,0.1c0.2,0.1,0.3,0.2,0.5,0.2c0.1,0,0.1,0.2,0.2,0.3c0,0,0,0.1-0.1,0.1c-0.1,0.1-0.2,0.1-0.2,0.2c0,0,0,0-0.1,0
			c-0.5,0-0.5-0.3-1.4-0.5c-0.1,0-0.1-0.1-0.2-0.1c-0.2-0.1-0.1,0.1,0.6,0.3c0.4,0.1,0.5,0.2,0.6,0.3c0,0.1,0.1,0.1,0.2,0.1l0,0l0,0
			c0.1,0.1,0.1,0.1,0.2,0.1c0.3-0.1,1.2,0.6-0.1,0.1c-0.1,0-0.1-0.1-0.1-0.1l0,0l0,0c0,0,0,0.1-0.1,0.1s-0.3,0-0.4-0.1h-0.1
			c-0.2,0.2-0.2,0.1-0.4,0.1c-0.1,0.1-0.3-0.1-0.4-0.1c0,0.1,0.1,0.2,0.2,0.2c0.2,0.1,0.3,0.2,0.4,0.3h0.1c0.2,0,0.4,0.2,0,0.2l0,0
			c0,0.1,0.1,0,0.2,0.2h0.1h0.1c0.1,0.1,0.3,0.1,0.3,0.2c0.1,0.1,0,0.2-0.1,0.1c-0.2-0.1-0.2,0.1-0.3,0.1c-0.4-0.1-0.4-0.1-0.4-0.1
			s0,0.1,0.1,0.1c0,0,0,0.1,0,0c-0.2,0-0.3-0.2-0.5-0.1c-0.1,0-0.2-0.1-0.5-0.1c-0.1,0.1-0.1,0.1-0.2,0.1c-0.1-0.1-0.1,0-0.2,0
			c-0.1,0.1,0.6,0.3,0.7,0.5l0,0c-0.1,0-0.2-0.1-0.3-0.1c-0.1,0-0.2,0-0.4-0.1c-0.1-0.1-0.1,0-0.3,0c-0.2-0.1-0.2-0.1-0.4-0.1
			c0,0-0.1,0,0,0.1c0,0,0.7,0.4,0.8,0.5c0.4,0.2,0.5,0.4,0.8,0.5c0.1,0,0.3,0.2,0.3,0.2s0,0-0.2,0c-0.2,0.1-0.7-0.3-0.6-0.2
			c0.5,0.4,0.5,0.3,0.2,0.4c-0.4-0.1-0.3-0.2-0.6-0.3c0.2,0.3,1.2,0.7,1.3,0.9c0,0.1,0.1,0.1,0.2,0.1c0.2,0.2,0.4,0.3,0.7,0.4
			c0.1,0.2,0.1,0.1,0.3,0.2v0.1c-0.1,0,0,0-0.5-0.2c-0.1,0-0.1,0,0,0.1c0.2,0.2,0.2,0.1,0.4,0.2c0.3,0.2,0.1,0.1,0.5,0.2
			c-0.1-0.1,0.1-0.1,0.1,0v0.1c-0.3-0.1,0.4,0.3,1,0.7c1.2,0.8,0.5,0.2,1,0.5c1.6,0.8,1.4,0.8,1.5,0.8l-0.1-0.1
			c-0.1,0-0.2-0.1-0.2-0.2h0.2c0-0.1-0.1-0.1-0.1-0.2c0,0,0,0,0.1,0s0.2,0.2,0.4,0.2c0,0,1.8,1,2.1,1.2c0.2,0.1,1.1,0.6,0.9,0.3l0,0
			c-0.2-0.1-0.4-0.2-0.5-0.3c0,0-0.2-0.1-0.3-0.1c-3.6-1.9-2.9-1.5-3.4-1.9c0.3,0.1,0.1,0,0.5,0.1l0,0c-0.2-0.2-0.3-0.2-0.2-0.2
			c0.1-0.1,0.1,0,0.2,0c0.2-0.1,0.4,0.3,0.5-0.1c0-0.1,0.3,0,0.4,0.1c0.2,0.1,0.2,0,0.4,0.1c0.2,0.1,0.4,0.3,0.7,0.3
			c0.1,0,0.2,0.1,0.3,0.1c0.2,0.1,0.1,0.2,0.2,0.3c0.6,0.4,0.6,0,0.4,0c0,0,0,0-0.1,0c-0.2,0-0.3-0.4-0.1-0.2
			c0.3,0.2,1.2,0.5,1.4,0.7l0.1,0.1c0.2,0.1,0.2,0.2,0.4,0.2c0.1,0.1,0.3,0.1,0.4,0.2c0,0,0,0,0.1,0c0.2,0.1,0.2,0.3,0.4,0.2
			c0.1,0,0.1,0.1,0.3,0.1c0.1,0.1,0.6,0.3,0.7,0.3c0.8,0.4,0.8,0.4,0.8,0.5h0.1c0.6,0.2,0.3,0.4,0.2,0.3c-0.1-0.1-0.4-0.1-0.3,0
			l0.1,0.1c0.2,0,0.3,0.1,0.4,0h0.1c0.2,0.1,0.2,0,0.3,0.1c0.2,0.2,0.2,0.1,0.3,0.2c0.2,0.2,0.6,0,0.7,0.4c0,0.1,0.1,0.1,0.2,0.2
			c0.1,0,0.2,0,0.3,0c0.2,0.2,0.2,0.2,0.3,0.2h0.1c0.1,0.2-0.2,0.3-0.4,0.2l0,0l0,0c0.1,0.1,0.2,0,0.3,0.1c0.1,0.1,0.2,0.2,0.3,0.2
			c0.1,0.1-0.1,0.1,0.4,0.2l0,0c-0.4-0.2-0.5-0.6,0.1-0.2c0.1,0.1,0.4,0.1,0.4,0c0,0-0.1-0.2,0-0.1c0.1,0,0.2,0,0.2,0.1
			c0.1,0.1,0.2,0.2,0.2,0.3s0.1,0.1,0.2,0.1h0.1c0.1-0.1,0.3,0.1,0.2,0.1c-0.1,0.1-0.1,0,0,0.2c0.1,0.1,0.2,0.1,0.3,0.1
			c0.2-0.1,0.3,0.1,0.1,0.2c-0.2,0.1-0.2-0.1-0.3,0c-0.1,0.3-0.4-0.1-0.7-0.4c-0.1-0.1,0-0.2,0-0.2c-0.1-0.1-0.2-0.1-0.3-0.2h-0.1
			c-0.1,0.2-0.2,0.1-0.3,0.1c-0.1,0,0,0.1,0,0.1c0.3,0,0.5,0.3,0.7,0.4c0.2,0.1,0,0.2,0.2,0.3c0.1,0.1,0.1,0.1,0.1,0.1
			c0.1,0.2-0.2-0.1-0.4,0c0.1,0.1,0.1,0,0.7,0.4l0,0c-0.2,0-0.3,0-0.4-0.1c-0.2-0.1-1.8-0.8-2-1c-0.1-0.1-0.2-0.1-0.4-0.2
			c-0.4-0.2,0-0.1-0.5-0.3c-0.1-0.1-0.3-0.1-0.4-0.2c-0.1-0.1-0.3-0.1-0.4-0.2h-0.1c0,0,0.2,0.3,0.5,0.3c0.1,0,0.3,0.1,0.4,0.2
			c0.1,0.1,0.1,0.1,0.2,0.2c0.3,0.1,0.8,0.4,1,0.4c0.2,0.1,0.3,0.2,0.6,0.4c0.3,0.2,0.3,0.2,0.5,0.2s0.3,0.2,0.4,0.2
			s0.2,0.1,0.3,0.1c0.1,0,0.2,0.1,0.2,0.2c0.2,0.3,0.1,0.2,0.1,0.3c-1.3-0.4,1.7,1,1.8,1c0.2,0,0.3,0.1,0.6,0.2h-0.1
			c0-0.1-0.1,0-0.1,0l-0.4,0.6c-0.1,0.3-0.2,0.3-0.3,0.4c-0.1,0.2-0.2,0.4-0.3,0.5c0,0.1-0.1,0.1-0.1,0.2c-0.2,0.3,0.2-0.4-0.8,1.2
			c-0.2,0.4-0.3,0.4-0.4,0.5c0,0-0.5,0.9-0.9,1.4c-0.2,0.3-0.1,0.3-0.3,0.6c-0.1,0.1-0.1,0.2-0.2,0.3c-0.1,0.2-0.2,0.3-0.6,1
			c-0.1,0.2,0,0.3-0.1,0.4c-0.1,0.1-0.2,0.3-0.3,0.4c0,0-0.1,0-0.6,1.1c-0.1,0.2,0.1,0.2-0.3,0.8c-0.1,0.2-0.2-0.1-0.2,0.2
			c0,0.1,0,0.3,0,0.4c0,0,0,0,0,0.1c0,0.2,0.1,0.1-0.1,0.3c0,0.1,0,0.3,0,0.3c0.1,0,0.1,0,0.1,0.2c0,0-0.1,0.2-0.1,0.3
			c-0.1,0.2,0,0.2,0.1,0.3s-0.1,0.2,0,0.3s0,0.4,0.1,0.4s0.1-0.2,0.1-0.3c0.1-0.1,0.1,0,0.2,0c0-0.2,0.1-0.3,0.1-0.5
			c0-0.1,0-0.1,0.1-0.1c0.2-0.2,0.1-0.3,0.2-0.6c0.1-0.2,0.2-0.2,0.3-0.2c0.3-0.5,0.2-0.3,0.4-0.3c0.2-0.3,0.2-0.4,0.2-0.4h0.1
			c-0.1,0.3-0.3,0.5-0.2,0.7c0.1,0.1-0.1,0.2,0,0.3c0.1,0,0.4-0.2,0.2,0.2c-0.1,0.1-0.1,0.1-0.2,0.1s0-0.1-0.1-0.2l-0.1,0.1
			c-0.1,0.2-0.2,0.2-0.3,0.4c0,0.1-0.2,0.2-0.1,0.4c0,0,0,0.2,0.1,0.1c0.3-0.1,0.3-0.5,0.5-0.6c0,0,0,0,0,0.1s-0.1,0.3,0,0.4
			c0.2-0.1,0.2-0.2,0.2-0.3s0.1-0.1,0.1,0s0,0.1,0.1,0.1c0,0,0.1,0,0,0.1c0,0,0,0.1-0.1,0.1c0,0.1,0.1,0.1,0,0.2c0,0,0,0.1,0.1,0
			c0.2-0.1,0.1,0,0.2,0v0.1c-0.1,0.1-0.2,0.2-0.2,0.2s0,0.1,0,0.2c0.1,0,0.2,0.1,0.1,0.3s-0.2,0.1-0.3,0.2c-0.2,0.1-0.2,0.1-0.4,0
			c-0.1-0.1-0.1-0.2,0.1-0.5c0-0.1-0.1-0.1-0.1-0.1c-0.1,0.1-0.2,0.2-0.3,0.3c-0.1,0.2-0.2,0.3-0.2,0.5c0,0.1-0.3,0.2-0.2,0.3
			l0.1,0.1c0,0.1,0.1,0.3,0.3,0.2c0.1,0,0.1,0,0.1,0.1c0.2-0.2,0.1-0.1,0.2-0.2h0.1c-0.1,0.1,0,0.2,0.1,0.3s0.1,0.1,0.3,0.3
			c0.1,0.1,0.2,0,0.4,0c0.1,0,0.2,0,0.3-0.1h0.1c0,0.3-0.2,0.3,0.1,0.4c0.1,0.1,0.3,0.1,0.4,0c0.1-0.3,0.1-0.2,0.3-0.3h0.1
			c0.1,0,0,0.1,0.1,0.1c0,0,0.1,0,0.1,0.1s0,0.3,0.1,0.2s0,0,0.2,0c0.2,0.1,0.1,0.5,0.4,0.3c0.1-0.1,0.1,0.1,0.1,0.2
			c0.1,0,0.1-0.1,0.2,0s0.1,0.1,0,0.2c-0.1,0.1-0.1,0.3,0.1,0.3s0.2,0.1,0.3,0.1c0.1,0.1,0.2-0.2,0.3-0.1c-0.1,0.4-0.2,0.4,0.2,0.5
			c0.1,0,0.2-0.1,0.2-0.1c0-0.1,0-0.1,0-0.2c0-0.1,0-0.3,0.1-0.3l0,0c0,0.1,0.1,0.1,0.1,0.2c0.1,0.1,0.1,0.1,0.1,0.2v0.1
			c0.2,0,0.1,0.2,0.3,0.1c0-0.1,0.1-0.2,0.1-0.2c0-0.1,0.1-0.2,0.1-0.3c0-0.2,0.2-0.1,0.2-0.2c0.1-0.1,0.2,0,0.1,0.1
			s-0.2,0.1-0.1,0.2c0,0.1,0.1,0,0.2-0.1c0.1,0,0.1-0.1,0.1-0.1c0-0.1,0.1-0.1,0.1-0.1s0,0,0,0.1s0.1,0,0.1,0c0-0.2,0-0.3,0.1-0.3
			s0.1,0.1,0.2,0.1s0.1-0.1,0.1-0.1h-0.1c0-0.1,0-0.1,0.1-0.2c0.1-0.2,0.2-0.2,0.3-0.3c0.1-0.1,0.4-0.3,0.3-0.1c0,0,0,0,0,0.1v0.1
			c0.2,0,0.2-0.1,0.3-0.1c0.2-0.3-0.1-0.2-0.2-0.2s0.1-0.1,0.1-0.2c0-0.1,0-0.2,0.3-0.5c0.1,0,0.3,0,0.3-0.1
			c-0.1-0.1,0.2-0.4,0.4-0.8c0.1-0.2,0.2-0.2,0.4-0.4c0,0,0.1-0.1,0.1-0.2c0.1-0.2,0.2-0.3,0.3-0.4c0.3-0.4,0.6-0.5,0.6-0.3
			c-0.1,0.2-0.1,0.3-0.3,0.5c-0.2,0.1,0.2,0.1,0,0.2c-0.1,0.1-0.2,0.2-0.2,0.3l-0.1,0.1c-0.1,0.1-0.1,0.2-0.3,0.4
			c-0.4,0.1,0,0.1-0.3,0.4c-0.2,0.2-0.1,0.2-0.2,0.3s0,0.3,0.1,0.3c0.2,0.1-0.1,0.6-0.2,0.1c-0.1,0-0.2,0.1-0.2,0.2
			c-0.2,0.3,0,0.3-0.1,0.5c0,0.1-0.1,0-0.1,0.3c0.2,0,0.1,0.2,0,0.1l-0.1-0.1v0.1c0,0.1,0,0.1,0.1,0.1c0.2,0,0.2,0.1,0.2,0
			c0.1-0.1,0.2-0.2,0.3-0.1v0.1c-0.1,0.1,0.1,0.1,0.2,0.1c0-0.1,0-0.2,0-0.2v-0.1c0.2-0.1,0.2,0,0.3-0.2v-0.1c0,0,0,0-0.1,0
			c0,0,0-0.1,0.1-0.1c0,0,0.1,0.1,0.1,0c0.3-0.8-0.1-0.2-0.2-0.3c0-0.1,0-0.2,0.2-0.3s0.2-0.1,0.3-0.2c0.1-0.1,0.2,0.1,0.2,0
			s0.2-0.2,0.2-0.3s0.1-0.2,0.2-0.2l0,0c0.1,0.1,0.1,0,0.3-0.1c0.2-0.1,0.1-0.2,0.3-0.4c0.1-0.1-0.1-0.3,0.1-0.3
			c0.1,0,0.2-0.2,0.2-0.2c0.2-0.3,0.1-0.2,0.2-0.4c0.1-0.1,0.1,0,0.2-0.1c0.2-0.3,0.3-0.2,0.4-0.3c0.2-0.3,0.2-0.3,0.1-0.3
			s-0.1,0.1-0.2,0.1c-0.1,0.1-0.1-0.2,0-0.3c0.5-0.5,0.4-0.5,0.6-0.8c0.1-0.1,0.2-0.2,0.2-0.3s-0.1,0,0-0.2c0,0,0.1,0,0,0l0,0
			c0.2-0.4,0.1-0.3,0.1-0.4c0-0.1,0.1-0.3,0.2-0.3s0.2-0.1,0.2,0c0,0,0,0,0-0.1s0-0.2,0.1-0.2c0.2-0.1,0,0,0.4-0.4
			c0.1-0.1-0.1-0.1,0-0.3c0.1-0.1,0.1-0.3,0.2-0.4c0.1-0.1,0.1-0.1,0.2-0.2c0.1-0.1,0.1-0.2,0.2-0.3s0.1-0.2,0.2-0.3
			c0,0,0.2-0.3,0.3-0.5c0.1-0.3,0.3-0.6,0.5-0.8c0.1-0.1,0.3,0,0.2-0.3c0.2-0.3,0.3-0.6,0.4-0.7c0.1,0,0.1,0,0.2,0.1
			c0.2,0.1,0.3,0.3,0.2,0.3h-0.1l0,0c0.1,0.1,0.3,0.1,0.2,0.2c0,0-0.2,0.1,0,0.2l0.3,0.1c0.1,0,0.3,0,0.3,0c0-0.1-0.1-0.1-0.2-0.2
			v-0.1c0.1,0,0.2,0,0.3,0.1h0.1c0.1,0,0.1,0,0.4,0.1c0.6,0.2,0.4,0.2,0.6,0.3h0.1c0.3,0.1,1.2,0.6,1.9,0.9c0.2,0.1,0.1,0.2,0.2,0.3
			s0.2,0.1,0.1,0.2c-0.1,0.1,0,0.1,0.2,0.2c0,0,0.1,0.1,0,0.1c-0.1,0.1-0.1-0.1,0,0.1c0.1,0.1,0.1,0.1,0,0.2l0,0l0,0l0,0l0,0l0,0
			c0.2,0.2,0.2-0.1,0.3,0c0.1,0.1,0.1,0.1,0.2,0.2c0.1,0,0.1,0.1,0.2,0.1s0.2,0.1,0.3,0.1c0.1,0,0,0.1,0.3,0.2
			c0.5,0.2,0.5,0.4,0.7,0.4c0.1,0,0.3,0.1,0.4,0.1c0.2,0.1,0.2-0.1,0.4,0.1c0.1,0.1-0.1,0.1,0,0.1c0.3,0.2,0.4,0.2,0.5,0.2
			s0.1-0.2,0.2-0.1c0.7,0.2,0.7,0.3,0.9,0.4c0.1,0.1,0.1-0.1,0.3,0.1c0.1,0.1,0.2,0.2,0.3,0.1c0-0.1,0-0.1,0.2,0v0.1
			c-0.2,0-0.1,0-0.3,0c0.2,0.1,0.2,0.1,0.1,0.1h-0.1c-0.5-0.1-0.2,0,0,0.1c0.7,0.2,0.6,0.2,0.8,0.3c0.2-0.2,0.2,0.1,0.5,0
			c0.2,0,0.3,0,0.3,0.1l0.2-0.1v-0.1c-0.2,0-0.3-0.3-0.1-0.3c0,0,0,0,0.1,0c0,0,0,0,0-0.1c-0.5-0.2-0.2,0.1-0.7-0.2v-0.1
			c0.1,0,0.3,0.1,0.4,0c0,0,0,0,0.1,0c0.3,0.1,0.2,0,1,0.2c0.2,0.2,0,0.1,0,0.3c0,0,0.2,0,0.5,0.1c0,0,0.1,0,0.1-0.1
			s-0.2-0.1-0.3-0.2c0.3-0.2,0.2-0.2,0.5,0c0.1,0.1,0.1,0,0.4,0.1c0-0.1-0.1-0.1,0-0.2c0-0.1-0.3-0.1-0.4-0.2
			c-0.4-0.1-0.2,0-0.5-0.1c-0.1-0.1-0.1-0.1-0.4-0.2c-0.1,0-0.1-0.1-0.2-0.2c-0.1-0.1,0-0.1,0.1-0.1s0.1,0,0-0.2
			c0.5,0.2,0,0,0.7,0.4h0.1c0-0.2-0.1-0.2-0.2-0.3c0,0-0.1-0.1,0-0.1s0.2,0.1,0.2,0c-0.1-0.1,0.1-0.1,0.1-0.1c0.1,0,0.2,0.1,0.4,0.1
			c0.1,0,0,0.2,0.1,0.3c0.1,0,0.1,0,0.2,0c0.1,0.1,0.3-0.1,0.3-0.1s0.1,0,0.3,0c0.4,0.3,0.4,0.2,0.8-0.1v-0.1
			c-0.1-0.1,0-0.1,0.1-0.2c0.2-0.2,0.2-0.1,0.3-0.3c0-0.1,0.1-0.1,0-0.2c0,0,0-0.1-0.1-0.1c0,0,0-0.1,0.1-0.1s0.3,0.1,0.3,0v-0.1
			c0-0.1,0-0.1,0-0.1c0.1-0.1,0.1-0.2,0.1-0.4c0-0.1,0.2,0,0.3,0c0.1,0,0.1-0.1,0.2-0.3c0-0.1-0.1-0.1-0.2-0.2
			c0-0.1,0.1-0.1,0.2-0.2c0.1-0.1-0.1-0.1-0.1-0.2c0,0,0,0,0.1,0c0.2,0,0.2,0.1,0.3,0c0.1,0,0.1-0.2,0-0.3c0,0-0.2-0.2-0.1-0.2
			s0.2,0.1,0.2,0s0.1-0.1,0.2-0.2c0.1-0.1-0.1-0.1,0-0.3c0-0.1,0.2,0,0.2,0.1c0.1,0.1,0.2,0.1,0.3,0c0.1-0.1,0.2-0.2,0.2-0.3
			c0-0.2,0.2-0.2,0.1-0.4c0-0.1,0-0.1,0.1-0.1s0.1,0.1,0.2,0.1c0.2,0.1,0.2-0.3-0.1-0.3c-0.3,0-0.2,0-0.4,0.1c-0.1,0.1,0,0.2,0,0.3
			c-0.2,0.4-0.6,0.3-0.6,0.2s-0.1-0.2-0.1-0.3c0,0,0-0.1,0.1,0c0.2,0.1,0.3,0.4,0.4,0.2c0,0-0.1-0.1,0-0.3c0.1-0.1-0.2-0.3-0.1-0.3
			s0.1,0,0.2,0l0,0c-0.1-0.1-0.3-0.1-0.4-0.1c0,0-0.1-0.1,0-0.1c0.1-0.1,0.2-0.1,0.3-0.2c0,0,0.1-0.1,0.1,0c0.1,0.1,0.1,0.2,0.2,0.3
			v0.1c0,0.1,0,0.1,0.2,0.1c0.1-0.1,0.2-0.1,0.2-0.2c0-0.1,0.1-0.1,0.1-0.2l0,0c0-0.1,0-0.1,0-0.1c0.2-0.1,0.3-0.2,0.1-0.3
			c-0.3-0.1-0.1-0.1-0.1-0.3h-0.1l0,0c-0.1,0.1-0.1,0-0.2-0.1c0,0,0-0.1-0.1-0.1c-0.1-0.1-0.1-0.2-0.2-0.2c0.1-0.1,0-0.1-0.2-0.4
			h-0.1c-0.1-0.1-0.2-0.2-0.2-0.2c-0.2-0.4-0.4-0.4-0.5-0.8l0.1-0.1c-0.1-0.3-0.3-0.4-0.4-0.5s0-0.4,0-0.3c0.1,0.1,0.4,0.2,0.3,0.3
			s0,0.1,0.2,0.4c0,0,0.1,0,0.2,0.1s0.1,0.2,0.2,0.3s0.2,0.1,0.3,0.2c0.3,0.4,0.1,0.2,0.6,0.7c0.3,0.3,0.3,0.5,0.6,0.5
			c0.4,0-0.7-1-0.5-1.3l0,0v-0.1c0.1-0.5,0.4-0.3,0.2-0.6c-0.2-0.4-2.8-1.7-2.8-1.7c-0.1-0.1-0.5-0.2-0.4-0.3l0.1-0.1
			c-0.2-0.2-0.5-0.1-0.8-0.3c-0.3-0.1-4.7-2.3-7.8-3.8c0.4-0.7,1-1.4,1-1.5s0.2-0.2,0.3-0.4c0.1-0.3,0.3-0.3,0.4-0.6
			c0.1-0.4,1.5-2.4,1.5-2.5c0.1-0.2,0.1-0.2,0.4-0.7c1-1.8,0.4-0.6,1-1.7c0,0,0-0.1,0.1-0.1c0.2-0.2,0.3-0.4,0.4-0.5
			c0.2-0.3,0.1-0.1,0.2-0.4c0,0,1.6-2.7,3.6-6.5c0-0.1-0.1-0.1-0.1-0.1s0,0,0,0.1c-0.3,0.5-0.1,0.2-0.7,1.3
			c-0.2,0.4-0.2,0.3-0.3,0.5c0,0.1-0.2,0.1-0.1,0c0-0.1,0-0.1-0.1-0.1c0,0-0.2,0.2-0.2,0c0-0.1,0-0.4,0.1-0.4h0.1l0.1-0.1
			c0-0.1-0.2,0.1-0.1-0.1c0.1-0.1,0.2,0,0.1-0.1V181c0-0.1,0-0.2,0.1-0.2c0.1-0.2,0.2-0.5,0.3-0.7c0.2-0.2,0.2-0.4,0.3-0.6
			c0.3-0.4,0.2-0.3,0.3-0.6c0-0.1,0-0.2,0-0.2c-0.2,0-0.2,0.1-0.1-0.2v-0.1c-0.2,0.1-0.2,0.1-0.3,0.3c-0.5,0.8-0.3,0.1,0-0.3
			c0.1-0.2,0.2-0.4,0.3-0.6c0.3-0.5,0.5-0.9,0.7-1.4c0,0,0-0.1-0.1-0.1v-0.1c0.1-0.1,0.2,0,0.2-0.2c0-0.1,0-0.2,0.1-0.3
			s0-0.1,0.1-0.4c0.1-0.4,0.2-0.6,0.3-0.7c0.1-0.1-0.1-0.1,0-0.3C1118.1,174.1,1118.2,173.8,1118.3,173.2c0.1-0.1,0-0.1,0-0.1
			C1118.3,173.1,1118.3,173.2,1118.3,173.2z M1116.9,172L1116.9,172C1117,172,1117,172,1116.9,172z M1116.8,171.6
			C1116.8,171.6,1116.9,171.6,1116.8,171.6C1116.8,171.8,1116.8,171.7,1116.8,171.6z M1115.2,170.1L1115.2,170.1
			C1115.2,170,1115.2,170,1115.2,170.1z M1115,170.3L1115,170.3C1114.9,170.3,1115,170.2,1115,170.3z M1105.7,178.2
			c0,0,0,0.1-0.1,0.1S1105.6,178.1,1105.7,178.2z M1102.7,182.3C1102.7,182.4,1102.7,182.4,1102.7,182.3L1102.7,182.3z
			 M1102.5,182.7c0.1,0,0,0.1,0,0.1C1102.4,182.7,1102.4,182.7,1102.5,182.7z M1102.2,183c0.2-0.2,0.2,0,0,0.1
			C1102.1,183.2,1102.1,183.1,1102.2,183z M1085.5,185.3c0.1,0,0.1,0,0.1,0.1C1085.6,185.4,1085.5,185.3,1085.5,185.3z M1085,184.3
			C1085,184.4,1085,184.4,1085,184.3C1085,184.4,1084.9,184.2,1085,184.3z M1084.8,184.2L1084.8,184.2L1084.8,184.2
			C1084.8,184.2,1084.7,184.2,1084.8,184.2C1084.7,184.2,1084.8,184.2,1084.8,184.2z M1083.8,183.8c0,0,0,0,0.4,0.2
			c0.1,0,0,0.1,0.2,0.2l0.1,0.1c-0.1,0.1,0.2,0.2,0.3,0.3l0,0c-0.1,0-0.1,0-0.3-0.1l0,0c-0.4-0.3-0.3-0.2-0.2-0.3l0,0
			c-0.3-0.2-0.3-0.2-0.3-0.2C1083.9,183.9,1083.8,183.8,1083.8,183.8z M1082.9,183.4L1082.9,183.4L1082.9,183.4z M1072.6,189
			C1072.6,189.1,1072.6,189,1072.6,189S1072.7,189,1072.6,189z M1072.6,188.7C1072.6,188.7,1072.6,188.8,1072.6,188.7
			C1072.5,188.8,1072.5,188.7,1072.6,188.7z M1072.2,187.6L1072.2,187.6C1072.2,187.7,1072.2,187.7,1072.2,187.6z M1074,183.5
			c0.1,0,0.2,0.1,0.1,0.1S1073.9,183.5,1074,183.5z M1075.6,189.7L1075.6,189.7C1075.8,189.7,1075.7,189.7,1075.6,189.7z
			 M1076.1,190.9C1076,190.9,1076.1,190.9,1076.1,190.9c0.2,0,0.4,0.1,0.3,0.1C1076.4,191.1,1076.2,191,1076.1,190.9z M1076.2,190.1
			C1075.6,189.8,1075.9,189.7,1076.2,190.1C1076.3,190,1076.3,190.1,1076.2,190.1z M1077.2,190.8L1077.2,190.8c0.1,0,0.1,0,0.2,0.1
			C1077.5,190.9,1077.3,190.9,1077.2,190.8z M1077.7,190.9c0.1-0.1,0.2,0,0.3,0.1C1077.9,191.1,1077.6,190.9,1077.7,190.9z
			 M1081.5,184.4c0.1,0,0.1,0,0.2,0s0.1,0.2,0,0.2s-0.2-0.1-0.2,0s0,0.1-0.2,0l0,0c0-0.1-0.1-0.2-0.2-0.2
			C1080.6,184.1,1081.3,184.2,1081.5,184.4z M1081.2,183.9c0,0,0.1,0,0.1,0.1C1081.3,184,1081.3,184,1081.2,183.9L1081.2,183.9z
			 M1081.6,184.1C1081.5,184.1,1081.6,184.1,1081.6,184.1C1081.7,184.2,1081.6,184.2,1081.6,184.1z M1083.6,192.4
			c0.4,0.2,0.4,0.2,0.3,0.2C1083.9,192.6,1083.6,192.5,1083.6,192.4C1083.4,192.5,1083.5,192.3,1083.6,192.4z M1082.9,192.1
			c0,0,0,0.1-0.1,0.1c-0.1,0.1-0.4-0.2-0.3-0.2C1082.7,191.9,1082.9,192,1082.9,192.1z M1082.2,191.2c0.1,0.1,0.1,0.2-0.1,0.1
			C1082.1,191.2,1082.1,191.1,1082.2,191.2z M1082.3,191.8c0.1,0.1,0.1,0.2,0.1,0.2c-0.2,0-0.4-0.1-0.5-0.2c-0.1-0.1-0.2,0-0.3-0.2
			c0-0.1,0.1-0.1,0.2-0.1c0,0,0.1,0,0,0.1C1081.6,191.6,1082,191.5,1082.3,191.8z M1078.8,182.5L1078.8,182.5
			C1078.8,182.4,1078.8,182.4,1078.8,182.5z M1081.1,190.6c0,0,0.2,0,0.3,0c0.3,0.1,0.7,0.3,0.6,0.4
			C1081.8,191.1,1081.8,191.1,1081.1,190.6C1081.1,190.7,1081.1,190.6,1081.1,190.6z M1081,191.1
			C1081.1,191.1,1081.1,191.1,1081,191.1C1081.4,191.4,1081.1,191.2,1081,191.1C1080.9,191.1,1081,191.1,1081,191.1z M1080.5,190.9
			C1080.5,190.9,1080.6,190.9,1080.5,190.9C1080.6,190.9,1080.6,190.9,1080.5,190.9L1080.5,190.9z M1076.5,183.4
			C1076.5,183.5,1076.4,183.5,1076.5,183.4C1076.3,183.4,1076.4,183.4,1076.5,183.4z M1079.3,191.5
			C1079.3,191.5,1079.2,191.5,1079.3,191.5C1079.3,191.5,1079.4,191.5,1079.3,191.5z M1085.5,193.5c-0.5-0.2-0.5-0.2-0.6-0.3
			c-0.3-0.2-0.3-0.2-0.3-0.2s0,0.1,0.1,0.2c0.2,0.1,0.2,0.2,0.3,0.4c0.4,0.3,0.1,0.2,0.4,0.4c0.6,0.4,0.2,0.2,0.2,0.2
			c-0.2-0.1-0.6-0.3-0.7-0.3c-0.3-0.1-0.4-0.2-0.7-0.3c-0.2-0.1-0.2-0.2-0.3-0.2c-0.3-0.1-0.7-0.3-0.8-0.4c-0.2-0.1-0.2,0-0.4-0.1
			c-0.2-0.1-0.3-0.2-0.3-0.2c0-0.1-0.1-0.1-0.3-0.3c-0.1-0.1-0.1,0-0.2,0c-0.3-0.1-0.8-0.4-1-0.5c-0.4-0.2-0.2-0.4-0.6-0.4
			c-0.3,0-0.3-0.1-0.6-0.2c-0.3-0.1-0.7-0.4-0.4-0.4c0.2,0,0.2,0.1,0.2-0.1c0-0.1-0.1,0-0.3-0.1l-0.2-0.1c-0.1,0-0.2-0.1-0.3-0.1
			c-0.2-0.1-0.6-0.2-0.6-0.3s0.1,0,0.4,0.1c0.4,0.2,0.4,0.3,0.6,0.2s0.5,0.4,0.9,0.3c0.1,0,0.2,0.1,0.3,0.2c0.1,0.1,0.1,0.1,0.2,0.2
			l0.1,0.1c0.1,0.2,0.4,0.2,0.6,0.4c0.1,0.1,0.2,0,0.3-0.1c0.2,0,0.3,0.1,0.5,0.2c0.3,0.2,0.5,0.2,0.4,0.3s0.1,0.2,0.3,0.3
			c0.4,0.2,0.3-0.1,0.7,0.1c0.5,0.3,0.5,0.3,0.6,0.4c0.1,0.1,0.2,0.1,0.2,0.2c0,0.1,0.1,0.1,0.2,0.1s0.1,0,0.1-0.2
			c0-0.1-0.1-0.1-0.1-0.1s0-0.1-0.1-0.1v-0.1c0.2,0,0.2,0.2,0.3,0.1c0.3,0.1,0.2,0.1,0.3,0.2C1085,193,1085.5,193.4,1085.5,193.5
			L1085.5,193.5z M1085.1,193.4C1085,193.4,1085,193.4,1085.1,193.4C1085,193.3,1085.1,193.4,1085.1,193.4z M1082.7,185.2
			C1082.8,185.2,1082.7,185.3,1082.7,185.2c-0.4-0.1-0.4-0.1-0.4-0.2c0-0.1,0.1-0.1,0.1-0.1L1082.7,185.2z M1082.5,184.5
			L1082.5,184.5C1082.6,184.6,1082.4,184.5,1082.5,184.5z M1082.3,184.8C1082.3,184.8,1082.2,184.7,1082.3,184.8
			C1082.3,184.7,1082.4,184.7,1082.3,184.8z M1082.1,184.4c-0.4-0.2-0.3-0.3-0.2-0.3c0.1,0,0.2,0.1,0.3,0.1
			C1082.2,184.3,1082.2,184.4,1082.1,184.4z M1082.2,184.9L1082.2,184.9C1082.1,184.9,1082.1,184.8,1082.2,184.9
			C1082.2,184.8,1082.2,184.8,1082.2,184.9z M1081.9,184.5c0.1,0,0.2,0.1,0.2,0.1C1082,184.7,1081.8,184.5,1081.9,184.5z
			 M1082.6,184.1c-0.1,0.1-0.1,0.1-0.8-0.2c-0.6-0.3-0.3-0.1-0.7-0.3c0,0-0.1-0.1,0-0.1s0.2,0.1,0.3,0.1c0.2,0.1,0.2,0,0.5,0.2h0.1
			l0,0l0,0l0,0c0-0.1-0.1-0.1-0.2-0.1c-0.3-0.1-0.2-0.2-0.1-0.1c0.2,0.1,0.5,0.3,0.5,0.3c-0.1,0.1,0,0-0.3,0l0,0
			c0.1,0,0.2,0.1,0.4,0.2C1082.4,184,1082.6,184.1,1082.6,184.1z M1085.9,194.3L1085.9,194.3L1085.9,194.3z M1089.7,197.8
			C1089.7,197.8,1089.7,197.8,1089.7,197.8C1089.5,197.7,1089.7,197.7,1089.7,197.8z M1089.7,198.6c-0.1,0-0.1-0.1-0.2-0.1
			s-0.1-0.1-0.2-0.1l-0.1-0.1c0,0,0.1-0.1,0.3,0c0.1,0.1,0.3,0.1,0.4,0.2C1090,198.7,1090.1,198.7,1089.7,198.6z M1089.7,197.7
			C1089.7,197.6,1089.7,197.6,1089.7,197.7C1089.7,197.6,1089.7,197.6,1089.7,197.7C1089.8,197.6,1089.8,197.6,1089.7,197.7z
			 M1087.6,210.7C1087.5,210.8,1087.5,210.7,1087.6,210.7c-0.2,0-0.2,0-0.2-0.1c0.1-0.2-0.1,0,0-0.3c0-0.1,0.2-0.1,0.2,0
			C1087.4,210.8,1087.8,210.3,1087.6,210.7z M1091.6,214.8C1091.5,214.9,1091.4,214.8,1091.6,214.8
			C1091.5,214.7,1091.6,214.7,1091.6,214.8z M1092,213.7C1092,213.7,1092.1,213.7,1092,213.7C1092,213.8,1092,213.8,1092,213.7z
			 M1092.1,213.2v-0.1C1092.2,213.1,1092.2,213.2,1092.1,213.2z M1095.7,212.9c0-0.2,0.3-0.3,0.3-0.2
			C1095.9,212.9,1095.7,213,1095.7,212.9z M1096.1,212.6C1096.1,212.6,1096.1,212.5,1096.1,212.6
			C1096.2,212.5,1096.2,212.6,1096.1,212.6C1096.2,212.6,1096.1,212.6,1096.1,212.6z M1119.2,202.9c0.1,0,0.1,0,0.2,0.2
			c0,0.1-0.1,0.1-0.1,0C1119.3,203.1,1119.2,203.1,1119.2,202.9C1119.2,203,1119.2,202.9,1119.2,202.9z M1104.4,182.2L1104.4,182.2
			C1104.4,182.1,1104.5,182.1,1104.4,182.2z M1104.4,182.5c0,0.1-0.1,0.2-0.1,0.1C1104.2,182.6,1104.3,182.4,1104.4,182.5z
			 M1107.7,194.7c0,0-0.1,0-0.2,0s0-0.1,0-0.2C1107.5,194.5,1107.6,194.5,1107.7,194.7C1107.8,194.7,1107.7,194.7,1107.7,194.7z
			 M1102.9,185.8C1102.9,185.7,1102.9,185.7,1102.9,185.8L1102.9,185.8z M1103.3,186.5c0.1,0,0,0.2-0.1,0.2
			C1103.1,186.6,1103.2,186.4,1103.3,186.5z M1103.8,184.3L1103.8,184.3L1103.8,184.3C1103.8,184.3,1103.7,184.3,1103.8,184.3z
			 M1103.6,184.2C1103.7,183.7,1103.9,184,1103.6,184.2C1103.6,184.3,1103.5,184.3,1103.6,184.2z M1103.2,184.7
			c0.2-0.2,0-0.3,0.2-0.3c0,0,0.1,0.1,0,0.1C1103.3,184.7,1103.3,184.7,1103.2,184.7L1103.2,184.7L1103.2,184.7z M1102.9,184.6
			c-0.1,0.3-0.1,0.3-0.2,0.3C1102.6,184.9,1102.8,184.5,1102.9,184.6z M1102.5,185.2c0,0.1,0,0.1-0.1,0.2l0,0
			C1102.4,185.2,1102.5,185.1,1102.5,185.2z M1102.3,185.8L1102.3,185.8c0.1-0.1,0.1-0.3,0.2-0.3s0.1,0,0.1,0.1
			c0.1-0.1,0.1-0.3,0.3-0.2c0,0,0.1,0,0,0.1s-0.1,0-0.3,0.2c0,0.1-0.2,0.1-0.2,0.2c0,0.2,0.1,0.1-0.2,0.3c-0.1,0.1-0.2,0.1-0.2,0
			C1102.3,186,1102.3,185.9,1102.3,185.8z M1101.8,183.7L1101.8,183.7L1101.8,183.7C1101.8,183.5,1102.1,183.4,1101.8,183.7z
			 M1101.9,183.8C1102,183.8,1102,183.8,1101.9,183.8c0,0.2-0.2,0.7-0.3,0.7C1101.4,184.4,1101.8,184.1,1101.9,183.8z M1101.8,184.9
			c0.1,0,0,0.2-0.1,0.2C1101.7,185,1101.7,184.9,1101.8,184.9z M1097.2,190.5c0.1,0.1,0.2,0.1,0.4,0.2c0,0,0,0.1-0.1,0.1
			s-0.3-0.1-0.4-0.2C1097.2,190.6,1097.2,190.6,1097.2,190.5z M1091.6,198.8c0,0-0.1,0-0.1-0.1
			C1091.4,198.7,1091.6,198.6,1091.6,198.8C1091.6,198.7,1091.6,198.7,1091.6,198.8L1091.6,198.8z M1090.4,196
			c0.1,0,0.5,0.2,0.5,0.3s-0.2,0-0.2,0c-0.1-0.1-0.1,0.1-0.1,0.1c-0.2-0.1,0.1-0.1-0.3-0.3c-0.3-0.1-0.5-0.3-0.2-0.3
			c0.1,0,0-0.2,0.1-0.2s0.2,0,0.3,0.2c0,0.1-0.1,0-0.2,0C1090.3,196,1090.3,196,1090.4,196z M1090.8,196.8c0,0-0.1,0.1-0.2-0.1
			C1090.6,196.7,1090.7,196.7,1090.8,196.8z M1087.8,186.8c0,0-0.1,0-0.1-0.1c-0.1-0.1,0-0.1,0.1-0.1c0.2,0.1,0.2,0.1,0.4,0.1
			s0.3,0.2,0.3,0.2c-0.1,0.1-0.2-0.1-0.3,0c-0.1,0.1-0.2,0-0.2-0.1C1087.9,186.9,1087.9,186.9,1087.8,186.8z M1088.3,187.2
			C1088.2,187.3,1088.2,187.1,1088.3,187.2C1088.3,187.1,1088.4,187.2,1088.3,187.2z M1093.6,188.4
			C1093.6,188.5,1093.6,188.5,1093.6,188.4L1093.6,188.4C1093.6,188.4,1093.6,188.5,1093.6,188.4
			C1093.6,188.5,1093.6,188.5,1093.6,188.4C1093.6,188.5,1093.6,188.5,1093.6,188.4L1093.6,188.4z M1093.7,188.9
			c0.1-0.2,0.3-0.1,0.3,0v-0.1c0,0,0-0.1,0.1,0c0.1,0,0.1,0.1,0.2,0.1s0.1,0,0.2,0.1s0.1,0,0.3,0.1c0.2,0.1,0.3,0.1,0.3,0.2v0.1
			c0.1,0,0.2,0.1,0.1,0.1c-0.2,0.1,0.2,0.1,0.1,0.3v0.1c0,0,0,0-0.1,0s-0.1-0.1-0.2-0.1s-0.1-0.1-0.2-0.1c-0.2,0-0.2-0.2-0.3-0.3
			c-0.1-0.1-0.2,0.1-0.3,0c-0.1-0.1-0.3-0.1-0.4-0.2c-0.1,0-0.1-0.1-0.2-0.1C1093.7,189,1093.7,188.9,1093.7,188.9z M1093.1,188.2
			c0.1,0,0.2,0.1,0.2,0.1l0.1,0.1C1093.3,188.4,1093.1,188.3,1093.1,188.2C1093,188.2,1093,188.1,1093.1,188.2z M1093,188.6
			c0.1,0,0.3,0.1,0.3,0.2C1093.3,188.9,1093.1,188.8,1093,188.6L1093,188.6z M1092.8,188.1C1092.8,188.1,1092.7,188.1,1092.8,188.1
			C1092.7,188,1092.8,188,1092.8,188.1z M1092.7,188.3c0.1,0.1,0.1,0.3-0.1,0.2C1092.2,188.3,1092.4,188.1,1092.7,188.3z
			 M1092.3,188.2C1092.3,188.2,1092.3,188.3,1092.3,188.2c-0.2,0.1-0.3,0-0.2-0.1C1092.1,188.1,1092.2,188.1,1092.3,188.2z
			 M1091.7,188.4L1091.7,188.4C1091.7,188.5,1091.5,188.4,1091.7,188.4z M1091.6,188.5c0,0.1-0.1,0-0.2,0
			C1091.3,188.4,1091.5,188.4,1091.6,188.5z M1090.6,189.4C1090.6,189.4,1090.7,189.5,1090.6,189.4
			C1090.6,189.5,1090.6,189.4,1090.6,189.4z M1088.2,185.9C1088.2,185.9,1088.2,186,1088.2,185.9
			C1088.1,186,1088.1,185.9,1088.2,185.9z M1087.4,185.7c0.2,0.1,0.4,0.1,1,0.4c0.1,0.1,0.2,0,0.3,0c0.1,0,0.1,0,0.5,0.4
			c0.1,0.1,0,0.2-0.1,0.2c-0.4-0.2-0.5-0.2-0.4-0.3c0-0.1,0-0.1-0.1-0.1c-0.3,0-0.1,0-0.5-0.1l-0.3-0.2
			C1087.6,185.9,1087.4,185.9,1087.4,185.7C1087.3,185.8,1087.4,185.7,1087.4,185.7z M1087.3,187.5L1087.3,187.5
			c0.3,0.1,0.4,0.1,0.5,0.2c0.1,0.1,0.2,0.2,0.3,0.3c0,0.1,0.4,0.2,0.3,0.3c-0.2,0.2-0.5-0.2-0.9-0.2c-0.1,0-0.2-0.1-0.2-0.1v-0.1
			h0.1v-0.1c-0.1,0-0.3,0-0.3-0.1C1087,187.5,1087,187.5,1087.3,187.5z M1089.8,195.5L1089.8,195.5c-0.2-0.1-0.1-0.1-0.1-0.1
			C1089.7,195.4,1089.8,195.5,1089.8,195.5z M1086.7,187.1C1086.7,187.1,1086.8,187.2,1086.7,187.1
			C1086.7,187.4,1086.5,187.2,1086.7,187.1z M1086.1,186.9L1086.1,186.9C1086,186.9,1086,186.9,1086.1,186.9z M1085.2,186.2
			c0.1,0,0.2,0,0.4,0.2c0.1,0.1,0,0.1,0,0.1C1085.1,186.5,1085.1,186.4,1085.2,186.2z M1085.3,186.6c0.1,0,0,0,0.2,0
			s0.3,0.2,0.2,0.2C1085.5,186.7,1085.3,186.6,1085.3,186.6z M1085.5,186.9C1085.5,186.9,1085.4,186.9,1085.5,186.9
			C1085.5,186.8,1085.5,186.9,1085.5,186.9z M1085.1,186.5L1085.1,186.5C1085,186.5,1085,186.5,1085.1,186.5
			C1085,186.4,1085.1,186.4,1085.1,186.5z M1083.6,184.9c0.3,0.1,0.4,0.3,0.3,0.3s-0.4-0.1-0.4-0.2
			C1083.4,184.9,1083.5,184.8,1083.6,184.9z M1085.8,193.6L1085.8,193.6C1085.9,193.7,1085.8,193.7,1085.8,193.6z M1086.1,194.4
			c0.2,0.1,0.3,0.1,0.4,0.2C1086.7,194.7,1086.2,194.7,1086.1,194.4z M1083.7,185.5c0.6,0.2,0.2,0.1,0.7,0.3
			c0.3,0.1,0.4,0.1,0.6,0.3v0.1c-0.2-0.1-0.3-0.1-0.3-0.1s0,0.1,0.1,0.1c0.2,0.1,0,0.1,0.1,0.2c0.2,0.2,0.2,0.2,0.2,0.3
			s-0.1,0-0.4-0.1c-0.1,0-0.2-0.2-0.1-0.2h0.1c0,0,0.1,0,0-0.1c-0.4-0.3-0.1-0.3-0.5-0.4c0-0.1-0.1-0.2-0.2-0.2
			C1083.7,185.5,1083.7,185.6,1083.7,185.5z M1087.3,194.2C1087.2,194.2,1087.2,194.1,1087.3,194.2
			C1087.6,194.3,1087.4,194.3,1087.3,194.2z M1083.9,185.8L1083.9,185.8C1083.9,185.8,1084,185.8,1083.9,185.8z M1090.2,198.3
			C1090.2,198.3,1090.2,198.2,1090.2,198.3C1090.3,198.3,1090.3,198.3,1090.2,198.3z M1090,196.4c-0.1-0.1-0.2-0.1-0.3-0.2
			c-0.1,0-0.1-0.1-0.2-0.1c-0.2,0-0.2,0.1-0.3,0c-0.2-0.1-0.4-0.2-0.5-0.4c-0.2-0.3-0.3-0.1-0.5-0.3c-0.1-0.1-0.2-0.1-0.4-0.2
			c-0.3-0.1-0.4-0.3-0.7-0.3c-0.2-0.1-0.5-0.3-0.3-0.3c0.1,0,0.2,0,0.2,0c0.1,0,0.1-0.1,0-0.2c0,0-0.1,0-0.1-0.1
			c0-0.2-0.4-0.1-0.2-0.4c0,0,0.1,0,0.2,0.1s0.1,0.1,0.2,0.2c0.1,0.1,0.2,0,0.3,0.1c0.2,0.3,0.1,0.1,0.3,0.1c0.1,0,0.2,0.1,0.3,0.1
			c0.2,0.2,0.2,0.3,0.3,0.3c0.4,0,0.3,0.3,0.5,0.3s0,0,0.5,0.3v0.1c-0.1,0-0.1,0-0.1,0.1h-0.1c-0.2-0.1-0.1-0.3-0.3-0.2
			c-0.1,0-0.3-0.1-0.4-0.2c-0.1-0.1-0.1-0.1-0.4-0.2c-0.6-0.3-0.3-0.1-0.6-0.2c-0.4-0.2-0.3,0-0.2,0.1c0,0,0.4,0.1,0.6,0.3
			c0.1,0.1,0.2,0.1,0.3,0.2c0.1,0.1,0.2,0.1,0.7,0.4c0.2,0.1,0.3,0,0.3,0.1v0.1c0,0,0.2,0,0.2,0.1
			C1089.7,196.3,1089.9,196,1090,196.4C1090.1,196.4,1090,196.4,1090,196.4z M1090.5,197.5L1090.5,197.5c-0.1,0-0.1,0-0.1-0.1
			c0,0,0,0,0.1,0V197.5z M1090.2,196.6c-0.1-0.1,0-0.1,0-0.1C1090.5,196.4,1090.6,196.9,1090.2,196.6z M1096.2,211.8L1096.2,211.8
			C1096.2,211.6,1096.4,211.6,1096.2,211.8z M1096.4,211.5C1096.4,211.5,1096.4,211.4,1096.4,211.5
			C1096.5,211.4,1096.5,211.5,1096.4,211.5z M1096.6,211.3c-0.1,0,0.2-0.4,0.3-0.4C1097,210.8,1096.7,211.4,1096.6,211.3z
			 M1098.1,209.5c-0.1,0,0-0.2,0.1-0.2C1098.4,209.1,1098.2,209.5,1098.1,209.5z M1098.7,207.6c0-0.1,0-0.1,0.2-0.4
			c0,0,0.1-0.1,0.1,0C1099.1,207.3,1098.8,207.8,1098.7,207.6z M1099.2,207.5C1099.1,207.7,1099.1,207.7,1099.2,207.5
			C1099.1,207.4,1099.3,207.4,1099.2,207.5z M1099.2,207c0-0.1,0.1-0.2,0.1-0.1C1099.3,207,1099.2,207.1,1099.2,207z M1100.3,205.8
			L1100.3,205.8c-0.1,0.1-0.1,0.2-0.1,0.3s-0.1,0.2-0.2,0.2c-0.1,0.1-0.2,0.2-0.2,0.1c0-0.1,0-0.1,0-0.2c0.3-0.4,0.5-1.1,0.8-0.8
			C1100.7,205.5,1100.5,205.7,1100.3,205.8z M1101.1,204.6L1101.1,204.6c-0.1,0.1-0.1,0.3-0.3,0.4l-0.1,0.1c0,0-0.1-0.1,0-0.3
			C1101,204.5,1101,204.6,1101.1,204.6C1101.1,204.6,1101.2,204.5,1101.1,204.6C1101.2,204.6,1101.2,204.6,1101.1,204.6z
			 M1101.1,204.3c0-0.1,0.1-0.1,0.1-0.2l0,0c0,0,0.1,0,0.1,0.1L1101.1,204.3C1101.2,204.3,1101.1,204.4,1101.1,204.3z M1106.4,206.8
			L1106.4,206.8L1106.4,206.8L1106.4,206.8z M1111.8,209.1c-0.2-0.1-0.6-0.3-0.4-0.3c0.2-0.1,0.5,0,0.5,0.2
			C1111.9,209,1112,209.1,1111.8,209.1z M1112.1,209c0,0,0-0.1,0.2,0C1112.4,209.1,1112.4,209.2,1112.1,209z M1113.2,208.7
			c-0.2,0-0.2-0.2-0.2-0.1C1113.1,208.5,1113.2,208.6,1113.2,208.7C1113.2,208.6,1113.2,208.7,1113.2,208.7z M1113.2,208.2
			c-0.3,0-0.1-0.1-0.1-0.1C1113.2,208.1,1113.2,208.2,1113.2,208.2z M1113.6,208.5c0,0-0.2,0-0.2-0.1v-0.1
			C1113.5,208.4,1113.6,208.4,1113.6,208.5z M1114.4,208.2c-0.2,0,0,0-0.5-0.2c-0.1-0.1-0.1-0.2,0-0.2c0.3,0.1,0.3,0.1,0.5,0.2
			C1114.4,208,1114.5,208.2,1114.4,208.2z M1113.8,207.6c-0.1-0.1,0.2-0.2,0.3,0C1114.2,207.7,1114,207.7,1113.8,207.6z
			 M1118.6,204.2L1118.6,204.2C1118.6,204.3,1118.6,204.2,1118.6,204.2z M1118.9,203.3c0.1,0,0.1,0.2,0.1,0.3c0,0-0.1,0-0.4-0.3
			v-0.1C1118.7,203.2,1118.7,203.3,1118.9,203.3z M1118.5,200.6C1118.5,200.7,1118.4,200.6,1118.5,200.6
			C1118.4,200.5,1118.5,200.6,1118.5,200.6z M1108.3,194.9c0.1,0.1,1.1,0.5,1.1,0.5c0.9,0.4,0.4,0.3,1.1,0.5
			c0.4,0.2,0.3,0.2,0.4,0.3c0.5,0.3,0.6,0.3,1,0.5c0.2,0.1,0.5,0.2,0.7,0.4c0.9,0.5,0.5,0.3,2.7,1.4c0.3,0.2,0.2,0.2,0.3,0.3
			c0.3,0.1,0.6,0.1,0.8,0.3c0.2,0.1,0.5,0.2,0.6,0.3c0.5,0.3,1.1,0.7,1.4,0.9c0,0,0.1,0.1,0,0.1c0,0.1-0.2,0-0.3-0.1
			c0-0.1,0-0.1-0.5-0.3c-0.1,0-0.1-0.1-0.2-0.1c0,0.1,0.1,0.1,0.1,0.2c0,0.1,0,0.1,0,0.2c0.1,0.1,0.1,0.1,0,0.2c-0.1,0-0.2,0-0.2,0
			s-0.2,0-0.2-0.1c0-0.2-0.2-0.1-0.5-0.3c-0.1-0.1-0.1-0.1-0.2,0c-0.1,0-0.1,0-0.1-0.1s0-0.1-0.1-0.2c0,0,0-0.1,0.1,0
			s0.2,0.2,0.4,0.2c0.1,0,0.2,0.1,0.3,0.1c0.1,0-0.1-0.2-0.1-0.3h-0.1l-0.1-0.1h-0.1c-0.3,0-0.1,0.1-0.4-0.1c-0.2,0.1-0.2,0-0.3,0
			c-0.2-0.1-0.1-0.1-0.3-0.3c-0.1,0-0.2-0.1-0.3-0.1c-0.1-0.1-0.1-0.1-0.1-0.2c-0.1-0.1-0.2-0.1-0.4-0.1l0,0c0-0.1,0,0,0-0.1
			c-0.6-0.3-0.4,0-0.7-0.3c-0.3-0.3-0.4-0.1-0.5-0.3c0-0.1-0.1-0.1-0.8-0.4c-0.2-0.3-0.7-0.4-0.9-0.5c-0.2-0.1-0.2,0.1-0.3,0
			c-0.1,0-0.1,0-0.2,0s0-0.1-0.2-0.2c-0.2-0.1-0.2,0-0.3-0.1c-0.2-0.1-0.2,0-0.4-0.3c-0.1-0.1-0.1-0.3-0.3-0.2
			c-0.2,0.1-0.1-0.1-0.4-0.2c-0.2-0.1-0.4-0.3-0.6-0.4c-0.1-0.1-0.2-0.1-0.4-0.2c-0.2-0.1-0.4-0.2-0.6-0.3s-0.3-0.1-0.4-0.2
			C1108.1,195,1108.1,194.9,1108.3,194.9C1108.2,194.8,1108.3,194.8,1108.3,194.9z M1108.2,194
			C1108.1,194.1,1108.1,194.1,1108.2,194c-0.1,0.2-0.2,0.3-0.3,0.4v0.1c-0.1,0-0.1-0.1-0.2-0.1c0.2-0.3,0.4-0.6,0.5-0.7
			C1108.2,193.7,1108.2,193.7,1108.2,194z M1104.6,181.9c0,0,0-0.1,0.1-0.2h0.1C1104.7,181.8,1104.6,181.9,1104.6,181.9z
			 M1110.8,171.7C1110.9,171.7,1110.9,171.8,1110.8,171.7C1110.8,171.8,1110.8,171.7,1110.8,171.7z M1111.6,187
			c0.1-0.1,0.1,0.3-0.1,0.2C1111.5,187.2,1111.5,187.1,1111.6,187z M1111.1,187.9L1111.1,187.9L1111.1,187.9z M1107.5,176.9
			C1107.6,176.9,1107.6,176.9,1107.5,176.9c0,0.2-0.1,0.4-0.2,0.5C1107.2,177.4,1107.4,177.1,1107.5,176.9z M1110.7,188.5l0.1-0.2
			C1110.9,188.1,1111,188.6,1110.7,188.5z M1107.2,177.5C1107.2,177.6,1107.2,177.6,1107.2,177.5
			C1107.1,178,1106.9,177.7,1107.2,177.5z M1110.4,188.9L1110.4,188.9C1110.4,188.9,1110.4,188.8,1110.4,188.9z M1106.4,178.8
			c0,0,0,0,0.3-0.5c0.1-0.1,0.1,0,0.2-0.1c0,0,0.1,0.1,0,0.2c-0.1,0.1-0.1,0.1-0.1,0.2c0,0.1-0.2,0.1-0.1,0.1c0,0.2-0.1,0.3-0.2,0.4
			c0,0.1-0.1,0.1-0.1,0.1C1106.2,179.2,1106.5,179,1106.4,178.8z M1110.3,190.3c-0.1,0.1-0.1-0.1,0-0.1
			C1110.3,190.1,1110.4,190.2,1110.3,190.3z M1109.8,189.9L1109.8,189.9c0.1,0.1,0.1,0.1-0.1,0.3
			C1109.6,190.3,1109.4,190.2,1109.8,189.9z M1109.8,190.3c-0.1,0-0.1-0.2,0-0.2S1109.9,190.3,1109.8,190.3z M1105.9,179.7
			c0-0.1,0.1-0.1,0.2,0c0,0,0,0-0.3,0.6l-0.1,0.1C1105.6,180.2,1105.6,180.3,1105.9,179.7z M1105.2,180.1c0.1,0,0.1,0.1,0,0.2
			C1105,180.4,1105,180.1,1105.2,180.1z M1108.7,192.8c0,0.1-0.1,0.1-0.1,0.3c0.1,0.2,0,0.3,0,0.3c-0.1,0,0-0.2,0-0.2
			c0-0.1,0-0.1,0-0.1C1108.6,192.7,1108.8,192.7,1108.7,192.8z M1105.1,181.2c0-0.1,0.1-0.1,0.1-0.2
			C1105.2,181.2,1105.1,181.3,1105.1,181.2z M1109.5,192.1c0,0,0-0.2,0.1-0.1C1109.6,192,1109.6,192.1,1109.5,192.1z M1112.2,188
			c-0.1,0.2-0.2,0.1-0.3,0.3l0,0c0,0,0.1-0.1,0.2,0c0,0,0,0,0,0.1c-0.1,0.1-0.1,0.3-0.3,0.4c-0.1,0.1,0,0.2-0.1,0.2
			c-0.2,0.2-0.6,1-0.7,1s-0.2,0-0.3,0.1c-0.1,0.1,0.2,0.1,0,0.3c-0.5,0.4-0.4,0.3-0.5,0.6l0,0c0.1,0.2-0.1,0.2-0.4,0.8
			c0,0.1-0.1,0.1-0.2,0.1c0,0.1-0.1,0.1-0.2,0.2c-0.1,0.1-0.2,0.1-0.3,0.2c-0.1,0.1,0,0.2,0,0.2c0,0.1-0.1,0.2-0.1,0.2
			c-0.2-0.1-0.5,0.4,0.3-1c-0.2-0.1,0-0.1,0.1-0.2c0.1-0.1,0.2-0.2,0.3-0.4c0.1-0.3,0.2-0.2,0.3-0.5c0.1-0.2,0.2,0,0.2-0.1
			c0.2-0.3,0.3-0.3,0.2-0.4c0-0.1,0.1-0.3,0-0.3s-0.1,0.1-0.1,0.1c-0.1,0.1-0.1-0.2,0.2-0.5c0.1-0.2,0-0.3,0.1-0.4
			c0.3-0.2,0.2-0.3,0.4-0.6c0.1-0.1,0.3-0.5,0.3-0.5c0.1-0.1,0.1-0.1,0.2-0.2c0.1-0.1,0.2,0,0.3-0.2c0-0.2,0.1-0.1,0.2-0.2
			c0-0.1,0-0.1-0.1-0.1c-0.1-0.1,0.1-0.2,0.2-0.2c0,0,0.2-0.1,0.1,0c0,0.1-0.1,0.3,0.2,0.1C1112.6,187.5,1112.4,187.7,1112.2,188z
			 M1114,184.5c0,0.6-0.1,0.3-0.4,0.9c0,0,0,0.1-0.1,0.1c-0.1,0.1-0.1,0.1-0.3,0.5c0,0.1-0.2,0.1-0.2,0.2c0,0-0.1,0.2-0.2,0.2
			s-0.2,0.1-0.2,0.1c-0.1,0.1-0.2,0.1-0.2,0.2c0,0-0.1,0,0-0.2c0.1-0.1,0.1-0.1-0.1-0.1c-0.1-0.2,0-0.2,0.3-0.8
			c0-0.1,0.1-0.3,0.2-0.2s-0.1,0.5,0.1,0.2c0.1-0.2,0.3,0,0.3-0.5c-0.1,0-0.2,0.2-0.2,0.1c0-0.1,0.3-0.6,0.3-0.4
			c0,0.3,0.1-0.1,0.3-0.3c0.2-0.1,0.2-0.3,0.4-0.5h0.1C1114.2,184.3,1114.1,184.4,1114,184.5z M1114.2,184c-0.1-0.1,0-0.4,0.1-0.4
			h0.1C1114.4,183.9,1114.3,184.1,1114.2,184z M1114.4,183.5c-0.1-0.2,0.3-0.4,0.3-0.3C1114.6,183.5,1114.5,183.5,1114.4,183.5z
			 M1111,171.5L1111,171.5C1111,171.5,1110.9,171.6,1111,171.5z M1115.5,182.3c0-0.1,0-0.2,0.1-0.1
			C1115.7,182.1,1115.6,182.3,1115.5,182.3z M1115.8,181.8C1115.9,181.6,1115.9,181.8,1115.8,181.8
			C1115.7,181.8,1115.7,181.8,1115.8,181.8z M1116.5,178.9c0-0.2,0.2-0.3,0.2-0.3C1116.8,178.7,1116.6,178.8,1116.5,178.9
			c0,0.2,0,0.2,0,0.3l0,0c0,0,0,0,0-0.1C1116.4,179,1116.5,179,1116.5,178.9z M1116.3,179.1C1116.3,179.2,1116.3,179.2,1116.3,179.1
			L1116.3,179.1z M1113.7,170.1l-0.1,0.1l0,0C1113.5,170.3,1113.5,170.2,1113.7,170.1L1113.7,170.1z M1114.9,170.5
			C1114.9,170.5,1114.9,170.4,1114.9,170.5C1114.9,170.5,1114.8,170.6,1114.9,170.5z M1116.9,173.1L1116.9,173.1
			C1116.8,173.2,1116.9,173.1,1116.9,173.1z M1117,173.8c0,0,0,0,0-0.1l0,0C1117.1,173.7,1117.1,173.8,1117,173.8z M1117.6,173.3
			C1117.6,173.2,1117.6,173.2,1117.6,173.3C1117.7,173.3,1117.7,173.3,1117.6,173.3C1117.6,173.4,1117.6,173.3,1117.6,173.3z"/>
		<path class="st1" d="M1094.3,215.4c0-0.4-0.1-0.3-0.2-0.3s-0.1,0-0.2,0.1c0,0.1-0.2,0-0.3-0.1c-0.3-0.3-0.3,0.1-0.8,0.2
			c-0.1,0-0.2,0.1-0.4,0.3c-0.2,0.6-0.1,0.3,0.1,0.4c0.1,0,0.1,0,0.2,0l0.1-0.1c0.2-0.1,0.1-0.3,0.2-0.3c0.2,0,0.2,0.1,0.2,0.2
			c-0.1,0.2,0,0.1,0.1,0.3c0,0.2,0.1,0.3,0.3,0.3c0.1-0.1,0.1-0.1,0.1-0.2c0-0.1,0.1-0.1,0.3-0.3c0.1,0.1,0.1,0.1,0.2,0.2h0.1
			c0.1-0.2,0-0.1,0.2-0.3C1094.4,215.7,1094.3,215.6,1094.3,215.4z M1093.5,215.5c0-0.1,0-0.1,0-0.2l0,0V215.5
			C1093.8,215.5,1093.6,215.7,1093.5,215.5z"/>
		<path class="st1" d="M1084.2,209.5C1084.2,209.6,1084.1,209.6,1084.2,209.5C1084.1,209.5,1084.1,209.5,1084.2,209.5
			c-0.1-0.1-0.2-0.2-0.3,0c-0.1,0.1-0.2,0.1-0.2,0.2c-0.1,0.2-0.2,0.4-0.1,0.5c0,0.1-0.1,0.1-0.1,0.2c0,0.1,0,0.1,0.1,0.1
			c0.1-0.1,0.1-0.1,0.1-0.1c0.2,0,0.2-0.2,0.5-0.4c0.1-0.1,0.2-0.2,0.3-0.3c0,0,0.2-0.4,0.1-0.3
			C1084.3,209.3,1084.2,209.5,1084.2,209.5z"/>
		<path class="st1" d="M1099.8,186.7C1099.8,186.6,1099.9,186.6,1099.8,186.7c0.1,0,0.2,0.2,0.3,0.1c0.1-0.1,0.4-0.5,0.4-0.7
			c0,0-0.1,0.1-0.2,0.2l0,0l0,0c0,0,0,0-0.1,0l0,0l0,0c0,0,0,0,0.1,0l0,0c0-0.1,0-0.1,0-0.2c0-0.1,0.1-0.2,0-0.2c0,0,0,0-0.1,0
			c-0.3,0.2-0.1,0.2-0.3,0.5c-0.2,0.2-0.4,0.7-0.2,0.7C1099.7,187,1099.7,186.9,1099.8,186.7z M1100,186.4c0.1,0.1-0.1,0.2-0.1,0.1
			C1100,186.4,1100,186.3,1100,186.4z"/>
		<path class="st1" d="M1084.4,211.1c-0.2,0.2-0.2,0-0.5,0.2c-0.1,0.1-0.1-0.1-0.2-0.1l0,0c0.1,0.1,0.1,0.2,0.1,0.3s0.1,0.1,0.2,0
			s0.2,0,0.2-0.1c0.1-0.1,0.5-0.9,0.4-0.8C1084.5,210.7,1084.6,210.9,1084.4,211.1z"/>
		<path class="st1" d="M1097.6,190.1c0-0.2,0.1-0.3,0.2-0.2s0,0.1,0.2-0.1c0.1-0.1,0.2-0.1,0.2-0.2c0.1-0.2,0.1-0.3,0.1-0.3
			c-0.3,0-0.2,0.5-0.5,0.5c-0.1,0,0.2-0.4,0.2-0.5l0,0c-0.1,0.1-0.2,0.3-0.3,0.4c0,0.1-0.3,0.3-0.2,0.5
			C1097.6,190.2,1097.6,190.2,1097.6,190.1z"/>
		<path class="st1" d="M1110.4,171C1110.4,171,1110.5,170.9,1110.4,171c0.3-0.5,1-1.5,1.2-1.9l0.1-0.2c-0.2,0.2-0.7,1-0.9,1.3
			C1110.7,170.5,1110.3,170.9,1110.4,171z"/>
		<path class="st1" d="M1108.7,173.3c0,0-0.1,0.1,0,0.1c0,0.1,0,0.1,0,0.2c0.3-0.3,0.2-0.1,0.7-1.1c-0.3,0.3-0.4,0.3-0.4,0.4
			C1109,173.1,1108.9,173.1,1108.7,173.3z"/>
		<path class="st1" d="M1086.6,210v-0.1C1086.5,210,1086.5,210,1086.6,210c-0.1,0.2-0.2,0.2-0.3,0.3c-0.1,0.4-0.3,0.6-0.1,0.6
			c0.1,0,0.2,0,0.1-0.1c0.2-0.4,0.1-0.2,0.2-0.5C1086.4,210,1086.5,210.1,1086.6,210z"/>
		<path class="st1" d="M1101,184.2c0-0.2,0.1-0.2,0.2-0.3l0,0C1101,184,1100.9,184.1,1101,184.2c-0.2,0.1-0.3,0.4-0.3,0.4
			C1100.8,184.6,1100.9,184.4,1101,184.2z"/>
		<path class="st1" d="M1101,184.6c-0.1-0.1-0.4,0.4-0.4,0.5s0.1,0,0.2-0.1s0.1,0,0.2,0C1101,184.7,1101.1,184.7,1101,184.6z"/>
		<path class="st1" d="M1101.1,184.9L1101.1,184.9L1101.1,184.9L1101.1,184.9z"/>
		<path class="st1" d="M1101.6,183.4C1101.6,183.3,1101.6,183.3,1101.6,183.4c0.1-0.2,0.2-0.2,0.1-0.3c0,0,0,0-0.1,0
			c-0.1,0.1,0,0.1-0.2,0.3c-0.1,0.1-0.2,0.2-0.2,0.3s0,0.1,0,0.1C1101.4,183.6,1101.4,183.5,1101.6,183.4z"/>
		<path class="st1" d="M1103.5,180.4c0.1-0.2,0.2-0.3,0.1-0.4C1103.5,180.1,1103.4,180.2,1103.5,180.4
			C1103.3,180.5,1103.4,180.5,1103.5,180.4z"/>
		<path class="st1" d="M1093,214.5c-0.1,0,0,0.1,0,0.2c0,0.1-0.2,0,0.1,0.2h0.1c0,0,0-0.2-0.1-0.2S1093.1,214.5,1093,214.5z"/>
		<path class="st1" d="M1085.3,208.1c0.2,0.1,0.2,0.1,0.3-0.3C1085.6,207.7,1085.2,208,1085.3,208.1z"/>
		<path class="st1" d="M1102.5,180c0.1-0.2,0.1-0.3,0-0.3c0,0,0,0-0.2,0.4C1102.3,180.1,1102.3,180.2,1102.5,180
			C1102.5,180.1,1102.5,180.1,1102.5,180z"/>
		<path class="st1" d="M1096.3,213.2L1096.3,213.2c0.2-0.1,0.3-0.2,0.2-0.2C1096.4,212.9,1096.2,213,1096.3,213.2z"/>
		<path class="st1" d="M1103.6,178.3c0-0.1,0-0.2,0-0.2c-0.1,0-0.1,0.1-0.2,0.1C1103.3,178.3,1103.6,178.4,1103.6,178.3z"/>
		<path class="st1" d="M1087.5,203.9C1087.5,203.9,1087.5,204,1087.5,203.9c0.3-0.2,0.2-0.2,0.1-0.3
			C1087.6,203.6,1087.5,203.8,1087.5,203.9z"/>
		<path class="st1" d="M1085.5,211.7c-0.1,0.3-0.2,0.3-0.1,0.4C1085.5,212.1,1085.5,211.8,1085.5,211.7
			C1085.5,211.6,1085.5,211.6,1085.5,211.7z"/>
		<path class="st1" d="M1084.9,209.9C1084.8,209.8,1084.8,209.8,1084.9,209.9C1084.5,210.3,1085,210,1084.9,209.9z"/>
		<path class="st1" d="M1100.4,206.7c0,0-0.1,0-0.1,0.1C1100.1,207.1,1100.4,207,1100.4,206.7
			C1100.5,206.7,1100.5,206.7,1100.4,206.7z"/>
		<path class="st1" d="M1088.1,203.1c0-0.1,0-0.1,0.1-0.2C1088,202.9,1087.9,203.1,1088.1,203.1
			C1088,203.2,1088.1,203.1,1088.1,203.1z"/>
		<path class="st1" d="M1107.2,175.7C1107.2,175.7,1107.2,175.8,1107.2,175.7c0.2,0,0.2-0.2,0.2-0.3
			C1107.4,175.4,1107.3,175.6,1107.2,175.7z"/>
		<path class="st1" d="M1083.8,210.8c0,0.1-0.1,0.1-0.1,0.2c0,0.1,0.1,0.1,0.2,0C1084,210.7,1083.9,210.7,1083.8,210.8z"/>
		<path class="st1" d="M1100.6,206.5c0,0.1,0,0.2,0.1,0.1C1100.9,206.3,1100.6,206.3,1100.6,206.5z"/>
		<path class="st1" d="M1108.3,174C1108.4,174.1,1108.4,174.1,1108.3,174c-0.2,0.1,0,0.2,0,0.1
			C1108.5,173.9,1108.5,173.9,1108.3,174C1108.3,173.9,1108.3,173.9,1108.3,174z"/>
		<path class="st1" d="M1096.8,212.5c0,0,0.2-0.4,0.1-0.4S1096.7,212.4,1096.8,212.5z"/>
		<path class="st1" d="M1084.9,210.4C1084.9,210.5,1085,210.5,1084.9,210.4C1085.1,210.4,1085,210.1,1084.9,210.4z"/>
		<path class="st1" d="M1114.6,168.7c0,0.1-0.1,0.2-0.1,0.3l0,0C1114.6,168.9,1114.7,168.6,1114.6,168.7z"/>
		<path class="st1" d="M1111.3,170.3c0.2-0.2,0-0.3,0-0.2C1111.2,170.2,1111.2,170.4,1111.3,170.3z"/>
		<path class="st1" d="M1102.3,182.1c-0.1,0.1-0.1,0.2,0,0.2C1102.3,182.3,1102.3,182.2,1102.3,182.1
			C1102.4,182.1,1102.3,182,1102.3,182.1z"/>
		<path class="st1" d="M1094.5,216C1094.5,216,1094.5,216.1,1094.5,216c0.1,0.1,0.2,0,0.2-0.1l0,0C1094.6,216,1094.6,216,1094.5,216
			z"/>
		<path class="st1" d="M1095.3,214.7c0,0.1,0,0.1,0.1,0.1C1095.6,214.7,1095.4,214.6,1095.3,214.7z"/>
		<path class="st1" d="M1111.6,189.9c0.1-0.1,0.1-0.2,0.1-0.3C1111.7,189.7,1111.6,189.8,1111.6,189.9z"/>
		<path class="st1" d="M1117.1,179.4l-0.1,0.2C1117.1,179.6,1117.2,179.5,1117.1,179.4C1117.2,179.3,1117.2,179.3,1117.1,179.4z"/>
		<path class="st1" d="M1095.3,215.6c0,0,0.1-0.1,0-0.2C1095.3,215.4,1095.3,215.5,1095.3,215.6z"/>
		<path class="st1" d="M1094.9,212.4C1095,212.4,1095,212.3,1094.9,212.4C1094.9,212.3,1094.9,212.4,1094.9,212.4z"/>
		<path class="st1" d="M1117.6,172.7l0.1-0.1c0-0.1,0-0.1,0-0.1C1117.6,172.7,1117.6,172.7,1117.6,172.7z"/>
		<path class="st1" d="M1098.3,209.4v0.1C1098.3,209.6,1098.4,209.5,1098.3,209.4C1098.3,209.5,1098.3,209.4,1098.3,209.4z"/>
		<path class="st1" d="M1110.2,171.3C1110.3,171.2,1110.3,171.2,1110.2,171.3C1110.2,171.2,1110.1,171.3,1110.2,171.3z"/>
		<path class="st1" d="M1103.3,179.9C1103.3,180,1103.3,180,1103.3,179.9C1103.3,180,1103.4,180,1103.3,179.9
			C1103.4,179.9,1103.3,179.9,1103.3,179.9z"/>
		<path class="st1" d="M1105.1,177.2C1105.1,177.2,1105.2,177.2,1105.1,177.2C1105.3,177,1105.1,177.1,1105.1,177.2z"/>
		<path class="st1" d="M1107.9,174.7C1108,174.7,1108,174.6,1107.9,174.7C1108,174.4,1107.9,174.6,1107.9,174.7z"/>
		<path class="st1" d="M1083.5,211L1083.5,211C1083.4,211,1083.4,211,1083.5,211z"/>
		<path class="st1" d="M1100.8,185.5l-0.1,0.1C1100.7,185.6,1100.8,185.6,1100.8,185.5z"/>
		<path class="st1" d="M1097.8,211.2L1097.8,211.2L1097.8,211.2z"/>
		<path class="st1" d="M1086.9,211.6c0.1-0.1,0.1-0.1,0.1-0.1S1086.9,211.5,1086.9,211.6z"/>
		<path class="st1" d="M1087.4,204.3C1087.4,204.2,1087.3,204.3,1087.4,204.3C1087.2,204.4,1087.4,204.4,1087.4,204.3z"/>
		<path class="st1" d="M1111,170.7c0.1-0.1,0.1-0.1,0-0.1C1111.1,170.6,1111.1,170.6,1111,170.7z"/>
		<path class="st1" d="M1088.4,202.5C1088.4,202.5,1088.5,202.6,1088.4,202.5C1088.5,202.5,1088.5,202.5,1088.4,202.5
			C1088.5,202.4,1088.4,202.4,1088.4,202.5z"/>
		<path class="st1" d="M1117.3,170.8C1117.3,170.8,1117.3,170.9,1117.3,170.8C1117.3,170.9,1117.4,170.8,1117.3,170.8z"/>
		<path class="st1" d="M1117.7,172.4C1117.8,172.3,1117.7,172.3,1117.7,172.4C1117.7,172.5,1117.7,172.5,1117.7,172.4L1117.7,172.4z
			"/>
		<path class="st1" d="M1100.6,185.7L1100.6,185.7C1100.7,185.7,1100.7,185.7,1100.6,185.7z"/>
		<path class="st1" d="M1115.4,184.3L1115.4,184.3C1115.4,184.2,1115.4,184.2,1115.4,184.3z"/>
		<path class="st1" d="M1106.8,177.7L1106.8,177.7C1106.7,177.7,1106.7,177.8,1106.8,177.7z"/>
		<path class="st1" d="M1096.7,214.1L1096.7,214.1C1096.6,214.1,1096.7,214.2,1096.7,214.1z"/>
		<path class="st1" d="M1106.5,175L1106.5,175L1106.5,175z"/>
		<path class="st1" d="M1084.6,211.5C1084.7,211.5,1084.7,211.5,1084.6,211.5C1084.6,211.5,1084.6,211.4,1084.6,211.5z"/>
		<path class="st1" d="M1086,213.4C1086,213.4,1086,213.3,1086,213.4C1085.9,213.4,1085.9,213.4,1086,213.4z"/>
		<path class="st1" d="M1101.7,204.8C1101.8,204.8,1101.8,204.8,1101.7,204.8L1101.7,204.8z"/>
		<path class="st1" d="M1115.7,183.6L1115.7,183.6C1115.7,183.7,1115.7,183.7,1115.7,183.6z"/>
		<path class="st1" d="M1100.6,185.4L1100.6,185.4C1100.6,185.3,1100.5,185.4,1100.6,185.4z"/>
		<path class="st1" d="M1089.4,201C1089.4,201,1089.4,200.9,1089.4,201C1089.4,200.9,1089.4,200.9,1089.4,201
			C1089.4,200.9,1089.4,200.9,1089.4,201C1089.4,200.9,1089.4,201,1089.4,201z"/>
		<path class="st1" d="M1114.5,186L1114.5,186L1114.5,186z"/>
		<path class="st1" d="M1099,208.8L1099,208.8L1099,208.8z"/>
		<path class="st1" d="M1098.8,209.1L1098.8,209.1L1098.8,209.1z"/>
		<path class="st1" d="M1111.8,168.9C1111.8,168.9,1111.7,168.9,1111.8,168.9L1111.8,168.9z"/>
		<path class="st1" d="M1093.3,214.3L1093.3,214.3C1093.2,214.3,1093.2,214.4,1093.3,214.3z"/>
		<path class="st1" d="M1110.1,172.3C1110.1,172.3,1110.1,172.2,1110.1,172.3C1110.1,172.2,1110,172.3,1110.1,172.3z"/>
		<path class="st1" d="M1098.6,209.3L1098.6,209.3L1098.6,209.3L1098.6,209.3z"/>
		<path class="st1" d="M1098.7,209.3L1098.7,209.3L1098.7,209.3z"/>
		<path class="st1" d="M1098.6,209.3L1098.6,209.3L1098.6,209.3L1098.6,209.3z"/>
		<path class="st1" d="M1084.9,209.6C1084.9,209.5,1084.9,209.5,1084.9,209.6C1084.9,209.5,1084.9,209.5,1084.9,209.6
			C1084.9,209.5,1084.9,209.5,1084.9,209.6z"/>
		<path class="st1" d="M1093.8,214.8L1093.8,214.8C1093.9,214.8,1093.9,214.8,1093.8,214.8C1093.9,214.8,1093.9,214.8,1093.8,214.8
			L1093.8,214.8z"/>
		<path class="st1" d="M1093.8,214.8L1093.8,214.8L1093.8,214.8L1093.8,214.8z"/>
		<path class="st1" d="M1117,179.6l0.1-0.1C1117.1,179.6,1117,179.6,1117,179.6z"/>
		<path class="st1" d="M1085.1,213.2L1085.1,213.2L1085.1,213.2L1085.1,213.2L1085.1,213.2L1085.1,213.2L1085.1,213.2L1085.1,213.2
			L1085.1,213.2z"/>
		<path class="st1" d="M1109.8,191.2c-0.1,0,0,0.1,0,0.2c0.1,0.1,0.3-0.3,0.3-0.5C1110.2,190.9,1109.8,191.2,1109.8,191.2z"/>
		<path class="st1" d="M1111.1,189.2c-0.1,0.1,0,0.1,0,0.2c0,0,0.1,0.1,0.2-0.1C1111.3,189.3,1111.2,189.4,1111.1,189.2
			L1111.1,189.2z"/>
		<path class="st1" d="M1111.6,188.5c0,0,0.1,0.1,0.2,0C1111.9,188.4,1111.6,188.4,1111.6,188.5z"/>
		<path class="st1" d="M1111,189C1110.8,189.1,1111,189.2,1111,189C1111.1,189,1111,188.9,1111,189z"/>
		<path class="st1" d="M1111.7,188.7L1111.7,188.7C1111.6,188.7,1111.7,188.7,1111.7,188.7z"/>
		<path class="st1" d="M1072.7,184.7L1072.7,184.7L1072.7,184.7L1072.7,184.7z"/>
		<path class="st1" d="M1083,195.3c0.3,0.2,0.3,0.3,0.6,0.3c0.1,0,0.1,0,0.6,0.3c0-0.1-0.2-0.1-0.2-0.3c0,0,0,0-0.1,0
			c-0.2,0-0.3-0.1-0.4-0.2c0,0-0.1-0.2,0.1-0.2c0.3,0.1,0.4,0.1,0.5,0.2c0.1,0.1,0.2,0.2,0.4,0.2c0.2,0-0.4-0.3-0.7-0.4
			c-0.1,0-0.1-0.1-0.1-0.2c0-0.1-0.1,0-0.5-0.2c-0.1-0.1-0.3-0.1-0.4-0.2l-0.5-0.3c0,0.1,0,0.1,0.1,0.1c0.2,0.1,1.2,0.7,1,0.8l0,0
			c-0.1,0-0.1,0-0.2-0.1c-0.6-0.3-0.4-0.2-0.7-0.3C1081,194.2,1081.9,194.7,1083,195.3z"/>
		<path class="st1" d="M1080,193.5c-0.1-0.1-0.2-0.1-0.5-0.2c-0.2-0.1-0.2,0-0.4-0.1c-0.2-0.1-0.3-0.1-0.4-0.3
			c-0.2-0.2-0.2,0-0.6-0.1c-0.2-0.1-0.2-0.1-0.1,0c1.1,0.6,1.2,0.7,1.4,0.8c0.1,0.1,0.2,0.1,0.3,0.1c0.1,0.1,0.1,0,0.5,0.2
			c0.8,0.4,0.3,0.1,0.3,0C1080.5,193.7,1080.3,193.8,1080,193.5z"/>
		<path class="st1" d="M1085.7,184.3c0.1,0,0,0,0.4,0.1c0.3,0.1,0.1-0.2,0.3-0.1c0.1,0,0.2,0.1,0.2,0c0,0,0,0-0.2-0.2
			c-0.1-0.1-0.1-0.1-0.2-0.2c-0.1,0-0.1,0-0.2,0c0,0-0.2-0.1-0.2,0s0,0.1-0.1,0.2c0,0-0.1-0.3-0.3-0.3l0,0c0.1,0.1,0.1,0.2,0.2,0.3
			C1085.7,184.2,1085.7,184.3,1085.7,184.3z"/>
		<path class="st1" d="M1082.8,182.8c0.1,0.1,0.2,0.1,0.2,0.1s0,0,0.1,0s0.2,0.1,0.2,0.1c0.1,0.1,0.1,0,0.3,0.1c0,0,0.1-0.1,0-0.1
			c-0.1-0.1-0.2,0-0.2-0.2c-0.1-0.1-0.2,0-0.3-0.1c-0.1-0.1-0.2-0.2-0.1-0.3l0,0c0,0-0.1,0.1-0.2-0.1h-0.1c-0.1,0.1-0.1,0.1,0,0.2
			l0,0c0,0-0.2-0.1-0.2,0C1082.6,182.7,1082.7,182.7,1082.8,182.8z"/>
		<path class="st1" d="M1082.3,195.7c0.1,0.1,0.3,0.2,0.3,0.2s0-0.2,0.2-0.1c0.2,0.1,0.2-0.1,0.1-0.1s-0.1,0-0.2,0
			c-0.1-0.1-0.3-0.1-0.4-0.2c-0.1,0-0.2-0.1-0.2-0.1c-0.4-0.1-0.3-0.2-0.5-0.2l0,0C1081.9,195.4,1082,195.4,1082.3,195.7
			C1082.4,195.6,1082.3,195.7,1082.3,195.7z"/>
		<path class="st1" d="M1088.9,198.8c0.2,0,0.2,0.1,0.2,0c0,0,0,0-0.5-0.3l0,0v0.1c0,0.1-0.2,0-0.3,0c0,0.1-0.1,0.1,0,0.1
			C1088.9,198.8,1088.8,198.8,1088.9,198.8C1088.9,198.9,1088.9,198.8,1088.9,198.8z"/>
		<path class="st1" d="M1080.4,193c0.1,0.1,0.2,0.1,0.2,0.1c0.1,0,0.3,0,0.4,0.1c0.2-0.2,0.3,0,0.4-0.1c0-0.1-0.1-0.1-0.2-0.1
			c-0.2,0-0.3-0.1-0.3,0s-0.1,0-0.3,0C1080.6,193,1080.5,192.9,1080.4,193C1080.4,192.9,1080.4,192.9,1080.4,193z"/>
		<path class="st1" d="M1085.8,195.2C1085.8,195.2,1085.8,195.1,1085.8,195.2c-0.2,0.1-0.3,0-0.6-0.1c0,0-0.1,0-0.1,0.1l0.1,0.1
			C1085.8,195.5,1085.7,195.5,1085.8,195.2z"/>
		<path class="st1" d="M1089.5,186c0.1,0,0.2,0,0.2,0c-0.1-0.2-0.1-0.1-0.3-0.2c-0.1,0-0.1-0.1-0.2-0.2c-0.1,0-0.1,0-0.1,0.1
			s0.1,0.2,0.2,0.2C1089.3,185.9,1089.4,185.9,1089.5,186z"/>
		<path class="st1" d="M1080.7,192.3c-0.2-0.2-0.2-0.2-0.3-0.2c-0.2,0-0.2,0-0.2,0c0,0.1,0.1,0.1,0.2,0.1c0.1,0.1,0.2,0.2,0.2,0.2
			C1080.6,192.4,1080.8,192.4,1080.7,192.3z"/>
		<path class="st1" d="M1081.8,193c-0.2-0.1-0.4-0.3-0.6-0.3C1081.5,192.9,1081.4,192.9,1081.8,193
			C1081.8,193.1,1081.9,193,1081.8,193z"/>
		<path class="st1" d="M1104.3,205.9c-0.1-0.1-0.2-0.1-0.3-0.1c0,0,0,0.1,0.1,0.1c0.2,0.1,0.4,0.2,0.7,0.3
			C1104.6,205.9,1104.5,206.1,1104.3,205.9z"/>
		<path class="st1" d="M1088.2,197.8c-0.1-0.1-0.3-0.1-0.4-0.2h-0.1c0,0,0,0.1,0.1,0.2C1088,197.8,1088,197.7,1088.2,197.8
			c0.1,0.1,0.2,0.2,0.2,0.1C1088.4,197.8,1088.4,197.8,1088.2,197.8z"/>
		<path class="st1" d="M1087.5,196.5c-0.1,0,0,0-0.1,0.1s-0.1,0-0.3,0v0.1c0.4,0.1,0.4,0.1,0.4,0
			C1087.6,196.7,1087.5,196.6,1087.5,196.5C1087.5,196.6,1087.5,196.5,1087.5,196.5z"/>
		<path class="st1" d="M1085.4,196.4c-0.1,0-0.2,0-0.2-0.1c-0.1-0.1-0.2-0.1-0.3-0.1c-0.1,0-0.1-0.1-0.2,0
			C1084.7,196.2,1084.7,196.1,1085.4,196.4C1085.5,196.6,1085.5,196.4,1085.4,196.4z"/>
		<path class="st1" d="M1074.7,191.3C1074.7,191.4,1074.7,191.4,1074.7,191.3c0.2,0.2,0.3,0.2,0.6,0.5c0.1,0.1,0.2,0-0.2-0.2
			C1074.8,191.4,1074.7,191.3,1074.7,191.3z"/>
		<path class="st1" d="M1090.5,186.4c0-0.1-0.2-0.1-0.4-0.2l0,0c0.1,0.1,0.2,0.1,0.2,0.2C1090.3,186.5,1090.5,186.5,1090.5,186.4z"
			/>
		<path class="st1" d="M1078.8,193.9c0.3,0.2,0.3,0.2,0.4,0.1C1079.3,193.9,1079.3,193.8,1078.8,193.9L1078.8,193.9z"/>
		<path class="st1" d="M1084.6,183.5c-0.1-0.1,0-0.1-0.1-0.2c0,0-0.1-0.1-0.1,0s-0.1,0.1-0.1,0.1c0,0.1,0.1,0.1,0.1,0.2
			C1084.5,183.6,1084.7,183.6,1084.6,183.5z"/>
		<path class="st1" d="M1084,194.5C1084,194.5,1083.9,194.5,1084,194.5C1083.9,194.5,1083.8,194.5,1084,194.5c0.1,0.1,0.1,0.2,0,0.2
			c0,0,0,0,0.1,0s0.1,0,0.2-0.1C1084.2,194.5,1084.1,194.6,1084,194.5z"/>
		<path class="st1" d="M1086.6,185.1c0.1,0.1,0.2,0,0.2,0l-0.1-0.1C1086.6,184.9,1086.3,184.9,1086.6,185.1z"/>
		<path class="st1" d="M1105.3,206.7c0.2,0.1,0.6,0.2,0.2-0.1C1105.4,206.6,1105.3,206.6,1105.3,206.7z"/>
		<path class="st1" d="M1088.2,185.4L1088.2,185.4c0-0.1-0.1-0.2-0.2-0.2c0,0-0.1,0,0,0C1088,185.5,1088,185.4,1088.2,185.4z"/>
		<path class="st1" d="M1083.3,194.6c0,0.1,0.3,0.1,0.3,0s-0.1-0.1-0.2-0.1C1083.3,194.5,1083.2,194.6,1083.3,194.6z"/>
		<path class="st1" d="M1086,195.6c0,0,0,0.1,0.2,0.2c0-0.1,0.1-0.1,0.1-0.2C1086.1,195.6,1086.1,195.6,1086,195.6z"/>
		<path class="st1" d="M1082.2,195.2c0-0.1,0-0.1-0.2-0.1c-0.1,0-0.1,0,0,0.1C1082,195.3,1082.2,195.3,1082.2,195.2z"/>
		<path class="st1" d="M1107,207.8L1107,207.8c0.2,0.2,0.2,0.2,0.3,0.2C1107.3,208,1107.3,207.8,1107,207.8z"/>
		<path class="st1" d="M1079.5,192.7C1080.4,193.2,1080,192.8,1079.5,192.7L1079.5,192.7z"/>
		<path class="st1" d="M1077.6,193.2L1077.6,193.2C1077.4,193.2,1077.4,193.3,1077.6,193.2c0,0.1,0.1,0.2,0.3,0.2
			C1077.9,193.4,1077.9,193.3,1077.6,193.2z"/>
		<path class="st1" d="M1079.3,194.1C1079.3,194.1,1079.3,194.2,1079.3,194.1c0.1,0.1,0.2,0.1,0.3,0.2c0,0,0,0,0.1,0
			S1079.7,194.3,1079.3,194.1C1079.4,194.1,1079.4,194.1,1079.3,194.1z"/>
		<path class="st1" d="M1083.4,193.8c0,0,0-0.1-0.2-0.1C1083.1,193.7,1083.3,193.9,1083.4,193.8z"/>
		<path class="st1" d="M1117.8,198.9C1117.8,198.9,1117.7,198.8,1117.8,198.9c-0.1-0.1-0.2-0.1-0.2-0.1c-0.1,0-0.1,0.1-0.1,0.1
			C1117.6,198.9,1117.7,199,1117.8,198.9z"/>
		<path class="st1" d="M1082.4,195.3L1082.4,195.3c0,0.1,0.1,0.1,0.1,0.1C1082.5,195.4,1082.5,195.3,1082.4,195.3z"/>
		<path class="st1" d="M1114.8,208.8c-0.1,0,0,0.1,0.1,0.1c0,0,0,0,0.1,0C1114.9,208.9,1114.9,208.8,1114.8,208.8z"/>
		<path class="st1" d="M1081.7,194.9C1081.7,194.9,1081.6,194.8,1081.7,194.9C1081.5,195.1,1081.8,195,1081.7,194.9z"/>
		<path class="st1" d="M1082.9,193.8C1083.1,193.8,1082.9,193.6,1082.9,193.8C1082.8,193.7,1082.8,193.8,1082.9,193.8z"/>
		<path class="st1" d="M1084.3,195.1C1084.3,195,1084.3,195,1084.3,195.1C1084.1,194.9,1084.2,195.3,1084.3,195.1z"/>
		<path class="st1" d="M1079.3,192l0.1,0.1C1079.5,191.9,1079.2,191.9,1079.3,192z"/>
		<path class="st1" d="M1092.2,187.8c0.1,0,0-0.1,0-0.1C1092.1,187.6,1092.1,187.7,1092.2,187.8z"/>
		<path class="st1" d="M1085.3,185.9c0,0,0,0-0.2,0C1085.3,185.9,1085.2,185.9,1085.3,185.9z"/>
		<path class="st1" d="M1083.2,195.6c-0.1,0-0.1,0-0.1-0.1C1083.1,195.5,1083.1,195.6,1083.2,195.6z"/>
		<path class="st1" d="M1119,199.3c0,0-0.1-0.1-0.2,0C1118.7,199.3,1118.9,199.4,1119,199.3z"/>
		<path class="st1" d="M1072.6,189.7l0.1,0.1C1072.7,189.7,1072.7,189.7,1072.6,189.7z"/>
		<path class="st1" d="M1078.4,193.5C1078.4,193.6,1078.6,193.6,1078.4,193.5C1078.3,193.4,1078.3,193.5,1078.4,193.5z"/>
		<path class="st1" d="M1078.1,193.6c0.1,0.1,0.1,0.1,0.2,0.1C1078.2,193.5,1078.1,193.5,1078.1,193.6z"/>
		<path class="st1" d="M1106.1,207C1106.1,207,1106.1,206.9,1106.1,207C1106,207,1106.1,207,1106.1,207z"/>
		<path class="st1" d="M1085,183.6C1084.9,183.6,1084.9,183.6,1085,183.6C1085,183.7,1085,183.6,1085,183.6z"/>
		<path class="st1" d="M1081.8,182.4L1081.8,182.4C1082,182.4,1081.9,182.4,1081.8,182.4z"/>
		<path class="st1" d="M1083.1,194.5L1083.1,194.5C1083,194.5,1083,194.6,1083.1,194.5z"/>
		<path class="st1" d="M1084.1,196.7L1084.1,196.7L1084.1,196.7z"/>
		<path class="st1" d="M1087,184.8C1086.9,184.8,1086.9,184.8,1087,184.8C1087,184.9,1087,184.8,1087,184.8z"/>
		<path class="st1" d="M1083.7,194.1L1083.7,194.1C1083.6,194,1083.6,194.1,1083.7,194.1L1083.7,194.1z"/>
		<path class="st1" d="M1080.2,192.8C1080.3,192.8,1080.3,192.7,1080.2,192.8C1080.2,192.7,1080.2,192.7,1080.2,192.8z"/>
		<path class="st1" d="M1089.4,198.9L1089.4,198.9C1089.6,199,1089.4,198.9,1089.4,198.9z"/>
		<path class="st1" d="M1074.5,191.1C1074.5,191.2,1074.5,191.2,1074.5,191.1C1074.5,191.2,1074.5,191.2,1074.5,191.1L1074.5,191.1z
			"/>
		<path class="st1" d="M1080,182.1C1080,182.1,1080,182,1080,182.1c-0.1-0.1-0.1-0.1-0.2-0.1l0,0
			C1079.9,182.1,1080,182.1,1080,182.1z"/>
		<path class="st1" d="M1114.9,209.1C1115,209.2,1115.1,209.1,1114.9,209.1C1114.9,209.1,1114.8,209.1,1114.9,209.1z"/>
		<path class="st1" d="M1077.8,182C1077.7,182,1077.7,182,1077.8,182C1077.8,182.1,1077.8,182.1,1077.8,182
			C1077.8,182.1,1077.8,182,1077.8,182L1077.8,182z"/>
		<path class="st1" d="M1079.4,181.8C1079.3,181.8,1079.4,181.8,1079.4,181.8C1079.4,181.9,1079.4,181.9,1079.4,181.8z"/>
		<path class="st1" d="M1089.9,186.3C1089.9,186.3,1089.8,186.3,1089.9,186.3C1089.7,186.3,1089.9,186.4,1089.9,186.3z"/>
		<path class="st1" d="M1086.9,196.6C1087,196.6,1087,196.6,1086.9,196.6C1087,196.6,1087,196.5,1086.9,196.6z"/>
		<path class="st1" d="M1088.1,198.6L1088.1,198.6C1088.1,198.6,1088.1,198.5,1088.1,198.6z"/>
		<path class="st1" d="M1082.8,193.5C1082.9,193.5,1082.8,193.5,1082.8,193.5C1082.9,193.5,1082.9,193.5,1082.8,193.5z"/>
		<path class="st1" d="M1086,185.7C1086,185.7,1085.9,185.7,1086,185.7C1085.9,185.8,1086,185.8,1086,185.7z"/>
		<path class="st1" d="M1078.6,193.8L1078.6,193.8L1078.6,193.8z"/>
		<path class="st1" d="M1107.4,208.1C1107.4,208.2,1107.5,208.2,1107.4,208.1C1107.5,208.1,1107.4,208.1,1107.4,208.1z"/>
		<path class="st1" d="M1082.3,182.6L1082.3,182.6C1082.4,182.6,1082.4,182.6,1082.3,182.6C1082.5,182.6,1082.4,182.5,1082.3,182.6z
			"/>
		<path class="st1" d="M1114.3,210.5C1114.3,210.5,1114.3,210.6,1114.3,210.5C1114.3,210.6,1114.4,210.6,1114.3,210.5
			C1114.4,210.5,1114.4,210.5,1114.3,210.5z"/>
		<path class="st1" d="M1086.6,197.1L1086.6,197.1C1086.6,197,1086.6,197.1,1086.6,197.1z"/>
		<path class="st1" d="M1081.4,194.4C1081.4,194.4,1081.3,194.4,1081.4,194.4L1081.4,194.4z"/>
		<path class="st1" d="M1074.5,191.2l0.2,0.1L1074.5,191.2z"/>
		<path class="st1" d="M1080.6,192.5L1080.6,192.5C1080.6,192.5,1080.5,192.5,1080.6,192.5z"/>
		<path class="st1" d="M1097.2,189.9C1097.2,189.9,1097.1,190,1097.2,189.9C1097.2,190,1097.2,190,1097.2,189.9z"/>
		<path class="st1" d="M1087.8,185.1L1087.8,185.1L1087.8,185.1z"/>
		<path class="st1" d="M1081.4,193.7L1081.4,193.7C1081.5,193.7,1081.5,193.7,1081.4,193.7z"/>
		<path class="st1" d="M1084,194.8C1084,194.7,1084,194.7,1084,194.8C1084,194.7,1084,194.7,1084,194.8
			C1083.9,194.8,1084,194.8,1084,194.8z"/>
		<path class="st1" d="M1074.9,191.9L1074.9,191.9C1074.9,191.8,1074.9,191.9,1074.9,191.9L1074.9,191.9z"/>
		<path class="st1" d="M1082.7,195.5L1082.7,195.5C1082.7,195.6,1082.8,195.5,1082.7,195.5z"/>
		<path class="st1" d="M1086.3,195.9L1086.3,195.9C1086.2,195.9,1086.2,195.9,1086.3,195.9z"/>
		<path class="st1" d="M1073.1,185.2L1073.1,185.2C1073.1,185.1,1073,185.1,1073.1,185.2z"/>
		<path class="st1" d="M1072.6,184.6c0,0.1,0,0.1,0.1,0.1C1072.7,184.7,1072.6,184.6,1072.6,184.6z"/>
		<path class="st1" d="M1108.4,208.4L1108.4,208.4L1108.4,208.4z"/>
		<path class="st1" d="M1109.3,210.9L1109.3,210.9L1109.3,210.9z"/>
		<path class="st1" d="M1110.9,209.3L1110.9,209.3L1110.9,209.3L1110.9,209.3z"/>
		<path class="st1" d="M1116.9,198.8L1116.9,198.8C1116.9,198.7,1116.9,198.8,1116.9,198.8C1117,198.8,1116.9,198.8,1116.9,198.8z"
			/>
		<path class="st1" d="M1117.2,198.8L1117.2,198.8C1117.1,198.8,1117.2,198.8,1117.2,198.8z"/>
		<path class="st1" d="M1117.4,198.9c0,0-0.1,0-0.1-0.1C1117.4,198.9,1117.4,198.9,1117.4,198.9z"/>
		<path class="st1" d="M1117.3,198.8c-0.1,0-0.1-0.1-0.1-0.1C1117.2,198.8,1117.3,198.8,1117.3,198.8z"/>
		<path class="st1" d="M1082.3,194.3L1082.3,194.3C1082.2,194.3,1082.2,194.3,1082.3,194.3z"/>
		<path class="st1" d="M1118.5,199L1118.5,199L1118.5,199L1118.5,199C1118.4,199,1118.5,199.1,1118.5,199
			C1118.5,199.1,1118.5,199.1,1118.5,199L1118.5,199C1118.5,199.1,1118.5,199.1,1118.5,199C1118.5,199.1,1118.5,199,1118.5,199z"/>
		<path class="st1" d="M1113.7,210L1113.7,210L1113.7,210z"/>
		<path class="st1" d="M1114,210.6L1114,210.6L1114,210.6z"/>
		<path class="st1" d="M1114.7,209.8C1114.7,209.7,1114.7,209.7,1114.7,209.8C1114.7,209.7,1114.7,209.7,1114.7,209.8z"/>
		<path class="st1" d="M1103.3,205.6L1103.3,205.6L1103.3,205.6L1103.3,205.6C1103.3,205.6,1103.4,205.6,1103.3,205.6L1103.3,205.6
			l0.1,0.1C1103.5,205.6,1103.4,205.6,1103.3,205.6L1103.3,205.6z"/>
		<path class="st1" d="M1103.5,205.6L1103.5,205.6C1103.4,205.6,1103.5,205.6,1103.5,205.6z"/>
		<path class="st1" d="M1078.9,182C1078.9,182.1,1078.9,182.1,1078.9,182C1078.9,182.1,1078.9,182.1,1078.9,182
			C1078.9,182.1,1078.9,182,1078.9,182z"/>
		<path class="st1" d="M1106.4,207.1C1106.4,207.1,1106.3,207.1,1106.4,207.1L1106.4,207.1z"/>
		<path class="st1" d="M1114,209.7L1114,209.7L1114,209.7z"/>
		<path class="st1" d="M1084.2,193.3c0.1,0.1,0.1,0.1,0.1,0.1C1084.4,193.4,1084.1,193.3,1084.2,193.3z"/>
		<path class="st1" d="M1081.8,192C1081.8,191.9,1081.8,192,1081.8,192L1081.8,192z"/>
		<path class="st1" d="M1094.6,189.2C1094.7,189.2,1094.7,189.2,1094.6,189.2c-0.1-0.2-0.1-0.2-0.3-0.3l0,0c0.1,0.1,0.1,0.1,0.2,0.2
			C1094.5,189.2,1094.6,189.2,1094.6,189.2z"/>
		<path class="st1" d="M1094.8,189.3L1094.8,189.3C1094.9,189.4,1095,189.4,1094.8,189.3z"/>
	</g>
</g>
</svg>
