<?xml version="1.0" encoding="utf-8"?>
<!-- Generator: Adobe Illustrator 24.0.0, SVG Export Plug-In . SVG Version: 6.00 Build 0)  -->
<svg version="1.1" id="Layer_1" xmlns="http://www.w3.org/2000/svg" xmlns:xlink="http://www.w3.org/1999/xlink" x="0px" y="0px"
	 viewBox="0 0 284 82" style="enable-background:new 0 0 284 82;" xml:space="preserve">
<style type="text/css">
	.st0{clip-path:url(#SVGID_2_);fill:url(#SVGID_3_);}
	.st1{clip-path:url(#SVGID_5_);fill:url(#SVGID_6_);}
	.st2{clip-path:url(#SVGID_8_);fill:url(#SVGID_9_);}
	.st3{clip-path:url(#SVGID_11_);fill:url(#SVGID_12_);}
	.st4{fill:#FFFFFF;}
	.st5{clip-path:url(#SVGID_14_);fill:#FFFFFF;}
	.st6{clip-path:url(#SVGID_22_);fill:#FFFFFF;}
	.st7{clip-path:url(#SVGID_24_);fill:#FFFFFF;}
	.st8{clip-path:url(#SVGID_26_);fill:#FFFFFF;}
	.st9{clip-path:url(#SVGID_28_);fill:#FFFFFF;}
	.st10{clip-path:url(#SVGID_30_);fill:#FFFFFF;}
</style>
<g>
	<g>
		<g>
			<g>
				<g>
					<defs>
						<path id="SVGID_1_" d="M100.8,9.8H84.3H58.2H46.3c-2.5,0-4.6,2-4.5,4.6c0,2.4,2,4.4,4.5,4.4h14.5h1c2.5,0,4.6,2,4.5,4.5
							c-0.1,2.4-2,4.4-4.5,4.4h-8.9h-1.3c-2.5,0-4.6,2-4.5,4.5c0,2.4,2,4.4,4.5,4.4H53h0.2c2.5,0,4.6,2,4.5,4.5c0,2.4-2,4.4-4.5,4.4
							h-5H31.3c-2.5,0-4.6,2-4.5,4.5c0,2.4,2,4.4,4.5,4.4h16.9h19.5c2.5,0,4.6,2,4.5,4.5c-0.1,2.4-2,4.4-4.5,4.4h-8.5l0,0
							c-2.5,0-4.6,2-4.5,4.6c0,2.4,2,4.4,4.5,4.4h4.9v-0.1H101c17.2,0,31.1-13.9,31.2-31C132.3,23.9,118,9.8,100.8,9.8z"/>
					</defs>
					<clipPath id="SVGID_2_">
						<use xlink:href="#SVGID_1_"  style="overflow:visible;"/>
					</clipPath>
					
						<linearGradient id="SVGID_3_" gradientUnits="userSpaceOnUse" x1="14.6" y1="9.95" x2="135.3" y2="9.95" gradientTransform="matrix(1 0 0 1 0 32)">
						<stop  offset="0" style="stop-color:#10FECC"/>
						<stop  offset="0.2091" style="stop-color:#39FEAD"/>
						<stop  offset="0.6761" style="stop-color:#A0FF61"/>
						<stop  offset="1" style="stop-color:#EBFF29"/>
					</linearGradient>
					<rect x="14.6" y="6.9" class="st0" width="120.7" height="70.1"/>
				</g>
			</g>
		</g>
		<g>
			<g>
				<g>
					<defs>
						<path id="SVGID_4_" d="M46.7,72.2H36c-2.1,0-3.9-1.7-3.9-3.9v-1.1c0-2.1,1.7-3.9,3.9-3.9h10.7c2.1,0,3.9,1.7,3.9,3.9v1.1
							C50.6,70.5,48.9,72.2,46.7,72.2z"/>
					</defs>
					<clipPath id="SVGID_5_">
						<use xlink:href="#SVGID_4_"  style="overflow:visible;"/>
					</clipPath>
					
						<linearGradient id="SVGID_6_" gradientUnits="userSpaceOnUse" x1="14.6" y1="9.95" x2="135.3" y2="9.95" gradientTransform="matrix(1 0 0 1 0 32)">
						<stop  offset="0" style="stop-color:#10FECC"/>
						<stop  offset="0.2091" style="stop-color:#39FEAD"/>
						<stop  offset="0.6761" style="stop-color:#A0FF61"/>
						<stop  offset="1" style="stop-color:#EBFF29"/>
					</linearGradient>
					<rect x="14.6" y="6.9" class="st1" width="120.7" height="70.1"/>
				</g>
			</g>
		</g>
		<g>
			<g>
				<g>
					<defs>
						<path id="SVGID_7_" d="M27,36.5h-6.8c-2.1,0-3.9-1.7-3.9-3.9v-1.1c0-2.1,1.7-3.9,3.9-3.9H27c2.1,0,3.9,1.7,3.9,3.9v1.1
							C30.9,34.8,29.1,36.5,27,36.5z"/>
					</defs>
					<clipPath id="SVGID_8_">
						<use xlink:href="#SVGID_7_"  style="overflow:visible;"/>
					</clipPath>
					
						<linearGradient id="SVGID_9_" gradientUnits="userSpaceOnUse" x1="14.3" y1="10.35" x2="135" y2="10.35" gradientTransform="matrix(1 0 0 1 0 32)">
						<stop  offset="0" style="stop-color:#10FECC"/>
						<stop  offset="0.2091" style="stop-color:#39FEAD"/>
						<stop  offset="0.6761" style="stop-color:#A0FF61"/>
						<stop  offset="1" style="stop-color:#EBFF29"/>
					</linearGradient>
					<rect x="14.3" y="7.3" class="st2" width="120.7" height="70.1"/>
				</g>
			</g>
		</g>
		<g>
			<g>
				<g>
					<defs>
						<path id="SVGID_10_" d="M38.8,36.5L38.8,36.5c-2.4,0-4.4-2-4.4-4.4l0,0c0-2.4,2-4.4,4.4-4.4l0,0c2.4,0,4.4,2,4.4,4.4l0,0
							C43.2,34.5,41.2,36.5,38.8,36.5z"/>
					</defs>
					<clipPath id="SVGID_11_">
						<use xlink:href="#SVGID_10_"  style="overflow:visible;"/>
					</clipPath>
					
						<linearGradient id="SVGID_12_" gradientUnits="userSpaceOnUse" x1="14.6" y1="9.95" x2="135.3" y2="9.95" gradientTransform="matrix(1 0 0 1 0 32)">
						<stop  offset="0" style="stop-color:#10FECC"/>
						<stop  offset="0.2091" style="stop-color:#39FEAD"/>
						<stop  offset="0.6761" style="stop-color:#A0FF61"/>
						<stop  offset="1" style="stop-color:#EBFF29"/>
					</linearGradient>
					<rect x="14.6" y="6.9" class="st3" width="120.7" height="70.1"/>
				</g>
			</g>
		</g>
	</g>
</g>
<g>
	<path class="st4" d="M86.1,54.4c-2.5,0-4.4,2-4.4,4.5s2,4.5,4.5,4.5h13.4c0.4,0,0.9,0,1.3,0c12.4,0,22.4-10,22.4-22.4
		s-10-22.4-22.4-22.4c-0.4,0-0.7,0-1.1,0l0,0h-22c-2.5,0-4.5,2-4.5,4.5s2,4.5,4.5,4.5h5.3h1.8c2.5,0,4.5,2,4.5,4.5s-2,4.5-4.5,4.5
		H79h-7.3c-2.5,0-4.5,2-4.5,4.5s2,4.5,4.5,4.5H79h12.7c2.5,0,4.5,2,4.5,4.5s-2,4.5-4.5,4.5L86.1,54.4z"/>
</g>
<g>
	<g>
		<g>
			<path id="SVGID_20_" class="st4" d="M163.1,51.4l-2.9-5.4c-0.9,0.2-2.8,0.3-3.7,0.3c-1,0-0.7,0-2-0.1v5.1h-4.3V31.1
				c2.4-0.3,4.9-0.6,7.3-0.6c4.6,0,9.3,2.4,9.3,8.1c-0.1,2.4-0.9,4.5-2.9,6l3.5,6.6C165.9,51.1,164.4,51.2,163.1,51.4z M157.9,42.3
				c2.1,0,4.3-1,4.3-3.8c0-2.3-1.9-3.8-4.8-3.8c-0.8,0-1.9,0.1-3,0.1v7.3C155.8,42.2,156.9,42.3,157.9,42.3z"/>
		</g>
		<g>
			<defs>
				<path id="SVGID_13_" d="M163.1,51.4l-2.9-5.4c-0.9,0.2-2.8,0.3-3.7,0.3c-1,0-0.7,0-2-0.1v5.1h-4.3V31.1c2.4-0.3,4.9-0.6,7.3-0.6
					c4.6,0,9.3,2.4,9.3,8.1c-0.1,2.4-0.9,4.5-2.9,6l3.5,6.6C165.9,51.1,164.4,51.2,163.1,51.4z M157.9,42.3c2.1,0,4.3-1,4.3-3.8
					c0-2.3-1.9-3.8-4.8-3.8c-0.8,0-1.9,0.1-3,0.1v7.3C155.8,42.2,156.9,42.3,157.9,42.3z"/>
			</defs>
			<clipPath id="SVGID_14_">
				<use xlink:href="#SVGID_13_"  style="overflow:visible;"/>
			</clipPath>
			<rect x="138.3" y="23.4" class="st5" width="142.1" height="29"/>
		</g>
	</g>
	<g>
		<g>
			<path id="SVGID_19_" class="st4" d="M173.6,51.4c-1.5-0.2-3.1-0.3-4.6-0.3l8.8-20.4h2.9l8.8,20.4c-1.5,0-3,0.1-4.6,0.3l-1.8-4.4
				h-7.8L173.6,51.4z M176.8,43.4h4.8l-2.4-5.8L176.8,43.4z"/>
		</g>
		<g>
			<defs>
				<path id="SVGID_21_" d="M173.6,51.4c-1.5-0.2-3.1-0.3-4.6-0.3l8.8-20.4h2.9l8.8,20.4c-1.5,0-3,0.1-4.6,0.3l-1.8-4.4h-7.8
					L173.6,51.4z M176.8,43.4h4.8l-2.4-5.8L176.8,43.4z"/>
			</defs>
			<clipPath id="SVGID_22_">
				<use xlink:href="#SVGID_21_"  style="overflow:visible;"/>
			</clipPath>
			<rect x="138.3" y="23.4" class="st6" width="142.1" height="36.3"/>
		</g>
	</g>
	<g>
		<g>
			<path id="SVGID_18_" class="st4" d="M198.9,47.5c2.4,0,4.1-0.5,4.1-1.9s-1.5-1.8-5.1-2.7c-2.8-0.7-7.2-2-7.2-6
				c0-4.3,3-6.5,8.2-6.5c2.9,0,6.7,0.9,8.2,2l-1.9,4.1c-2.5-1.5-4.9-1.9-6.3-1.9c-2,0-3.7,0.4-3.7,1.9s1.3,1.7,5.2,2.7
				c4.3,1.1,7,2.3,7,6.5c0,3.8-3.3,6-9.1,6c-3.6,0-6.4-0.9-8.5-2l1.9-4.1C193.3,46.5,196.6,47.5,198.9,47.5z"/>
		</g>
		<g>
			<defs>
				<path id="SVGID_23_" d="M198.9,47.5c2.4,0,4.1-0.5,4.1-1.9s-1.5-1.8-5.1-2.7c-2.8-0.7-7.2-2-7.2-6c0-4.3,3-6.5,8.2-6.5
					c2.9,0,6.7,0.9,8.2,2l-1.9,4.1c-2.5-1.5-4.9-1.9-6.3-1.9c-2,0-3.7,0.4-3.7,1.9s1.3,1.7,5.2,2.7c4.3,1.1,7,2.3,7,6.5
					c0,3.8-3.3,6-9.1,6c-3.6,0-6.4-0.9-8.5-2l1.9-4.1C193.3,46.5,196.6,47.5,198.9,47.5z"/>
			</defs>
			<clipPath id="SVGID_24_">
				<use xlink:href="#SVGID_23_"  style="overflow:visible;"/>
			</clipPath>
			<rect x="138.3" y="23.4" class="st7" width="142.1" height="36.3"/>
		</g>
	</g>
	<g>
		<g>
			<path id="SVGID_17_" class="st4" d="M215.4,51.3V35h-6.2v-4.3h17V35H220v16.3H215.4z"/>
		</g>
		<g>
			<defs>
				<polygon id="SVGID_25_" points="215.4,51.3 215.4,35 209.2,35 209.2,30.7 226.2,30.7 226.2,35 220,35 220,51.3 				"/>
			</defs>
			<clipPath id="SVGID_26_">
				<use xlink:href="#SVGID_25_"  style="overflow:visible;"/>
			</clipPath>
			<rect x="138.3" y="23.4" class="st8" width="142.1" height="36.3"/>
		</g>
	</g>
	<g>
		<g>
			<path id="SVGID_16_" class="st4" d="M241.4,51.4l-2.9-5.4c-0.9,0.2-2.8,0.3-3.7,0.3c-1,0-0.7,0-2-0.1v5.1h-4.3V31.1
				c2.4-0.3,4.9-0.6,7.3-0.6c4.6,0,9.3,2.4,9.3,8.1c-0.1,2.4-0.9,4.5-2.9,6l3.5,6.6C244.3,51.1,242.8,51.2,241.4,51.4z M236.2,42.3
				c2.1,0,4.3-1,4.3-3.8c0-2.3-1.9-3.8-4.8-3.8c-0.8,0-1.9,0.1-3,0.1v7.3C234.1,42.2,235.3,42.3,236.2,42.3z"/>
		</g>
		<g>
			<defs>
				<path id="SVGID_27_" d="M241.4,51.4l-2.9-5.4c-0.9,0.2-2.8,0.3-3.7,0.3c-1,0-0.7,0-2-0.1v5.1h-4.3V31.1c2.4-0.3,4.9-0.6,7.3-0.6
					c4.6,0,9.3,2.4,9.3,8.1c-0.1,2.4-0.9,4.5-2.9,6l3.5,6.6C244.3,51.1,242.8,51.2,241.4,51.4z M236.2,42.3c2.1,0,4.3-1,4.3-3.8
					c0-2.3-1.9-3.8-4.8-3.8c-0.8,0-1.9,0.1-3,0.1v7.3C234.1,42.2,235.3,42.3,236.2,42.3z"/>
			</defs>
			<clipPath id="SVGID_28_">
				<use xlink:href="#SVGID_27_"  style="overflow:visible;"/>
			</clipPath>
			<rect x="138.3" y="23.4" class="st9" width="142.1" height="36.3"/>
		</g>
	</g>
	<g>
		<g>
			<path id="SVGID_15_" class="st4" d="M258.5,30.4c6.4,0,10.8,4.4,10.8,10.6s-4.4,10.6-10.8,10.6s-10.8-4.4-10.8-10.6
				S252.1,30.4,258.5,30.4z M258.5,47.4c3.9,0,6.2-2.4,6.2-6.4c0-3.9-2.4-6.4-6.2-6.4c-3.9,0-6.3,2.5-6.3,6.4S254.6,47.4,258.5,47.4
				z"/>
		</g>
		<g>
			<defs>
				<path id="SVGID_29_" d="M258.5,30.4c6.4,0,10.8,4.4,10.8,10.6s-4.4,10.6-10.8,10.6s-10.8-4.4-10.8-10.6S252.1,30.4,258.5,30.4z
					 M258.5,47.4c3.9,0,6.2-2.4,6.2-6.4c0-3.9-2.4-6.4-6.2-6.4c-3.9,0-6.3,2.5-6.3,6.4S254.6,47.4,258.5,47.4z"/>
			</defs>
			<clipPath id="SVGID_30_">
				<use xlink:href="#SVGID_29_"  style="overflow:visible;"/>
			</clipPath>
			<rect x="138.3" y="23.4" class="st10" width="142.1" height="36.3"/>
		</g>
	</g>
</g>
</svg>
