<?xml version="1.0" encoding="utf-8"?>
<!-- Generator: Adobe Illustrator 24.0.0, SVG Export Plug-In . SVG Version: 6.00 Build 0)  -->
<svg version="1.1" id="Layer_1" xmlns="http://www.w3.org/2000/svg" xmlns:xlink="http://www.w3.org/1999/xlink" x="0px" y="0px"
	 viewBox="0 0 5440.59 684.8" style="enable-background:new 0 0 5440.59 684.8;" xml:space="preserve">
<style type="text/css">
	.st0{fill:#314430;}
	.st1{font-family:'MyriadPro-Regular';}
	.st2{font-size:13.9471px;}
</style>
<g>
	<path class="st0" d="M-0.06,512c0.55-1.49,1.23-2.93,1.64-4.46c5.96-22.19,26.31-36.26,48.53-33.52
		c21.85,2.71,38.45,21,38.78,43.67c0.37,26.44-0.07,52.89,0.18,79.34c0.21,21.62,16.04,39.57,37.11,42.73
		c21.68,3.24,42.18-9.14,48.64-29.94c1.64-5.3,2.18-11.14,2.18-16.72c0.11-71.78-0.06-143.57,0.07-215.34
		c0.06-33.69,32.87-55.48,62.6-41.54c17.26,8.1,25.72,22.3,25.79,41.34c0.1,25.04-0.06,50.06,0.06,75.09
		c0.08,19.55,8.63,34.23,26.62,42.28c28.87,12.94,60.97-8.12,61.65-40.11c0.17-7.79-0.17-15.6,0.18-23.38
		c1.08-23.92,21-42.55,44.71-42.08c23.94,0.48,43.27,19.45,43.4,43.44c0.26,45.56-0.1,91.14,0.17,136.72
		c0.17,28.22,22.81,48.02,50.33,44.63c19.21-2.37,35.35-18.66,37.45-37.94c0.38-3.51,0.41-7.07,0.41-10.61
		c-0.03-95.64-0.14-191.26-0.01-286.89c0.01-6.97,0.71-14.31,2.95-20.86c6.74-19.76,27.57-31.84,47.62-28.53
		c22.14,3.66,37.76,21.27,37.84,43.71c0.21,59.73,0.07,119.48,0.16,179.23c0.03,21.35,12.82,38.68,32.22,43.99
		c27.95,7.68,55.43-12.77,55.84-41.98c0.37-26.21-0.07-52.42,0.14-78.63c0.18-22.02,16.76-40.56,38.25-43.35
		c22.1-2.86,42.87,10.8,48.51,32.36c1.29,4.94,1.62,10.27,1.62,15.42c0.16,71.55,0.1,143.1,0.26,214.63
		c0.07,31.4,28.38,52.65,57.4,43.37c18.38-5.88,30.19-22.12,30.35-42.41c0.2-26.21-0.23-52.42,0.16-78.63
		c0.27-18.15,9.04-31.57,25.47-39.27c15.92-7.47,31.35-5.57,45.32,5.02c11.6,8.8,17.46,20.81,17.47,35.48
		c0.03,25.74-0.01,51.47,0.01,77.22c0.03,25.28,18.63,44.35,43.33,44.49c24.92,0.14,44.35-19.03,44.39-44.46
		c0.13-69.42-0.01-138.85,0.04-208.26c0-6.59-0.24-13.33,1.01-19.72c4.53-23.07,24.81-37.69,48.2-35.38
		c21.72,2.14,38.72,20.61,39.02,43.24c0.33,25.26-0.04,50.54,0.13,75.8c0.16,22.7,13.37,40.32,33.52,45.21
		c28.79,7,54.85-14.14,54.89-44.86c0.1-58.8,0.04-117.6-0.09-176.39c-0.04-17.81,6.93-31.74,22.41-40.61
		c14.71-8.42,29.97-8.19,44.46,0.54c14.75,8.88,21.52,22.51,21.51,39.73c-0.06,71.08-0.03,142.15-0.01,213.23
		c0,27.39-0.28,54.79,0.11,82.18c0.44,30.06,28.42,50.72,56.74,42.36c18.87-5.57,31.31-22.44,31.37-43.17
		c0.11-44.63-0.03-89.26,0.07-133.89c0.04-22.51,13.4-40.28,33.59-45.15c27.36-6.6,53.63,13.09,54.89,41.29
		c0.34,7.54,0.04,15.1,0.14,22.67c0.28,24.57,19.23,43.64,43.52,43.89c24.55,0.24,44.19-18.76,44.47-43.65
		c0.3-26.21-0.03-52.42,0.11-78.63c0.13-22.22,16.45-40.99,37.74-43.77c22.48-2.95,42.87,10.1,48.84,31.75
		c1.42,5.14,1.76,10.71,1.76,16.08c0.17,71.31,0.17,142.62,0.28,213.93c0.04,21.52,12.03,38.35,31.08,44.09
		c28.31,8.52,56.63-12.23,56.96-42.04c0.28-26.21-0.07-52.42,0.11-78.63c0.16-22.57,17.03-41.5,38.54-43.68
		c23.38-2.37,43.44,11.55,48.61,34.03c0.99,4.31,1.08,8.9,1.09,13.36c0.1,24.79-0.13,49.59,0.1,74.38
		c0.21,22.71,16.78,41.53,38.28,44.05c22.46,2.64,42.84-10.87,48.36-32.49c1.32-5.19,1.56-10.75,1.56-16.14
		c0.04-70.13-0.17-140.26,0.06-210.38c0.03-7.61,1.19-15.74,4.04-22.73c7.75-19.01,28.62-29.33,48.81-25.36
		c20.23,3.98,35.31,21.89,35.49,42.89c0.24,26.68-0.17,53.37,0.18,80.05c0.27,20.2,14.4,37.04,34.13,41.71
		c19.17,4.55,39.49-4.24,48.4-22.1c3.15-6.32,4.46-13.84,5.26-20.97c0.94-8.4-0.33-17.06,0.61-25.46
		c2.65-23.86,22.88-40.83,46.36-39.59c23.59,1.26,41.73,20.49,41.84,45.13c0.21,43.68,0.03,87.36,0.11,131.06
		c0.01,4.93,0.06,10,1.13,14.78c5.03,22.07,25.57,36.47,48,34.03c21.73-2.38,38.61-21.05,39.01-43.43
		c0.18-10.85,0.04-21.72,0.04-32.59c-0.03-87.84-0.1-175.69-0.06-263.51c0.01-26.23,18.82-45.73,43.77-45.85
		c24.72-0.11,44.23,18.9,44.4,43.65c0.2,27.39,0.1,54.77,0.11,82.18c0.01,32.12-0.06,64.22,0.01,96.34
		c0.06,26.54,18.89,46.5,43.92,46.75c25.15,0.26,44.43-19.92,44.54-46.84c0.11-24.33-0.01-48.64,0.04-72.97
		c0.06-26.65,18.67-46.06,44.16-46.12c25.18-0.06,44.08,19.72,44.11,46.29c0.06,72.26-0.01,144.52,0.13,216.76
		c0.06,30.22,27.27,51.29,55.82,43.5c19.01-5.19,32.03-22.14,32.19-42.52c0.18-25.04-0.11-50.06,0.16-75.09
		c0.09-7.25,0.52-14.75,2.35-21.72c5.77-21.99,27.3-36.06,49.62-33.2c22.5,2.89,39.69,21.69,39.93,44.43
		c0.28,26.92-0.11,53.84,0.14,80.76c0.23,25.66,18.36,45.51,42.59,47.21c26.65,1.86,48.91-19.03,48.94-46.37
		c0.1-75.56,0-151.12,0.06-226.68c0.01-22.77,15.54-41.8,36.87-45.61c29.07-5.2,54.36,15.64,54.69,45.44
		c0.3,26.68,0,53.36,0.27,80.05c0.24,24.51,18.05,43.38,42.58,45.59c22.03,1.98,43.11-14.15,47.76-36.87
		c0.84-4.11,0.84-8.44,0.84-12.68c0.06-61.16-0.14-122.31,0.14-183.48c0.1-19.82,9.82-34.47,28.05-42.18
		c17.67-7.47,34.39-4.28,48.72,8.54c10.65,9.52,14.92,21.95,14.92,36.14c-0.04,101.53,0,203.07,0.07,304.6
		c0.01,21.34,12.84,38.99,32.37,44.91c28.07,8.52,56.83-11.36,58.77-40.66c0.18-2.82,0.14-5.67,0.14-8.5
		c0.01-44.87-0.13-89.73,0.06-134.6c0.13-33.54,30.22-55.85,60.77-45.35c18.23,6.26,30.49,23.12,30.84,42.45
		c0.17,9.44-0.58,18.99,0.59,28.29c3.16,24.67,23.94,41.31,48.57,39.81c23.52-1.43,42.11-21.12,42.42-45.81
		c0.35-27.63-0.45-55.27,0.23-82.87c0.81-32.69,35.25-53.67,64.72-39.63c17.89,8.52,26.61,23.31,26.59,43.18
		c-0.01,45.34-0.03,90.68,0,136.01c0.01,29.99-0.06,59.97,0.21,89.97c0.2,21.32,13.42,38.69,33.13,44.36
		c18.93,5.45,39.9-1.62,50.1-18.6c4.29-7.14,7.24-16.18,7.52-24.45c0.92-27.83,0.1-55.72,0.47-83.58
		c0.3-22.43,17.65-41.31,39.54-44.03c23.15-2.86,44.45,10.91,50.45,33.03c1.35,4.94,1.83,10.24,1.86,15.39
		c0.18,25.74,0.92,51.52-0.17,77.2c-0.96,22.53,17.43,46.75,45.54,46.91c25.55,0.14,45.61-20.39,45.66-46.93
		c0.11-72.73,0.04-145.45,0.04-218.19c0-2.59-0.03-5.2,0.01-7.79c0.37-26.37,20.39-46.76,45.95-46.78
		c25.47-0.03,45.65,20.42,45.85,46.9c0.2,26.68-0.04,53.37,0.09,80.05c0.11,23.65,17.55,43.33,40.15,45.59
		c24.09,2.41,45.72-12.71,49.97-36.27c1.79-9.86,0.86-20.23,1.08-30.36c0.48-23.12,16-41.77,37.96-45.52
		c28.29-4.83,53.66,16.25,53.74,45.04c0.16,47.22-0.14,94.46,0.1,141.68c0.18,35.83,38.24,57.82,68.67,39.77
		c16.08-9.54,22.92-24.33,22.9-42.75c-0.07-40.62-0.03-81.23-0.03-121.85c0-59.97,0.1-119.95-0.06-179.94
		c-0.06-20.06,7.88-35.41,25.94-44.39c29.56-14.66,64.21,6.21,65.53,39.19c0.37,9.44,0.1,18.89,0.1,28.34
		c-0.01,53.37-0.17,106.73,0.03,160.1c0.07,18.21,8.15,32.39,24.31,41.12c15.37,8.3,31.03,7.65,45.78-1.63
		c14.51-9.12,21.44-22.85,21.51-39.91c0.1-26.45-0.11-52.89,0.08-79.34c0.17-23.62,17.14-42.29,40.59-45.2
		c22.36-2.76,43.5,11.43,49.26,33.62c1.46,5.62,1.81,11.67,1.81,17.53c0.07,73.43-0.08,146.87-0.04,220.3
		c0.01,25.98,17.65,45.88,41.87,47.69c26.54,2,49.12-18.4,49.39-45.11c0.28-27.39-0.24-54.79,0.2-82.18
		c0.28-18.28,9-32.22,25.36-40.41c16.38-8.19,32.62-6.66,47.51,4.04c12.06,8.66,18.49,20.91,18.73,35.68
		c0.45,28.56,0.04,57.14,0.44,85.7c0.43,29.7,27.95,50.24,56.18,42.35c17.7-4.94,30.66-20.93,31.75-39.23
		c0.21-3.53,0.2-7.08,0.2-10.63c0.01-69.89-0.04-139.78,0.03-209.69c0.03-26.1,17.41-45.55,41.47-46.8
		c25.87-1.35,46.81,17.95,47.09,43.91c0.28,25.26,0.04,50.54,0.07,75.8c0.04,26.28,19.41,46.39,44.39,46.1
		c24.79-0.27,43.65-20.13,43.68-46.13c0.06-59.27-0.03-118.53,0.16-177.81c0.06-18.66,8.49-32.83,25.46-40.83
		c16.41-7.74,32.32-5.58,46.53,5.65c12.19,9.63,16.53,22.87,16.51,38.15c-0.18,95.39-0.18,190.79-0.24,286.18
		c0,3.07-0.04,6.15,0.17,9.21c1.69,24.78,21.01,42.75,45.31,42.19c23.85-0.55,42.77-20.09,42.86-44.77
		c0.17-45.1-0.06-90.19,0.1-135.31c0.08-25.74,19.65-45.34,44.57-45.15c23.49,0.17,42.86,19,43.67,42.48
		c0.35,10.13-0.38,20.42,1.12,30.36c3.37,22.47,23.05,37.5,46,36.3c21.66-1.13,39.97-18.48,40.76-40.62
		c0.95-26.41,0.26-52.88,0.45-79.33c0.16-21.65,11.99-38.51,30.82-44.42c28.82-9.03,57.52,12,57.64,42.62
		c0.2,51.94,0.06,103.9,0.06,155.85c0,21.72-0.35,43.45,0.08,65.17c0.47,23.18,19.14,41.65,42.04,42.45
		c24.99,0.86,45.38-17.89,45.82-42.94c0.44-25.02,0.35-50.06,0.07-75.09c-0.21-18.53,6.28-33.47,22.7-42.62
		c16.04-8.95,32.15-7.72,47.51,2.48c0.55,0.37,1.29,0.44,1.94,0.64c0,67.06,0,134.12,0,201.19c-2.82,0.13-5.64,0.35-8.47,0.35
		c-95.86-0.01-191.72-0.06-287.59-0.07c-246.03-0.06-492.06-0.11-738.09-0.16c-284.04-0.06-568.09-0.16-852.13-0.14
		c-342.6,0.01-685.2,0.16-1027.79,0.21c-239.65,0.04-479.31,0.04-718.96,0.09c-124.67,0.01-249.33,0.06-374,0.13
		c-2.75,0-5.5,0.65-8.25,1.01c-475.1,0-950.22,0-1425.32,0C-0.06,627.19-0.06,569.6-0.06,512z"/>
	<path class="st0" d="M1425.26,684.85c2.75-0.35,5.5-1.01,8.25-1.01c124.67-0.09,249.33-0.11,374-0.13
		c239.65-0.03,479.31-0.04,718.96-0.09c342.6-0.06,685.2-0.2,1027.79-0.21c284.04-0.01,568.09,0.09,852.13,0.14
		c246.03,0.04,492.06,0.1,738.09,0.16c95.86,0.03,191.72,0.06,287.59,0.07c2.82,0,5.64-0.23,8.47-0.35
		c-0.24,0.47-0.45,1.33-0.71,1.36c-1.88,0.11-3.77,0.06-5.67,0.06C4097.85,684.85,2761.56,684.85,1425.26,684.85z"/>
	<path class="st0" d="M1942.12,258.46c-0.07-24.72,19.55-44.79,44.13-45.11c24.65-0.33,45.18,19.95,45.31,44.79
		c0.13,24.82-20.1,45.05-44.98,45.01C1961.97,303.09,1942.19,283.21,1942.12,258.46z"/>
	<path class="st0" d="M1104.07,212.93c24.94,0.03,45,20.23,44.79,45.14c-0.21,24.58-20.2,44.4-44.84,44.42
		c-24.98,0.01-44.71-19.99-44.57-45.17C1059.57,232.51,1079.29,212.91,1104.07,212.93z"/>
	<path class="st0" d="M5192.01,258.32c0.04-24.95,20.36-45.18,45.08-44.88c24.48,0.3,44.46,20.53,44.45,45
		c-0.03,24.72-20.6,45.11-45.25,44.86C5211.69,303.04,5191.97,283,5192.01,258.32z"/>
	<path class="st0" d="M2921.69,241.76c-0.07,24.72-19.92,44.7-44.45,44.73c-24.81,0.03-45.07-20.26-44.98-45.07
		c0.08-24.81,20.66-45.11,45.32-44.73C2902.32,197.07,2921.76,216.95,2921.69,241.76z"/>
	<path class="st0" d="M574.96,107.91c24.99,0.16,44.6,20.27,44.32,45.45c-0.28,24.64-20.26,44.22-45,44.11
		c-24.82-0.11-44.73-20.52-44.42-45.51C530.19,127.38,550.26,107.76,574.96,107.91z"/>
	<path class="st0" d="M4390.99,242.04c-0.16,24.7-20.06,44.56-44.64,44.52c-24.84-0.06-44.93-20.35-44.77-45.24
		c0.16-24.6,20.12-44.4,44.79-44.45C4371.31,196.83,4391.14,216.91,4390.99,242.04z"/>
	<text transform="matrix(1 0 0 1 355.5948 395.9365)" class="st1 st2">ebff29</text>
</g>
</svg>
