<?xml version="1.0" encoding="utf-8"?>
<!-- Generator: Adobe Illustrator 24.0.0, SVG Export Plug-In . SVG Version: 6.00 Build 0)  -->
<svg version="1.1" id="Layer_1" xmlns="http://www.w3.org/2000/svg" xmlns:xlink="http://www.w3.org/1999/xlink" x="0px" y="0px"
	 viewBox="0 0 5440.6 460.1" style="enable-background:new 0 0 5440.6 460.1;" xml:space="preserve">
<style type="text/css">
	.st0{fill:#F6F6F6;}
</style>
<path class="st0" d="M5614.2,329.1c-58.9-5.7-116.7-7.2-172.7-7.5V304h-186.1c24.4-2.1,50.1-5.1,90.1-8.5l-53.6-6.7l43.8-3.4
	c-22.3-6.7,35.6-11.8,29-18.6l-158.8-1.6c85.1,6.7,28.9,13.5,3.9,20.2l-81.9-3.3c19,3.4,69.4,6.7,9.8,10.1
	c-32.9-1.7-76.7,1.7-113.2-3.3l65.3-13.5c-100.1,10.2-175.2-18.4-275.4-8.2l-30.3-15.1l-94.4,0.1l10.7-5.1l-113.2-3.3
	c-61.2,1.7-70.4,8.5-81.2,13.5c-47.2,0-92.6,1.7-111.7-1.6l54.8-8.4l-50.5-3.3c34.6,3.3-42.2,5.1-54.7,8.4
	c-113.4-3.3-80.2-1.6-151.3-10c-73.6,5.1-163.6-6.6-168,5.1c-134.1-8.3-277.1-9.9-404.6-11.5l-56.2,6.8c-151.3-10-220,0.1-377.2,0.2
	l12.4-3.4l-86.1,8.5c-118.3-8.3-164.7,8.5-302-3.2c-148-6.7-214.9,5.2-263.1,20.4c-71.9,6.8-162-5-226.5-6.6l42.1-5.1l-53.6-6.7
	c-92.8,1.7-97.7-3.3-218.6,1.8c-165.4-8.3-140.6,16.9-211,25.4l-158-16.8l3.4,3.4c-93.7,16.9-72,6.8-293.8,5.2l10,10.1
	c-74.5-11.7-106.8,3.4-202.8,1.8c-47,0-191-18.4-273.8-6.6c-168.7-11.7-250.7,17-395.4,13.7c-86.9-8.4-149,8.5-165.4-8.3l15.7,0
	L388,259.9l-4,11.8c-52.2-5-127.5-1.6-172.1-15.1L90.2,277c29.8-1.7,62.8,0,95.9,1.6l-3.3-3.4c31.6,0,108.4-1.8,144.8,3.3l-43.8,3.4
	c50.3,3.3,8.2,8.4-5.9,10.1c-100.9-6.7-73.5,5.1-150.6,6.8c-17.3-1.7-50.4-3.3-38.1-6.7c-45.4,1.7-165.3-8.3-169.4,3.5
	c-3.9-0.6-5.4-1.1-9-1.7c11.5,16.1,44.3,32.4,88.5,48.3v118h5442.2V346.9C5516.5,342.7,5580.4,335,5614.2,329.1z"/>
</svg>
