<?xml version="1.0" encoding="utf-8"?>
<!-- Generator: Adobe Illustrator 24.0.0, SVG Export Plug-In . SVG Version: 6.00 Build 0)  -->
<svg version="1.1" id="Layer_1" xmlns="http://www.w3.org/2000/svg" xmlns:xlink="http://www.w3.org/1999/xlink" x="0px" y="0px"
	 viewBox="0 0 5440.6 684.8" style="enable-background:new 0 0 5440.6 684.8;" xml:space="preserve">
<style type="text/css">
	.st0{fill:#314430;}
</style>
<g>
	<path class="st0" d="M-0.1,512c0.6-1.5,1.2-2.9,1.6-4.5c6-22.2,26.3-36.3,48.5-33.5c21.8,2.7,38.4,21,38.8,43.7
		c0.4,26.4-0.1,52.9,0.2,79.3c0.2,21.6,16,39.6,37.1,42.7c21.7,3.2,42.2-9.1,48.6-29.9c1.6-5.3,2.2-11.1,2.2-16.7
		c0.1-71.8-0.1-143.6,0.1-215.3c0.1-33.7,32.9-55.5,62.6-41.5c17.3,8.1,25.7,22.3,25.8,41.3c0.1,25-0.1,50.1,0.1,75.1
		c0.1,19.5,8.6,34.2,26.6,42.3c28.9,12.9,61-8.1,61.6-40.1c0.2-7.8-0.2-15.6,0.2-23.4c1.1-23.9,21-42.5,44.7-42.1
		c23.9,0.5,43.3,19.5,43.4,43.4c0.3,45.6-0.1,91.1,0.2,136.7c0.2,28.2,22.8,48,50.3,44.6c19.2-2.4,35.3-18.7,37.5-37.9
		c0.4-3.5,0.4-7.1,0.4-10.6c0-95.6-0.1-191.3,0-286.9c0-7,0.7-14.3,3-20.9c6.7-19.8,27.6-31.8,47.6-28.5
		c22.1,3.7,37.8,21.3,37.8,43.7c0.2,59.7,0.1,119.5,0.2,179.2c0,21.4,12.8,38.7,32.2,44c28,7.7,55.4-12.8,55.8-42
		c0.4-26.2-0.1-52.4,0.1-78.6c0.2-22,16.8-40.6,38.3-43.4c22.1-2.9,42.9,10.8,48.5,32.4c1.3,4.9,1.6,10.3,1.6,15.4
		c0.2,71.6,0.1,143.1,0.3,214.6c0.1,31.4,28.4,52.7,57.4,43.4c18.4-5.9,30.2-22.1,30.3-42.4c0.2-26.2-0.2-52.4,0.2-78.6
		c0.3-18.1,9-31.6,25.5-39.3c15.9-7.5,31.3-5.6,45.3,5c11.6,8.8,17.5,20.8,17.5,35.5c0,25.7,0,51.5,0,77.2
		c0,25.3,18.6,44.3,43.3,44.5c24.9,0.1,44.3-19,44.4-44.5c0.1-69.4,0-138.9,0-208.3c0-6.6-0.2-13.3,1-19.7
		c4.5-23.1,24.8-37.7,48.2-35.4c21.7,2.1,38.7,20.6,39,43.2c0.3,25.3,0,50.5,0.1,75.8c0.2,22.7,13.4,40.3,33.5,45.2
		c28.8,7,54.8-14.1,54.9-44.9c0.1-58.8,0-117.6-0.1-176.4c0-17.8,6.9-31.7,22.4-40.6c14.7-8.4,30-8.2,44.5,0.5
		c14.8,8.9,21.5,22.5,21.5,39.7c-0.1,71.1,0,142.1,0,213.2c0,27.4-0.3,54.8,0.1,82.2c0.4,30.1,28.4,50.7,56.7,42.4
		c18.9-5.6,31.3-22.4,31.4-43.2c0.1-44.6,0-89.3,0.1-133.9c0-22.5,13.4-40.3,33.6-45.1c27.4-6.6,53.6,13.1,54.9,41.3
		c0.3,7.5,0,15.1,0.1,22.7c0.3,24.6,19.2,43.6,43.5,43.9c24.6,0.2,44.2-18.8,44.5-43.6c0.3-26.2,0-52.4,0.1-78.6
		c0.1-22.2,16.4-41,37.7-43.8c22.5-3,42.9,10.1,48.8,31.8c1.4,5.1,1.8,10.7,1.8,16.1c0.2,71.3,0.2,142.6,0.3,213.9
		c0,21.5,12,38.3,31.1,44.1c28.3,8.5,56.6-12.2,57-42c0.3-26.2-0.1-52.4,0.1-78.6c0.2-22.6,17-41.5,38.5-43.7
		c23.4-2.4,43.4,11.5,48.6,34c1,4.3,1.1,8.9,1.1,13.4c0.1,24.8-0.1,49.6,0.1,74.4c0.2,22.7,16.8,41.5,38.3,44
		c22.5,2.6,42.8-10.9,48.4-32.5c1.3-5.2,1.6-10.8,1.6-16.1c0-70.1-0.2-140.3,0.1-210.4c0-7.6,1.2-15.7,4-22.7
		c7.8-19,28.6-29.3,48.8-25.4c20.2,4,35.3,21.9,35.5,42.9c0.2,26.7-0.2,53.4,0.2,80c0.3,20.2,14.4,37,34.1,41.7
		c19.2,4.5,39.5-4.2,48.4-22.1c3.1-6.3,4.5-13.8,5.3-21c0.9-8.4-0.3-17.1,0.6-25.5c2.6-23.9,22.9-40.8,46.4-39.6
		c23.6,1.3,41.7,20.5,41.8,45.1c0.2,43.7,0,87.4,0.1,131.1c0,4.9,0.1,10,1.1,14.8c5,22.1,25.6,36.5,48,34c21.7-2.4,38.6-21,39-43.4
		c0.2-10.8,0-21.7,0-32.6c0-87.8-0.1-175.7-0.1-263.5c0-26.2,18.8-45.7,43.8-45.9c24.7-0.1,44.2,18.9,44.4,43.6
		c0.2,27.4,0.1,54.8,0.1,82.2c0,32.1-0.1,64.2,0,96.3c0.1,26.5,18.9,46.5,43.9,46.8c25.1,0.3,44.4-19.9,44.5-46.8
		c0.1-24.3,0-48.6,0-73c0.1-26.6,18.7-46.1,44.2-46.1c25.2-0.1,44.1,19.7,44.1,46.3c0.1,72.3,0,144.5,0.1,216.8
		c0.1,30.2,27.3,51.3,55.8,43.5c19-5.2,32-22.1,32.2-42.5c0.2-25-0.1-50.1,0.2-75.1c0.1-7.3,0.5-14.8,2.4-21.7
		c5.8-22,27.3-36.1,49.6-33.2c22.5,2.9,39.7,21.7,39.9,44.4c0.3,26.9-0.1,53.8,0.1,80.8c0.2,25.7,18.4,45.5,42.6,47.2
		c26.6,1.9,48.9-19,48.9-46.4c0.1-75.6,0-151.1,0.1-226.7c0-22.8,15.5-41.8,36.9-45.6c29.1-5.2,54.4,15.6,54.7,45.4
		c0.3,26.7,0,53.4,0.3,80c0.2,24.5,18.1,43.4,42.6,45.6c22,2,43.1-14.1,47.8-36.9c0.8-4.1,0.8-8.4,0.8-12.7
		c0.1-61.2-0.1-122.3,0.1-183.5c0.1-19.8,9.8-34.5,28.1-42.2c17.7-7.5,34.4-4.3,48.7,8.5c10.6,9.5,14.9,21.9,14.9,36.1
		c0,101.5,0,203.1,0.1,304.6c0,21.3,12.8,39,32.4,44.9c28.1,8.5,56.8-11.4,58.8-40.7c0.2-2.8,0.1-5.7,0.1-8.5
		c0-44.9-0.1-89.7,0.1-134.6c0.1-33.5,30.2-55.9,60.8-45.4c18.2,6.3,30.5,23.1,30.8,42.5c0.2,9.4-0.6,19,0.6,28.3
		c3.2,24.7,23.9,41.3,48.6,39.8c23.5-1.4,42.1-21.1,42.4-45.8c0.4-27.6-0.4-55.3,0.2-82.9c0.8-32.7,35.3-53.7,64.7-39.6
		c17.9,8.5,26.6,23.3,26.6,43.2c0,45.3,0,90.7,0,136c0,30-0.1,60,0.2,90c0.2,21.3,13.4,38.7,33.1,44.4c18.9,5.5,39.9-1.6,50.1-18.6
		c4.3-7.1,7.2-16.2,7.5-24.5c0.9-27.8,0.1-55.7,0.5-83.6c0.3-22.4,17.6-41.3,39.5-44c23.1-2.9,44.4,10.9,50.4,33
		c1.4,4.9,1.8,10.2,1.9,15.4c0.2,25.7,0.9,51.5-0.2,77.2c-1,22.5,17.4,46.8,45.5,46.9c25.6,0.1,45.6-20.4,45.7-46.9
		c0.1-72.7,0-145.5,0-218.2c0-2.6,0-5.2,0-7.8c0.4-26.4,20.4-46.8,45.9-46.8c25.5,0,45.6,20.4,45.9,46.9c0.2,26.7,0,53.4,0.1,80.1
		c0.1,23.6,17.6,43.3,40.1,45.6c24.1,2.4,45.7-12.7,50-36.3c1.8-9.9,0.9-20.2,1.1-30.4c0.5-23.1,16-41.8,38-45.5
		c28.3-4.8,53.7,16.3,53.7,45c0.2,47.2-0.1,94.5,0.1,141.7c0.2,35.8,38.2,57.8,68.7,39.8c16.1-9.5,22.9-24.3,22.9-42.8
		c-0.1-40.6,0-81.2,0-121.9c0-60,0.1-119.9-0.1-179.9c-0.1-20.1,7.9-35.4,25.9-44.4c29.6-14.7,64.2,6.2,65.5,39.2
		c0.4,9.4,0.1,18.9,0.1,28.3c0,53.4-0.2,106.7,0,160.1c0.1,18.2,8.1,32.4,24.3,41.1c15.4,8.3,31,7.6,45.8-1.6
		c14.5-9.1,21.4-22.9,21.5-39.9c0.1-26.5-0.1-52.9,0.1-79.3c0.2-23.6,17.1-42.3,40.6-45.2c22.4-2.8,43.5,11.4,49.3,33.6
		c1.5,5.6,1.8,11.7,1.8,17.5c0.1,73.4-0.1,146.9,0,220.3c0,26,17.6,45.9,41.9,47.7c26.5,2,49.1-18.4,49.4-45.1
		c0.3-27.4-0.2-54.8,0.2-82.2c0.3-18.3,9-32.2,25.4-40.4c16.4-8.2,32.6-6.7,47.5,4c12.1,8.7,18.5,20.9,18.7,35.7
		c0.5,28.6,0,57.1,0.4,85.7c0.4,29.7,28,50.2,56.2,42.3c17.7-4.9,30.7-20.9,31.8-39.2c0.2-3.5,0.2-7.1,0.2-10.6
		c0-69.9,0-139.8,0-209.7c0-26.1,17.4-45.5,41.5-46.8c25.9-1.4,46.8,18,47.1,43.9c0.3,25.3,0,50.5,0.1,75.8
		c0,26.3,19.4,46.4,44.4,46.1c24.8-0.3,43.6-20.1,43.7-46.1c0.1-59.3,0-118.5,0.2-177.8c0.1-18.7,8.5-32.8,25.5-40.8
		c16.4-7.7,32.3-5.6,46.5,5.6c12.2,9.6,16.5,22.9,16.5,38.2c-0.2,95.4-0.2,190.8-0.2,286.2c0,3.1,0,6.2,0.2,9.2
		c1.7,24.8,21,42.8,45.3,42.2c23.9-0.5,42.8-20.1,42.9-44.8c0.2-45.1-0.1-90.2,0.1-135.3c0.1-25.7,19.6-45.3,44.6-45.1
		c23.5,0.2,42.9,19,43.7,42.5c0.4,10.1-0.4,20.4,1.1,30.4c3.4,22.5,23,37.5,46,36.3c21.7-1.1,40-18.5,40.8-40.6
		c1-26.4,0.3-52.9,0.5-79.3c0.2-21.6,12-38.5,30.8-44.4c28.8-9,57.5,12,57.6,42.6c0.2,51.9,0.1,103.9,0.1,155.8
		c0,21.7-0.4,43.5,0.1,65.2c0.5,23.2,19.1,41.7,42,42.5c25,0.9,45.4-17.9,45.8-42.9c0.4-25,0.4-50.1,0.1-75.1
		c-0.2-18.5,6.3-33.5,22.7-42.6c16-9,32.1-7.7,47.5,2.5c0.5,0.4,1.3,0.4,1.9,0.6c0,67.1,0,134.1,0,201.2c-2.8,0.1-5.6,0.3-8.5,0.3
		c-95.9,0-191.7-0.1-287.6-0.1c-246-0.1-492.1-0.1-738.1-0.2c-284-0.1-568.1-0.2-852.1-0.1c-342.6,0-685.2,0.2-1027.8,0.2
		c-239.6,0-479.3,0-719,0.1c-124.7,0-249.3,0.1-374,0.1c-2.8,0-5.5,0.7-8.3,1c-475.1,0-950.2,0-1425.3,0
		C-0.1,627.2-0.1,569.6-0.1,512z"/>
	<path class="st0" d="M1425.3,684.8c2.8-0.3,5.5-1,8.3-1c124.7-0.1,249.3-0.1,374-0.1c239.7,0,479.3,0,719-0.1
		c342.6-0.1,685.2-0.2,1027.8-0.2c284,0,568.1,0.1,852.1,0.1c246,0,492.1,0.1,738.1,0.2c95.9,0,191.7,0.1,287.6,0.1
		c2.8,0,5.6-0.2,8.5-0.3c-0.2,0.5-0.5,1.3-0.7,1.4c-1.9,0.1-3.8,0.1-5.7,0.1C4097.9,684.8,2761.6,684.8,1425.3,684.8z"/>
	<path class="st0" d="M1942.1,258.5c-0.1-24.7,19.6-44.8,44.1-45.1c24.7-0.3,45.2,19.9,45.3,44.8c0.1,24.8-20.1,45-45,45
		C1962,303.1,1942.2,283.2,1942.1,258.5z"/>
	<path class="st0" d="M1104.1,212.9c24.9,0,45,20.2,44.8,45.1c-0.2,24.6-20.2,44.4-44.8,44.4c-25,0-44.7-20-44.6-45.2
		C1059.6,232.5,1079.3,212.9,1104.1,212.9z"/>
	<path class="st0" d="M5192,258.3c0-24.9,20.4-45.2,45.1-44.9c24.5,0.3,44.5,20.5,44.5,45c0,24.7-20.6,45.1-45.3,44.9
		C5211.7,303,5192,283,5192,258.3z"/>
	<path class="st0" d="M2921.7,241.8c-0.1,24.7-19.9,44.7-44.4,44.7c-24.8,0-45.1-20.3-45-45.1c0.1-24.8,20.7-45.1,45.3-44.7
		C2902.3,197.1,2921.8,216.9,2921.7,241.8z"/>
	<path class="st0" d="M575,107.9c25,0.2,44.6,20.3,44.3,45.4c-0.3,24.6-20.3,44.2-45,44.1c-24.8-0.1-44.7-20.5-44.4-45.5
		C530.2,127.4,550.3,107.8,575,107.9z"/>
	<path class="st0" d="M4391,242c-0.2,24.7-20.1,44.6-44.6,44.5c-24.8-0.1-44.9-20.4-44.8-45.2c0.2-24.6,20.1-44.4,44.8-44.4
		C4371.3,196.8,4391.1,216.9,4391,242z"/>
</g>
</svg>
