<?xml version="1.0" encoding="utf-8"?>
<!-- Generator: Adobe Illustrator 24.0.0, SVG Export Plug-In . SVG Version: 6.00 Build 0)  -->
<svg version="1.1" id="Layer_1" xmlns="http://www.w3.org/2000/svg" xmlns:xlink="http://www.w3.org/1999/xlink" x="0px" y="0px"
	 viewBox="0 0 351.56 282.24" style="enable-background:new 0 0 351.56 282.24;" xml:space="preserve">
<style type="text/css">
	.st0{fill:#232323;}
	.st1{opacity:0.1;fill:#7DFE7A;}
	.st2{opacity:0.1;}
	.st3{fill:#8DFE8B;}
	.st4{fill-rule:evenodd;clip-rule:evenodd;fill:#10FECC;}
	.st5{fill:#EBFF29;}
	.st6{fill:#7DFE7A;}
	.st7{fill:#10FECC;}
	.st8{fill:#FFFFFF;}
	.st9{fill:#FF445A;}
	.st10{clip-path:url(#SVGID_8_);fill:url(#SVGID_9_);}
	.st11{clip-path:url(#SVGID_10_);fill:url(#SVGID_11_);}
	.st12{clip-path:url(#SVGID_12_);fill:url(#SVGID_13_);}
	.st13{clip-path:url(#SVGID_14_);fill:url(#SVGID_15_);}
	.st14{clip-path:url(#SVGID_21_);fill:url(#SVGID_22_);}
	.st15{clip-path:url(#SVGID_24_);fill:url(#SVGID_25_);}
	.st16{clip-path:url(#SVGID_27_);fill:url(#SVGID_28_);}
	.st17{clip-path:url(#SVGID_32_);fill:url(#SVGID_33_);}
	.st18{opacity:0.15;fill:#7DFE7A;}
	.st19{opacity:0.15;fill:url(#SVGID_34_);}
	.st20{opacity:0.3;fill:#10FECC;}
	.st21{opacity:0.86;fill:#FFFFFF;stroke:#12A4AA;stroke-width:5;stroke-miterlimit:10;}
	.st22{fill:url(#SVGID_35_);}
	.st23{fill:url(#SVGID_36_);}
	.st24{fill:#3B3B3B;}
	.st25{fill:#666666;}
	.st26{fill:url(#SVGID_37_);}
	.st27{fill:url(#SVGID_38_);}
	.st28{fill:url(#SVGID_39_);}
	.st29{fill:url(#SVGID_40_);}
	.st30{fill:url(#SVGID_54_);}
	.st31{fill:url(#SVGID_55_);}
	.st32{filter:url(#Adobe_OpacityMaskFilter);}
	.st33{filter:url(#Adobe_OpacityMaskFilter_1_);}
	.st34{mask:url(#SVGID_56_);fill:url(#SVGID_57_);}
	.st35{fill:url(#SVGID_58_);}
	.st36{fill:url(#SVGID_59_);}
	.st37{filter:url(#Adobe_OpacityMaskFilter_2_);}
	.st38{filter:url(#Adobe_OpacityMaskFilter_3_);}
	.st39{mask:url(#SVGID_62_);fill:url(#SVGID_63_);}
	.st40{opacity:0.2;fill:url(#SVGID_64_);}
	.st41{fill:none;}
	.st42{fill:#929292;}
	.st43{fill:url(#SVGID_65_);}
	.st44{fill:#DFDFDF;}
	.st45{fill:url(#SVGID_66_);}
	.st46{fill:url(#SVGID_91_);}
	.st47{fill:url(#SVGID_92_);}
	.st48{fill:url(#SVGID_93_);}
	.st49{fill:url(#SVGID_96_);}
	.st50{fill:url(#SVGID_97_);}
	.st51{fill:url(#SVGID_98_);}
	.st52{fill:#0C0C0C;}
	.st53{filter:url(#Adobe_OpacityMaskFilter_4_);}
	.st54{filter:url(#Adobe_OpacityMaskFilter_5_);}
	.st55{mask:url(#SVGID_99_);fill:url(#SVGID_100_);}
	.st56{opacity:0.1;fill:url(#SVGID_101_);}
	.st57{fill:url(#SVGID_102_);}
	.st58{fill:url(#SVGID_103_);}
	.st59{fill:url(#SVGID_104_);}
	.st60{fill:url(#SVGID_105_);}
	.st61{fill:url(#SVGID_106_);}
	.st62{fill:url(#SVGID_108_);}
	.st63{fill:#FFE8FF;}
	.st64{fill:#FFD6FE;}
	.st65{fill:url(#SVGID_109_);}
	.st66{fill:url(#SVGID_110_);}
	.st67{fill:url(#SVGID_111_);}
	.st68{fill:url(#SVGID_112_);}
	.st69{fill:url(#SVGID_113_);}
	.st70{fill:url(#SVGID_114_);}
	.st71{fill:url(#SVGID_115_);}
	.st72{fill:none;stroke:#FFFFFF;stroke-miterlimit:10;}
	.st73{fill:none;stroke:#082E36;stroke-width:3;stroke-linecap:round;stroke-miterlimit:10;}
	.st74{fill:#FFFFFF;stroke:#082E36;stroke-width:3;stroke-linecap:round;stroke-linejoin:round;stroke-miterlimit:10;}
	.st75{fill:#082E36;}
	.st76{fill:#F7FAFF;}
	.st77{fill:#E3E9FF;}
	.st78{fill:url(#SVGID_116_);}
	.st79{fill:#63D6E6;}
	.st80{fill:none;stroke:url(#SVGID_117_);stroke-width:3;stroke-linecap:round;stroke-linejoin:round;stroke-miterlimit:10;}
	.st81{fill:none;stroke:url(#SVGID_118_);stroke-width:3;stroke-linecap:round;stroke-linejoin:round;stroke-miterlimit:10;}
	.st82{fill:url(#SVGID_119_);}
	.st83{fill:url(#SVGID_120_);}
	.st84{fill:#F7F2FF;}
	.st85{fill:#ECE0FF;}
	.st86{fill:url(#SVGID_121_);}
	.st87{fill:#3F1583;}
	.st88{fill:url(#SVGID_122_);}
	.st89{fill:#7C44FF;}
	.st90{fill:#F5F9FA;}
	.st91{fill:#EBF8FA;}
	.st92{fill:url(#SVGID_123_);}
	.st93{fill:url(#SVGID_124_);}
	.st94{fill:url(#SVGID_125_);}
	.st95{fill:url(#SVGID_126_);}
	.st96{fill:url(#SVGID_127_);}
	.st97{fill:url(#SVGID_128_);}
	.st98{fill:url(#SVGID_129_);}
	.st99{clip-path:url(#SVGID_131_);}
	.st100{fill:#7350D0;}
	.st101{clip-path:url(#SVGID_133_);}
	.st102{clip-path:url(#SVGID_135_);}
	.st103{fill:none;stroke:#082E36;stroke-width:3;stroke-linecap:round;stroke-linejoin:round;stroke-miterlimit:10;}
	.st104{opacity:0.87;}
	.st105{clip-path:url(#SVGID_137_);}
	.st106{fill:#FF919C;}
	.st107{opacity:0.6;fill:#EBFF29;}
	.st108{fill:url(#SVGID_138_);}
	.st109{opacity:0.63;fill:url(#SVGID_139_);}
	.st110{clip-path:url(#SVGID_141_);}
	.st111{fill:#FF87B3;}
	.st112{clip-path:url(#SVGID_143_);}
	.st113{opacity:0.79;clip-path:url(#SVGID_145_);}
	.st114{opacity:0.79;clip-path:url(#SVGID_147_);}
	.st115{opacity:0.79;clip-path:url(#SVGID_149_);}
	.st116{opacity:0.79;clip-path:url(#SVGID_151_);}
	.st117{opacity:0.79;clip-path:url(#SVGID_153_);}
	.st118{opacity:0.79;clip-path:url(#SVGID_155_);}
	.st119{opacity:0.79;clip-path:url(#SVGID_157_);}
	.st120{opacity:0.79;clip-path:url(#SVGID_159_);}
	.st121{opacity:0.79;clip-path:url(#SVGID_161_);}
	.st122{opacity:0.79;clip-path:url(#SVGID_163_);}
	.st123{opacity:0.71;}
	.st124{opacity:0.79;clip-path:url(#SVGID_165_);}
	.st125{opacity:0.79;clip-path:url(#SVGID_167_);}
	.st126{opacity:0.79;clip-path:url(#SVGID_169_);}
	.st127{opacity:0.79;clip-path:url(#SVGID_171_);}
	.st128{opacity:0.79;clip-path:url(#SVGID_173_);}
	.st129{fill:none;stroke:url(#SVGID_174_);stroke-width:4;stroke-miterlimit:10;}
	.st130{clip-path:url(#SVGID_181_);fill:url(#SVGID_182_);}
	.st131{clip-path:url(#SVGID_183_);fill:url(#SVGID_184_);}
	.st132{clip-path:url(#SVGID_185_);fill:url(#SVGID_186_);}
	.st133{clip-path:url(#SVGID_187_);fill:url(#SVGID_188_);}
	.st134{opacity:0.5;fill:#0C1D1E;}
	.st135{clip-path:url(#SVGID_197_);fill:url(#SVGID_198_);}
	.st136{clip-path:url(#SVGID_199_);fill:url(#SVGID_200_);}
	.st137{clip-path:url(#SVGID_201_);fill:url(#SVGID_202_);}
	.st138{clip-path:url(#SVGID_203_);fill:url(#SVGID_204_);}
	.st139{opacity:0.1;fill:url(#SVGID_209_);}
	.st140{fill:url(#SVGID_210_);}
	.st141{fill:url(#SVGID_211_);}
	.st142{fill:url(#SVGID_212_);}
	.st143{fill:url(#SVGID_213_);}
	.st144{fill:url(#SVGID_214_);}
	.st145{fill:url(#SVGID_215_);}
	.st146{fill:url(#SVGID_216_);}
	.st147{fill:url(#SVGID_217_);}
	.st148{filter:url(#Adobe_OpacityMaskFilter_6_);}
	.st149{filter:url(#Adobe_OpacityMaskFilter_7_);}
	.st150{mask:url(#SVGID_218_);fill:url(#SVGID_219_);}
	.st151{fill:url(#SVGID_220_);}
	.st152{fill:url(#SVGID_221_);}
	.st153{filter:url(#Adobe_OpacityMaskFilter_8_);}
	.st154{filter:url(#Adobe_OpacityMaskFilter_9_);}
	.st155{mask:url(#SVGID_224_);fill:url(#SVGID_225_);}
	.st156{opacity:0.2;fill:url(#SVGID_226_);}
	.st157{fill:url(#SVGID_227_);}
	.st158{fill:url(#SVGID_228_);}
	.st159{fill:url(#SVGID_229_);}
	.st160{fill:url(#SVGID_230_);}
	.st161{fill:url(#SVGID_231_);}
	.st162{fill:url(#SVGID_234_);}
	.st163{fill:url(#SVGID_235_);}
	.st164{fill:url(#SVGID_236_);}
	.st165{filter:url(#Adobe_OpacityMaskFilter_10_);}
	.st166{filter:url(#Adobe_OpacityMaskFilter_11_);}
	.st167{mask:url(#SVGID_237_);fill:url(#SVGID_238_);}
	.st168{opacity:0.1;fill:url(#SVGID_239_);}
	.st169{fill:url(#SVGID_240_);}
	.st170{fill:url(#SVGID_241_);}
	.st171{fill:url(#SVGID_242_);}
	.st172{fill:url(#SVGID_243_);}
	.st173{fill:url(#SVGID_244_);}
	.st174{fill:url(#SVGID_246_);}
	.st175{fill:#5B5B5B;}
	.st176{clip-path:url(#SVGID_251_);fill:url(#SVGID_252_);}
	.st177{clip-path:url(#SVGID_253_);fill:url(#SVGID_254_);}
	.st178{clip-path:url(#SVGID_255_);fill:url(#SVGID_256_);}
	.st179{clip-path:url(#SVGID_257_);fill:url(#SVGID_258_);}
	.st180{opacity:0.15;fill:url(#SVGID_263_);}
	.st181{fill:url(#SVGID_264_);}
	.st182{fill:url(#SVGID_265_);}
	.st183{fill:url(#SVGID_266_);}
	.st184{fill:url(#SVGID_267_);}
	.st185{fill:url(#SVGID_268_);}
	.st186{fill:url(#SVGID_269_);}
	.st187{fill:url(#SVGID_270_);}
	.st188{fill:url(#SVGID_271_);}
	.st189{fill:none;stroke:url(#SVGID_272_);stroke-width:3;stroke-linecap:round;stroke-linejoin:round;stroke-miterlimit:10;}
	.st190{fill:none;stroke:url(#SVGID_273_);stroke-width:3;stroke-linecap:round;stroke-linejoin:round;stroke-miterlimit:10;}
	.st191{fill:url(#SVGID_274_);}
	.st192{fill:url(#SVGID_275_);}
	.st193{fill:url(#SVGID_276_);}
	.st194{fill:url(#SVGID_277_);}
	.st195{fill:url(#SVGID_278_);}
	.st196{fill:url(#SVGID_279_);}
	.st197{fill:url(#SVGID_280_);}
	.st198{fill:url(#SVGID_281_);}
	.st199{fill:url(#SVGID_282_);}
	.st200{fill:url(#SVGID_283_);}
	.st201{fill:url(#SVGID_284_);}
	.st202{clip-path:url(#SVGID_286_);}
	.st203{clip-path:url(#SVGID_288_);}
	.st204{clip-path:url(#SVGID_290_);}
	.st205{fill:url(#SVGID_291_);}
	.st206{fill:url(#SVGID_292_);}
	.st207{fill:url(#SVGID_293_);}
	.st208{fill:url(#SVGID_294_);}
	.st209{fill:url(#SVGID_295_);}
	.st210{fill:url(#SVGID_296_);}
	.st211{fill:url(#SVGID_297_);}
	.st212{fill:url(#SVGID_298_);}
	.st213{fill:url(#SVGID_299_);}
	.st214{fill:url(#SVGID_300_);}
	.st215{fill:url(#SVGID_301_);}
	.st216{fill:url(#SVGID_302_);}
	.st217{fill:url(#SVGID_303_);}
	.st218{fill:url(#SVGID_304_);}
	.st219{fill:url(#SVGID_305_);}
	.st220{fill:none;stroke:url(#SVGID_306_);stroke-width:3;stroke-linecap:round;stroke-linejoin:round;stroke-miterlimit:10;}
	.st221{fill:none;stroke:url(#SVGID_307_);stroke-width:3;stroke-linecap:round;stroke-linejoin:round;stroke-miterlimit:10;}
	.st222{fill:url(#SVGID_308_);}
	.st223{fill:url(#SVGID_309_);}
	.st224{fill:url(#SVGID_310_);}
	.st225{fill:url(#SVGID_311_);}
	.st226{fill:url(#SVGID_312_);}
	.st227{fill:url(#SVGID_313_);}
	.st228{fill:url(#SVGID_314_);}
	.st229{fill:url(#SVGID_315_);}
	.st230{fill:url(#SVGID_316_);}
	.st231{fill:url(#SVGID_317_);}
	.st232{fill:url(#SVGID_318_);}
	.st233{clip-path:url(#SVGID_320_);}
	.st234{clip-path:url(#SVGID_322_);}
	.st235{clip-path:url(#SVGID_324_);}
	.st236{fill:url(#SVGID_325_);}
	.st237{fill:url(#SVGID_326_);}
	.st238{fill:url(#SVGID_327_);}
	.st239{fill:url(#SVGID_328_);}
	.st240{fill:url(#SVGID_329_);}
	.st241{fill:url(#SVGID_330_);}
	.st242{fill:url(#SVGID_331_);}
	.st243{fill:url(#SVGID_332_);}
	.st244{filter:url(#Adobe_OpacityMaskFilter_12_);}
	.st245{filter:url(#Adobe_OpacityMaskFilter_13_);}
	.st246{mask:url(#SVGID_333_);fill:url(#SVGID_334_);}
	.st247{fill:url(#SVGID_335_);}
	.st248{fill:url(#SVGID_336_);}
	.st249{filter:url(#Adobe_OpacityMaskFilter_14_);}
	.st250{filter:url(#Adobe_OpacityMaskFilter_15_);}
	.st251{mask:url(#SVGID_339_);fill:url(#SVGID_340_);}
	.st252{opacity:0.2;fill:url(#SVGID_341_);}
	.st253{fill:url(#SVGID_342_);}
	.st254{fill:url(#SVGID_343_);}
	.st255{fill:url(#SVGID_344_);}
	.st256{fill:url(#SVGID_345_);}
	.st257{fill:url(#SVGID_346_);}
	.st258{fill:url(#SVGID_349_);}
	.st259{fill:url(#SVGID_350_);}
	.st260{fill:url(#SVGID_351_);}
	.st261{filter:url(#Adobe_OpacityMaskFilter_16_);}
	.st262{filter:url(#Adobe_OpacityMaskFilter_17_);}
	.st263{mask:url(#SVGID_352_);fill:url(#SVGID_353_);}
	.st264{opacity:0.1;fill:url(#SVGID_354_);}
	.st265{fill:url(#SVGID_355_);}
	.st266{fill:url(#SVGID_356_);}
	.st267{fill:url(#SVGID_357_);}
	.st268{fill:url(#SVGID_358_);}
	.st269{fill:url(#SVGID_359_);}
	.st270{fill:url(#SVGID_361_);}
	.st271{opacity:0.3;fill:#EBFF29;}
	.st272{clip-path:url(#SVGID_366_);fill:url(#SVGID_367_);}
	.st273{clip-path:url(#SVGID_368_);fill:url(#SVGID_369_);}
	.st274{clip-path:url(#SVGID_370_);fill:url(#SVGID_371_);}
	.st275{clip-path:url(#SVGID_372_);fill:url(#SVGID_373_);}
	.st276{clip-path:url(#SVGID_382_);fill:url(#SVGID_383_);}
	.st277{clip-path:url(#SVGID_384_);fill:url(#SVGID_385_);}
	.st278{clip-path:url(#SVGID_386_);fill:url(#SVGID_387_);}
	.st279{clip-path:url(#SVGID_388_);fill:url(#SVGID_389_);}
	.st280{clip-path:url(#SVGID_394_);}
	.st281{fill-rule:evenodd;clip-rule:evenodd;fill:#EBFF29;}
	.st282{opacity:0.1;fill:url(#SVGID_395_);}
	.st283{clip-path:url(#SVGID_396_);}
	.st284{fill-rule:evenodd;clip-rule:evenodd;fill:#FFFFFF;}
	.st285{clip-path:url(#SVGID_401_);fill:url(#SVGID_402_);}
	.st286{clip-path:url(#SVGID_403_);fill:url(#SVGID_404_);}
	.st287{clip-path:url(#SVGID_405_);fill:url(#SVGID_406_);}
	.st288{clip-path:url(#SVGID_407_);fill:url(#SVGID_408_);}
	.st289{fill:url(#SVGID_413_);}
	.st290{fill:url(#SVGID_414_);}
	.st291{fill:url(#SVGID_415_);}
	.st292{fill:url(#SVGID_416_);}
	.st293{fill:url(#SVGID_417_);}
	.st294{fill:url(#SVGID_418_);}
	.st295{fill:url(#SVGID_419_);}
	.st296{fill:url(#SVGID_420_);}
	.st297{filter:url(#Adobe_OpacityMaskFilter_18_);}
	.st298{filter:url(#Adobe_OpacityMaskFilter_19_);}
	.st299{mask:url(#SVGID_421_);fill:url(#SVGID_422_);}
	.st300{fill:url(#SVGID_423_);}
	.st301{fill:url(#SVGID_424_);}
	.st302{filter:url(#Adobe_OpacityMaskFilter_20_);}
	.st303{filter:url(#Adobe_OpacityMaskFilter_21_);}
	.st304{mask:url(#SVGID_427_);fill:url(#SVGID_428_);}
	.st305{opacity:0.2;fill:url(#SVGID_429_);}
	.st306{fill:url(#SVGID_430_);}
	.st307{fill:url(#SVGID_431_);}
	.st308{fill:url(#SVGID_432_);}
	.st309{fill:url(#SVGID_433_);}
	.st310{fill:url(#SVGID_434_);}
	.st311{fill:url(#SVGID_437_);}
	.st312{fill:url(#SVGID_438_);}
	.st313{fill:url(#SVGID_439_);}
	.st314{filter:url(#Adobe_OpacityMaskFilter_22_);}
	.st315{filter:url(#Adobe_OpacityMaskFilter_23_);}
	.st316{mask:url(#SVGID_440_);fill:url(#SVGID_441_);}
	.st317{opacity:0.1;fill:url(#SVGID_442_);}
	.st318{fill:url(#SVGID_443_);}
	.st319{fill:url(#SVGID_444_);}
	.st320{fill:url(#SVGID_445_);}
	.st321{fill:url(#SVGID_446_);}
	.st322{fill:url(#SVGID_447_);}
	.st323{fill:url(#SVGID_449_);}
</style>
<g>
	<path class="st63" d="M280.35,206.06c15.51-2.36,25.02-21.84,26.18-26.5c3.49-13.99-4.99-30.15-15.41-40.4
		c-6.65-6.55-15.27-10.77-22.27-16.95c-12.57-11.11-19.06-28.65-16.67-45.04c1.51-10.3,6.23-19.94,7.23-30.31
		c0.99-10.37-3.47-22.72-13.59-25.6c-4.23-1.2-8.74-0.54-12.96,0.58c-10.21,2.7-19.67,8.04-27.19,15.36
		c-4.95,4.81-9.59,10.76-16.4,12.16c-8.38,1.72-16.58-4.28-21.86-11.09c-5.28-6.81-8.95-15.09-15.73-20.42
		c-22.18-17.44-56.78-2.58-64.25,5.09C63.58,47.4,73.75,80.92,79.19,94.03c5.43,13.12,12.29,25.96,14.24,39.97
		c5.01,35.88-22.94,69.37-19.56,105.41c0.42,4.43,1.34,8.9,3.51,12.82c2.54,4.58,6.63,8.14,11.04,11
		c11.58,7.52,25.89,10.7,39.46,8.77c30.32-4.31,51.15-31.32,77.57-46.47C229,212.02,253.58,210.14,280.35,206.06z"/>
	<path class="st64" d="M148.61,17.4c12.83-5.66,31.15-4.42,39.94,6.52c7.17,8.93,7.12,23.6,11.25,34.28
		c8.35,21.59,27.17,38.86,49.4,45.32c9.62,2.8,19.8,3.69,29.04,7.56c9.24,3.87,21.44,20.04,21.83,30.05
		c0.45,11.4-5.68,36.27-27.99,43.16c-24.38,7.53-50.78-12.84-67.94-1.13c-21.81,14.89-14.35,54.4-59.83,66.77
		c-11.61,3.16-23.02,0.4-31.83-7.8c-14.46-13.47-11.62-39.45-15.87-58.75c-6.36-28.91-56.33-41.09-52.12-77.89
		c0.82-7.19,8.84-28.43,32.42-29.34c21.06-0.81,27.66,5.98,38.48,1.45c14.52-6.08,15.11-16.06,15-29.59
		C130.28,35,135.88,23.02,148.61,17.4z"/>
	<linearGradient id="SVGID_2_" gradientUnits="userSpaceOnUse" x1="61.7884" y1="-36.8062" x2="344.5666" y2="406.0171">
		<stop  offset="0" style="stop-color:#5D73D0"/>
		<stop  offset="0.6224" style="stop-color:#FF1DBF"/>
		<stop  offset="1" style="stop-color:#7F3ED0"/>
	</linearGradient>
	<path style="fill:url(#SVGID_2_);" d="M51.07,197.82c4.86,6.08,12.12,9.81,19.56,12.08c32.55,9.91,69.75-5.3,100.92,8.35
		c14.33,6.28,27.2,15.17,41.05,22.46c45.7,24.06,83.02-31.4,69.03-60.38c-13.04-27.01-24.33-17.99-24.83-44.97
		c-0.38-20.62,15.33-22.95,21.99-42.47c8.62-25.28-3.59-59.04-26.62-72.56s-56.25-6.8-70.99,15.47c-4.63,7-7.7,15.37-14.32,20.53
		c-11.68,9.11-28.34,4.44-43.04,2.67c-10.32-1.24-20.85-0.8-31.03,1.3c-10.82,2.23-22.29,7.3-26.62,17.47
		c-3.71,8.71-1.14,18.78,2.54,27.5c3.68,8.72,8.5,17.25,9.32,26.67c1.64,18.66-11.99,18.96-22.79,27.85
		C44.54,168.58,42.43,187.02,51.07,197.82z"/>
	<g>
		<g>
			<g>
				<g>
					<path class="st8" d="M163.33,73.13L163.33,73.13c0.38-0.61,1.18-0.8,1.8-0.42l8.13,5.05c0.61,0.38,0.8,1.18,0.42,1.8l0,0
						c-0.38,0.61-1.18,0.8-1.8,0.42l-8.13-5.05C163.14,74.55,162.95,73.74,163.33,73.13z"/>
					<path class="st8" d="M171.71,71.17L171.71,71.17c0.61,0.38,0.8,1.18,0.42,1.8l-5.05,8.13c-0.38,0.61-1.18,0.8-1.8,0.42l0,0
						c-0.61-0.38-0.8-1.18-0.42-1.8l5.05-8.13C170.3,70.98,171.1,70.79,171.71,71.17z"/>
				</g>
				<g>
					<linearGradient id="SVGID_3_" gradientUnits="userSpaceOnUse" x1="146.5883" y1="229.5077" x2="157.3262" y2="229.5077">
						<stop  offset="8.379890e-03" style="stop-color:#7F3ED0"/>
						<stop  offset="0.1444" style="stop-color:#6B31B8"/>
						<stop  offset="0.318" style="stop-color:#5825A1"/>
						<stop  offset="0.5039" style="stop-color:#4A1C90"/>
						<stop  offset="0.7087" style="stop-color:#421786"/>
						<stop  offset="0.9693" style="stop-color:#3F1583"/>
					</linearGradient>
					<path style="fill:url(#SVGID_3_);" d="M146.78,226.29L146.78,226.29c0.38-0.61,1.18-0.8,1.8-0.42l8.13,5.05
						c0.61,0.38,0.8,1.18,0.42,1.8l0,0c-0.38,0.61-1.18,0.8-1.8,0.42l-8.13-5.05C146.59,227.71,146.4,226.91,146.78,226.29z"/>
					<linearGradient id="SVGID_5_" gradientUnits="userSpaceOnUse" x1="148.1276" y1="229.5077" x2="155.7869" y2="229.5077">
						<stop  offset="8.379890e-03" style="stop-color:#7F3ED0"/>
						<stop  offset="0.1444" style="stop-color:#6B31B8"/>
						<stop  offset="0.318" style="stop-color:#5825A1"/>
						<stop  offset="0.5039" style="stop-color:#4A1C90"/>
						<stop  offset="0.7087" style="stop-color:#421786"/>
						<stop  offset="0.9693" style="stop-color:#3F1583"/>
					</linearGradient>
					<path style="fill:url(#SVGID_5_);" d="M155.17,224.34L155.17,224.34c0.61,0.38,0.8,1.18,0.42,1.8l-5.05,8.13
						c-0.38,0.61-1.18,0.8-1.8,0.42l0,0c-0.61-0.38-0.8-1.18-0.42-1.8l5.05-8.13C153.75,224.14,154.56,223.96,155.17,224.34z"/>
				</g>
				<g>
					<linearGradient id="SVGID_6_" gradientUnits="userSpaceOnUse" x1="45.4086" y1="126.4945" x2="56.1465" y2="126.4945">
						<stop  offset="8.379890e-03" style="stop-color:#7F3ED0"/>
						<stop  offset="0.1444" style="stop-color:#6B31B8"/>
						<stop  offset="0.318" style="stop-color:#5825A1"/>
						<stop  offset="0.5039" style="stop-color:#4A1C90"/>
						<stop  offset="0.7087" style="stop-color:#421786"/>
						<stop  offset="0.9693" style="stop-color:#3F1583"/>
					</linearGradient>
					<path style="fill:url(#SVGID_6_);" d="M45.61,123.28L45.61,123.28c0.38-0.61,1.18-0.8,1.8-0.42l8.13,5.05
						c0.61,0.38,0.8,1.18,0.42,1.8l0,0c-0.38,0.61-1.18,0.8-1.8,0.42l-8.13-5.05C45.41,124.7,45.22,123.89,45.61,123.28z"/>
					<linearGradient id="SVGID_8_" gradientUnits="userSpaceOnUse" x1="46.948" y1="126.4945" x2="54.6071" y2="126.4945">
						<stop  offset="8.379890e-03" style="stop-color:#7F3ED0"/>
						<stop  offset="0.1444" style="stop-color:#6B31B8"/>
						<stop  offset="0.318" style="stop-color:#5825A1"/>
						<stop  offset="0.5039" style="stop-color:#4A1C90"/>
						<stop  offset="0.7087" style="stop-color:#421786"/>
						<stop  offset="0.9693" style="stop-color:#3F1583"/>
					</linearGradient>
					<path style="fill:url(#SVGID_8_);" d="M53.99,121.32L53.99,121.32c0.61,0.38,0.8,1.18,0.42,1.8l-5.05,8.13
						c-0.38,0.61-1.18,0.8-1.8,0.42l0,0c-0.61-0.38-0.8-1.18-0.42-1.8l5.05-8.13C52.57,121.13,53.38,120.94,53.99,121.32z"/>
				</g>
				<g>
					<linearGradient id="SVGID_9_" gradientUnits="userSpaceOnUse" x1="268.3042" y1="130.0116" x2="279.0421" y2="130.0116">
						<stop  offset="8.379890e-03" style="stop-color:#7F3ED0"/>
						<stop  offset="0.1444" style="stop-color:#6B31B8"/>
						<stop  offset="0.318" style="stop-color:#5825A1"/>
						<stop  offset="0.5039" style="stop-color:#4A1C90"/>
						<stop  offset="0.7087" style="stop-color:#421786"/>
						<stop  offset="0.9693" style="stop-color:#3F1583"/>
					</linearGradient>
					<path style="fill:url(#SVGID_9_);" d="M268.5,126.8L268.5,126.8c0.38-0.61,1.18-0.8,1.8-0.42l8.13,5.05
						c0.61,0.38,0.8,1.18,0.42,1.8l0,0c-0.38,0.61-1.18,0.8-1.8,0.42l-8.13-5.05C268.31,128.22,268.12,127.41,268.5,126.8z"/>
					<linearGradient id="SVGID_10_" gradientUnits="userSpaceOnUse" x1="269.8436" y1="130.0116" x2="277.5027" y2="130.0116">
						<stop  offset="8.379890e-03" style="stop-color:#7F3ED0"/>
						<stop  offset="0.1444" style="stop-color:#6B31B8"/>
						<stop  offset="0.318" style="stop-color:#5825A1"/>
						<stop  offset="0.5039" style="stop-color:#4A1C90"/>
						<stop  offset="0.7087" style="stop-color:#421786"/>
						<stop  offset="0.9693" style="stop-color:#3F1583"/>
					</linearGradient>
					<path style="fill:url(#SVGID_10_);" d="M276.89,124.84L276.89,124.84c0.61,0.38,0.8,1.18,0.42,1.8l-5.05,8.13
						c-0.38,0.61-1.18,0.8-1.8,0.42l0,0c-0.61-0.38-0.8-1.18-0.42-1.8l5.05-8.13C275.47,124.65,276.27,124.46,276.89,124.84z"/>
				</g>
			</g>
		</g>
		<g>
			<path class="st72" d="M218.13,45.54c0,5.04-4.09,9.13-9.13,9.13c-5.04,0-9.13-4.09-9.13-9.13s4.09-9.13,9.13-9.13
				C214.04,36.41,218.13,40.5,218.13,45.54z"/>
			<circle class="st72" cx="247.22" cy="199.78" r="14.61"/>
			<path class="st72" d="M77.23,183.59c0,5.04-4.09,9.13-9.13,9.13c-5.04,0-9.13-4.09-9.13-9.13c0-5.04,4.09-9.13,9.13-9.13
				C73.14,174.46,77.23,178.55,77.23,183.59z"/>
		</g>
	</g>
</g>
</svg>
