<?xml version="1.0" encoding="utf-8"?>
<!-- Generator: Adobe Illustrator 24.0.0, SVG Export Plug-In . SVG Version: 6.00 Build 0)  -->
<svg version="1.1" id="Layer_1" xmlns="http://www.w3.org/2000/svg" xmlns:xlink="http://www.w3.org/1999/xlink" x="0px" y="0px"
	 viewBox="0 0 351.56 282.24" style="enable-background:new 0 0 351.56 282.24;" xml:space="preserve">
<style type="text/css">
	.st0{fill:#232323;}
	.st1{opacity:0.1;fill:#7DFE7A;}
	.st2{opacity:0.1;}
	.st3{fill:#8DFE8B;}
	.st4{fill-rule:evenodd;clip-rule:evenodd;fill:#10FECC;}
	.st5{fill:#EBFF29;}
	.st6{fill:#7DFE7A;}
	.st7{fill:#10FECC;}
	.st8{fill:#FFFFFF;}
	.st9{fill:#FF445A;}
	.st10{clip-path:url(#SVGID_8_);fill:url(#SVGID_9_);}
	.st11{clip-path:url(#SVGID_10_);fill:url(#SVGID_11_);}
	.st12{clip-path:url(#SVGID_12_);fill:url(#SVGID_13_);}
	.st13{clip-path:url(#SVGID_14_);fill:url(#SVGID_15_);}
	.st14{clip-path:url(#SVGID_21_);fill:url(#SVGID_22_);}
	.st15{clip-path:url(#SVGID_24_);fill:url(#SVGID_25_);}
	.st16{clip-path:url(#SVGID_27_);fill:url(#SVGID_28_);}
	.st17{clip-path:url(#SVGID_32_);fill:url(#SVGID_33_);}
	.st18{opacity:0.15;fill:#7DFE7A;}
	.st19{opacity:0.15;fill:url(#SVGID_34_);}
	.st20{opacity:0.3;fill:#10FECC;}
	.st21{opacity:0.86;fill:#FFFFFF;stroke:#12A4AA;stroke-width:5;stroke-miterlimit:10;}
	.st22{fill:url(#SVGID_35_);}
	.st23{fill:url(#SVGID_36_);}
	.st24{fill:#3B3B3B;}
	.st25{fill:#666666;}
	.st26{fill:url(#SVGID_37_);}
	.st27{fill:url(#SVGID_38_);}
	.st28{fill:url(#SVGID_39_);}
	.st29{fill:url(#SVGID_40_);}
	.st30{fill:url(#SVGID_54_);}
	.st31{fill:url(#SVGID_55_);}
	.st32{filter:url(#Adobe_OpacityMaskFilter);}
	.st33{filter:url(#Adobe_OpacityMaskFilter_1_);}
	.st34{mask:url(#SVGID_56_);fill:url(#SVGID_57_);}
	.st35{fill:url(#SVGID_58_);}
	.st36{fill:url(#SVGID_59_);}
	.st37{filter:url(#Adobe_OpacityMaskFilter_2_);}
	.st38{filter:url(#Adobe_OpacityMaskFilter_3_);}
	.st39{mask:url(#SVGID_62_);fill:url(#SVGID_63_);}
	.st40{opacity:0.2;fill:url(#SVGID_64_);}
	.st41{fill:none;}
	.st42{fill:#929292;}
	.st43{fill:url(#SVGID_65_);}
	.st44{fill:#DFDFDF;}
	.st45{fill:url(#SVGID_66_);}
	.st46{fill:url(#SVGID_91_);}
	.st47{fill:url(#SVGID_92_);}
	.st48{fill:url(#SVGID_93_);}
	.st49{fill:url(#SVGID_96_);}
	.st50{fill:url(#SVGID_97_);}
	.st51{fill:url(#SVGID_98_);}
	.st52{fill:#0C0C0C;}
	.st53{filter:url(#Adobe_OpacityMaskFilter_4_);}
	.st54{filter:url(#Adobe_OpacityMaskFilter_5_);}
	.st55{mask:url(#SVGID_99_);fill:url(#SVGID_100_);}
	.st56{opacity:0.1;fill:url(#SVGID_101_);}
	.st57{fill:url(#SVGID_102_);}
	.st58{fill:url(#SVGID_103_);}
	.st59{fill:url(#SVGID_104_);}
	.st60{fill:url(#SVGID_105_);}
	.st61{fill:url(#SVGID_106_);}
	.st62{fill:url(#SVGID_108_);}
	.st63{fill:#FFE8FF;}
	.st64{fill:#FFD6FE;}
	.st65{fill:url(#SVGID_109_);}
	.st66{fill:url(#SVGID_110_);}
	.st67{fill:url(#SVGID_111_);}
	.st68{fill:url(#SVGID_112_);}
	.st69{fill:url(#SVGID_113_);}
	.st70{fill:url(#SVGID_114_);}
	.st71{fill:url(#SVGID_115_);}
	.st72{fill:none;stroke:#FFFFFF;stroke-miterlimit:10;}
	.st73{fill:none;stroke:#082E36;stroke-width:3;stroke-linecap:round;stroke-miterlimit:10;}
	.st74{fill:#FFFFFF;stroke:#082E36;stroke-width:3;stroke-linecap:round;stroke-linejoin:round;stroke-miterlimit:10;}
	.st75{fill:#082E36;}
	.st76{fill:#F7FAFF;}
	.st77{fill:#E3E9FF;}
	.st78{fill:url(#SVGID_116_);}
	.st79{fill:#63D6E6;}
	.st80{fill:none;stroke:url(#SVGID_117_);stroke-width:3;stroke-linecap:round;stroke-linejoin:round;stroke-miterlimit:10;}
	.st81{fill:none;stroke:url(#SVGID_118_);stroke-width:3;stroke-linecap:round;stroke-linejoin:round;stroke-miterlimit:10;}
	.st82{fill:url(#SVGID_119_);}
	.st83{fill:url(#SVGID_120_);}
	.st84{fill:#F7F2FF;}
	.st85{fill:#ECE0FF;}
	.st86{fill:url(#SVGID_121_);}
	.st87{fill:#3F1583;}
	.st88{fill:url(#SVGID_122_);}
	.st89{fill:#7C44FF;}
	.st90{fill:#F5F9FA;}
	.st91{fill:#EBF8FA;}
	.st92{fill:url(#SVGID_123_);}
	.st93{fill:url(#SVGID_124_);}
	.st94{fill:url(#SVGID_125_);}
	.st95{fill:url(#SVGID_126_);}
	.st96{fill:url(#SVGID_127_);}
	.st97{fill:url(#SVGID_128_);}
	.st98{fill:url(#SVGID_129_);}
	.st99{clip-path:url(#SVGID_131_);}
	.st100{fill:#7350D0;}
	.st101{clip-path:url(#SVGID_133_);}
	.st102{clip-path:url(#SVGID_135_);}
	.st103{fill:none;stroke:#082E36;stroke-width:3;stroke-linecap:round;stroke-linejoin:round;stroke-miterlimit:10;}
	.st104{opacity:0.87;}
	.st105{clip-path:url(#SVGID_137_);}
	.st106{fill:#FF919C;}
	.st107{opacity:0.6;fill:#EBFF29;}
	.st108{fill:url(#SVGID_138_);}
	.st109{opacity:0.63;fill:url(#SVGID_139_);}
	.st110{clip-path:url(#SVGID_141_);}
	.st111{fill:#FF87B3;}
	.st112{clip-path:url(#SVGID_143_);}
	.st113{opacity:0.79;clip-path:url(#SVGID_145_);}
	.st114{opacity:0.79;clip-path:url(#SVGID_147_);}
	.st115{opacity:0.79;clip-path:url(#SVGID_149_);}
	.st116{opacity:0.79;clip-path:url(#SVGID_151_);}
	.st117{opacity:0.79;clip-path:url(#SVGID_153_);}
	.st118{opacity:0.79;clip-path:url(#SVGID_155_);}
	.st119{opacity:0.79;clip-path:url(#SVGID_157_);}
	.st120{opacity:0.79;clip-path:url(#SVGID_159_);}
	.st121{opacity:0.79;clip-path:url(#SVGID_161_);}
	.st122{opacity:0.79;clip-path:url(#SVGID_163_);}
	.st123{opacity:0.71;}
	.st124{opacity:0.79;clip-path:url(#SVGID_165_);}
	.st125{opacity:0.79;clip-path:url(#SVGID_167_);}
	.st126{opacity:0.79;clip-path:url(#SVGID_169_);}
	.st127{opacity:0.79;clip-path:url(#SVGID_171_);}
	.st128{opacity:0.79;clip-path:url(#SVGID_173_);}
	.st129{fill:none;stroke:url(#SVGID_174_);stroke-width:4;stroke-miterlimit:10;}
	.st130{clip-path:url(#SVGID_181_);fill:url(#SVGID_182_);}
	.st131{clip-path:url(#SVGID_183_);fill:url(#SVGID_184_);}
	.st132{clip-path:url(#SVGID_185_);fill:url(#SVGID_186_);}
	.st133{clip-path:url(#SVGID_187_);fill:url(#SVGID_188_);}
	.st134{opacity:0.5;fill:#0C1D1E;}
	.st135{clip-path:url(#SVGID_197_);fill:url(#SVGID_198_);}
	.st136{clip-path:url(#SVGID_199_);fill:url(#SVGID_200_);}
	.st137{clip-path:url(#SVGID_201_);fill:url(#SVGID_202_);}
	.st138{clip-path:url(#SVGID_203_);fill:url(#SVGID_204_);}
	.st139{opacity:0.1;fill:url(#SVGID_209_);}
	.st140{fill:url(#SVGID_210_);}
	.st141{fill:url(#SVGID_211_);}
	.st142{fill:url(#SVGID_212_);}
	.st143{fill:url(#SVGID_213_);}
	.st144{fill:url(#SVGID_214_);}
	.st145{fill:url(#SVGID_215_);}
	.st146{fill:url(#SVGID_216_);}
	.st147{fill:url(#SVGID_217_);}
	.st148{filter:url(#Adobe_OpacityMaskFilter_6_);}
	.st149{filter:url(#Adobe_OpacityMaskFilter_7_);}
	.st150{mask:url(#SVGID_218_);fill:url(#SVGID_219_);}
	.st151{fill:url(#SVGID_220_);}
	.st152{fill:url(#SVGID_221_);}
	.st153{filter:url(#Adobe_OpacityMaskFilter_8_);}
	.st154{filter:url(#Adobe_OpacityMaskFilter_9_);}
	.st155{mask:url(#SVGID_224_);fill:url(#SVGID_225_);}
	.st156{opacity:0.2;fill:url(#SVGID_226_);}
	.st157{fill:url(#SVGID_227_);}
	.st158{fill:url(#SVGID_228_);}
	.st159{fill:url(#SVGID_229_);}
	.st160{fill:url(#SVGID_230_);}
	.st161{fill:url(#SVGID_231_);}
	.st162{fill:url(#SVGID_234_);}
	.st163{fill:url(#SVGID_235_);}
	.st164{fill:url(#SVGID_236_);}
	.st165{filter:url(#Adobe_OpacityMaskFilter_10_);}
	.st166{filter:url(#Adobe_OpacityMaskFilter_11_);}
	.st167{mask:url(#SVGID_237_);fill:url(#SVGID_238_);}
	.st168{opacity:0.1;fill:url(#SVGID_239_);}
	.st169{fill:url(#SVGID_240_);}
	.st170{fill:url(#SVGID_241_);}
	.st171{fill:url(#SVGID_242_);}
	.st172{fill:url(#SVGID_243_);}
	.st173{fill:url(#SVGID_244_);}
	.st174{fill:url(#SVGID_246_);}
	.st175{fill:#5B5B5B;}
	.st176{clip-path:url(#SVGID_251_);fill:url(#SVGID_252_);}
	.st177{clip-path:url(#SVGID_253_);fill:url(#SVGID_254_);}
	.st178{clip-path:url(#SVGID_255_);fill:url(#SVGID_256_);}
	.st179{clip-path:url(#SVGID_257_);fill:url(#SVGID_258_);}
	.st180{opacity:0.15;fill:url(#SVGID_263_);}
	.st181{fill:url(#SVGID_264_);}
	.st182{fill:url(#SVGID_265_);}
	.st183{fill:url(#SVGID_266_);}
	.st184{fill:url(#SVGID_267_);}
	.st185{fill:url(#SVGID_268_);}
	.st186{fill:url(#SVGID_269_);}
	.st187{fill:url(#SVGID_270_);}
	.st188{fill:url(#SVGID_271_);}
	.st189{fill:none;stroke:url(#SVGID_272_);stroke-width:3;stroke-linecap:round;stroke-linejoin:round;stroke-miterlimit:10;}
	.st190{fill:none;stroke:url(#SVGID_273_);stroke-width:3;stroke-linecap:round;stroke-linejoin:round;stroke-miterlimit:10;}
	.st191{fill:url(#SVGID_274_);}
	.st192{fill:url(#SVGID_275_);}
	.st193{fill:url(#SVGID_276_);}
	.st194{fill:url(#SVGID_277_);}
	.st195{fill:url(#SVGID_278_);}
	.st196{fill:url(#SVGID_279_);}
	.st197{fill:url(#SVGID_280_);}
	.st198{fill:url(#SVGID_281_);}
	.st199{fill:url(#SVGID_282_);}
	.st200{fill:url(#SVGID_283_);}
	.st201{fill:url(#SVGID_284_);}
	.st202{clip-path:url(#SVGID_286_);}
	.st203{clip-path:url(#SVGID_288_);}
	.st204{clip-path:url(#SVGID_290_);}
	.st205{fill:url(#SVGID_291_);}
	.st206{fill:url(#SVGID_292_);}
	.st207{fill:url(#SVGID_293_);}
	.st208{fill:url(#SVGID_294_);}
	.st209{fill:url(#SVGID_295_);}
	.st210{fill:url(#SVGID_296_);}
	.st211{fill:url(#SVGID_297_);}
	.st212{fill:url(#SVGID_298_);}
	.st213{fill:none;stroke:url(#SVGID_299_);stroke-width:3;stroke-linecap:round;stroke-linejoin:round;stroke-miterlimit:10;}
	.st214{fill:none;stroke:url(#SVGID_300_);stroke-width:3;stroke-linecap:round;stroke-linejoin:round;stroke-miterlimit:10;}
	.st215{fill:url(#SVGID_301_);}
	.st216{fill:url(#SVGID_302_);}
	.st217{fill:url(#SVGID_303_);}
	.st218{fill:url(#SVGID_304_);}
	.st219{fill:url(#SVGID_305_);}
	.st220{fill:url(#SVGID_306_);}
	.st221{fill:url(#SVGID_307_);}
	.st222{fill:url(#SVGID_308_);}
	.st223{fill:url(#SVGID_309_);}
	.st224{fill:url(#SVGID_310_);}
	.st225{fill:url(#SVGID_311_);}
	.st226{clip-path:url(#SVGID_313_);}
	.st227{clip-path:url(#SVGID_315_);}
	.st228{clip-path:url(#SVGID_317_);}
	.st229{fill:url(#SVGID_318_);}
	.st230{fill:url(#SVGID_319_);}
	.st231{fill:url(#SVGID_320_);}
	.st232{fill:url(#SVGID_321_);}
	.st233{fill:url(#SVGID_322_);}
	.st234{fill:url(#SVGID_323_);}
	.st235{fill:url(#SVGID_324_);}
	.st236{clip-path:url(#SVGID_326_);}
	.st237{clip-path:url(#SVGID_328_);}
	.st238{clip-path:url(#SVGID_330_);}
	.st239{fill:url(#SVGID_331_);}
	.st240{fill:url(#SVGID_332_);}
	.st241{fill:url(#SVGID_333_);}
	.st242{fill:url(#SVGID_334_);}
	.st243{fill:url(#SVGID_335_);}
	.st244{fill:url(#SVGID_336_);}
	.st245{fill:url(#SVGID_337_);}
	.st246{fill:url(#SVGID_338_);}
	.st247{filter:url(#Adobe_OpacityMaskFilter_12_);}
	.st248{filter:url(#Adobe_OpacityMaskFilter_13_);}
	.st249{mask:url(#SVGID_339_);fill:url(#SVGID_340_);}
	.st250{fill:url(#SVGID_341_);}
	.st251{fill:url(#SVGID_342_);}
	.st252{filter:url(#Adobe_OpacityMaskFilter_14_);}
	.st253{filter:url(#Adobe_OpacityMaskFilter_15_);}
	.st254{mask:url(#SVGID_345_);fill:url(#SVGID_346_);}
	.st255{opacity:0.2;fill:url(#SVGID_347_);}
	.st256{fill:url(#SVGID_348_);}
	.st257{fill:url(#SVGID_349_);}
	.st258{fill:url(#SVGID_350_);}
	.st259{fill:url(#SVGID_351_);}
	.st260{fill:url(#SVGID_352_);}
	.st261{fill:url(#SVGID_355_);}
	.st262{fill:url(#SVGID_356_);}
	.st263{fill:url(#SVGID_357_);}
	.st264{filter:url(#Adobe_OpacityMaskFilter_16_);}
	.st265{filter:url(#Adobe_OpacityMaskFilter_17_);}
	.st266{mask:url(#SVGID_358_);fill:url(#SVGID_359_);}
	.st267{opacity:0.1;fill:url(#SVGID_360_);}
	.st268{fill:url(#SVGID_361_);}
	.st269{fill:url(#SVGID_362_);}
	.st270{fill:url(#SVGID_363_);}
	.st271{fill:url(#SVGID_364_);}
	.st272{fill:url(#SVGID_365_);}
	.st273{fill:url(#SVGID_367_);}
	.st274{opacity:0.3;fill:#EBFF29;}
	.st275{clip-path:url(#SVGID_372_);fill:url(#SVGID_373_);}
	.st276{clip-path:url(#SVGID_374_);fill:url(#SVGID_375_);}
	.st277{clip-path:url(#SVGID_376_);fill:url(#SVGID_377_);}
	.st278{clip-path:url(#SVGID_378_);fill:url(#SVGID_379_);}
	.st279{clip-path:url(#SVGID_388_);fill:url(#SVGID_389_);}
	.st280{clip-path:url(#SVGID_390_);fill:url(#SVGID_391_);}
	.st281{clip-path:url(#SVGID_392_);fill:url(#SVGID_393_);}
	.st282{clip-path:url(#SVGID_394_);fill:url(#SVGID_395_);}
	.st283{clip-path:url(#SVGID_400_);}
	.st284{fill-rule:evenodd;clip-rule:evenodd;fill:#EBFF29;}
	.st285{opacity:0.1;fill:url(#SVGID_401_);}
	.st286{clip-path:url(#SVGID_402_);}
	.st287{fill-rule:evenodd;clip-rule:evenodd;fill:#FFFFFF;}
	.st288{clip-path:url(#SVGID_407_);fill:url(#SVGID_408_);}
	.st289{clip-path:url(#SVGID_409_);fill:url(#SVGID_410_);}
	.st290{clip-path:url(#SVGID_411_);fill:url(#SVGID_412_);}
	.st291{clip-path:url(#SVGID_413_);fill:url(#SVGID_414_);}
	.st292{fill:url(#SVGID_419_);}
	.st293{fill:url(#SVGID_420_);}
	.st294{fill:url(#SVGID_421_);}
	.st295{fill:url(#SVGID_422_);}
	.st296{fill:url(#SVGID_423_);}
	.st297{fill:url(#SVGID_424_);}
	.st298{fill:url(#SVGID_425_);}
	.st299{fill:url(#SVGID_426_);}
	.st300{filter:url(#Adobe_OpacityMaskFilter_18_);}
	.st301{filter:url(#Adobe_OpacityMaskFilter_19_);}
	.st302{mask:url(#SVGID_427_);fill:url(#SVGID_428_);}
	.st303{fill:url(#SVGID_429_);}
	.st304{fill:url(#SVGID_430_);}
	.st305{filter:url(#Adobe_OpacityMaskFilter_20_);}
	.st306{filter:url(#Adobe_OpacityMaskFilter_21_);}
	.st307{mask:url(#SVGID_433_);fill:url(#SVGID_434_);}
	.st308{opacity:0.2;fill:url(#SVGID_435_);}
	.st309{fill:url(#SVGID_436_);}
	.st310{fill:url(#SVGID_437_);}
	.st311{fill:url(#SVGID_438_);}
	.st312{fill:url(#SVGID_439_);}
	.st313{fill:url(#SVGID_440_);}
	.st314{fill:url(#SVGID_443_);}
	.st315{fill:url(#SVGID_444_);}
	.st316{fill:url(#SVGID_445_);}
	.st317{filter:url(#Adobe_OpacityMaskFilter_22_);}
	.st318{filter:url(#Adobe_OpacityMaskFilter_23_);}
	.st319{mask:url(#SVGID_446_);fill:url(#SVGID_447_);}
	.st320{opacity:0.1;fill:url(#SVGID_448_);}
	.st321{fill:url(#SVGID_449_);}
	.st322{fill:url(#SVGID_450_);}
	.st323{fill:url(#SVGID_451_);}
	.st324{fill:url(#SVGID_452_);}
	.st325{fill:url(#SVGID_453_);}
	.st326{fill:url(#SVGID_455_);}
</style>
<g>
	<path class="st90" d="M234.57,223.27c9.68,2.73,28.41-9.71,28.04-24.82c-0.38-15.61-14.16-27.32-15.88-42.84
		c-1.91-17.21,16.6-29.88,20.51-46.75c4.12-17.75-4.39-38.91-17.7-51.34c-11.33-10.58-30.1-16.56-45.37-13.85
		c-18.56,3.29-29.73,23.99-47.96,28.77c-14.75,3.86-29.93-0.37-44.29-5.47c-10.94-3.88-20.3-3.89-30.43-4.46
		c-11.17-0.62-45.49,16.25-37.53,49.9c2.55,10.79,12.85,17.88,22.66,23.05c9.81,5.17,23.84,17.46,31.09,25.85
		c11.74,13.59,7.79,25.55,7.39,43.5c-0.39,17.95-8.39,36.69,5.39,52.96c5.61,6.63,20.41,13.93,29.71,14.69
		c6.5,0.53,16.07-1.74,20.35-4.93C186.37,248.29,180.67,208.07,234.57,223.27z"/>
	<path class="st91" d="M97.63,69.73C87.52,68,69.85,82.62,71.85,97.91c2.06,15.79,17.29,26.2,20.71,41.75
		c3.78,17.25-13.63,32.09-15.8,49.62c-2.27,18.44,8.62,38.99,23.46,50.18c12.63,9.52,32.3,13.57,47.5,9.19
		c18.47-5.33,27.59-27.52,45.57-34.32c14.55-5.5,30.4-2.83,45.52,0.8c11.51,2.76,21.01,1.77,31.35,1.26
		c11.4-0.57,44.4-21.36,32.72-54.64c-3.75-10.68-14.95-16.76-25.46-20.95c-10.51-4.19-26.05-15.16-34.31-22.89
		c-13.36-12.52-10.64-25.08-12.16-43.33c-1.53-18.25,4.58-38.12-11.14-53.14c-6.4-6.12-22.2-11.94-31.71-11.71
		c-6.65,0.16-16.12,3.49-20.11,7.18C143.84,39.18,153.93,79.37,97.63,69.73z"/>
	<linearGradient id="SVGID_2_" gradientUnits="userSpaceOnUse" x1="52.4872" y1="-13.3936" x2="238.1814" y2="203.8689">
		<stop  offset="0" style="stop-color:#5D73D0"/>
		<stop  offset="0.4436" style="stop-color:#60A7DB"/>
		<stop  offset="0.7959" style="stop-color:#62C9E3"/>
		<stop  offset="0.986" style="stop-color:#63D6E6"/>
	</linearGradient>
	<path style="fill:url(#SVGID_2_);" d="M68.9,133.27c-9.24,4.46-15.13,26.63-4.63,37.91c10.85,11.66,29.29,11.29,41.1,21.97
		c13.1,11.85,7.54,34.05,15.95,49.57c8.86,16.33,29.66,26.74,48.24,27.23c15.81,0.41,34.18-7.71,44.01-20.11
		c11.94-15.06,6.48-38.43,17.17-54.4c8.65-12.92,23.1-19.95,37.52-25.78c10.97-4.44,18.13-10.76,26.25-17.18
		c8.95-7.08,23.74-43.17-5.09-63.49c-9.25-6.52-21.9-4.96-32.89-2.27c-10.99,2.69-30.01,2.79-41.23,1.29
		c-18.15-2.44-23.23-14.24-35.07-28.21C168.4,45.83,161.83,26.11,140.31,23c-8.77-1.27-25.01,3.17-32.62,8.88
		c-5.33,3.99-11.09,12.2-12.2,17.53C88.79,81.57,120.34,108.42,68.9,133.27z"/>
	<g>
		<g>
			
				<linearGradient id="SVGID_3_" gradientUnits="userSpaceOnUse" x1="-10431.7393" y1="3299.8623" x2="-10382.0146" y2="3356.2913" gradientTransform="matrix(-0.8399 -0.5427 0.5427 -0.8399 -10342.1836 -2798.5359)">
				<stop  offset="0" style="stop-color:#5D73D0"/>
				<stop  offset="0.4436" style="stop-color:#60A7DB"/>
				<stop  offset="0.7959" style="stop-color:#62C9E3"/>
				<stop  offset="0.986" style="stop-color:#63D6E6"/>
			</linearGradient>
			<path style="fill:url(#SVGID_3_);" d="M204.83,32.78c-3.08-1.25-6.6-2.23-9.87-0.83c-2.85,1.22-4.98,4.13-5.78,7.2
				c-0.81,3.07-0.42,6.26,0.57,9.09c2.91,8.26,14.95,17.7,23.84,10.04C224.94,48.51,213.24,36.18,204.83,32.78z"/>
			
				<linearGradient id="SVGID_5_" gradientUnits="userSpaceOnUse" x1="-10421.6436" y1="3098.3779" x2="-10396.7109" y2="3126.6724" gradientTransform="matrix(-0.8399 -0.5427 0.5427 -0.8399 -10342.1836 -2798.5359)">
				<stop  offset="0" style="stop-color:#5D73D0"/>
				<stop  offset="0.4436" style="stop-color:#60A7DB"/>
				<stop  offset="0.7959" style="stop-color:#62C9E3"/>
				<stop  offset="0.986" style="stop-color:#63D6E6"/>
			</linearGradient>
			<path style="fill:url(#SVGID_5_);" d="M89.71,225.66c-1.54-0.62-3.31-1.12-4.95-0.42c-1.43,0.61-2.5,2.07-2.9,3.61
				c-0.4,1.54-0.21,3.14,0.29,4.56c1.46,4.14,7.5,8.87,11.95,5.04C99.8,233.55,93.94,227.37,89.71,225.66z"/>
			
				<linearGradient id="SVGID_6_" gradientUnits="userSpaceOnUse" x1="-10926.0449" y1="-2580.1821" x2="-10882.0742" y2="-2530.2822" gradientTransform="matrix(-0.8928 0.4504 -0.4504 -0.8928 -10599.9922 2839.9663)">
				<stop  offset="0" style="stop-color:#5D73D0"/>
				<stop  offset="0.4436" style="stop-color:#60A7DB"/>
				<stop  offset="0.7959" style="stop-color:#62C9E3"/>
				<stop  offset="0.986" style="stop-color:#63D6E6"/>
			</linearGradient>
			<path style="fill:url(#SVGID_6_);" d="M269.88,200.5c-2.33,1.79-4.65,4.04-5.05,7.16c-0.34,2.72,0.93,5.64,2.91,7.63
				c1.98,1.99,4.59,3.12,7.19,3.63c7.6,1.48,20.19-3.5,18.32-13.7C290.87,192.18,276.24,195.59,269.88,200.5z"/>
		</g>
		<g>
			<linearGradient id="SVGID_8_" gradientUnits="userSpaceOnUse" x1="171.4482" y1="224.7173" x2="184.8835" y2="224.7173">
				<stop  offset="0" style="stop-color:#5D73D0"/>
				<stop  offset="1" style="stop-color:#7F3ED0"/>
			</linearGradient>
			<path style="fill:url(#SVGID_8_);" d="M181.74,230.61c0.79-0.38,1.52-0.91,2.06-1.61c0.54-0.71,0.85-1.58,1-2.47
				c1.05-6.44-7.71-11.57-12.03-5.97C168.41,226.2,175.76,233.5,181.74,230.61z"/>
			<linearGradient id="SVGID_9_" gradientUnits="userSpaceOnUse" x1="209.8891" y1="74.8965" x2="223.3244" y2="74.8965">
				<stop  offset="0" style="stop-color:#5D73D0"/>
				<stop  offset="1" style="stop-color:#7F3ED0"/>
			</linearGradient>
			<path style="fill:url(#SVGID_9_);" d="M220.19,80.79c0.79-0.38,1.52-0.91,2.06-1.61c0.54-0.71,0.85-1.58,1-2.47
				c1.05-6.44-7.71-11.57-12.03-5.97C206.85,76.38,214.2,83.68,220.19,80.79z"/>
			<linearGradient id="SVGID_10_" gradientUnits="userSpaceOnUse" x1="83.7119" y1="195.7388" x2="121.1094" y2="195.7388">
				<stop  offset="0" style="stop-color:#5D73D0"/>
				<stop  offset="1" style="stop-color:#7F3ED0"/>
			</linearGradient>
			<path style="fill:url(#SVGID_10_);" d="M85.64,202.98c2.27,4.06,7.21,6.44,11.8,5.7c2.89-0.47,5.55-2.03,8.47-2.25
				c3.49-0.26,7.24,1.4,10.38-0.15c1-0.49,1.83-1.28,2.51-2.16c2.89-3.73,3.01-9.22,0.75-13.36
				C110.85,174.86,75.1,184.17,85.64,202.98z"/>
		</g>
	</g>
	<g>
		<g>
			<defs>
				
					<ellipse id="SVGID_325_" transform="matrix(0.9997 -0.0226 0.0226 0.9997 -1.3935 1.96)" cx="85.99" cy="62.61" rx="28.58" ry="28.58"/>
			</defs>
			<clipPath id="SVGID_11_">
				<use xlink:href="#SVGID_325_"  style="overflow:visible;"/>
			</clipPath>
			<g style="clip-path:url(#SVGID_11_);">
				
					<rect x="29.61" y="43.76" transform="matrix(0.6909 -0.7229 0.7229 0.6909 -13.1186 61.6167)" class="st100" width="71.79" height="4.79"/>
				
					<rect x="37.22" y="51.03" transform="matrix(0.6909 -0.7229 0.7229 0.6909 -16.0254 69.3671)" class="st100" width="71.79" height="4.79"/>
				
					<rect x="44.83" y="58.31" transform="matrix(0.6909 -0.7229 0.7229 0.6909 -18.9322 77.1175)" class="st100" width="71.79" height="4.79"/>
				
					<rect x="52.44" y="65.58" transform="matrix(0.6909 -0.7229 0.7229 0.6909 -21.839 84.8678)" class="st100" width="71.79" height="4.79"/>
				
					<rect x="60.06" y="72.86" transform="matrix(0.691 -0.7229 0.7229 0.691 -24.7458 92.618)" class="st100" width="71.79" height="4.79"/>
				
					<rect x="67.67" y="80.13" transform="matrix(0.691 -0.7229 0.7229 0.691 -27.6525 100.3681)" class="st100" width="71.79" height="4.79"/>
			</g>
		</g>
		<g>
			<defs>
				
					<ellipse id="SVGID_327_" transform="matrix(0.9997 -0.0243 0.0243 0.9997 -5.8669 3.321)" cx="133.9" cy="243.39" rx="28.58" ry="28.58"/>
			</defs>
			<clipPath id="SVGID_12_">
				<use xlink:href="#SVGID_327_"  style="overflow:visible;"/>
			</clipPath>
			<g style="clip-path:url(#SVGID_12_);">
				
					<rect x="77.52" y="224.54" transform="matrix(0.6909 -0.7229 0.7229 0.6909 -129.0002 152.1207)" class="st100" width="71.79" height="4.79"/>
				
					<rect x="85.13" y="231.81" transform="matrix(0.6909 -0.7229 0.7229 0.6909 -131.9066 159.8704)" class="st100" width="71.79" height="4.79"/>
				
					<rect x="92.74" y="239.09" transform="matrix(0.6909 -0.7229 0.7229 0.6909 -134.813 167.6201)" class="st100" width="71.79" height="4.79"/>
				
					<rect x="100.35" y="246.36" transform="matrix(0.6909 -0.7229 0.7229 0.6909 -137.7194 175.3697)" class="st100" width="71.79" height="4.79"/>
				
					<rect x="107.96" y="253.64" transform="matrix(0.691 -0.7229 0.7229 0.691 -140.6258 183.1192)" class="st100" width="71.79" height="4.79"/>
				
					<rect x="115.57" y="260.91" transform="matrix(0.691 -0.7229 0.7229 0.691 -143.5322 190.8686)" class="st100" width="71.79" height="4.79"/>
			</g>
		</g>
		<g>
			<defs>
				
					<ellipse id="SVGID_329_" transform="matrix(0.4413 -0.8973 0.8973 0.4413 15.857 339.0422)" cx="280.22" cy="156.79" rx="28.58" ry="28.58"/>
			</defs>
			<clipPath id="SVGID_13_">
				<use xlink:href="#SVGID_329_"  style="overflow:visible;"/>
			</clipPath>
			<g style="clip-path:url(#SVGID_13_);">
				
					<rect x="223.83" y="137.93" transform="matrix(0.6909 -0.7229 0.7229 0.6909 -21.1708 231.1288)" class="st100" width="71.79" height="4.79"/>
				
					<rect x="231.44" y="145.21" transform="matrix(0.6909 -0.7229 0.7229 0.6909 -24.0776 238.8797)" class="st100" width="71.79" height="4.79"/>
				
					<rect x="239.06" y="152.48" transform="matrix(0.6909 -0.7229 0.7229 0.6909 -26.9843 246.6305)" class="st100" width="71.79" height="4.79"/>
				
					<rect x="246.67" y="159.76" transform="matrix(0.6909 -0.7229 0.7229 0.6909 -29.891 254.3813)" class="st100" width="71.79" height="4.79"/>
				
					<rect x="254.28" y="167.03" transform="matrix(0.6909 -0.7229 0.7229 0.6909 -32.7977 262.1322)" class="st100" width="71.79" height="4.79"/>
				
					<rect x="261.89" y="174.31" transform="matrix(0.6909 -0.7229 0.7229 0.6909 -35.7045 269.8831)" class="st100" width="71.79" height="4.79"/>
			</g>
		</g>
	</g>
</g>
</svg>
