<?xml version="1.0" encoding="utf-8"?>
<!-- Generator: Adobe Illustrator 24.0.0, SVG Export Plug-In . SVG Version: 6.00 Build 0)  -->
<svg version="1.1" id="Layer_1" xmlns="http://www.w3.org/2000/svg" xmlns:xlink="http://www.w3.org/1999/xlink" x="0px" y="0px"
	 viewBox="0 0 351.56 282.24" style="enable-background:new 0 0 351.56 282.24;" xml:space="preserve">
<style type="text/css">
	.st0{fill:#232323;}
	.st1{opacity:0.1;fill:#7DFE7A;}
	.st2{opacity:0.1;}
	.st3{fill:#8DFE8B;}
	.st4{fill-rule:evenodd;clip-rule:evenodd;fill:#10FECC;}
	.st5{fill:#EBFF29;}
	.st6{fill:#7DFE7A;}
	.st7{fill:#10FECC;}
	.st8{fill:#FFFFFF;}
	.st9{fill:#FF445A;}
	.st10{clip-path:url(#SVGID_8_);fill:url(#SVGID_9_);}
	.st11{clip-path:url(#SVGID_10_);fill:url(#SVGID_11_);}
	.st12{clip-path:url(#SVGID_12_);fill:url(#SVGID_13_);}
	.st13{clip-path:url(#SVGID_14_);fill:url(#SVGID_15_);}
	.st14{clip-path:url(#SVGID_21_);fill:url(#SVGID_22_);}
	.st15{clip-path:url(#SVGID_24_);fill:url(#SVGID_25_);}
	.st16{clip-path:url(#SVGID_27_);fill:url(#SVGID_28_);}
	.st17{clip-path:url(#SVGID_32_);fill:url(#SVGID_33_);}
	.st18{opacity:0.15;fill:#7DFE7A;}
	.st19{opacity:0.15;fill:url(#SVGID_34_);}
	.st20{opacity:0.3;fill:#10FECC;}
	.st21{opacity:0.86;fill:#FFFFFF;stroke:#12A4AA;stroke-width:5;stroke-miterlimit:10;}
	.st22{fill:url(#SVGID_35_);}
	.st23{fill:url(#SVGID_36_);}
	.st24{fill:#3B3B3B;}
	.st25{fill:#666666;}
	.st26{fill:url(#SVGID_37_);}
	.st27{fill:url(#SVGID_38_);}
	.st28{fill:url(#SVGID_39_);}
	.st29{fill:url(#SVGID_40_);}
	.st30{fill:url(#SVGID_54_);}
	.st31{fill:url(#SVGID_55_);}
	.st32{filter:url(#Adobe_OpacityMaskFilter);}
	.st33{filter:url(#Adobe_OpacityMaskFilter_1_);}
	.st34{mask:url(#SVGID_56_);fill:url(#SVGID_57_);}
	.st35{fill:url(#SVGID_58_);}
	.st36{fill:url(#SVGID_59_);}
	.st37{filter:url(#Adobe_OpacityMaskFilter_2_);}
	.st38{filter:url(#Adobe_OpacityMaskFilter_3_);}
	.st39{mask:url(#SVGID_62_);fill:url(#SVGID_63_);}
	.st40{opacity:0.2;fill:url(#SVGID_64_);}
	.st41{fill:none;}
	.st42{fill:#929292;}
	.st43{fill:url(#SVGID_65_);}
	.st44{fill:#DFDFDF;}
	.st45{fill:url(#SVGID_66_);}
	.st46{fill:url(#SVGID_91_);}
	.st47{fill:url(#SVGID_92_);}
	.st48{fill:url(#SVGID_93_);}
	.st49{fill:url(#SVGID_96_);}
	.st50{fill:url(#SVGID_97_);}
	.st51{fill:url(#SVGID_98_);}
	.st52{fill:#0C0C0C;}
	.st53{filter:url(#Adobe_OpacityMaskFilter_4_);}
	.st54{filter:url(#Adobe_OpacityMaskFilter_5_);}
	.st55{mask:url(#SVGID_99_);fill:url(#SVGID_100_);}
	.st56{opacity:0.1;fill:url(#SVGID_101_);}
	.st57{fill:url(#SVGID_102_);}
	.st58{fill:url(#SVGID_103_);}
	.st59{fill:url(#SVGID_104_);}
	.st60{fill:url(#SVGID_105_);}
	.st61{fill:url(#SVGID_106_);}
	.st62{fill:url(#SVGID_108_);}
	.st63{fill:#FFE8FF;}
	.st64{fill:#FFD6FE;}
	.st65{fill:url(#SVGID_109_);}
	.st66{fill:url(#SVGID_110_);}
	.st67{fill:url(#SVGID_111_);}
	.st68{fill:url(#SVGID_112_);}
	.st69{fill:url(#SVGID_113_);}
	.st70{fill:url(#SVGID_114_);}
	.st71{fill:url(#SVGID_115_);}
	.st72{fill:none;stroke:#FFFFFF;stroke-miterlimit:10;}
	.st73{fill:none;stroke:#082E36;stroke-width:3;stroke-linecap:round;stroke-miterlimit:10;}
	.st74{fill:#FFFFFF;stroke:#082E36;stroke-width:3;stroke-linecap:round;stroke-linejoin:round;stroke-miterlimit:10;}
	.st75{fill:#082E36;}
	.st76{fill:#F7FAFF;}
	.st77{fill:#E3E9FF;}
	.st78{fill:url(#SVGID_116_);}
	.st79{fill:#63D6E6;}
	.st80{fill:none;stroke:url(#SVGID_117_);stroke-width:3;stroke-linecap:round;stroke-linejoin:round;stroke-miterlimit:10;}
	.st81{fill:none;stroke:url(#SVGID_118_);stroke-width:3;stroke-linecap:round;stroke-linejoin:round;stroke-miterlimit:10;}
	.st82{fill:url(#SVGID_119_);}
	.st83{fill:url(#SVGID_120_);}
	.st84{fill:#F7F2FF;}
	.st85{fill:#ECE0FF;}
	.st86{fill:url(#SVGID_121_);}
	.st87{fill:#3F1583;}
	.st88{fill:url(#SVGID_122_);}
	.st89{fill:#7C44FF;}
	.st90{fill:#F5F9FA;}
	.st91{fill:#EBF8FA;}
	.st92{fill:url(#SVGID_123_);}
	.st93{fill:url(#SVGID_124_);}
	.st94{fill:url(#SVGID_125_);}
	.st95{fill:url(#SVGID_126_);}
	.st96{fill:url(#SVGID_127_);}
	.st97{fill:url(#SVGID_128_);}
	.st98{fill:url(#SVGID_129_);}
	.st99{clip-path:url(#SVGID_131_);}
	.st100{fill:#7350D0;}
	.st101{clip-path:url(#SVGID_133_);}
	.st102{clip-path:url(#SVGID_135_);}
	.st103{fill:none;stroke:#082E36;stroke-width:3;stroke-linecap:round;stroke-linejoin:round;stroke-miterlimit:10;}
	.st104{opacity:0.87;}
	.st105{clip-path:url(#SVGID_137_);}
	.st106{fill:#FF919C;}
	.st107{opacity:0.6;fill:#EBFF29;}
	.st108{fill:url(#SVGID_138_);}
	.st109{opacity:0.63;fill:url(#SVGID_139_);}
	.st110{clip-path:url(#SVGID_141_);}
	.st111{fill:#FF87B3;}
	.st112{clip-path:url(#SVGID_143_);}
	.st113{opacity:0.79;clip-path:url(#SVGID_145_);}
	.st114{opacity:0.79;clip-path:url(#SVGID_147_);}
	.st115{opacity:0.79;clip-path:url(#SVGID_149_);}
	.st116{opacity:0.79;clip-path:url(#SVGID_151_);}
	.st117{opacity:0.79;clip-path:url(#SVGID_153_);}
	.st118{opacity:0.79;clip-path:url(#SVGID_155_);}
	.st119{opacity:0.79;clip-path:url(#SVGID_157_);}
	.st120{opacity:0.79;clip-path:url(#SVGID_159_);}
	.st121{opacity:0.79;clip-path:url(#SVGID_161_);}
	.st122{opacity:0.79;clip-path:url(#SVGID_163_);}
	.st123{opacity:0.71;}
	.st124{opacity:0.79;clip-path:url(#SVGID_165_);}
	.st125{opacity:0.79;clip-path:url(#SVGID_167_);}
	.st126{opacity:0.79;clip-path:url(#SVGID_169_);}
	.st127{opacity:0.79;clip-path:url(#SVGID_171_);}
	.st128{opacity:0.79;clip-path:url(#SVGID_173_);}
	.st129{fill:none;stroke:url(#SVGID_174_);stroke-width:4;stroke-miterlimit:10;}
	.st130{clip-path:url(#SVGID_181_);fill:url(#SVGID_182_);}
	.st131{clip-path:url(#SVGID_183_);fill:url(#SVGID_184_);}
	.st132{clip-path:url(#SVGID_185_);fill:url(#SVGID_186_);}
	.st133{clip-path:url(#SVGID_187_);fill:url(#SVGID_188_);}
	.st134{opacity:0.5;fill:#0C1D1E;}
	.st135{clip-path:url(#SVGID_197_);fill:url(#SVGID_198_);}
	.st136{clip-path:url(#SVGID_199_);fill:url(#SVGID_200_);}
	.st137{clip-path:url(#SVGID_201_);fill:url(#SVGID_202_);}
	.st138{clip-path:url(#SVGID_203_);fill:url(#SVGID_204_);}
	.st139{opacity:0.1;fill:url(#SVGID_209_);}
	.st140{fill:url(#SVGID_210_);}
	.st141{fill:url(#SVGID_211_);}
	.st142{fill:url(#SVGID_212_);}
	.st143{fill:url(#SVGID_213_);}
	.st144{fill:url(#SVGID_214_);}
	.st145{fill:url(#SVGID_215_);}
	.st146{fill:url(#SVGID_216_);}
	.st147{fill:url(#SVGID_217_);}
	.st148{filter:url(#Adobe_OpacityMaskFilter_6_);}
	.st149{filter:url(#Adobe_OpacityMaskFilter_7_);}
	.st150{mask:url(#SVGID_218_);fill:url(#SVGID_219_);}
	.st151{fill:url(#SVGID_220_);}
	.st152{fill:url(#SVGID_221_);}
	.st153{filter:url(#Adobe_OpacityMaskFilter_8_);}
	.st154{filter:url(#Adobe_OpacityMaskFilter_9_);}
	.st155{mask:url(#SVGID_224_);fill:url(#SVGID_225_);}
	.st156{opacity:0.2;fill:url(#SVGID_226_);}
	.st157{fill:url(#SVGID_227_);}
	.st158{fill:url(#SVGID_228_);}
	.st159{fill:url(#SVGID_229_);}
	.st160{fill:url(#SVGID_230_);}
	.st161{fill:url(#SVGID_231_);}
	.st162{fill:url(#SVGID_234_);}
	.st163{fill:url(#SVGID_235_);}
	.st164{fill:url(#SVGID_236_);}
	.st165{filter:url(#Adobe_OpacityMaskFilter_10_);}
	.st166{filter:url(#Adobe_OpacityMaskFilter_11_);}
	.st167{mask:url(#SVGID_237_);fill:url(#SVGID_238_);}
	.st168{opacity:0.1;fill:url(#SVGID_239_);}
	.st169{fill:url(#SVGID_240_);}
	.st170{fill:url(#SVGID_241_);}
	.st171{fill:url(#SVGID_242_);}
	.st172{fill:url(#SVGID_243_);}
	.st173{fill:url(#SVGID_244_);}
	.st174{fill:url(#SVGID_246_);}
	.st175{fill:#5B5B5B;}
	.st176{clip-path:url(#SVGID_251_);fill:url(#SVGID_252_);}
	.st177{clip-path:url(#SVGID_253_);fill:url(#SVGID_254_);}
	.st178{clip-path:url(#SVGID_255_);fill:url(#SVGID_256_);}
	.st179{clip-path:url(#SVGID_257_);fill:url(#SVGID_258_);}
	.st180{opacity:0.15;fill:url(#SVGID_263_);}
	.st181{fill:url(#SVGID_264_);}
	.st182{fill:url(#SVGID_265_);}
	.st183{fill:url(#SVGID_266_);}
	.st184{fill:url(#SVGID_267_);}
	.st185{fill:url(#SVGID_268_);}
	.st186{fill:url(#SVGID_269_);}
	.st187{fill:url(#SVGID_270_);}
	.st188{fill:url(#SVGID_271_);}
	.st189{fill:none;stroke:url(#SVGID_272_);stroke-width:3;stroke-linecap:round;stroke-linejoin:round;stroke-miterlimit:10;}
	.st190{fill:none;stroke:url(#SVGID_273_);stroke-width:3;stroke-linecap:round;stroke-linejoin:round;stroke-miterlimit:10;}
	.st191{fill:url(#SVGID_274_);}
	.st192{fill:url(#SVGID_275_);}
	.st193{fill:url(#SVGID_276_);}
	.st194{fill:url(#SVGID_277_);}
	.st195{fill:url(#SVGID_278_);}
	.st196{fill:url(#SVGID_279_);}
	.st197{fill:url(#SVGID_280_);}
	.st198{fill:url(#SVGID_281_);}
	.st199{fill:url(#SVGID_282_);}
	.st200{fill:url(#SVGID_283_);}
	.st201{fill:url(#SVGID_284_);}
	.st202{clip-path:url(#SVGID_286_);}
	.st203{clip-path:url(#SVGID_288_);}
	.st204{clip-path:url(#SVGID_290_);}
	.st205{fill:url(#SVGID_291_);}
	.st206{fill:url(#SVGID_292_);}
	.st207{fill:url(#SVGID_293_);}
	.st208{fill:url(#SVGID_294_);}
	.st209{fill:url(#SVGID_295_);}
	.st210{fill:url(#SVGID_296_);}
	.st211{fill:url(#SVGID_297_);}
	.st212{fill:url(#SVGID_298_);}
	.st213{fill:none;stroke:url(#SVGID_299_);stroke-width:3;stroke-linecap:round;stroke-linejoin:round;stroke-miterlimit:10;}
	.st214{fill:none;stroke:url(#SVGID_300_);stroke-width:3;stroke-linecap:round;stroke-linejoin:round;stroke-miterlimit:10;}
	.st215{fill:url(#SVGID_301_);}
	.st216{fill:url(#SVGID_302_);}
	.st217{fill:url(#SVGID_303_);}
	.st218{fill:none;stroke:url(#SVGID_304_);stroke-width:3;stroke-linecap:round;stroke-linejoin:round;stroke-miterlimit:10;}
	.st219{fill:none;stroke:url(#SVGID_305_);stroke-width:3;stroke-linecap:round;stroke-linejoin:round;stroke-miterlimit:10;}
	.st220{fill:url(#SVGID_306_);}
	.st221{fill:url(#SVGID_307_);}
	.st222{fill:url(#SVGID_308_);}
	.st223{fill:url(#SVGID_309_);}
	.st224{fill:url(#SVGID_310_);}
	.st225{fill:url(#SVGID_311_);}
	.st226{fill:url(#SVGID_312_);}
	.st227{fill:url(#SVGID_313_);}
	.st228{fill:url(#SVGID_314_);}
	.st229{fill:url(#SVGID_315_);}
	.st230{fill:url(#SVGID_316_);}
	.st231{clip-path:url(#SVGID_318_);}
	.st232{clip-path:url(#SVGID_320_);}
	.st233{clip-path:url(#SVGID_322_);}
	.st234{fill:url(#SVGID_323_);}
	.st235{fill:url(#SVGID_324_);}
	.st236{fill:url(#SVGID_325_);}
	.st237{fill:url(#SVGID_326_);}
	.st238{fill:url(#SVGID_327_);}
	.st239{fill:url(#SVGID_328_);}
	.st240{fill:url(#SVGID_329_);}
	.st241{fill:url(#SVGID_330_);}
	.st242{filter:url(#Adobe_OpacityMaskFilter_12_);}
	.st243{filter:url(#Adobe_OpacityMaskFilter_13_);}
	.st244{mask:url(#SVGID_331_);fill:url(#SVGID_332_);}
	.st245{fill:url(#SVGID_333_);}
	.st246{fill:url(#SVGID_334_);}
	.st247{filter:url(#Adobe_OpacityMaskFilter_14_);}
	.st248{filter:url(#Adobe_OpacityMaskFilter_15_);}
	.st249{mask:url(#SVGID_337_);fill:url(#SVGID_338_);}
	.st250{opacity:0.2;fill:url(#SVGID_339_);}
	.st251{fill:url(#SVGID_340_);}
	.st252{fill:url(#SVGID_341_);}
	.st253{fill:url(#SVGID_342_);}
	.st254{fill:url(#SVGID_343_);}
	.st255{fill:url(#SVGID_344_);}
	.st256{fill:url(#SVGID_347_);}
	.st257{fill:url(#SVGID_348_);}
	.st258{fill:url(#SVGID_349_);}
	.st259{filter:url(#Adobe_OpacityMaskFilter_16_);}
	.st260{filter:url(#Adobe_OpacityMaskFilter_17_);}
	.st261{mask:url(#SVGID_350_);fill:url(#SVGID_351_);}
	.st262{opacity:0.1;fill:url(#SVGID_352_);}
	.st263{fill:url(#SVGID_353_);}
	.st264{fill:url(#SVGID_354_);}
	.st265{fill:url(#SVGID_355_);}
	.st266{fill:url(#SVGID_356_);}
	.st267{fill:url(#SVGID_357_);}
	.st268{fill:url(#SVGID_359_);}
	.st269{opacity:0.3;fill:#EBFF29;}
	.st270{clip-path:url(#SVGID_364_);fill:url(#SVGID_365_);}
	.st271{clip-path:url(#SVGID_366_);fill:url(#SVGID_367_);}
	.st272{clip-path:url(#SVGID_368_);fill:url(#SVGID_369_);}
	.st273{clip-path:url(#SVGID_370_);fill:url(#SVGID_371_);}
	.st274{clip-path:url(#SVGID_380_);fill:url(#SVGID_381_);}
	.st275{clip-path:url(#SVGID_382_);fill:url(#SVGID_383_);}
	.st276{clip-path:url(#SVGID_384_);fill:url(#SVGID_385_);}
	.st277{clip-path:url(#SVGID_386_);fill:url(#SVGID_387_);}
	.st278{clip-path:url(#SVGID_392_);}
	.st279{fill-rule:evenodd;clip-rule:evenodd;fill:#EBFF29;}
	.st280{opacity:0.1;fill:url(#SVGID_393_);}
	.st281{clip-path:url(#SVGID_394_);}
	.st282{fill-rule:evenodd;clip-rule:evenodd;fill:#FFFFFF;}
	.st283{clip-path:url(#SVGID_399_);fill:url(#SVGID_400_);}
	.st284{clip-path:url(#SVGID_401_);fill:url(#SVGID_402_);}
	.st285{clip-path:url(#SVGID_403_);fill:url(#SVGID_404_);}
	.st286{clip-path:url(#SVGID_405_);fill:url(#SVGID_406_);}
	.st287{fill:url(#SVGID_411_);}
	.st288{fill:url(#SVGID_412_);}
	.st289{fill:url(#SVGID_413_);}
	.st290{fill:url(#SVGID_414_);}
	.st291{fill:url(#SVGID_415_);}
	.st292{fill:url(#SVGID_416_);}
	.st293{fill:url(#SVGID_417_);}
	.st294{fill:url(#SVGID_418_);}
	.st295{filter:url(#Adobe_OpacityMaskFilter_18_);}
	.st296{filter:url(#Adobe_OpacityMaskFilter_19_);}
	.st297{mask:url(#SVGID_419_);fill:url(#SVGID_420_);}
	.st298{fill:url(#SVGID_421_);}
	.st299{fill:url(#SVGID_422_);}
	.st300{filter:url(#Adobe_OpacityMaskFilter_20_);}
	.st301{filter:url(#Adobe_OpacityMaskFilter_21_);}
	.st302{mask:url(#SVGID_425_);fill:url(#SVGID_426_);}
	.st303{opacity:0.2;fill:url(#SVGID_427_);}
	.st304{fill:url(#SVGID_428_);}
	.st305{fill:url(#SVGID_429_);}
	.st306{fill:url(#SVGID_430_);}
	.st307{fill:url(#SVGID_431_);}
	.st308{fill:url(#SVGID_432_);}
	.st309{fill:url(#SVGID_435_);}
	.st310{fill:url(#SVGID_436_);}
	.st311{fill:url(#SVGID_437_);}
	.st312{filter:url(#Adobe_OpacityMaskFilter_22_);}
	.st313{filter:url(#Adobe_OpacityMaskFilter_23_);}
	.st314{mask:url(#SVGID_438_);fill:url(#SVGID_439_);}
	.st315{opacity:0.1;fill:url(#SVGID_440_);}
	.st316{fill:url(#SVGID_441_);}
	.st317{fill:url(#SVGID_442_);}
	.st318{fill:url(#SVGID_443_);}
	.st319{fill:url(#SVGID_444_);}
	.st320{fill:url(#SVGID_445_);}
	.st321{fill:url(#SVGID_447_);}
</style>
<g>
	<g>
		<path class="st76" d="M182.11,34.7c17.98-8.08,40.48-8.71,57.96,0.4s26.66,36.16,23.84,55.67c-1.71,11.82-8.41,23.01-7.2,34.89
			c1.77,17.4,19.05,28.3,29.12,42.6c13.53,19.2,13.4,46.49,1.22,66.57c-12.19,20.08-35.21,32.6-58.66,33.83
			c-23.46,1.23-46.9-8.22-64.35-23.95c-10.5-9.47-18.33-21.9-29.85-30.09c-29.41-20.9-79.9,4.97-98.97-13.26
			c-25.51-24.4-10.09-62.71,6.36-74.22c33.93-23.75,56.29,1.32,86.09-11.03c11-4.56,21.84-11.57,26.61-22.48
			C158.84,83.21,156.71,50.22,182.11,34.7"/>
		<path class="st77" d="M109.47,90.57C96.2,102,79.54,93.73,70.27,97.14c-12.7,4.66-19.62,22.01-18.79,31.85
			c0.76,9.06,11.73,15.67,19.26,20.75c7.53,5.08,15.97,9.72,20.42,17.64c6.16,10.97,2.83,24.53,0.89,36.96
			c-2.33,14.87-2.23,30.81,4.86,44.09c7.29,13.65,21.94,23.06,37.38,24.03s31.15-6.56,40.07-19.2c3.83-5.42,6.47-11.67,10.88-16.64
			c4.77-5.38,11.34-8.91,18.16-11.16c24.29-8,53.13,6.1,95.91-23.98c14.33-10.08,23.65-29.43,22.6-46.92
			c-0.81-13.5-9.76-25.69-21.42-32.54c-11.66-6.85-25.66-8.85-39.15-7.98c-12.96,0.85-25.98,4.2-38.79,2.03
			c-12.81-2.17-25.72-12.47-24.77-25.42c1.49-20.17-2.85-44.97-19.55-56.38s-42.4-8.37-54.19,8.06
			C111.24,60.17,123.64,73.83,109.47,90.57z"/>
	</g>
	<linearGradient id="SVGID_2_" gradientUnits="userSpaceOnUse" x1="51.5385" y1="142.7189" x2="294.3169" y2="142.7189">
		<stop  offset="0" style="stop-color:#5D73D0"/>
		<stop  offset="1" style="stop-color:#7F3ED0"/>
	</linearGradient>
	<path style="fill:url(#SVGID_2_);" d="M198.54,49.73c12.65,5.51,27.43,25.42,31.55,38.6c4.12,13.17,6.62,27.2,14.28,38.68
		c8.92,13.39,23.66,21.58,35.04,32.95c11.38,11.36,24.06,38.8,5.46,61.38c-11.53,14-35.86,17.71-50.47,11.51
		c-18.41-7.81-40.89-17.62-60.86-16.52c-14.52,0.8-30.98,8.91-43.63,16.08c-26.56,15.05-76.59,14.17-78.36-36.3
		c-0.64-18.16,15.5-35.42,31.41-47.08c15.53-11.39,25.61-23.98,31.72-42.48C140.1,29.63,183.93,43.36,198.54,49.73z"/>
	<g>
		<g>
			<g>
				<path class="st79" d="M154.62,256.72c0-1.67,1.35-3.02,3.01-3.03c1.67,0,3.02,1.35,3.03,3.01c0,1.67-1.35,3.02-3.01,3.03
					C155.98,259.73,154.63,258.39,154.62,256.72z"/>
				<path class="st79" d="M131.56,256.76c0-1.67,1.35-3.02,3.01-3.03c1.67,0,3.02,1.35,3.03,3.01c0,1.67-1.35,3.02-3.01,3.03
					C132.91,259.78,131.56,258.43,131.56,256.76z"/>
				<path class="st79" d="M108.49,256.81c0-1.67,1.35-3.02,3.01-3.03s3.02,1.35,3.03,3.01c0,1.67-1.35,3.02-3.01,3.03
					C109.85,259.83,108.49,258.48,108.49,256.81z"/>
				<path class="st79" d="M85.43,256.85c0-1.67,1.35-3.02,3.01-3.03c1.67,0,3.02,1.35,3.03,3.01c0,1.67-1.35,3.02-3.01,3.03
					C86.78,259.87,85.43,258.52,85.43,256.85z"/>
				<path class="st79" d="M62.36,256.9c0-1.67,1.35-3.02,3.01-3.03c1.67,0,3.02,1.35,3.03,3.01c0,1.67-1.35,3.02-3.01,3.03
					C63.72,259.92,62.36,258.57,62.36,256.9z"/>
				<path class="st79" d="M39.29,256.95c0-1.67,1.35-3.02,3.01-3.03c1.67,0,3.02,1.35,3.03,3.01c0,1.67-1.35,3.02-3.01,3.03
					C40.65,259.96,39.3,258.61,39.29,256.95z"/>
			</g>
			<g>
				<path class="st79" d="M131.51,235.35c0-1.67,1.35-3.02,3.01-3.03c1.67,0,3.02,1.35,3.03,3.01c0,1.67-1.35,3.02-3.01,3.03
					C132.87,238.37,131.52,237.02,131.51,235.35z"/>
				<path class="st79" d="M108.45,235.39c0-1.67,1.35-3.02,3.01-3.03c1.67,0,3.02,1.35,3.03,3.01c0,1.67-1.35,3.02-3.01,3.03
					C109.81,238.41,108.45,237.06,108.45,235.39z"/>
				<path class="st79" d="M85.38,235.44c0-1.67,1.35-3.02,3.01-3.03c1.67,0,3.02,1.35,3.03,3.01c0,1.67-1.35,3.02-3.01,3.03
					C86.74,238.46,85.39,237.11,85.38,235.44z"/>
				<path class="st79" d="M62.32,235.49c0-1.67,1.35-3.02,3.01-3.03c1.67,0,3.02,1.35,3.03,3.01c0,1.67-1.35,3.02-3.01,3.03
					C63.68,238.5,62.32,237.15,62.32,235.49z"/>
				<path class="st79" d="M39.25,235.53c0-1.67,1.35-3.02,3.01-3.03c1.67,0,3.02,1.35,3.03,3.01c0,1.67-1.35,3.02-3.01,3.03
					C40.61,238.55,39.25,237.2,39.25,235.53z"/>
			</g>
			<g>
				<path class="st79" d="M108.41,213.98c0-1.67,1.35-3.02,3.01-3.03c1.67,0,3.02,1.35,3.03,3.01c0,1.67-1.35,3.02-3.01,3.03
					C109.76,217,108.41,215.65,108.41,213.98z"/>
				<path class="st79" d="M85.34,214.02c0-1.67,1.35-3.02,3.01-3.03c1.67,0,3.02,1.35,3.03,3.01c0,1.67-1.35,3.02-3.01,3.03
					C86.7,217.04,85.34,215.69,85.34,214.02z"/>
				<path class="st79" d="M62.27,214.07c0-1.67,1.35-3.02,3.01-3.03c1.67,0,3.02,1.35,3.03,3.01c0,1.67-1.35,3.02-3.01,3.03
					C63.63,217.09,62.28,215.74,62.27,214.07z"/>
				<path class="st79" d="M39.21,214.12c0-1.67,1.35-3.02,3.01-3.03c1.67,0,3.02,1.35,3.03,3.01c0,1.67-1.35,3.02-3.01,3.03
					C40.57,217.13,39.21,215.78,39.21,214.12z"/>
			</g>
			<g>
				<path class="st79" d="M85.3,192.61c0-1.67,1.35-3.02,3.01-3.03c1.67,0,3.02,1.35,3.03,3.01c0,1.67-1.35,3.02-3.01,3.03
					C86.66,195.63,85.3,194.28,85.3,192.61z"/>
				<path class="st79" d="M62.23,192.65c0-1.67,1.35-3.02,3.01-3.03c1.67,0,3.02,1.35,3.03,3.01c0,1.67-1.35,3.02-3.01,3.03
					C63.59,195.67,62.24,194.32,62.23,192.65z"/>
				<path class="st79" d="M39.17,192.7c0-1.67,1.35-3.02,3.01-3.03c1.67,0,3.02,1.35,3.03,3.01c0,1.67-1.35,3.02-3.01,3.03
					C40.52,195.72,39.17,194.37,39.17,192.7z"/>
			</g>
			<g>
				<path class="st79" d="M62.23,172.14c0-1.67,1.35-3.02,3.01-3.03c1.67,0,3.02,1.35,3.03,3.01c0,1.67-1.35,3.02-3.01,3.03
					C63.59,175.16,62.24,173.81,62.23,172.14z"/>
				<path class="st79" d="M39.17,172.18c0-1.67,1.35-3.02,3.01-3.03c1.67,0,3.02,1.35,3.03,3.01c0,1.67-1.35,3.02-3.01,3.03
					C40.52,175.2,39.17,173.85,39.17,172.18z"/>
			</g>
			<g>
				<path class="st79" d="M39.17,151.86c0-1.67,1.35-3.02,3.01-3.03c1.67,0,3.02,1.35,3.03,3.01c0,1.67-1.35,3.02-3.01,3.03
					C40.52,154.88,39.17,153.53,39.17,151.86z"/>
			</g>
		</g>
		<g>
			<g>
				<path class="st79" d="M254.55,125.15c-1.67,0-3.02,1.35-3.03,3.01c0,1.67,1.35,3.02,3.01,3.03c1.67,0,3.02-1.35,3.03-3.01
					C257.57,126.51,256.22,125.16,254.55,125.15z"/>
				<path class="st79" d="M254.6,102.09c-1.67,0-3.02,1.35-3.03,3.01c0,1.67,1.35,3.02,3.01,3.03c1.67,0,3.02-1.35,3.03-3.01
					C257.61,103.44,256.26,102.09,254.6,102.09z"/>
				<path class="st79" d="M254.64,79.02c-1.67,0-3.02,1.35-3.03,3.01c0,1.67,1.35,3.02,3.01,3.03c1.67,0,3.02-1.35,3.03-3.01
					C257.66,80.38,256.31,79.02,254.64,79.02z"/>
				<path class="st79" d="M254.69,55.96c-1.67,0-3.02,1.35-3.03,3.01c0,1.67,1.35,3.02,3.01,3.03c1.67,0,3.02-1.35,3.03-3.01
					C257.71,57.31,256.36,55.96,254.69,55.96z"/>
				<path class="st79" d="M254.73,32.89c-1.67,0-3.02,1.35-3.03,3.01c0,1.67,1.35,3.02,3.01,3.03c1.67,0,3.02-1.35,3.03-3.01
					C257.75,34.25,256.4,32.89,254.73,32.89z"/>
				<path class="st79" d="M254.78,9.82c-1.67,0-3.02,1.35-3.03,3.01c0,1.67,1.35,3.02,3.01,3.03c1.67,0,3.02-1.35,3.03-3.01
					C257.8,11.18,256.45,9.83,254.78,9.82z"/>
			</g>
			<g>
				<path class="st79" d="M233.18,102.04c-1.67,0-3.02,1.35-3.03,3.01c0,1.67,1.35,3.02,3.01,3.03c1.67,0,3.02-1.35,3.03-3.01
					C236.2,103.4,234.85,102.05,233.18,102.04z"/>
				<path class="st79" d="M233.23,78.98c-1.67,0-3.02,1.35-3.03,3.01c0,1.67,1.35,3.02,3.01,3.03c1.67,0,3.02-1.35,3.03-3.01
					C236.24,80.34,234.9,78.98,233.23,78.98z"/>
				<path class="st79" d="M233.27,55.91c-1.67,0-3.02,1.35-3.03,3.01c0,1.67,1.35,3.02,3.01,3.03c1.67,0,3.02-1.35,3.03-3.01
					C236.29,57.27,234.94,55.92,233.27,55.91z"/>
				<path class="st79" d="M233.32,32.85c-1.67,0-3.02,1.35-3.03,3.01c0,1.67,1.35,3.02,3.01,3.03c1.67,0,3.02-1.35,3.03-3.01
					C236.34,34.21,234.99,32.85,233.32,32.85z"/>
				<path class="st79" d="M233.36,9.78c-1.67,0-3.02,1.35-3.03,3.01c0,1.67,1.35,3.02,3.01,3.03c1.67,0,3.02-1.35,3.03-3.01
					C236.38,11.14,235.03,9.78,233.36,9.78z"/>
			</g>
			<g>
				<path class="st79" d="M211.81,78.94c-1.67,0-3.02,1.35-3.03,3.01c0,1.67,1.35,3.02,3.01,3.03c1.67,0,3.02-1.35,3.03-3.01
					C214.83,80.29,213.48,78.94,211.81,78.94z"/>
				<path class="st79" d="M211.86,55.87c-1.67,0-3.02,1.35-3.03,3.01c0,1.67,1.35,3.02,3.01,3.03c1.67,0,3.02-1.35,3.03-3.01
					C214.88,57.23,213.53,55.87,211.86,55.87z"/>
				<path class="st79" d="M211.9,32.8c-1.67,0-3.02,1.35-3.03,3.01c0,1.67,1.35,3.02,3.01,3.03c1.67,0,3.02-1.35,3.03-3.01
					C214.92,34.16,213.57,32.81,211.9,32.8z"/>
				<path class="st79" d="M211.95,9.74c-1.67,0-3.02,1.35-3.03,3.01c0,1.67,1.35,3.02,3.01,3.03c1.67,0,3.02-1.35,3.03-3.01
					C214.97,11.1,213.62,9.74,211.95,9.74z"/>
			</g>
			<g>
				<path class="st79" d="M190.44,55.83c-1.67,0-3.02,1.35-3.03,3.01c0,1.67,1.35,3.02,3.01,3.03c1.67,0,3.02-1.35,3.03-3.01
					C193.46,57.19,192.11,55.83,190.44,55.83z"/>
				<path class="st79" d="M190.49,32.76c-1.67,0-3.02,1.35-3.03,3.01c0,1.67,1.35,3.02,3.01,3.03c1.67,0,3.02-1.35,3.03-3.01
					C193.51,34.12,192.16,32.76,190.49,32.76z"/>
				<path class="st79" d="M190.53,9.7c-1.67,0-3.02,1.35-3.03,3.01c0,1.67,1.35,3.02,3.01,3.03c1.67,0,3.02-1.35,3.03-3.01
					C193.55,11.05,192.2,9.7,190.53,9.7z"/>
			</g>
			<g>
				<path class="st79" d="M169.97,32.76c-1.67,0-3.02,1.35-3.03,3.01c0,1.67,1.35,3.02,3.01,3.03c1.67,0,3.02-1.35,3.03-3.01
					C172.99,34.12,171.64,32.76,169.97,32.76z"/>
				<path class="st79" d="M170.02,9.7c-1.67,0-3.02,1.35-3.03,3.01c0,1.67,1.35,3.02,3.01,3.03c1.67,0,3.02-1.35,3.03-3.01
					C173.04,11.05,171.69,9.7,170.02,9.7z"/>
			</g>
			<g>
				<path class="st79" d="M149.7,9.7c-1.67,0-3.02,1.35-3.03,3.01c0,1.67,1.35,3.02,3.01,3.03c1.67,0,3.02-1.35,3.03-3.01
					C152.72,11.05,151.37,9.7,149.7,9.7z"/>
			</g>
		</g>
	</g>
	<g>
		<linearGradient id="SVGID_3_" gradientUnits="userSpaceOnUse" x1="206.0641" y1="219.0756" x2="331.3871" y2="219.0756">
			<stop  offset="0" style="stop-color:#5D73D0"/>
			<stop  offset="0.4436" style="stop-color:#60A7DB"/>
			<stop  offset="0.7959" style="stop-color:#62C9E3"/>
			<stop  offset="0.986" style="stop-color:#63D6E6"/>
		</linearGradient>
		
			<path style="fill:none;stroke:url(#SVGID_3_);stroke-width:3;stroke-linecap:round;stroke-linejoin:round;stroke-miterlimit:10;" d="
			M207.56,218.82c6.53-8.94,17.59-8.82,24,0.25l0,0c6.41,9.07,17.48,9.19,24,0.25l0.57-0.77c6.45-8.84,17.37-8.84,23.82,0l0.76,1.04
			c6.45,8.84,17.37,8.84,23.82,0l0.76-1.04c6.45-8.84,17.37-8.84,23.82,0l0.76,1.04"/>
		<linearGradient id="SVGID_5_" gradientUnits="userSpaceOnUse" x1="252.1863" y1="240.9993" x2="328.3416" y2="240.9993">
			<stop  offset="0" style="stop-color:#5D73D0"/>
			<stop  offset="0.4436" style="stop-color:#60A7DB"/>
			<stop  offset="0.7959" style="stop-color:#62C9E3"/>
			<stop  offset="0.986" style="stop-color:#63D6E6"/>
		</linearGradient>
		
			<path style="fill:none;stroke:url(#SVGID_5_);stroke-width:3;stroke-linecap:round;stroke-linejoin:round;stroke-miterlimit:10;" d="
			M253.69,240.88c6.53-8.94,17.59-8.82,24,0.25v0c6.41,9.07,17.48,9.19,24,0.25l0.57-0.77c6.45-8.84,17.37-8.84,23.82,0l0.76,1.04"
			/>
	</g>
	<g>
		
			<linearGradient id="SVGID_6_" gradientUnits="userSpaceOnUse" x1="21.8039" y1="-1520.7914" x2="63.9739" y2="-1424.8828" gradientTransform="matrix(0.963 0.2695 -0.2695 0.963 -173.3185 1487.9177)">
			<stop  offset="0" style="stop-color:#5D73D0"/>
			<stop  offset="1" style="stop-color:#7F3ED0"/>
		</linearGradient>
		<path style="fill:url(#SVGID_6_);" d="M240.74,66.83c-3.05,5.69-2.31,13.73,2.96,17.47c3.32,2.36,7.63,2.62,11.56,3.69
			c3.73,1.02,7.2,2.82,10.68,4.51c2.3,1.11,4.66,2.2,7.19,2.54c6.19,0.84,12.46-3.28,14.97-9c2.51-5.72,1.56-12.6-1.63-17.97
			c-3.19-5.37-8.4-9.34-14.08-11.93C261.27,51.05,246.65,55.78,240.74,66.83z"/>
		<linearGradient id="SVGID_8_" gradientUnits="userSpaceOnUse" x1="242.8374" y1="124.8647" x2="287.5335" y2="124.8647">
			<stop  offset="0" style="stop-color:#5D73D0"/>
			<stop  offset="0.4436" style="stop-color:#60A7DB"/>
			<stop  offset="0.7959" style="stop-color:#62C9E3"/>
			<stop  offset="0.986" style="stop-color:#63D6E6"/>
		</linearGradient>
		<path style="fill:url(#SVGID_8_);" d="M267.88,129.27c0.93,4.05,4.64,7.3,8.77,7.69c1.87,0.18,3.77-0.18,5.56-0.77
			c4.59-1.52,8.77-4.86,10.37-9.43c1.6-4.57,0.07-10.3-4.1-12.76C279.94,108.97,265.67,119.66,267.88,129.27z"/>
	</g>
</g>
</svg>
