<?xml version="1.0" encoding="utf-8"?>
<!-- Generator: Adobe Illustrator 24.0.0, SVG Export Plug-In . SVG Version: 6.00 Build 0)  -->
<svg version="1.1" id="Layer_1" xmlns="http://www.w3.org/2000/svg" xmlns:xlink="http://www.w3.org/1999/xlink" x="0px" y="0px"
	 viewBox="0 0 351.56 282.24" style="enable-background:new 0 0 351.56 282.24;" xml:space="preserve">
<style type="text/css">
	.st0{fill:#232323;}
	.st1{opacity:0.1;fill:#7DFE7A;}
	.st2{opacity:0.1;}
	.st3{fill:#8DFE8B;}
	.st4{fill-rule:evenodd;clip-rule:evenodd;fill:#10FECC;}
	.st5{fill:#EBFF29;}
	.st6{fill:#7DFE7A;}
	.st7{fill:#10FECC;}
	.st8{fill:#FFFFFF;}
	.st9{fill:#FF445A;}
	.st10{clip-path:url(#SVGID_8_);fill:url(#SVGID_9_);}
	.st11{clip-path:url(#SVGID_10_);fill:url(#SVGID_11_);}
	.st12{clip-path:url(#SVGID_12_);fill:url(#SVGID_13_);}
	.st13{clip-path:url(#SVGID_14_);fill:url(#SVGID_15_);}
	.st14{clip-path:url(#SVGID_21_);fill:url(#SVGID_22_);}
	.st15{clip-path:url(#SVGID_24_);fill:url(#SVGID_25_);}
	.st16{clip-path:url(#SVGID_27_);fill:url(#SVGID_28_);}
	.st17{clip-path:url(#SVGID_32_);fill:url(#SVGID_33_);}
	.st18{opacity:0.15;fill:#7DFE7A;}
	.st19{opacity:0.15;fill:url(#SVGID_34_);}
	.st20{opacity:0.3;fill:#10FECC;}
	.st21{opacity:0.86;fill:#FFFFFF;stroke:#12A4AA;stroke-width:5;stroke-miterlimit:10;}
	.st22{fill:url(#SVGID_35_);}
	.st23{fill:url(#SVGID_36_);}
	.st24{fill:#3B3B3B;}
	.st25{fill:#666666;}
	.st26{fill:url(#SVGID_37_);}
	.st27{fill:url(#SVGID_38_);}
	.st28{fill:url(#SVGID_39_);}
	.st29{fill:url(#SVGID_40_);}
	.st30{fill:url(#SVGID_54_);}
	.st31{fill:url(#SVGID_55_);}
	.st32{filter:url(#Adobe_OpacityMaskFilter);}
	.st33{filter:url(#Adobe_OpacityMaskFilter_1_);}
	.st34{mask:url(#SVGID_56_);fill:url(#SVGID_57_);}
	.st35{fill:url(#SVGID_58_);}
	.st36{fill:url(#SVGID_59_);}
	.st37{filter:url(#Adobe_OpacityMaskFilter_2_);}
	.st38{filter:url(#Adobe_OpacityMaskFilter_3_);}
	.st39{mask:url(#SVGID_62_);fill:url(#SVGID_63_);}
	.st40{opacity:0.2;fill:url(#SVGID_64_);}
	.st41{fill:none;}
	.st42{fill:#929292;}
	.st43{fill:url(#SVGID_65_);}
	.st44{fill:#DFDFDF;}
	.st45{fill:url(#SVGID_66_);}
	.st46{fill:url(#SVGID_91_);}
	.st47{fill:url(#SVGID_92_);}
	.st48{fill:url(#SVGID_93_);}
	.st49{fill:url(#SVGID_96_);}
	.st50{fill:url(#SVGID_97_);}
	.st51{fill:url(#SVGID_98_);}
	.st52{fill:#0C0C0C;}
	.st53{filter:url(#Adobe_OpacityMaskFilter_4_);}
	.st54{filter:url(#Adobe_OpacityMaskFilter_5_);}
	.st55{mask:url(#SVGID_99_);fill:url(#SVGID_100_);}
	.st56{opacity:0.1;fill:url(#SVGID_101_);}
	.st57{fill:url(#SVGID_102_);}
	.st58{fill:url(#SVGID_103_);}
	.st59{fill:url(#SVGID_104_);}
	.st60{fill:url(#SVGID_105_);}
	.st61{fill:url(#SVGID_106_);}
	.st62{fill:url(#SVGID_108_);}
	.st63{fill:#FFE8FF;}
	.st64{fill:#FFD6FE;}
	.st65{fill:url(#SVGID_109_);}
	.st66{fill:url(#SVGID_110_);}
	.st67{fill:url(#SVGID_111_);}
	.st68{fill:url(#SVGID_112_);}
	.st69{fill:url(#SVGID_113_);}
	.st70{fill:url(#SVGID_114_);}
	.st71{fill:url(#SVGID_115_);}
	.st72{fill:none;stroke:#FFFFFF;stroke-miterlimit:10;}
	.st73{fill:none;stroke:#082E36;stroke-width:3;stroke-linecap:round;stroke-miterlimit:10;}
	.st74{fill:#FFFFFF;stroke:#082E36;stroke-width:3;stroke-linecap:round;stroke-linejoin:round;stroke-miterlimit:10;}
	.st75{fill:#082E36;}
	.st76{fill:#F7FAFF;}
	.st77{fill:#E3E9FF;}
	.st78{fill:url(#SVGID_116_);}
	.st79{fill:#63D6E6;}
	.st80{fill:none;stroke:url(#SVGID_117_);stroke-width:3;stroke-linecap:round;stroke-linejoin:round;stroke-miterlimit:10;}
	.st81{fill:none;stroke:url(#SVGID_118_);stroke-width:3;stroke-linecap:round;stroke-linejoin:round;stroke-miterlimit:10;}
	.st82{fill:url(#SVGID_119_);}
	.st83{fill:url(#SVGID_120_);}
	.st84{fill:#F7F2FF;}
	.st85{fill:#ECE0FF;}
	.st86{fill:url(#SVGID_121_);}
	.st87{fill:#3F1583;}
	.st88{fill:url(#SVGID_122_);}
	.st89{fill:#7C44FF;}
	.st90{fill:#F5F9FA;}
	.st91{fill:#EBF8FA;}
	.st92{fill:url(#SVGID_123_);}
	.st93{fill:url(#SVGID_124_);}
	.st94{fill:url(#SVGID_125_);}
	.st95{fill:url(#SVGID_126_);}
	.st96{fill:url(#SVGID_127_);}
	.st97{fill:url(#SVGID_128_);}
	.st98{fill:url(#SVGID_129_);}
	.st99{clip-path:url(#SVGID_131_);}
	.st100{fill:#7350D0;}
	.st101{clip-path:url(#SVGID_133_);}
	.st102{clip-path:url(#SVGID_135_);}
	.st103{fill:none;stroke:#082E36;stroke-width:3;stroke-linecap:round;stroke-linejoin:round;stroke-miterlimit:10;}
	.st104{opacity:0.87;}
	.st105{clip-path:url(#SVGID_137_);}
	.st106{fill:#FF919C;}
	.st107{opacity:0.6;fill:#EBFF29;}
	.st108{fill:url(#SVGID_138_);}
	.st109{opacity:0.63;fill:url(#SVGID_139_);}
	.st110{clip-path:url(#SVGID_141_);}
	.st111{fill:#FF87B3;}
	.st112{clip-path:url(#SVGID_143_);}
	.st113{opacity:0.79;clip-path:url(#SVGID_145_);}
	.st114{opacity:0.79;clip-path:url(#SVGID_147_);}
	.st115{opacity:0.79;clip-path:url(#SVGID_149_);}
	.st116{opacity:0.79;clip-path:url(#SVGID_151_);}
	.st117{opacity:0.79;clip-path:url(#SVGID_153_);}
	.st118{opacity:0.79;clip-path:url(#SVGID_155_);}
	.st119{opacity:0.79;clip-path:url(#SVGID_157_);}
	.st120{opacity:0.79;clip-path:url(#SVGID_159_);}
	.st121{opacity:0.79;clip-path:url(#SVGID_161_);}
	.st122{opacity:0.79;clip-path:url(#SVGID_163_);}
	.st123{opacity:0.71;}
	.st124{opacity:0.79;clip-path:url(#SVGID_165_);}
	.st125{opacity:0.79;clip-path:url(#SVGID_167_);}
	.st126{opacity:0.79;clip-path:url(#SVGID_169_);}
	.st127{opacity:0.79;clip-path:url(#SVGID_171_);}
	.st128{opacity:0.79;clip-path:url(#SVGID_173_);}
	.st129{fill:none;stroke:url(#SVGID_174_);stroke-width:4;stroke-miterlimit:10;}
	.st130{clip-path:url(#SVGID_181_);fill:url(#SVGID_182_);}
	.st131{clip-path:url(#SVGID_183_);fill:url(#SVGID_184_);}
	.st132{clip-path:url(#SVGID_185_);fill:url(#SVGID_186_);}
	.st133{clip-path:url(#SVGID_187_);fill:url(#SVGID_188_);}
	.st134{opacity:0.5;fill:#0C1D1E;}
	.st135{clip-path:url(#SVGID_197_);fill:url(#SVGID_198_);}
	.st136{clip-path:url(#SVGID_199_);fill:url(#SVGID_200_);}
	.st137{clip-path:url(#SVGID_201_);fill:url(#SVGID_202_);}
	.st138{clip-path:url(#SVGID_203_);fill:url(#SVGID_204_);}
	.st139{opacity:0.1;fill:url(#SVGID_209_);}
	.st140{fill:url(#SVGID_210_);}
	.st141{fill:url(#SVGID_211_);}
	.st142{fill:url(#SVGID_212_);}
	.st143{fill:url(#SVGID_213_);}
	.st144{fill:url(#SVGID_214_);}
	.st145{fill:url(#SVGID_215_);}
	.st146{fill:url(#SVGID_216_);}
	.st147{fill:url(#SVGID_217_);}
	.st148{filter:url(#Adobe_OpacityMaskFilter_6_);}
	.st149{filter:url(#Adobe_OpacityMaskFilter_7_);}
	.st150{mask:url(#SVGID_218_);fill:url(#SVGID_219_);}
	.st151{fill:url(#SVGID_220_);}
	.st152{fill:url(#SVGID_221_);}
	.st153{filter:url(#Adobe_OpacityMaskFilter_8_);}
	.st154{filter:url(#Adobe_OpacityMaskFilter_9_);}
	.st155{mask:url(#SVGID_224_);fill:url(#SVGID_225_);}
	.st156{opacity:0.2;fill:url(#SVGID_226_);}
	.st157{fill:url(#SVGID_227_);}
	.st158{fill:url(#SVGID_228_);}
	.st159{fill:url(#SVGID_229_);}
	.st160{fill:url(#SVGID_230_);}
	.st161{fill:url(#SVGID_231_);}
	.st162{fill:url(#SVGID_234_);}
	.st163{fill:url(#SVGID_235_);}
	.st164{fill:url(#SVGID_236_);}
	.st165{filter:url(#Adobe_OpacityMaskFilter_10_);}
	.st166{filter:url(#Adobe_OpacityMaskFilter_11_);}
	.st167{mask:url(#SVGID_237_);fill:url(#SVGID_238_);}
	.st168{opacity:0.1;fill:url(#SVGID_239_);}
	.st169{fill:url(#SVGID_240_);}
	.st170{fill:url(#SVGID_241_);}
	.st171{fill:url(#SVGID_242_);}
	.st172{fill:url(#SVGID_243_);}
	.st173{fill:url(#SVGID_244_);}
	.st174{fill:url(#SVGID_246_);}
	.st175{fill:#5B5B5B;}
	.st176{clip-path:url(#SVGID_251_);fill:url(#SVGID_252_);}
	.st177{clip-path:url(#SVGID_253_);fill:url(#SVGID_254_);}
	.st178{clip-path:url(#SVGID_255_);fill:url(#SVGID_256_);}
	.st179{clip-path:url(#SVGID_257_);fill:url(#SVGID_258_);}
	.st180{opacity:0.15;fill:url(#SVGID_263_);}
	.st181{fill:url(#SVGID_264_);}
	.st182{fill:url(#SVGID_265_);}
	.st183{fill:url(#SVGID_266_);}
	.st184{fill:url(#SVGID_267_);}
	.st185{fill:url(#SVGID_268_);}
	.st186{fill:url(#SVGID_269_);}
	.st187{fill:url(#SVGID_270_);}
	.st188{fill:url(#SVGID_271_);}
	.st189{fill:none;stroke:url(#SVGID_272_);stroke-width:3;stroke-linecap:round;stroke-linejoin:round;stroke-miterlimit:10;}
	.st190{fill:none;stroke:url(#SVGID_273_);stroke-width:3;stroke-linecap:round;stroke-linejoin:round;stroke-miterlimit:10;}
	.st191{fill:url(#SVGID_274_);}
	.st192{fill:url(#SVGID_275_);}
	.st193{fill:url(#SVGID_276_);}
	.st194{fill:url(#SVGID_277_);}
	.st195{fill:url(#SVGID_278_);}
	.st196{fill:url(#SVGID_279_);}
	.st197{fill:url(#SVGID_280_);}
	.st198{fill:url(#SVGID_281_);}
	.st199{fill:url(#SVGID_282_);}
	.st200{fill:url(#SVGID_283_);}
	.st201{fill:url(#SVGID_284_);}
	.st202{clip-path:url(#SVGID_286_);}
	.st203{clip-path:url(#SVGID_288_);}
	.st204{clip-path:url(#SVGID_290_);}
	.st205{fill:url(#SVGID_291_);}
	.st206{fill:url(#SVGID_292_);}
	.st207{fill:url(#SVGID_293_);}
	.st208{fill:url(#SVGID_294_);}
	.st209{fill:url(#SVGID_295_);}
	.st210{fill:url(#SVGID_296_);}
	.st211{fill:url(#SVGID_297_);}
	.st212{fill:url(#SVGID_298_);}
	.st213{fill:none;stroke:url(#SVGID_299_);stroke-width:3;stroke-linecap:round;stroke-linejoin:round;stroke-miterlimit:10;}
	.st214{fill:none;stroke:url(#SVGID_300_);stroke-width:3;stroke-linecap:round;stroke-linejoin:round;stroke-miterlimit:10;}
	.st215{fill:url(#SVGID_301_);}
	.st216{fill:url(#SVGID_302_);}
	.st217{fill:url(#SVGID_303_);}
	.st218{fill:url(#SVGID_304_);}
	.st219{fill:url(#SVGID_305_);}
	.st220{fill:url(#SVGID_306_);}
	.st221{fill:url(#SVGID_307_);}
	.st222{fill:url(#SVGID_308_);}
	.st223{fill:url(#SVGID_309_);}
	.st224{fill:url(#SVGID_310_);}
	.st225{fill:url(#SVGID_311_);}
	.st226{fill:url(#SVGID_312_);}
	.st227{fill:url(#SVGID_313_);}
	.st228{clip-path:url(#SVGID_315_);}
	.st229{clip-path:url(#SVGID_317_);}
	.st230{clip-path:url(#SVGID_319_);}
	.st231{fill:url(#SVGID_320_);}
	.st232{fill:url(#SVGID_321_);}
	.st233{fill:url(#SVGID_322_);}
	.st234{fill:url(#SVGID_323_);}
	.st235{fill:url(#SVGID_324_);}
	.st236{fill:url(#SVGID_325_);}
	.st237{fill:url(#SVGID_326_);}
	.st238{fill:url(#SVGID_327_);}
	.st239{filter:url(#Adobe_OpacityMaskFilter_12_);}
	.st240{filter:url(#Adobe_OpacityMaskFilter_13_);}
	.st241{mask:url(#SVGID_328_);fill:url(#SVGID_329_);}
	.st242{fill:url(#SVGID_330_);}
	.st243{fill:url(#SVGID_331_);}
	.st244{filter:url(#Adobe_OpacityMaskFilter_14_);}
	.st245{filter:url(#Adobe_OpacityMaskFilter_15_);}
	.st246{mask:url(#SVGID_334_);fill:url(#SVGID_335_);}
	.st247{opacity:0.2;fill:url(#SVGID_336_);}
	.st248{fill:url(#SVGID_337_);}
	.st249{fill:url(#SVGID_338_);}
	.st250{fill:url(#SVGID_339_);}
	.st251{fill:url(#SVGID_340_);}
	.st252{fill:url(#SVGID_341_);}
	.st253{fill:url(#SVGID_344_);}
	.st254{fill:url(#SVGID_345_);}
	.st255{fill:url(#SVGID_346_);}
	.st256{filter:url(#Adobe_OpacityMaskFilter_16_);}
	.st257{filter:url(#Adobe_OpacityMaskFilter_17_);}
	.st258{mask:url(#SVGID_347_);fill:url(#SVGID_348_);}
	.st259{opacity:0.1;fill:url(#SVGID_349_);}
	.st260{fill:url(#SVGID_350_);}
	.st261{fill:url(#SVGID_351_);}
	.st262{fill:url(#SVGID_352_);}
	.st263{fill:url(#SVGID_353_);}
	.st264{fill:url(#SVGID_354_);}
	.st265{fill:url(#SVGID_356_);}
	.st266{opacity:0.3;fill:#EBFF29;}
	.st267{clip-path:url(#SVGID_361_);fill:url(#SVGID_362_);}
	.st268{clip-path:url(#SVGID_363_);fill:url(#SVGID_364_);}
	.st269{clip-path:url(#SVGID_365_);fill:url(#SVGID_366_);}
	.st270{clip-path:url(#SVGID_367_);fill:url(#SVGID_368_);}
	.st271{clip-path:url(#SVGID_377_);fill:url(#SVGID_378_);}
	.st272{clip-path:url(#SVGID_379_);fill:url(#SVGID_380_);}
	.st273{clip-path:url(#SVGID_381_);fill:url(#SVGID_382_);}
	.st274{clip-path:url(#SVGID_383_);fill:url(#SVGID_384_);}
	.st275{clip-path:url(#SVGID_389_);}
	.st276{fill-rule:evenodd;clip-rule:evenodd;fill:#EBFF29;}
	.st277{opacity:0.1;fill:url(#SVGID_390_);}
	.st278{clip-path:url(#SVGID_391_);}
	.st279{fill-rule:evenodd;clip-rule:evenodd;fill:#FFFFFF;}
	.st280{clip-path:url(#SVGID_396_);fill:url(#SVGID_397_);}
	.st281{clip-path:url(#SVGID_398_);fill:url(#SVGID_399_);}
	.st282{clip-path:url(#SVGID_400_);fill:url(#SVGID_401_);}
	.st283{clip-path:url(#SVGID_402_);fill:url(#SVGID_403_);}
	.st284{fill:url(#SVGID_408_);}
	.st285{fill:url(#SVGID_409_);}
	.st286{fill:url(#SVGID_410_);}
	.st287{fill:url(#SVGID_411_);}
	.st288{fill:url(#SVGID_412_);}
	.st289{fill:url(#SVGID_413_);}
	.st290{fill:url(#SVGID_414_);}
	.st291{fill:url(#SVGID_415_);}
	.st292{filter:url(#Adobe_OpacityMaskFilter_18_);}
	.st293{filter:url(#Adobe_OpacityMaskFilter_19_);}
	.st294{mask:url(#SVGID_416_);fill:url(#SVGID_417_);}
	.st295{fill:url(#SVGID_418_);}
	.st296{fill:url(#SVGID_419_);}
	.st297{filter:url(#Adobe_OpacityMaskFilter_20_);}
	.st298{filter:url(#Adobe_OpacityMaskFilter_21_);}
	.st299{mask:url(#SVGID_422_);fill:url(#SVGID_423_);}
	.st300{opacity:0.2;fill:url(#SVGID_424_);}
	.st301{fill:url(#SVGID_425_);}
	.st302{fill:url(#SVGID_426_);}
	.st303{fill:url(#SVGID_427_);}
	.st304{fill:url(#SVGID_428_);}
	.st305{fill:url(#SVGID_429_);}
	.st306{fill:url(#SVGID_432_);}
	.st307{fill:url(#SVGID_433_);}
	.st308{fill:url(#SVGID_434_);}
	.st309{filter:url(#Adobe_OpacityMaskFilter_22_);}
	.st310{filter:url(#Adobe_OpacityMaskFilter_23_);}
	.st311{mask:url(#SVGID_435_);fill:url(#SVGID_436_);}
	.st312{opacity:0.1;fill:url(#SVGID_437_);}
	.st313{fill:url(#SVGID_438_);}
	.st314{fill:url(#SVGID_439_);}
	.st315{fill:url(#SVGID_440_);}
	.st316{fill:url(#SVGID_441_);}
	.st317{fill:url(#SVGID_442_);}
	.st318{fill:url(#SVGID_444_);}
</style>
<g>
	<g>
		<path class="st84" d="M281.11,19.22c6.17,3.68,30.22,36.6-15.26,107.68c-13.17,20.58-11.46,43.16-6.52,67.08
			c4.94,23.93,6.17,32.57-4.34,54.62c-7.62,15.97-20.68,21.46-38.24,23.57c-17.57,2.11-35.85-4.8-48.1-17.57
			c-19.52-20.35-24.16-53.6-48.04-68.6c-24.02-15.08-57.63-5.03-81.9-19.7c-22.23-13.44-28.61-45.62-16.95-68.83
			c11.65-23.22,37.64-37.05,63.55-38.84c16.75-1.15,33.51,2.08,50.3,2.02c13.93-0.05,27.84-2.42,41.02-6.91
			c13.47-4.59,19.04-10.34,28.53-19.64C237.71,2.2,259.87,6.53,281.11,19.22z"/>
		<path class="st85" d="M98.25,16.9c-13.61,6.43-51.95,39.38-13.34,94.14c8.38,11.88,12.2,27.07,9.12,41.28
			c-2.38,10.98-8.34,20.84-11.66,31.57c-4.77,15.41-3.74,32.83,4.13,46.91s22.87,24.3,38.99,25.09c15.46,0.75,30.14-6.74,42.83-15.6
			s24.39-19.36,38.34-26.07c22.89-11,38.82-17.02,64.09-19.57c57.44-5.8,71.18-40.07,62.35-68.17
			c-5.46-17.39-21.97-34.39-39.49-39.43c-17.52-5.03-35.97-6.33-53.35-11.81c-13.84-4.37-26.85-11.38-38.1-20.54
			C186.72,42.13,151.39-8.21,98.25,16.9z"/>
	</g>
	<linearGradient id="SVGID_2_" gradientUnits="userSpaceOnUse" x1="108.9118" y1="77.5676" x2="273.4966" y2="218.6403">
		<stop  offset="8.379890e-03" style="stop-color:#7F3ED0"/>
		<stop  offset="0.1444" style="stop-color:#6B31B8"/>
		<stop  offset="0.318" style="stop-color:#5825A1"/>
		<stop  offset="0.5039" style="stop-color:#4A1C90"/>
		<stop  offset="0.7087" style="stop-color:#421786"/>
		<stop  offset="0.9693" style="stop-color:#3F1583"/>
	</linearGradient>
	<path style="fill:url(#SVGID_2_);" d="M83.22,106.51c-6.65,9.46-14.56,28.68-17.73,39.8c-3.17,11.12-2.24,23.99,4.98,33.02
		c5.02,6.28,12.74,10.18,20.73,11.1c10.04,1.15,20.19-0.36,30.2-1.77c29.67-4.16,39.74,20.43,52.81,30.74
		c26.3,20.76,54.63,28.01,78.75,11.13c22.58-15.8,28.85-41.83,29.94-47.56c14.07-73.62-48.63-150.79-87.22-154.13
		C172.5,26.86,137.81,28.86,83.22,106.51z"/>
	<g>
		<g>
			<path class="st87" d="M146.1,233.32c2.32,4.42,3.7,10.74,0.34,14.95c-1.14,1.43-2.67,2.37-4.23,3.05
				c-7.34,3.22-15.13,1.22-22.18-1.22c-6.17-2.14-12.47-4.76-16.64-10.16c-4.16-5.4-5.49-14.36-1.3-20.74
				C114.66,200.04,139.7,221.12,146.1,233.32z"/>
			
				<linearGradient id="SVGID_3_" gradientUnits="userSpaceOnUse" x1="14.2721" y1="1720.5669" x2="81.9036" y2="1807.9677" gradientTransform="matrix(0.9513 -0.3081 0.3081 0.9513 -299.9304 -1629.2688)">
				<stop  offset="8.379890e-03" style="stop-color:#7F3ED0"/>
				<stop  offset="0.4146" style="stop-color:#5E29A9"/>
				<stop  offset="0.7647" style="stop-color:#471A8D"/>
				<stop  offset="0.9693" style="stop-color:#3F1583"/>
			</linearGradient>
			<path style="fill:url(#SVGID_3_);" d="M271.29,54c2.65,5.71,7.01,10.9,12.86,13.21c5.86,2.31,13.29,1.15,17.25-3.75
				c2.68-3.32,3.47-7.73,5.06-11.7c2.44-6.1,6.84-11.21,9.71-17.12c2.87-5.91,3.93-13.53-0.16-18.66c-3.41-4.29-9.34-5.56-14.8-6.03
				c-6.94-0.6-14.15-0.32-20.51,2.51C264.78,19.52,264.92,40.3,271.29,54z"/>
		</g>
		<g>
			<path class="st89" d="M200.73,188.49L200.73,188.49c0.1-1.78,1.63-3.13,3.4-3.03l47.44,2.74c1.78,0.1,3.13,1.63,3.03,3.4l0,0
				c-0.1,1.78-1.63,3.13-3.4,3.03l-47.44-2.74C201.99,191.79,200.63,190.26,200.73,188.49z"/>
			<path class="st89" d="M210.8,203.62L210.8,203.62c0.1-1.78,1.63-3.13,3.4-3.03l47.44,2.74c1.78,0.1,3.13,1.63,3.03,3.4l0,0
				c-0.1,1.78-1.63,3.13-3.4,3.03l-47.44-2.74C212.06,206.92,210.7,205.39,210.8,203.62z"/>
			<path class="st89" d="M227.07,219.63L227.07,219.63c0.1-1.78,1.63-3.13,3.4-3.03l47.44,2.74c1.78,0.1,3.13,1.63,3.03,3.4l0,0
				c-0.1,1.78-1.63,3.13-3.4,3.03l-47.44-2.74C228.33,222.93,226.97,221.41,227.07,219.63z"/>
		</g>
		<g>
			<path class="st89" d="M73.35,143.78c0,4.02-3.26,7.28-7.28,7.28c-4.02,0-7.28-3.26-7.28-7.28c0-4.02,3.26-7.28,7.28-7.28
				C70.09,136.5,73.35,139.76,73.35,143.78z"/>
			<path class="st89" d="M301.2,103.21c0,4.02-3.26,7.28-7.28,7.28c-4.02,0-7.28-3.26-7.28-7.28c0-4.02,3.26-7.28,7.28-7.28
				C297.94,95.92,301.2,99.19,301.2,103.21z"/>
			<circle class="st89" cx="228.27" cy="56.49" r="15.5"/>
		</g>
	</g>
</g>
</svg>
